<svg xmlns="http://www.w3.org/2000/svg" xmlns:xlink="http://www.w3.org/1999/xlink" viewBox="0 0 380.54 380.54"><defs><style>.cls-1{fill:#aed2d2;}.cls-2{fill:#e47f57;}.cls-3{fill:#f7906a;}.cls-4{fill:#974610;}.cls-5{fill:#de5d43;}.cls-6{fill:#c94c3b;}.cls-7{fill:#110502;}.cls-8{fill:url(#linear-gradient);}.cls-9{fill:url(#linear-gradient-2);}.cls-10{fill:#fff;}.cls-11{fill:#3f0d00;}.cls-12{fill:url(#linear-gradient-3);}.cls-13{fill:url(#linear-gradient-4);}.cls-14{fill:url(#linear-gradient-5);}.cls-15{fill:url(#linear-gradient-6);}.cls-16{fill:url(#linear-gradient-7);}</style><linearGradient id="linear-gradient" x1="160.21" y1="158.82" x2="160.21" y2="167.92" gradientUnits="userSpaceOnUse"><stop offset="0" stop-color="#9d3f1e"/><stop offset="1" stop-color="#852a0d"/></linearGradient><linearGradient id="linear-gradient-2" x1="260.49" y1="161.4" x2="260.49" y2="169.68" xlink:href="#linear-gradient"/><linearGradient id="linear-gradient-3" x1="196.55" y1="57.42" x2="188.11" y2="122.32" gradientUnits="userSpaceOnUse"><stop offset="0" stop-color="#351209"/><stop offset="1" stop-color="#250d06"/></linearGradient><linearGradient id="linear-gradient-4" x1="206.16" y1="43.55" x2="188.49" y2="179.48" xlink:href="#linear-gradient-3"/><linearGradient id="linear-gradient-5" x1="206.14" y1="40.36" x2="190.66" y2="159.45" gradientUnits="userSpaceOnUse"><stop offset="0" stop-color="#4f1b0d"/><stop offset="1" stop-color="#280e07"/></linearGradient><linearGradient id="linear-gradient-6" x1="199.52" y1="60.4" x2="192.82" y2="111.96" gradientUnits="userSpaceOnUse"><stop offset="0" stop-color="#542012"/><stop offset="1" stop-color="#2d110a"/></linearGradient><linearGradient id="linear-gradient-7" x1="193.68" y1="21.7" x2="193.68" y2="143.27" gradientUnits="userSpaceOnUse"><stop offset="0" stop-color="#270a03"/><stop offset="1"/></linearGradient></defs><title>Asset 12</title><g id="Layer_2" data-name="Layer 2"><g id="Avatar_10"><circle class="cls-1" cx="190.27" cy="190.27" r="190.27" transform="translate(-12.54 367.11) rotate(-86.09)"/><path class="cls-1" d="M380.54,190.27C380.54,85.19,295.35,0,190.27,0S0,85.19,0,190.27A190.28,190.28,0,0,0,103.36,359.58c11.45-6.17,25.27-14.95,27.88-22.54,4.59-13.35,3.28-81.58,3.28-81.58l118.62,8.9s-7.87,51.91-.66,71.2c3.72,9.94,14.76,18.3,24.58,24.08A190.27,190.27,0,0,0,380.54,190.27Z"/><path class="cls-2" d="M252.48,335.56c-7.21-19.29.66-71.2.66-71.2l-118.62-8.9s1.31,68.23-3.28,81.58c-2.61,7.59-16.43,16.37-27.88,22.54a190.66,190.66,0,0,0,173.7.06C267.24,353.86,256.2,345.5,252.48,335.56Z"/><path class="cls-3" d="M291.4,190.44a70.1,70.1,0,0,0-3.55-7.88c2.48-7.94,8.88-29.47,6.69-33.85-2.69-5.38-1.35-30.95-7.63-37.68S277,92.18,259.55,94.43c-8.91,1.14-22.46,7-33.81,12.69-2.12-8-4.63-13.79-7.47-15.83C203.91,81,182.83,85.45,168.92,89s-32.75,23.78-45.76,38.59S109.25,169.8,112.39,177l.11.24A46.11,46.11,0,0,0,103,186c-13.91-.45-13,26-8.53,36.79,2,4.92,5.85,8.88,8.74,13.29,1.51,2.31,3.23,4.85,4,7.56,1.88,6.91,5.63,7.52,12,8.31,0,0,.89,10.32,6.73,18.85s30.06,41.27,60.57,57c0,0,11.66,7.63,33.2,6.73s24.67-5.84,32.75-17.95,14.35-22.88,22.88-43.52c7.33-17.75,10.68-28.2,10.61-43l.16,0c3.14-9.42,6.73-20.19,6.28-30.06A11.68,11.68,0,0,0,291.4,190.44Z"/><path class="cls-3" d="M203.46,305.74a57.52,57.52,0,0,0,14.81,2.7c8.52.44,18.84-2.7,18.84-2.7l4.49-3.14-.45,10.77a95,95,0,0,0-39.48,1.35S200.77,311.57,203.46,305.74Z"/><path class="cls-3" d="M235.32,177l17.5-2.24,22.43-11.22c.9-18.4-3.14-35.89-9-43.07s-23.77,1.35-46.65,1.35-53.39-7.63-61.92-2.7-14.35,39.48-14.35,39.48l22,16.16,29.61,3.14Z"/><path class="cls-3" d="M118.15,178.86a38.39,38.39,0,0,1-1.27,9.78l6.28,35L129,252.35l16.6,31.41-1.46,5.31c5.7,2.66,11.27,3.26,16.2,1.35,15.84-6.18,19-36.07,7-66.77C155.68,193.68,133.92,174,118.15,178.86Z"/><path class="cls-3" d="M250,221.63c-3.89,13.16-5.17,26-4.16,36.77,4.9,4.49,7.85,10.28,7.85,16.61a20.23,20.23,0,0,1-.72,5.34,18.51,18.51,0,0,0,9.67,7.21,16.66,16.66,0,0,0,5.07.66l2.14-8.05,10.76-26,4-13s2.24-12.57,0-19.74-1.34-31.86.9-34.1a17.84,17.84,0,0,0,2.54-4.27c-.09-.15-.17-.31-.26-.47.75-2.39,1.86-6,3-10.06C275.63,173.3,258.3,193.56,250,221.63Z"/><path class="cls-3" d="M140.2,261.77C132.58,250.56,124.05,221,124.05,221l-3.14.89s1.35,15.71-.45,23.33c-1.08,4.59-3.13,5.93-4.59,6.27,1,.18,2.08.32,3.25.46,0,0,.89,10.32,6.73,18.85,5.56,8.12,27.84,38.26,56.34,54.66-.5-.41-1-.84-1.61-1.27C160,308.44,147.83,273,140.2,261.77Zm145.37-37.68c-.9,22-8.08,29.16-15.26,50.25S247,324.14,247,324.14h0c1.72-2.15,3.4-4.68,5.38-7.64,8.07-12.11,14.35-22.88,22.88-43.52,7.19-17.42,10.55-27.81,10.61-42.23C285.57,227.43,285.57,224.09,285.57,224.09Z"/><path class="cls-3" d="M122.15,205.24s0-17.83,1.34-22.54a69.94,69.94,0,0,1,12.45-23.55c7.07-8.42,10.1-39.37,21.54-44.42s32,.33,38.36,1.68,27.59,5.72,47.78.34c0,0,18.84-5.39,25.23.33s10.77,27.26,9.09,47.79c0,0,5.05,6,5.72,8.75s1.68,13.12,1.68,13.12l6.06-38.36s1-23.56-2-26.92-9.76-17.84-11.1-18.51-34.66-8.41-37.35-8.41-38,1-51.82,1.34-27.59.34-36,2-21.87,9.76-28.6,16.83-12.79,32-12.79,37.35-4.37,32-4.37,32l10.77,8.41Z"/><path class="cls-3" d="M193.82,255.27s5.38-4.26,10.54-3.81a28.35,28.35,0,0,1,11.89,3.81c3.37,1.79,15.48,2.91,19.52-2.92,0,0,5.6-1.12,6.95,2.92,0,0-2.92,4-4.93,4.93,0,0-5.61,10.77-16.6,11s-24.9-11.89-24.9-11.89a4.81,4.81,0,0,1-2.92-3.14Z"/><path d="M202.12,254.37c2,5.61,10.09,3.59,10.09,3.59A16.12,16.12,0,0,0,202.12,254.37ZM234,255.94l-1.12,1.57-.45.9c4.94,0,5.16-2.69,5.16-2.69C236.22,254.82,234,255.94,234,255.94Z"/><path class="cls-3" d="M234.46,247.26a7.93,7.93,0,0,1-.34.82c-1.76,3.56-6.83,4.81-10.47,4.27-7.62-1.12-12.33-3.58-13.23-10.09s1.12-13.69.9-25.35-.9-20-.9-20l19.29.23s-.45,15.48-.45,23.33.9,13,1.8,14.8C232.88,239,236,243,234.46,247.26Z"/><path class="cls-3" d="M193.59,249.66c-.41,4.11,5.82-1.2,6.5-2,1.41-1.67,3.25-5.43,1.31-7.37-4.84-4.83-7.08,6.47-8,8.48Z"/><path class="cls-3" d="M243,251c-1.9,2.05-4.32-6.57-3.82-8.3.82-2.86,2.65-.85,3.36,1.12a17.83,17.83,0,0,1,.68,6.06Z"/><path class="cls-3" d="M194.91,243.14c1.74-4.69,6.73-7,9.18-11.24,3.19-5.5,3.25-13.91,3.86-20.15.82-8.38-2.25-11-10-7.6-4.18,1.81-7.44,4.84-10.8,7.82-3.9,3.46-6.67,9.72-7.47,14.82-.94,6.08,1.31,14,6.52,17.71,2.77,1.95,5.22,3.17,7.14,6C192.44,249.19,194.39,244.52,194.91,243.14Z"/><path class="cls-3" d="M243,243.61c-1.95-3.48-4.5-4.69-7.81-7s-3.45-4.74-3.81-8.52-.34-7.27-.72-11c-.51-4.92.22-11-.69-16.75-.42,1.53,2.84,5.84,3.74,7.06,1.89,2.52,4.31,4.21,6.6,6.34,3,2.75,6.47,5.61,8.57,9.19,4.78,8.12,2.64,17.55-4.55,23.5-.3.25-.6.5-.89.72Z"/><path class="cls-3" d="M209.52,235.75a25.84,25.84,0,0,1,21.54-1.57l.22-2.24a29.38,29.38,0,0,0-22.21,1.35Z"/><path class="cls-3" d="M143.12,196.72s-19.07-9.87-13.46-23.33c0,0,5.16-6.06,16.83-3.59S181,176.75,181,176.75l15.7-.89s2.7,22.66-10.76,28l-15-2Z"/><path class="cls-3" d="M237.56,204.12s-7.85-16.15-2.91-28.26l9.42,1.12,19.29-6.06,12.34-2.24,6.05,2.92,1.58,2s0,18.84-9.2,22.88Z"/><path class="cls-3" d="M119.12,231.27c-.9-4.49-4.49-7.18-6.29-10.77-4.48-8.53-3.58-20.19-9-27.82a6.67,6.67,0,0,0-9,2.7S92.65,215.12,98,222.74s11.67,15.71,13,17.5,6.28-.45,6.73-2.25S119.12,231.27,119.12,231.27Z"/><path class="cls-3" d="M284.22,218.25s1.8-15.7,6.73-20.63c0,0-1.79,19.74-4.48,25.57Z"/><path class="cls-3" d="M103.86,192.68a6.61,6.61,0,0,0-8.32,1.76l0,0s5.16-2,6.51,1.57,2.69,12.33.45,18.84a20.58,20.58,0,0,0,2.47-5.38,5.85,5.85,0,0,1,1.34,4.48s-1.79,5.39-3.81,6.06c0,0,4.93-2.24,5.61-1.57s2,6.06,2,6.06-4.93,3.14-2,7.62,9.42,3.82,10.76-.89c0-.14.08-.29.12-.44-1-4.22-4.44-6.86-6.18-10.33C108.35,212,109.25,200.31,103.86,192.68Z"/><path class="cls-3" d="M112.79,219.37c-2.21-4.6-2.91-9.83-4-14.77a52.17,52.17,0,0,0-1.88-6.85c-.55-1.52-1.44-4.44-3-5.19a6.87,6.87,0,0,0-9.08,2.79c0,.05.05.09.08.05a7.17,7.17,0,0,1,5.9-3.41c1.3,0,2.71.3,3.19,1.6.34.92,1,1.79,1.35,2.69a45.75,45.75,0,0,1,2.74,9.5c-.62,5.09-1.8,10.56-5.64,14.22-.07.06,0,.17.1.1,3.69-3.32,5.21-8.27,5.78-13.11l.39,1.95c.83,4,1.75,8.12,3.71,11.78s5.44,6.36,6.53,10.59c0,.18.31.1.28-.08C118.37,226.68,114.73,223.45,112.79,219.37Zm-5.27,7.77a7.19,7.19,0,0,0,3,8.77c.2.12.36-.18.18-.31a7.11,7.11,0,0,1-3-7.77c.9-3.17,4-4,6.9-3.28a0,0,0,0,0,0,0C111.86,223.31,108.69,224.18,107.52,227.14Zm-5-12c3-4.74,4.84-10.59,3.72-16.22,0-.18-.35-.14-.33,0a25.33,25.33,0,0,1-3.46,16.13S102.53,215.18,102.55,215.14Z"/><path class="cls-3" d="M292.77,198.81a11.58,11.58,0,0,0-1.29-8.42c-.06-.09-.21,0-.15.09a12,12,0,0,1,1.37,5.5,13.12,13.12,0,0,1-.32,2.72c-.31,1.51-.51.51-.51,1.74a55.51,55.51,0,0,1-.9,10,89.78,89.78,0,0,1-2.34,9.58c-.45,1.57-.94,3.13-1.44,4.69-.29.91-.64,1.83-.94,2.77a.61.61,0,0,0,0-.14c0-1.56.19-3.65-.27-5.14-.39-1.28-.67-2.6-.93-3.91-.07-.35-.12-.7-.18-1a10.68,10.68,0,0,0,.67-3.05c.12-.86.19-1.73.28-2.59.06-.51-.2-.86-.09-1.35a34.42,34.42,0,0,1,1.81-6.59,33.1,33.1,0,0,1,3.45-6s0-.06-.06,0a27.51,27.51,0,0,0-5.25,10.86c-.09.41-.12,2.12-.53,2.31s-.3.88-.34,1.2c-.12.93-.16,1.95-.32,2.93a62.94,62.94,0,0,1,.43-20.36c0-.3-.41-.44-.48-.13a58.78,58.78,0,0,0-.49,22.39l-.15.3a.5.5,0,0,0,.32.73c.08.43.16.85.25,1.28a37.92,37.92,0,0,1,.95,6,91.53,91.53,0,0,1-.19,12.72c-.73,8.34-3.11,16.38-6,24.21-3.5,9.46-7.48,18.78-11.87,27.86a206.35,206.35,0,0,1-11,19.9c-3.28,5.22-6.56,10.73-10.65,15.38-3.63,4.14-8.32,6.38-13.65,7.52a79.13,79.13,0,0,1-26.72.7,55.39,55.39,0,0,1-16.57-4.78A112.5,112.5,0,0,1,175.39,321c-13.58-9-25.44-20.63-36-33-8.88-10.38-18.84-21.86-20.07-36.06a.18.18,0,0,0-.18-.18c-3.25-.42-6.88-.76-9.28-3.25a11.3,11.3,0,0,1-2.41-4.95,23.66,23.66,0,0,0-3-6.26c-2.52-4-5.64-7.62-8.08-11.68a29,29,0,0,1-3.24-8.67,50.57,50.57,0,0,1-.73-18.43c.75-4.89,2.89-10.95,8.29-12.25A9,9,0,0,1,103,186a.06.06,0,0,0,0-.11c-11.62-.32-12.27,16-11.66,24.13C91.75,216,93,221.87,96.2,227c2.5,4,5.66,7.62,8.21,11.62a30.7,30.7,0,0,1,2.9,6.46,10.82,10.82,0,0,0,2.19,3.77c1.86,2.06,4.79,2.61,7.41,3,.26,0,2,.33,2,.12,0,.16,0,.33,0,.5.12,1,.3,2,.49,3a45.56,45.56,0,0,0,7.85,17.77A223.62,223.62,0,0,0,151.4,301.4a171.54,171.54,0,0,0,18.72,16.28,169.25,169.25,0,0,0,16.74,10.6c11.1,6.44,25.18,7.27,37.64,6.29,5.89-.46,12.08-1.45,17.11-4.76,4.21-2.76,7.09-7.08,9.85-11.18,4-5.89,7.78-11.87,11.24-18.07a247.59,247.59,0,0,0,11.41-23.74c6-14.07,11.65-28.37,12.14-43.83,0-.94,0-1.88,0-2.82l0-.06c1.61-2.93,2.37-6.64,3.31-9.84a88.36,88.36,0,0,0,2.5-10.79c.27-1.63.45-3.27.57-4.92,0-.78.07-1.57.08-2.36A18.31,18.31,0,0,1,292.77,198.81Z"/><path class="cls-4" d="M196.73,259.3c-.64-.43-2.82-1.61-2.61-2.6.15-.68-.41-2-.5-2.71-.57-4.25.57-8.41,2-12.38,0-.11-.14-.19-.19-.08-1.88,3.87-3.33,8.78-2.67,13.12.08.56.11,1.87.57,2.26.77.67,1.61,1.28,2.42,1.9a29,29,0,0,0,6.49,3.66s.05,0,0,0A49.1,49.1,0,0,1,196.73,259.3Zm9.85-4.5c-3.11-1-7-1-9.09,1.91,0,0,0,.07.06,0,4.78-5.26,13.54.34,17.69,3.79.13.11.37,0,.25-.19C213.47,257.57,209.76,255.81,206.58,254.8Zm24.95-22.09a14,14,0,0,0,1.34,3.28c1.43,3.28,3.24,6.35,3.62,10,0,.08.13.08.12,0a23.31,23.31,0,0,0-2.37-7.52c-.66-1.43-1.64-3-1.64-4.59a34.28,34.28,0,0,0-.84-5.08,148.25,148.25,0,0,1-1.22-21.17,0,0,0,0,0-.09,0,200.56,200.56,0,0,0,.49,20.66C231.07,229.75,231.28,231.24,231.53,232.71Zm7.11,24a3.44,3.44,0,0,0-3.61-1.42,14,14,0,0,0,1.64-8.3.12.12,0,0,0-.23,0c-.39,3.28-1,6.2-2.66,8.73a3.9,3.9,0,0,0-.35.19.18.18,0,0,0,0,.3,12.39,12.39,0,0,1-2,2.16c-3.8,3.21-10.69,4.21-15.37,2.73a0,0,0,0,0,0,0,15.25,15.25,0,0,0,8.09.67c2.49-.37,5.52-1,7.52-2.56a13.39,13.39,0,0,0,3.09-3.44,3.72,3.72,0,0,1,3.79,1C238.58,256.84,238.69,256.77,238.64,256.69Zm3.41-15.17c-.08-.11-.28-.05-.24.1a24.19,24.19,0,0,1,1.07,9,24.59,24.59,0,0,1-.75,4.58c-.56,2.17-3,3.73-4.61,5.16-.05,0,0,.13.07.09.88-.63,1.76-1.25,2.61-1.92.64-.51,2.11-1.28,2.49-1.93.74-1.26.82-3.17,1-4.6C244,248.89,244.07,244.19,242.05,241.52Z"/><path class="cls-5" d="M185.41,285s12.78,16.15,26.58,20.19a52.6,52.6,0,0,0,9.95.62,46.55,46.55,0,0,0,9.11-1c7.06-1.55,9.65-5.45,12.23-11.73,2.36-5.72,7.41-11.11,7.41-11.11l-16.16,2.36s-14.8-.67-16.15-.34S185.41,285,185.41,285Z"/><path class="cls-5" d="M227,301.83c-6.39.94-11,1.13-17.14-1-3.7-1.25-8.73-3.46-9.65-7.74,5.72-.4,11.33.8,17,.9,6.64.12,15.51-.12,21.94-1.94a22.5,22.5,0,0,1-1.5,5.37C235,300.8,230.93,301.26,227,301.83Z"/><path class="cls-6" d="M234.53,284.32s-14.8-.67-16.15-.34-33,1-33,1a75.54,75.54,0,0,0,5.11,5.67l.27,0s17.5-.33,25.57.34,12.45.67,17.84-1.68c0,0,7.71-.27,10.6.62a48.18,48.18,0,0,1,5.89-8Z"/><path class="cls-6" d="M234.53,284.32s-14.8-.67-16.15-.34-33,1-33,1a75.54,75.54,0,0,0,5.11,5.67l.27,0s17.5-.33,25.57.34,12.45.67,17.84-1.68c0,0,7.71-.27,10.6.62a48.18,48.18,0,0,1,5.89-8Z"/><path class="cls-6" d="M214,303.5c-3.7-.34-11.44-3.36-11.44-3.36l-.24.38a36.58,36.58,0,0,0,9.66,4.66,52.6,52.6,0,0,0,9.95.62,46.55,46.55,0,0,0,9.11-1c4.77-1,7.49-3.17,9.56-6.37-1.33.85-2.86,1.78-4.06,2.38C233.86,302.15,217.71,303.84,214,303.5Z"/><path class="cls-6" d="M234.53,284.32s-14.8-.67-16.15-.34-33,1-33,1a75.54,75.54,0,0,0,5.11,5.67l.27,0s17.5-.33,25.57.34,12.45.67,17.84-1.68c0,0,7.71-.27,10.6.62a48.18,48.18,0,0,1,5.89-8Z"/><path class="cls-5" d="M214,303.5c-3.7-.34-11.44-3.36-11.44-3.36l-.24.38a36.58,36.58,0,0,0,9.66,4.66,52.6,52.6,0,0,0,9.95.62,46.55,46.55,0,0,0,9.11-1c4.77-1,7.49-3.17,9.56-6.37-1.33.85-2.86,1.78-4.06,2.38C233.86,302.15,217.71,303.84,214,303.5Z"/><path class="cls-6" d="M257.08,277.25a23.48,23.48,0,0,1-11.78,3c-7.06,0-8.75-2.69-12.45-3s-7.4,2.69-7.4,2.69a20.46,20.46,0,0,0-8.41-1.68c-5,0-20.19,4.71-26.25,5.39s-13.46-3.37-13.46-3.37c11.78,10.1,26.92,6.06,41,8.75l.31,0,.37.37c3.92,1.81,7.85.63,11.05-1.57l1.06-.12C240.93,287.68,248.33,285.66,257.08,277.25Z"/><path class="cls-6" d="M218.42,288.9c-3.08-1-6.75-1-10-1.21-3.48-.2-7-.29-10.45-.57-7.38-.59-14.69-2.2-20.66-6.85,0,0,0,0,0,0C182.6,285.06,189,287,196,287.73c3.62.37,7.28.38,10.92.49q2.9.09,5.78.31c1.92.14,3.82.57,5.73.64C218.54,289.17,218.55,289,218.42,288.9Zm12.68-2c-3.73,2.12-7.73,4.13-12,2.45,0,0,0,0,0,0a10.63,10.63,0,0,0,5.74,1.11,11.66,11.66,0,0,0,6.48-3.4A.13.13,0,0,0,231.1,286.9ZM257,277.16a40,40,0,0,1-18.69,9.94,42.5,42.5,0,0,1-7.13.56,0,0,0,1,0,0,0c4.46.08,9.23-.13,13.45-1.66,4.77-1.72,8.94-5.23,12.55-8.69A.13.13,0,0,0,257,277.16Z"/><path class="cls-7" d="M129.21,174s6.4-5.38,19.86-1.68,28.26,7.07,28.26,7.07,12.79,1,19.52-3.37l.33-2s2-1.68,3-2.69c0,0-8.75,3.7-15.48,2.69s-26.92-8.41-30.62-11.78c0,0-8.07-3.36-11.78-3.36,0,0,0,2.69-1,3S131.23,168.9,129.21,174Z"/><path class="cls-7" d="M283.66,174s-4.64-5.38-14.4-1.68-20.49,7.07-20.49,7.07-9.27,1-14.15-3.37l-.24-2s-1.47-1.68-2.2-2.69c0,0,6.34,3.7,11.22,2.69s19.52-8.41,22.21-11.78c0,0,5.85-3.36,8.54-3.36,0,0,0,2.69.73,3S282.2,168.9,283.66,174Z"/><path class="cls-8" d="M142.35,190.11c4.53-5.11,11.77-7.2,18.37-7.38a34.92,34.92,0,0,1,9.44,1.08,72.56,72.56,0,0,1,7.82,3c.09,0,.18-.1.1-.16-2.14-1.68-5.25-2.54-7.82-3.24a40,40,0,0,0-10-1.45,25.82,25.82,0,0,0-10.1,1.85,18.87,18.87,0,0,0-7.88,6.26s0,0,0,0Z"/><path class="cls-9" d="M247.67,185.07c4.24-1.8,9.21-2.09,13.76-1.77,4.72.34,9.61,1.91,11.71,6.52.05.12.22,0,.19-.08-1-4.92-6.37-6.63-10.78-7.12a29.33,29.33,0,0,0-14.9,2.42s0,0,0,0Z"/><path d="M143,196.5s3.33-10.77,20.52-10.77A21.58,21.58,0,0,1,184.4,200.2Z"/><path class="cls-10" d="M144.69,198.85c6.39,10.43,24.56,12.45,36.34,5.39h4.38l-1.35-3.71c-6.39-15.47-29.95-15.47-40.71-4Z"/><path class="cls-11" d="M176.2,195.84a12.55,12.55,0,0,0-.95-4.79c-6.77-3.5-15.67-3.49-23.09-.47a12.57,12.57,0,0,0,8.44,17.49,31.28,31.28,0,0,0,4,.32A12.6,12.6,0,0,0,176.2,195.84Z"/><path class="cls-11" d="M163.6,207a11.13,11.13,0,0,0,9.55-16.88,28.77,28.77,0,0,0-18.94-.27A11.14,11.14,0,0,0,163.6,207Z"/><path d="M170.18,195.84a6.58,6.58,0,1,1-6.58-6.57A6.58,6.58,0,0,1,170.18,195.84Z"/><path d="M168.25,195.84a4.65,4.65,0,1,1-4.65-4.64A4.65,4.65,0,0,1,168.25,195.84Z"/><path class="cls-10" d="M160.9,190.38a2.7,2.7,0,1,0,4.55-1.95,30.29,30.29,0,0,0-3.69,0A2.68,2.68,0,0,0,160.9,190.38Z"/><path d="M143.38,196.53c5.67-5.43,13.83-8,21.58-7.72A24.54,24.54,0,0,1,176.19,192c3.65,2.09,5.66,5.15,7.74,8.66a.15.15,0,0,0,.27-.12c-1-3.6-4-6.68-7.06-8.71A24,24,0,0,0,165.73,188c-8.23-.74-16.93,2.16-22.42,8.42,0,0,0,.11.07.07Z"/><path class="cls-3" d="M144.66,198.87c3.33,5.67,9.89,8.44,16.15,9.35,6.65.95,14.61-.05,20.26-3.92.09-.05,0-.18-.08-.13A34.41,34.41,0,0,1,161.28,208c-6.51-.74-12.82-3.68-16.56-9.21,0,0-.09,0-.06,0Z"/><path d="M273.9,196.5s-2.86-10.77-17.59-10.77c-14.13,0-17.88,14.47-17.88,14.47Z"/><path class="cls-10" d="M272.46,198.85c-5.48,10.43-21,12.45-31.15,5.39h-3.75l1.15-3.71c5.48-15.47,25.68-15.47,34.9-4Z"/><path class="cls-11" d="M264.48,195.84a13.82,13.82,0,0,0-1.6-6.49c-7.3-2.21-15.51-.75-20.61,5a13.94,13.94,0,0,0-.08,1.45c0,5.8,3.47,10.67,8.19,12.14a24.22,24.22,0,0,0,3.89.41C260,207.85,264.48,202.45,264.48,195.84Z"/><path class="cls-11" d="M253.34,207c5.44,0,9.86-5,9.86-11.15a12.07,12.07,0,0,0-2.17-7c-6.08-1.3-12.54-.1-17.18,4a12.41,12.41,0,0,0-.38,3C243.47,202,247.89,207,253.34,207Z"/><path d="M259.16,195.84c0,3.64-2.61,6.58-5.82,6.58s-5.82-2.94-5.82-6.58,2.6-6.57,5.82-6.57S259.16,192.21,259.16,195.84Z"/><path d="M257.45,195.84a4.14,4.14,0,1,1-4.11-4.64A4.4,4.4,0,0,1,257.45,195.84Z"/><path class="cls-10" d="M253.34,193.08a2.56,2.56,0,0,0,2.38-2.7,2.84,2.84,0,0,0-.77-2,20.28,20.28,0,0,0-3.64.57,3,3,0,0,0-.36,1.4A2.56,2.56,0,0,0,253.34,193.08Z"/><path d="M273.59,196.53a23.61,23.61,0,0,0-18.5-7.72,18.85,18.85,0,0,0-9.63,3.14c-3.13,2.09-4.85,5.15-6.64,8.66-.07.14-.26,0-.23-.12a16.63,16.63,0,0,1,6.06-8.71,18.62,18.62,0,0,1,9.78-3.74,21.31,21.31,0,0,1,19.21,8.42s0,.11-.05.07Z"/><path class="cls-3" d="M272.49,198.87c-2.86,5.67-8.48,8.44-13.85,9.35-5.69.95-12.52-.05-17.36-3.92-.07-.05,0-.18.07-.13,5.35,3.12,10.89,4.67,16.89,3.87a18.94,18.94,0,0,0,14.19-9.21,0,0,0,0,1,.06,0Z"/><path class="cls-12" d="M132.13,71.55a13.42,13.42,0,0,1,4-.52c-.83-3.6,3.67-4.54,5.55-6.66,3.62-4.09,4-4.67,9.77-2.82,1.78.58,4.37,2.31,6.28,2,3.43-.54,1.14-1.69,2.69-4.14s0-1.51,3.14-2.24c1.8-.41,3.76.6,5.29-.54.72-.54,1-3.12,1.77-4a7.73,7.73,0,0,1,5-3.06c7.83-2,14.35,2,21.21,4.86,5.71,2.4,6.15-.61,11.1-1.29,4.52-.62,7.52,4.79,11.23,5.42,3.1.54,3.94-1.08,5.46-4,2.17.25,1.69,2.47,3.41,3.08,2.08.73,1,.08,2.88-.35,5.21-1.15,7-3.05,12.36.78,3.87,2.74,4.87,11.62,8.63,12.57,4.6,1.16,5.59-5.82,9.1-1.81,3.17,3.62.14,4.09,5.26,5.84,4.44,1.51,4.87,1.82,4.38,6.28-.54,5-1.17,4.62,4.6,5.83,5.1,1.07,4,.6,3.67,5.75,1,.42,4.57,1.18,5,2.21.77,1.86-4.41,4.67-.26,5.51a7.44,7.44,0,0,1-2.49-.08c0-5.42-4-5.1-8.08-4,1.78-3.85-3.25-4.81-5.9-5.78-5.17-1.9-3.51-.56-1.89-5.82,3.86-12.51-11.61-.63-12.54-6.21-3.54-.6-5.07,3.66-6.65-.52-1.17-3.1,1.9-5.86-1.34-8.45-6.48-5.17-14.15,5.34-18.76.35-2.62-2.83-5.59-11.93-11.76-9.33-2.23.94-3.57,5.8-5.83,7.46-2.61,1.91-5.37,2.51-7.19,5-.72-2.48-.47-7.35-3.14-8.82-1.79-1-2.61.57-4,.26-1.68-.37-2.84-1.34-4.48-2.05-2.77-1.2-8.34-3.43-11.22-1.46-3.48,2.39,1.6,6.4-.91,8.58-3.29-2.77-16.34-5.5-13.52,2.56-4.26-.36-8.74-4.09-13.39-3.06-5.69,1.26-4,5.18-.94,8.43-2.93.46-7.79-.05-10.29,1.75-1.35,1-.37,2.68-1.76,3.63s-4.13.71-5.73,1.09c-2.72.65-9.1,1.83-10,5.26-.61,2.3,2,5.55,2.66,7.56-3.22,1.54-6.36,5.7-3.22,8.55-4.82-.88-14.9.33-9.79,7.59-4.58,1.78-12.24,3.28-15.6,6.64,3.67-.84,15.06-8.93,8.07-12,2.93-1.47.91-3.49-.44-5.2,3.87-1,10.76-1.75,13.32-5.43,3-4.38-2.78-9.47-.39-13.51,1.29-2.17,2.74-.75,4.17-2.09s1.15-3.38,3-4.18c2.64-1.12,9.36,1.73,6.72-4.93Z"/><path class="cls-13" d="M84.81,95.39a6.45,6.45,0,0,0-1,.78C84.18,95.92,84.5,95.66,84.81,95.39Zm50.89,43.94c-.45-.33-.83-.6-.74-1.07-4.33-.06-10,1.09-15,1.48-5.35.42-10.09-1.45-15.15-2.23a30.1,30.1,0,0,0-4.6-.42c2.51-1.58,4.76-3.83,7.2-5.43,7.66-5,17.56-5.2,26-8.07l-3.58.45c-2.25-.64-4.61.87-7.09,1.24s-4.91-.27-7.28.11c-5.59.88-9.45,5.42-14.35,8-2.12,1.11-5.1,2.92-7.63,2.37-1.8-.4-2.76-2.6-4.37-2.83-3.58-.52-6.6,4.23-7.55,7.59,3.67-5.34,7.17-2.18,11.92-1.62h.08c-.44.26-.87.55-1.32.88-2.73,2-5.6,4.8-8.79,6.63a7.2,7.2,0,0,1,.85,2.22c3.8-2.71,7.89-5.36,11.78-7.62,4.38-2.55,8.93-.61,14-.34,5.74.3,11.37-1.63,16.59,1.32,1.34.76,3.08,2.72,4.81,4.18-2.16,2.18-4.12,4.19-7.38,4.59-4.86.61-7.9.18-12.45,2.28-8.21,3.78-13.4,6.41-21.78,1.8-1.28,2.71-2.79,4.74-3.66,7.32a6.84,6.84,0,0,0,1,.94,5.67,5.67,0,0,1,.45-2.69l2.25-.45s4.25,4.65,5.94,8.55c-.56-3.48-1.3-7.12,1.68-8.91,3.41-2.06,8.42-1.38,12.13-3.19,4.14-2,6.94-4,11.84-4,2.32,0,6,.55,7.78,2.52a34.11,34.11,0,0,0,4.14-4.88l-4,1.35,1.34-1.8C135.15,146.7,134.79,143.19,135.7,139.33ZM117.32,98.56c-5.64-2-11.35-2.1-17-4.25-2.72-1-6.89-3-9.87-2.57-2.45.38-3.81,2.11-5.59,3.65,4.76-3.12,12.41.83,16.8,2.53,4.84,1.87,10.29.88,15.26,2.44,8.7,2.73,15.91,11.79,25.41,13.19a29.18,29.18,0,0,1,2-2.22,52.68,52.68,0,0,1-11.54-3.43C127.23,105.47,123.08,100.61,117.32,98.56ZM288.26,97c3.49-2,6.2-4,3.1-8.27,3,5.66-15.44,15.87-20.08,15,.17-2.49,5.46-6.18,7.46-7.66,3.61-2.65,7.11-8.23,11.28-9.43a13,13,0,0,0-3.94-2.09c-.25,5.4-9.69,5.09-12.17,9-1.74,2.73-1.56,5.08-4.14,7.61-3.15,3.06-7.23,4.14-11.12,5.83l.45.9c3.7-1.09,5.79-2.35,9.87-2.7,3.52-.3,7.63-.66,10.78-2.23C282.69,101.5,285.37,98.72,288.26,97Zm12.95,23c-.27-2.11-.6-4.26-.81-6.39-1.95,5-4.76,11.39-10.37,11.75-3.22.2-6.44-2.27-5.82-5.86s5.06-5.1,7.29-7.5c2-2.17,3.1-4.9,5.45-6.65a3.49,3.49,0,0,0-1.06-.65c.19-.29.37-.57.54-.85a8.48,8.48,0,0,0-1.35-.43c-2.41,4.84-6.16,6.62-9.62,10.13-1.76,1.77-2.08,4.13-4.83,5a6.32,6.32,0,0,1-2.5.08,22,22,0,0,1,3.85,5l-.9,2.24c0,.12.06.23.08.35a57.94,57.94,0,0,0,6.65-.25C293.76,125.4,296.72,122.49,301.21,120.05ZM146.93,88c-6.31.77-11.2,7.69-17,8.19-5.66.49-8.78-7.47-10.66-11.67-2.61-5.84-4.64-6.33-10.72-7.56,6.58,3.74,8.56,7.54,11.39,13.84,2.7,6,6.9,9.06,13.12,6.19,5.72-2.64,9.87-6,16.16-3.85a53.48,53.48,0,0,1,15.7,8.87l-4-6.28C155.54,93.42,153.63,87.21,146.93,88ZM266.72,85.8c3.26-2.24,6.28-4.28,7.74-8s.58-9.71,6.12-10.4c-.74-2.41-2.23-4.91-3.1-7.42.08,4.41-3.09,7.45-5,11-1.82,3.29-1.5,7.09-3.46,10.44-2.88,4.92-8.47,8-12.58,11.78-4.59,4.17-2.38,6.3-4.49,11.55l2.24.89c.76-2,2.31-3.81,3-5.85s.12-3.65.66-5.71C258.91,90.05,263.66,87.91,266.72,85.8ZM118.28,180.39a20.22,20.22,0,0,1-2.73.53c-2.47.24-5.92-1.41-7.75-1.15-2.64.38-4.51,3.45-7.16,4.74a16.71,16.71,0,0,1-1.67.7c-.09.6-.18,1.11-.27,1.52,4.26-.55,6.28-2.86,10.54-4.38,3.69-1.32,6.64.1,9.61,1.87-.37-2.22-.63-3.65-.63-3.65ZM166.13,53.15c-5.32-3.86-10-8-15.16-12.14l-1.49-1.2c-2.37.67-4.79,1.17-6.14,1.68,2.7,1.34,5.84,2.24,8.53,4l1.79,1.35c-1.72-.25-3.95-.66-6.4-1.07l1.92,2c6.9,2,14.33,7.9,20.19,12,7,4.93,13.22,12.6,14.36,21.53,0-4.91-.38-12.44-3.23-16.37C177.53,60.85,170.22,56.13,166.13,53.15Zm28.7,43.15a6.85,6.85,0,0,0,.57,3.13A18.26,18.26,0,0,1,194.83,96.3ZM294,156.35c-3.8.18-5.55.13-7.63,1,.07.94.13,1.88.18,2.8,3.14-1.14,6.31-2.37,8.49-2.6,3.21-.35,6-.06,8.21-.77a5.74,5.74,0,0,0,3.64-3.49,12.66,12.66,0,0,0,.73-2.25C305.16,155.42,298.41,156.14,294,156.35Zm-172.14-52c-5.11-2-11-1.35-16.52-1.35-4.66,0-9.35.19-14,0-5.45-.22-8.43-2-9.36,4a18.25,18.25,0,0,1,5-.56l.49,0c3.49.14,6.74,1,10.59,1.07,4.86,0,9.49-2,14.36-2.25a17.49,17.49,0,0,1,13.11,4.37c3.7,3.07,6.46,8,12,7.3l-4.93-2.69C128.49,111.14,127,106.32,121.83,104.3Zm49.44-28.38c-1.43-5.14-1.7-4-6.39-5.38-3.63-1.08-4.32-2.92-6.39-5.74-5.61-7.6-23.43-25.81-31.24-13.08,12.51-4.9,24.59,5.5,30.57,15.34,3,5,7.69,4.28,11,8.17,2.42,2.87,3,7.1,3.79,11.12a24.41,24.41,0,0,0-8.6-9.78c-5.15-3.3-10.76-.41-17-2.46-7.85-2.58-23.23-6.86-27.35-14.57a19.13,19.13,0,0,0-.57,3.27l-.06.58c-.09.76-.17,1.52-.31,2.24,6.14,1.6,10,8.43,17,10a126.13,126.13,0,0,0,18.84,2.33c15,.91,12.78,12,21.54,20.53L175.46,95l.64,1.69A198.46,198.46,0,0,0,171.27,75.92Zm12.45-32.53c-5.05-2.34-5.07-2.8-6.28-8.18A10.66,10.66,0,0,0,175.61,31c-5.06.51-8.41,1.82-8,4.69l-1.34.45c-.73-.27-1.43-.49-2.12-.7l.32,1.6c2.61,5.9,11.6,7.56,17,9.42,7.32,2.5,14.85,7,18.06,14.26,5.13,11.64-5.88,23.34-4.71,35.62C194.81,91,197.3,82,199,78.7s4.42-4.75,5.39-8c.92-3.1,1.11-8.62-.09-11.67C201.35,51.57,190.42,46.5,183.72,43.39ZM222,46c-1.36-3.72.05-7.58-1.8-11.21A10.45,10.45,0,0,0,217.29,31a5.26,5.26,0,0,0-1.87-.88,5.06,5.06,0,0,0-1.57-.12,9.46,9.46,0,0,0-3.5,1l.11.08c2.78,1.83,6.26,4.17,7,7.66.87,4-1.35,5.56,1.66,9.09,2,2.28,5.13,3.11,6.21,6.18,1,2.88-.17,7.49-1.57,10-1.86,3.28-4.76,5.31-6.85,8.42-2.82,4.18-1.86,6.08-1,10.32,1.49,7.35-9.33,21.87-4.39,27.37l-.45,2.69a13.33,13.33,0,0,0,.92-2.22c1.1-3.69,2.18-7.44,3.11-11.24,1.07-4.38,4.31-6.89,5.74-11.2,1.73-5.21-2.81-5.8-2.61-10.78.16-4.06,4.85-7.37,6.65-10.77a18.55,18.55,0,0,0,1.89-10.77C226.3,51.37,223.46,50,222,46Zm73,103.29c2.85-.91,5.81-1.19,8.42-2.89,2.15-1.4,3.7-3.45,5.95-4.4a8,8,0,0,0-.46-3.13,16.77,16.77,0,0,1-3.14,2.7c2.32-3.8,2.45-6.11,1.72-8.28-2.62,4.71-4.12,9.54-8.9,12.67-2.29,1.5-10,5.61-9.87.09.08-2.6,2.47-1.86,3.5-3.23s1.4-3.26,2.33-4.84a34,34,0,0,1,7.15-8,4.41,4.41,0,0,0-.61-.46l-.13-.07a9.7,9.7,0,0,0-2.28-.87,55.83,55.83,0,0,1-8.5,13.07c-1.49,1.7-2.88,2.58-4.16,4.37a8.4,8.4,0,0,0-.78,1.35c.44,3.11.8,6.25,1.06,9.33C289.32,153.62,292.41,150.09,295,149.26ZM257.3,77.37c3.94-1.47,5.15-.35,8.19-3.12A48.51,48.51,0,0,0,272,67.48c2.17-3,6.05-13.52.62-14.74,1.33,6.86-.07,14.77-6.36,19.15-6,4.18-12.31-4.91-8-10.22-3-7.18.52-13.83,8.87-11.29-1.76-.89-4.59-1.16-6.47-2.6,2.3-4.69-.72-7.59-4.67-8.27a11,11,0,0,0-1.53-.15,10.62,10.62,0,0,0-4.65.91c5.17,1.36,7.06,8.06,1.26,10.31,4.2,4.71,6.51,17.9,3.66,24.22-2.64,5.84-8.52,12.45-11.05,19.27.06-.75.15-1.52.28-2.34.9-5.57,3.48-10.72,4.83-16.15A44.88,44.88,0,0,0,249.69,58a43.87,43.87,0,0,0-3.49-11.24c-1.42-3.07-4.26-5.62-3.77-9.24-2.9,1.31-4.83.87-8,.13,4,3.22,1.11,7.54,3,11.15.83,1.61,3.79,2.82,5,4.35A23.28,23.28,0,0,1,247,61.57c2.27,8.33-1,16-4,23.44s-3.46,11.25-1.81,18.84l2.37,2.07.32,1.52c.1-.32.19-.66.28-1l.62.55c-.09-.66-.19-1.3-.29-1.92,1-4.2,1.88-9.35,4-13.69C250.83,86.47,251.84,79.4,257.3,77.37Z"/><path class="cls-14" d="M298.13,168.46l.9-.9c4.93-3.59,1.79-7.18,4.48-11.22s8.08-3.59,7.63-9.87c-1.35.9-3.14,1.8-4,3.14,1.35-3.14,3.14-7.18,1.8-10.77a16.77,16.77,0,0,1-3.14,2.7c4.93-8.08,0-9.43-2.25-17a12.07,12.07,0,0,1-2.69,5.38c2.25-6.28-1.34-14.81-.45-22-1.79-.45-3.14-2.7-4.48-3.14,5.83-8.53-.9-15.71-6.73-22a14.22,14.22,0,0,1-2.69,1.8c2.24-8.53,3.14-9.87-4-16.6l-1.8-1.35c.45-6.73-2.69-13.46-8.52-16.15-4-1.8-5.84,0-8.53-4.49-1.34-2.24,1.35-3.59,2.69-3.59-5.83-3.14-10.76-2.69-17-3.59-4.49-.89-8.53-3.14-13-4.48a6.28,6.28,0,0,1,1.34,1.79l-.89.45c-1.8-1.79-3.59-2.69-2.25-4.93-4.48-.9-11.66-3.14-14.36.89-1.79-1.34-4-1.79-5.83-3.14-1.34,5.84-48-4-46.66,6.28l-1.34.45a27.94,27.94,0,0,0-10.32-1.79c2.24,4.48-9,5.83-12.57,7.18,2.7,1.34,5.84,2.24,8.53,4l1.79,1.35c-6.28-.9-19.29-4-25.12-.9-6.28,3.14-7.63,13.46-16.15,14.36A16.32,16.32,0,0,1,120,63.47c-10.31-.9-13.9-.45-20.18,9.42,4-2.69,9.42-.45,11.66,3.59-8.07.45-14.81-2.24-20.19,5.38a11.62,11.62,0,0,1,7.63-4l.9,1.34c-12.57,6.28-20.19,20.64-22,33.65,1.8-3.59,5.83-5.38,9.87-6.73C81.43,112.37,73.8,120,76.94,130.32h.45c0-4,2.69-8.52,6.73-10.77l.9.9c-4.48,4.93-10.77,21.53-4,26a2.67,2.67,0,0,1,.45-1.79h.45c5.6,3.87,0,13.12,4.75,17.82-1.5-4.28.46-8.37.18-12.89-.33-5.36-2.89-8.63-.51-14.31a35.72,35.72,0,0,0-5.68,5.29c-.55-8.42,4-20.11,12.77-22.86a31.32,31.32,0,0,0-9.56,1,31.88,31.88,0,0,1,16.71-13c-3.91-2.55-12.18-.73-16.82-1,4.15-10.4,12.39-22,24.92-21.44-2.09-1.07-4.42-2.19-6.41-3.29,4.57-2.12,10.49-1.47,15,.5-2.93-4.51-4.45-10-9.34-12.38,6-1.75,14.52-1.81,19.64,2.06-.81-2.93-5.44-6.81-5.67-9.45-.24-2.87,5.32-7.51,7.65-9.21,9.1-6.65,23-3.38,32.5,1.19-1.83-2-3.3-4.12-4.92-6.23-2.17-2.81-4.14-3.5-.88-6,4.28-3.25,12.67.05,17.11,1.75-1.33-1.87-3.15-3.53-2.59-6,9.95-3,18.56-.54,28.65-.53,4.68,0,9.11-2.59,13.11-2.59s8.51,5,5.34,8.69c4.64-2.85,4.37-8.4,11.53-8.26,1.89,4.2,8.65,5.66,8.25,11.55,3.7-5.17,7.31-4.54,13.81-3.57,1.51.23,6.28.42,7.09,1.9,1.47,2.71-2.18,6.1-4.24,7.11,6.14-1.32,13.18-.4,18.23,3.57,6.4,5,4.16,10.82,1.88,17,5.57-3.46,7.83-.71,8.91,5,1.45,7.67-4.88,6.17-8,11.59,5.7-.76,10.66-2.36,15.32,2.64,3.81,4.11,4.55,10.62.05,14.51,7.85.11,6,6.6,6.57,12.09.57,6,2.16,10.48.53,16.54,2.09-1,4.93-2.11,6.33-3.91.17-.17.17-.16,0,0-2.35,4.37-.52,10.83-4.93,14.75a8.84,8.84,0,0,0,6.05-1.76c-.16,5.33-3.88,5.91-6.05,9.83,1.19-.29,2.26,0,3.35-.42-.56,1.55-2,2.63-2.72,4.33-.83,1.89,0,3.55-.31,5-.76,3.29-3.21,5.71-4.38,9a55.72,55.72,0,0,0-2.81,8.83,16.76,16.76,0,0,1,.44-1.65C293.64,174.74,296.78,171.15,298.13,168.46Z"/><path class="cls-15" d="M109.7,108.34c-2-3.5-2.7-3.93,1-5.71a15.9,15.9,0,0,0,6.05-4.39,9.72,9.72,0,0,0,2-6.73,27.24,27.24,0,0,1,0-4c.37-2.3.73-1.77,1.71-3.62,2-3.85,2-3.26,6.38-3.52,3.74-.22,4.5-2.17,7.3-4,3.7-2.49,3.17-2.25,5.05-6.57a9.54,9.54,0,0,1,9.51-5.8c3.67.24,6.56,1.34,10.35.61s5.13-3.11,7.75-4.57c1.85-1,4.77-1.76,6.89-3.71,4.17-3.82,5.71-4.52,11.75-3,5.41,1.33,10.42,5.16,15.84,6,3.35.52,5.48-1.66,8-1.76,4.63-.19,15,7.31,18.09,3.14,3.14,3.28,5.45.32,8.84-.31,4.13-.78,6,2.52,8.4,5.39a23.61,23.61,0,0,0,8.77,6.91,15.49,15.49,0,0,0,3.35,1c.3.07,1.51-.71,1.67-.64.76.35.86,1.66,1,1.72,1.91.94,5.52,1.08,7.17,3,2.43,2.85-.24,6.18,1.86,9.09,1.92,2.66,5.53,1.48,7.75,3.1.63.45,1.05,2.13,1.75,2.88,1,1.12,2.43.09,2.79,2.06-3.46-3-9.68-6-14.51-6.41-.06-2.78.92-6.4-.39-9-1.72-3.44-5.51-1.81-8.7-1.05,0-3.12-6.48-1.91-8.75-2-.29-5.79-1.22-6.53-6.11-9.46-1.7-1-3.92-2.94-6.06-2.6-2.37.37-4.79,3.1-7.35,4-.76-3.4-9-7.43-12.16-8.46-4.87-1.59-10.65,3.94-13.73,7.36-1.05-2.93-1-4.95-4.44-6.7-2.9-1.49-5.13,0-8.07-.49-3.09-.49-19.87-7.66-18.46,1.54a6.1,6.1,0,0,1,4,4c-2.58-1.11-18.9-1.65-15,3.86-4.59-1.83-9.58-3.8-14.61-2.31-5.61,1.67-3.62,5.68.5,7.94-7.53.07-9.92,6.62-16.39,7.81-2.52.46-7.75.16-9.45,2.68-1.52,2.26.18,7.48,1.59,9.45-2.43-.31-7.66,6.82-6.74,9.1-1.44-.67-2.77.33-4.14,1,.47-.12.38-.4.57-.71Z"/><path class="cls-16" d="M133.46,150l-4,1.36c-.05,0,0,.09,0,.07l3.46-1.14c.78-.25-.9,1.64-.62,1.27-.29.38-.61.74-.92,1.09-1.36,1.56-2.86,3-4.29,4.46a23.48,23.48,0,0,0-5.94,9.89,63.21,63.21,0,0,0-1.46,7.09q-.32,1.78-.72,3.54c-.18.74-1,2.26-.87,3,.35,2,.67,3.9,1,5.85,1.33,8.2,2.18,16.44,3.31,24.66.44,3.19.9,6.37,1.4,9.55.09.6.18.71-.1,1.21-.41.74-2.9,1.61-3.14.61-2.3-9.48-5-19.12-9-28a26.25,26.25,0,0,0-3.34-5.73c-.27-.34-.79-1.09-1.25-1.15l-3.22-.46-2.89-.42c-.62-.09-1.56.53-2.16.78a5.23,5.23,0,0,0,.12-.54c.19-.89.33-1.8.46-2.7a19.21,19.21,0,0,0,0-6.42A43.42,43.42,0,0,0,97,171.09a28.94,28.94,0,0,0-2.36-5.31,40.31,40.31,0,0,0-4.59-6c-.17-.19-.44.09-.27.28a31.21,31.21,0,0,1,6.65,10.53c1.1,3.09,2.5,6.11,2.74,9.43a25.59,25.59,0,0,1-.88,7.68c0,.1.08.23.19.18l2.19-.87a6.21,6.21,0,0,1,2,.27c1.53.22,3.75,0,4.87,1.2,3.11,3.19,4.7,8.2,6.2,12.28a195.77,195.77,0,0,1,6.54,22,.14.14,0,0,0,.1.1c1.4.34,3.37.3,3.77-1.45a3.88,3.88,0,0,0-.18-1.26c-.23-1.46-.45-2.92-.67-4.38-1.22-8.28-2-16.62-3.28-24.89-.46-3-1-6.06-1.48-9.08a3.69,3.69,0,0,1,.15-2.36,57.24,57.24,0,0,0,1.61-7.68c.87-4.92,2.3-9.28,5.58-13.12,2.49-2.92,5.44-5.38,7.6-8.57C133.55,150.05,133.5,150,133.46,150Zm31.42-46.3a27.48,27.48,0,0,0-23.28,10.37c-2.54,3.19-3.21,7.12-3.74,11.07s-.7,9.06-4.08,11.75a.21.21,0,0,0,.2.35c.24-.1,2.36-.53,2.26-.31a14.1,14.1,0,0,0-.48,1.38,30.84,30.84,0,0,0-.8,3.82c-.54,3.1-1.58,5.53-4.2,7.44,0,0,0,.1,0,.07a9.77,9.77,0,0,0,4-5c.91-2.6.9-5.37,2-7.94a.21.21,0,0,0-.17-.31,8.65,8.65,0,0,0-1.87.19c2.12-2.17,2.7-5.41,3.13-8.33.64-4.19.79-8.66,3-12.41a24.49,24.49,0,0,1,10.31-9.13c4.32-2.11,9-2.47,13.73-2.73A.14.14,0,0,0,164.88,103.71Zm79.57,6.42c-.19,4.32-6.67,4.71-10.78,5,2.18-.93,4.25-2.38,3.18-5-.06-.14-.27-.22-.35,0-3,6.5-12.85,6.24-18.78,6-6.33-.25-12.78-1.46-19.14-1.29,1.69-.54,3.17-1.58,2.21-3.56-1.37-2.83-4.29-4.51-6.13-7a.19.19,0,0,0-.35,0,7.42,7.42,0,0,0,1,6.74c-5.58-2.67-12.32-3-17.29-6.86-.18-.15-.39.15-.24.31,1.12,1.15,2.14,2.35,3.32,3.41-4.51-1.43-9.65-2-13.2-5.26a14.19,14.19,0,0,0-1.08-1.11.17.17,0,0,0-.24.25c.89,1,1.79,2.09,2.61,3.2.54.74.51.48-.49.06a20.43,20.43,0,0,0-2-.7h0c1.08.43,2.05,1,3.07,1.47a.15.15,0,0,0,.2-.2,14.87,14.87,0,0,0-1.13-1.79c3.76,2.66,8.75,3.21,13.07,4.74.17.06.34-.2.18-.32a24.42,24.42,0,0,1-2.82-2.75c5,3,11.32,3.49,16.5,6.19.15.08.39-.09.26-.26a8.48,8.48,0,0,1-1.75-4.23,6.24,6.24,0,0,1,.14-1.88c.08-.42-.06-.86.25-.47a41.65,41.65,0,0,0,3.24,3.27,10.29,10.29,0,0,1,2.74,3.71c.8,2.36-2.87,2.88-4.38,3.1-.22,0-.16.39,0,.37A63.3,63.3,0,0,1,208,116a103.39,103.39,0,0,0,14.06.89c3.82-.08,7.85-.61,11.16-2.63a9.14,9.14,0,0,0,3.16-3.23c.32-.57.23-.81.31.28a2.81,2.81,0,0,1-1.45,2.33,13.17,13.17,0,0,1-3.62,1.59c-.28.1-.25.59.08.56,3.86-.41,13.1,0,13.3-5.67C245,109.76,244.47,109.76,244.45,110.13Zm37.74,13.34c-2.77-5.3-8.3-9.28-13.68-11.64,1.35-1.48,2.42-3.19,3.79-4.65.2-.21-.07-.61-.33-.42-4,2.91-8.54,2.68-13.19,3.21-.68.08-4.52.52-4.39,1.4A38,38,0,0,1,254,107c0-.27-.44-.35-.49-.07a6.11,6.11,0,0,1-1.54,3.76,11.41,11.41,0,0,1-4,2.16l-1.61.64-.45.19-.22.1c.63-1.14.28-2.36.51-3.61,0-.14-.2-.21-.23-.06-.27,1.4.18,2.79-.89,4-.1.1,0,.33.15.26,2.75-1.11,7.14-2,8.41-4.94.09.72.19,1.44.29,2.16a.24.24,0,0,0,.35.14c3-1.4,6.25-1.31,9.44-1.57a17.19,17.19,0,0,0,7-2,45.09,45.09,0,0,1-2.88,3.58.28.28,0,0,0,.05.43,29.67,29.67,0,0,1,13.84,11.55A.24.24,0,0,0,282.19,123.47Zm15.75,44.87C296,172,293,175,292.05,179.14c-.75,3.29-1.23,6.65-1.72,10-.07.46,0,.18-.4.26a3.28,3.28,0,0,0-1.55,1c-1.55,1.48-2.36,3.81-3.11,5.76a40.88,40.88,0,0,0-2.27,8.4c-.06-3.56,0-7.14.18-10.69a86,86,0,0,1,1.3-8.86q.76-4.6,1.5-9.22c2.36-14.7-.41-30-3.54-44.43-.4-1.84-.84-3.66-1.3-5.48,0-.09-.14,0-.12,0a241,241,0,0,1,4.46,24.57c1,7.85,1.61,16,.34,23.87q-1.32,8.18-2.74,16.34c-1,5.53-.6,11.44-.47,17l0,1.18a.24.24,0,0,0,.47,0,34.48,34.48,0,0,1,1.4-9,39.38,39.38,0,0,1,2.46-6.49c.68-1.41,1.76-3.44,3.53-3.54.1,0,.22-.07.23-.18.43-3,.91-6,1.5-9a16.68,16.68,0,0,1,1.87-5.43c1.32-2.26,3-4.28,4.23-6.61C298.46,168.31,298.07,168.08,297.94,168.34Zm13.42-21.87a.23.23,0,0,0-.33-.19,23.67,23.67,0,0,0-3.22,2.24c1.3-3.11,2.42-6.4,1.32-9.74a.24.24,0,0,0-.4-.11,22,22,0,0,1-2.24,2.08c1.27-2.34,2.08-4.81,1.26-7.49-.95-3.09-3-5.73-4-8.85-.08-.25-.49-.28-.55,0a12,12,0,0,1-1.72,4c1.44-6.67-1.59-13.71-.82-20.47a.33.33,0,0,0-.24-.31c-1.65-.62-2.58-2.18-4.07-3a11.83,11.83,0,0,0,1.09-11.19c-1.8-4.21-5-7.58-8.13-10.85a.26.26,0,0,0-.39,0A11.83,11.83,0,0,1,286.9,84c.76-2.73,1.77-5.66,1.34-8.49-.48-3.15-3.43-5.71-5.64-7.73-.23-.22-.59.13-.35.35,2.17,2.12,4.85,4.41,5.47,7.53.56,2.84-.8,6.12-1.52,8.82a.27.27,0,0,0,.4.31,16.7,16.7,0,0,0,2.21-1.38c.33-.24.23-.36.5-.06.48.52,1,1.05,1.43,1.58a48.3,48.3,0,0,1,4.54,5.74c2.92,4.48,3.3,9.34.3,13.9a.35.35,0,0,0,.13.48c1.57.68,2.49,2.55,4.17,3,.27.08.05,3.12.07,3.49,0,1.28.18,2.55.33,3.81.58,4.73,1.81,9.75.26,14.41-.1.34.35.47.53.23a15.12,15.12,0,0,0,2.47-4.56,68.78,68.78,0,0,0,3.22,6.71c1.59,3.26.54,6.28-1.21,9.24a.25.25,0,0,0,.33.34,14.44,14.44,0,0,0,2.9-2.45c1,3.51-.49,7-1.87,10.2a.22.22,0,0,0,.39.22,8.25,8.25,0,0,1,2.21-1.95A9,9,0,0,1,311,147a5.7,5.7,0,0,1-1.27,4c-1.28,1.53-3.31,2.34-4.82,3.6a7.81,7.81,0,0,0-2.72,5.05c-.15,1.27-.15,2.55-.39,3.81a6.87,6.87,0,0,1-2.83,4c-.14.11,0,.35.19.24a7.19,7.19,0,0,0,3.11-5c.35-2.91.38-5.45,2.65-7.63,1.39-1.33,3.22-2.1,4.66-3.38A6.22,6.22,0,0,0,311.36,146.47ZM87.58,160.34a6.09,6.09,0,0,0-.43,1.65,1.49,1.49,0,0,1-.08.7,7,7,0,0,1-1-1.12,7.93,7.93,0,0,1-1.25-3.72c-.3-2.48.08-5,0-7.48A7.9,7.9,0,0,0,82.66,145c-1.1-1.11-1.74-.49-2,.58a7.88,7.88,0,0,1-2.07-4.7,22.67,22.67,0,0,1,.72-7.51,33.12,33.12,0,0,1,5.76-12.83c.08-.1,0-.23-.14-.14-3.5,3.5-5.51,8.82-6.7,13.53-.92,3.64-1.81,10.85,2.53,12.91a.41.41,0,0,0,.61-.35c0-.18,0-1.43.16-1.44.55,0,1,.46,1.29.82a5.84,5.84,0,0,1,1.29,2.74,21.9,21.9,0,0,1,.21,5.72c-.09,3.26,0,6.75,2.84,8.9a.16.16,0,0,0,.24-.14,6.9,6.9,0,0,1,.42-2.66C87.91,160.25,87.65,160.19,87.58,160.34Zm.06-54.5c-3.53,1.23-7.17,2.81-9.37,5.91A53.26,53.26,0,0,1,84.76,94a41.55,41.55,0,0,1,15.15-14.7.17.17,0,0,0-.17-.29c-6.42,2.8-11.52,8.48-15.17,14.32a48.32,48.32,0,0,0-6.95,19.47c0,.22.32.3.41.11,1.75-3.4,5.23-5,8.69-6.22-6.36,6.36-13,14-10,23.66a.2.2,0,0,0,.19.15,2.74,2.74,0,0,0,.5,0,.17.17,0,0,0,.11-.16,13.27,13.27,0,0,1,6.61-10.7c.09-.05,0-.18-.08-.14a13.43,13.43,0,0,0-6,6.71,29,29,0,0,0-.92,3.93c-.76,0-.68-5.16-.63-5.87.54-7.26,6.55-13.1,11.36-18A.27.27,0,0,0,87.64,105.84ZM91.47,82a12,12,0,0,1,7.52-4c.29,0,.17-.49-.12-.44a13.83,13.83,0,0,0-4.56,1.5,12.57,12.57,0,0,1,6.89-2.47c3.42-.23,6.86.24,10.29.06a.23.23,0,0,0,.19-.33c-2.31-3.87-7.1-6.07-11.25-4,2.12-3.26,4.59-6.62,8.31-8.1,3.5-1.4,7.63-.86,11.27-.55.24,0,.26-.28.11-.39a16.71,16.71,0,0,0-6.61-2.95c7.22-1.68,8.64-10.11,14.54-13.82,3.67-2.31,8.78-1.79,12.88-1.37,4.28.44,8.47,1.42,12.73,1.9.2,0,.25-.32.05-.35-4.08-.74-8.17-1.5-12.3-2s-8.51-.84-12.33.73c-7.28,3-8.1,13.58-16.69,14.67-.22,0-.32.37-.06.41a17.66,17.66,0,0,1,6.93,2.67c-3.6-.32-7.58-.69-11,.77-3.9,1.68-6.43,5.36-8.65,8.82-.11.17.11.38.28.28,3.24-2,7-1.1,9.73,1.38a8.81,8.81,0,0,1,1.41,1.74s-1.77.12-2,.12c-1.51,0-3-.08-4.52-.13a21.37,21.37,0,0,0-7.39.73,12.54,12.54,0,0,0-6.11,4.83C90.93,82,91.3,82.25,91.47,82Zm74.81-46.13a26.8,26.8,0,0,0-10.37-1.83.23.23,0,0,0-.2.34c2,4.47-9.86,5.94-12.41,6.89-.14,0-.21.26-.05.34,2.87,1.29,5.9,2.27,8.58,4,.09.06.17-.09.08-.15a28.94,28.94,0,0,0-4.49-2.33L144.88,42c-.33-.15-.65-.3-1-.47a.46.46,0,0,0-.18-.06,1,1,0,0,0,.33-.07c2-.62,4.08-1,6.1-1.61,2.3-.66,7.13-2.09,6.08-5.28a35.42,35.42,0,0,1,9.93,1.75C166.43,36.37,166.51,36,166.28,35.91Zm1.49-.26c-1.09-9.93,40.46-.95,46.06-5.35a1.72,1.72,0,0,0,.59-.79c-.22.63,4.9,2.8,5.51,3.23a.26.26,0,0,0,.36-.1c2.94-4,9.63-1.71,13.72-.81-.89,2.17.8,3.49,2.5,4.88a.22.22,0,0,0,.31-.32c-1.22-1.39-3.26-2.48-2.15-4.63a.28.28,0,0,0-.17-.42c-3.33-.69-6.89-1.82-10.32-1.35a6.4,6.4,0,0,0-3.83,1.74c-.66.66-1.78-.42-2.57-.78a24.83,24.83,0,0,1-3.44-1.77.22.22,0,0,0-.32.13c-.18,1-1.86,1.3-2.66,1.45a29.55,29.55,0,0,1-5.56.39c-5.09.05-10.17-.3-15.25-.5a105.69,105.69,0,0,0-15.1.12c-2.48.26-6.42.63-7.78,3.12a2.9,2.9,0,0,0-.29,1.76C167.4,35.9,167.79,35.9,167.77,35.65Zm69.64.54a.17.17,0,0,0,.3-.17,8.29,8.29,0,0,0-.9-1.32c4.69,1.64,9.17,4,14.15,4.56s9.83.8,14.4,3c-1.56.42-2.84,1.66-2.31,3.41.71,2.33,3,3.72,5.24,4.12a13.47,13.47,0,0,1,8.92,5.37,18,18,0,0,1,3.14,11.47c0,.37.55.37.57,0,.34-5.54-1.62-11.55-6.21-15A15.83,15.83,0,0,0,267.87,49a5.43,5.43,0,0,1-3.41-2.29c-.75-1-1.3-2.09-.31-3.13a3.26,3.26,0,0,1,2.12-.9c.27,0,.42-.4.15-.53-4.38-2.24-9-2.75-13.79-3.2A32.34,32.34,0,0,1,244.17,37c-2.63-1-5.2-2.12-7.91-2.9a.18.18,0,0,0-.17.31A7.32,7.32,0,0,1,237.41,36.19Z"/><path class="cls-7" d="M311.14,146.47c-1.35.9-3.14,1.8-4,3.14,1.35-3.14,3.14-7.18,1.8-10.77a16.77,16.77,0,0,1-3.14,2.7c4.93-8.08,0-9.43-2.25-17a12.07,12.07,0,0,1-2.69,5.38c2.25-6.28-1.34-14.81-.45-22-1.79-.45-3.14-2.7-4.48-3.14,5.83-8.53-.9-15.71-6.73-22a14.22,14.22,0,0,1-2.69,1.8c2.24-8.53,3.14-9.87-4-16.6l-1.8-1.35c.45-6.73-2.69-13.46-8.52-16.15-4-1.8-5.84,0-8.53-4.49-1.34-2.24,1.35-3.59,2.69-3.59-5.83-3.14-10.76-2.69-17-3.59-4.49-.89-8.53-3.14-13-4.48a6.28,6.28,0,0,1,1.34,1.79l-.89.45c-1.8-1.79-3.59-2.69-2.25-4.93-4.48-.9-11.66-3.14-14.36.89-1.79-1.34-4-1.79-5.83-3.14-1.34,5.84-48-4-46.66,6.28l-1.34.45a27.94,27.94,0,0,0-10.32-1.79c2.24,4.48-9,5.83-12.57,7.18,2.7,1.34,5.84,2.24,8.53,4l1.79,1.35c-6.28-.9-19.29-4-25.12-.9-6.28,3.14-7.63,13.46-16.15,14.36A16.32,16.32,0,0,1,120,63.47c-10.31-.9-13.9-.45-20.18,9.42,4-2.69,9.42-.45,11.66,3.59-8.07.45-14.81-2.24-20.19,5.38a11.62,11.62,0,0,1,7.63-4l.9,1.34c-12.57,6.28-20.19,20.64-22,33.65,1.8-3.59,5.83-5.38,9.87-6.73C81.43,112.37,73.8,120,76.94,130.32h.45c0-4,2.69-8.52,6.73-10.77l.9.9c-4.48,4.93-10.77,21.53-4,26a2.67,2.67,0,0,1,.45-1.79h.45c5.83,4-.45,13.9,5.38,18.39a5.67,5.67,0,0,1,.45-2.69l2.25-.45s4.93,5.39,6.28,9.42,3.14,7.63,3.14,11.22a33.87,33.87,0,0,1-.9,7.18l2.24-.9,6.28.9c6.28,4.93,13.46,35,13.46,35,3.14.9,3.59-1.34,3.59-1.34s-1.79-11.22-2.69-19.75-3.14-21.08-3.14-21.08c1.79-4.94,1.79-10.32,3.59-15.25,2.24-6.74,8.08-9.88,11.66-15.26l-4,1.35,1.34-1.8c5.39-3.59,3.59-8.07,5.84-13a5.71,5.71,0,0,0-2.7.45c5.39-4,2.7-15.7,7.18-22,6.28-8.52,13.91-11.21,23.78-11.21l1.79.45a22,22,0,0,1,3.15,1.34,22.52,22.52,0,0,0-2.33-3.15c3.72,3.67,9.85,4.18,14.44,5.85a35,35,0,0,1-4-4c4.49,3.59,12.11,4,18,7.18a7.19,7.19,0,0,1-1.35-7.18c2.24,3.14,12.11,9.42,1.8,10.76,10.31-.89,35,6.29,40.38-4.93,1.34,3.14-2.25,4.49-4.94,5.38,4-.45,13-.45,13-5.38h1.35c-.45,1.79.45,2.69-.9,4,4-1.8,8.52-2.25,8.52-7.18,0,1.35.45,4.49.45,4.49,5.39-2.7,12.11,0,18-4.49-.9.9-2.69,3.59-4,4.93,5.38,2.25,11.22,6.73,13.91,11.67l-.9,2.24c3.14,13,7.18,35,4.94,48.46,0,0-1.8,11.21-2.69,16.15s-.45,18.39-.45,18.39a36.6,36.6,0,0,1,1.79-10.32c1.8-5.38,3.59-9,5.83-9,0,0,1.35-9.42,2.25-12.11s4-6.28,5.38-9l.9-.9c4.93-3.59,1.79-7.18,4.48-11.22S311.59,152.75,311.14,146.47Z"/></g></g></svg>