<svg xmlns="http://www.w3.org/2000/svg" xmlns:xlink="http://www.w3.org/1999/xlink" viewBox="0 0 380.54 380.54"><defs><style>.cls-1{fill:#ff9ebf;}.cls-2{fill:#eba284;}.cls-3{fill:#f6ae94;}.cls-4{fill:#cb6d50;}.cls-5{fill:#742e2c;}.cls-6{fill:#e63867;}.cls-7{fill:url(#linear-gradient);}.cls-8{fill:#c70046;}.cls-9{fill:#fff;}.cls-10{fill:#0a8b36;}.cls-11{fill:#9f0032;}</style><linearGradient id="linear-gradient" x1="175.64" y1="275.4" x2="175.64" y2="281.3" gradientUnits="userSpaceOnUse"><stop offset="0" stop-color="#ea5b79"/><stop offset="1" stop-color="#f299b2"/></linearGradient></defs><title>Asset 5</title><g id="Layer_2" data-name="Layer 2"><g id="Avatar_3"><circle class="cls-1" cx="190.27" cy="190.27" r="190.27"/><path class="cls-2" d="M258.36,339.18c-.23-.36-.46-.72-.69-1.1l-.28-.44-.63-1-.32-.52c-.21-.36-.43-.72-.64-1.09-.11-.17-.21-.34-.31-.51-.32-.54-.63-1.09-1-1.66-6.19-10.74-7.76-34.48-8.1-50l0-1.43v-.25c0-.48,0-.95,0-1.4v0c0-.42,0-.82,0-1.22v-1.65c0-.35,0-.7,0-1v-1.55c0-.29,0-.57,0-.84v-.45c0-.15,0-.3,0-.45v-.83c0-.22,0-.43,0-.64v-.36c0-.12,0-.25,0-.36v-.22c0-.25,0-.48,0-.68v-.09a2.53,2.53,0,0,1,0-.28v-.34c0-.1,0-.19,0-.27v-.1s0-.07,0-.1v-.1l-59.66,31.35c.11,1.16.22,2.3.31,3.42,0,.38,0,.74.08,1.12.05.74.1,1.47.14,2.2,0,.42.05.84.07,1.26,0,.66.06,1.3.08,1.94,0,.44,0,.86,0,1.29l0,1.82v1.25c0,.6,0,1.19,0,1.77,0,.39,0,.79,0,1.18,0,.61,0,1.21-.07,1.81,0,.34,0,.68,0,1q-.06,1.16-.15,2.28c0,.14,0,.29,0,.44-.07.88-.16,1.73-.25,2.58l-.12.89c-.07.55-.14,1.09-.22,1.62l-.15,1-.24,1.43c-.06.33-.13.67-.19,1l-.27,1.33c-.08.33-.15.65-.22,1s-.21.86-.31,1.29l-.24.91c-.11.44-.24.87-.36,1.3l-.24.8c-.16.52-.33,1-.5,1.53-.05.16-.1.32-.16.48-4.36,12.48-12,19.74-20.19,24.28-4.91,2.71-11.57,7-18.26,11.51a190.75,190.75,0,0,0,134.16-16.78C269.65,353.56,264.62,349,258.36,339.18Z"/><path class="cls-3" d="M292.72,173.58c-1-.72-4.79-1.78-5.83-2.05,2.53-19.72,8.82-56.42-18.45-85.51-30.68-32.73-72.61-32.73-95.62-27.1s-50.12,28.63-55.74,53.69-2.1,32.62-4.63,40.71-7.08,19.22-1,31.35a119.89,119.89,0,0,1,3,25.79c0,13.65,8.09,32.86,23.26,52.08s24.35,39.29,42,40.95c26.79,2.53,64.88-21.61,77.86-49.51a147,147,0,0,0,8.6-25.38c4.25.78,7.67-2,10.63-6.49,3.8-5.68,8.73-9.48,12.52-14.79C295,199.36,301.06,179.64,292.72,173.58Z"/><path class="cls-3" d="M124.24,111.36a43.22,43.22,0,0,1,13-19.24c11.67-9.75,28.49-14.27,43.52-13.29,7.94.52,17.49,2.5,24.58,6.27,13,6.9,20.28,14.29,22.57,29.17,1,6.27.94,12.67,2.1,18.91.21,1.13,5.25,15.72,7.4,13.85,0,0-8.72,7.59-9.86,7.59s-113,4.17-113,4.17l-2.66-1.52s7.59-10.62,8-19C120.22,129.19,121.25,119.84,124.24,111.36Z"/><path class="cls-3" d="M154.67,236s.25,2.78,4.29,3.29a7.38,7.38,0,0,0,8.35-4.8c1.51-3.54,4.55-22.25,3.54-42.73l-15.17.25s2.78,21.24,2.27,28.07S154.67,236,154.67,236Z"/><path class="cls-3" d="M155.59,232a8,8,0,0,1,4-1.51c2,0,9.44,2.86,9.44,2.86l1-2s-7.75-3-10.45-3a5.25,5.25,0,0,0-2.87,1Z"/><path class="cls-3" d="M202.85,207.89a8.91,8.91,0,1,1-8.91-8.91A8.9,8.9,0,0,1,202.85,207.89Z"/><path class="cls-3" d="M156.56,207.34c.39,4.59-2.31,8.56-6,8.87s-7-3.17-7.4-7.76,2.31-8.56,6-8.87S156.18,202.74,156.56,207.34Z"/><path class="cls-3" d="M261.08,239.18c-9.2,16-26.13,23.64-37.79,16.94S209.62,231,218.83,215,245,191.32,256.62,198,270.29,223.14,261.08,239.18Z"/><path class="cls-3" d="M143.3,223.43c-5.27-15.73-18.44-26.7-29.49-24.61a110,110,0,0,1,.66,11.64c0,12.12,6.38,28.62,18.42,45.61C143.92,253.79,148.58,239.2,143.3,223.43Z"/><path class="cls-3" d="M115.63,185.71s-3.79-26.92,5.69-31.09,21.24.75,21.24.75l6.44,8,.76,2.65s3.8,16.69,2.66,43.61l-11-8.72s-9.1-9.1-11-9.48-9.48-.38-9.48-.38Z"/><path class="cls-3" d="M190.72,207.7s-7.59-39.43,1.51-51.57,23.89-11,23.89-11l15.93,1.51s14.79,4.17,17.82,7.59c0,0,0,22-9.86,42.09Z"/><path class="cls-3" d="M153.74,238.6c-.19.88,2.79,2.68,3.36,2.93,4,1.72,8.53-.42,12.31-1.75,3.37-1.18,8.77,1.86,9.27,3.71,0,0,.17,2.19-1.18,2.53s-21.4.17-21.4.17l-2.19-1.35-.84-3.2S153.74,238.61,153.74,238.6Z"/><path class="cls-3" d="M153.4,241.05s1.27,3.54,6.58,3.29,8.59-2.78,10.36-3.29,8.09,1.26,7.84,3.29l-.51,2s-3,13.4-9.1,13.65-5-8.6-9.35-10.62C159.22,249.39,153.4,245.85,153.4,241.05Z"/><path class="cls-3" d="M172.87,287.31s8.09.51,10.37,0c0,0-1.27,4.3-3.8,4.05S172.87,287.31,172.87,287.31Z"/><path class="cls-3" d="M149.86,263.8l-1.51,3.54S145.06,263.8,149.86,263.8Z"/><path class="cls-3" d="M220.4,262.29l2.78,4.29S226.46,262.79,220.4,262.29Z"/><path class="cls-4" d="M211.19,165.61s11-4.93,25.79,2.66C237,168.27,223,155.37,211.19,165.61Z"/><path class="cls-4" d="M141.91,169.31s-8.42-4-18.84,3.77C123.07,173.08,132.59,160.4,141.91,169.31Z"/><path class="cls-3" d="M289,176.33l-2.11,2c-2.25,1.36-7.12,8.48-7.12,8.48L277,191.2l-.09-.08c-1.51,1.39-4.55,8.47-4.55,8.47l.16.49-.16.14a7,7,0,0,1,.4.6l.57,1.79a7.92,7.92,0,0,1-1.47,4.94S276.14,206,277,203a5.3,5.3,0,0,0-1.5-5,26.19,26.19,0,0,1,1.25-2.67,2.59,2.59,0,0,1,3-1.39l-1.07-1,.44.15c-.64-1.27,2.4-4.3,2.4-4.3l-.07-.08c1.15.9,2.47,1.72,2.47,1.72s-1.26-3.41,0-5.43c.93-1.49,3.42-3,4.68-3.66a27.36,27.36,0,0,1,4,5.42S290.81,178.22,289,176.33Zm-9.1,25.91.75-4.3S278.92,199,279.94,202.24Zm2.9,2.78c2.66-5.05,1.39-8.47,1.39-8.47A48.34,48.34,0,0,0,282.84,205Zm7.34-15.29c1.26,3.41-1.27,13.14-1.27,13.14,4-7,3.41-12.38,3.41-12.38Z"/><path class="cls-3" d="M158.12,246.7s4.89,3,7.08,2.86a5,5,0,0,0,4.05-3.37S162.5,247.88,158.12,246.7Z"/><path class="cls-3" d="M296.71,180.23a11.71,11.71,0,0,0-3.21-6.42,9.55,9.55,0,0,0-10-1.81,12.55,12.55,0,0,0-4.49,2.94,8.51,8.51,0,0,0-1.3,2.14c-.49.86-.91,1.75-1.36,2.63-1.94,3.88-3.69,7.9-6.43,11.3,0,0,0,0,0,0a44,44,0,0,0,5-8.07c.71-1.38,1.42-2.77,2.22-4.11a11.75,11.75,0,0,1,2.93-3.73c2.86-2,5.72-3.29,9.28-2.62a8.4,8.4,0,0,1,6,4.7c2.16,4.55,1.31,10.29.2,15a50.71,50.71,0,0,1-5.74,14.06c-3.25,5.53-8.55,9.56-12.36,14.68-1.85,2.48-3.5,5.07-6.27,6.62s-6,.88-8.7-.67a.19.19,0,1,0-.19.33,9,9,0,0,0,7.34,1.44c2.55-.69,4.56-2.79,6.12-4.8,1-1.24,1.78-2.6,2.73-3.85a58.69,58.69,0,0,1,3.91-4.58c2.3-2.5,4.75-4.94,6.8-7.67a41.23,41.23,0,0,0,6.11-12.94C296.69,190.17,297.54,185.06,296.71,180.23ZM269.58,213s0,0,0,0c.3-2.74,2-4.74,3.31-7a6,6,0,0,0,.15-6.1c-.29-.59-1.18-.07-.88.51a6.11,6.11,0,0,1-.34,6.8A12.32,12.32,0,0,0,269.58,213Zm19.71-36c.44-.36-.16-1.14-.62-.79a32.8,32.8,0,0,0-4.35,4.31A59.67,59.67,0,0,0,280,186a74.39,74.39,0,0,0-7.47,12.87c-.08.17.16.32.25.15,1.23-2.34,2.46-4.65,3.78-6.92a.28.28,0,0,0,.26.29c3.27.21,4.44,3.75,3.77,6.55,0,0,0,0,.05,0,1-2.76-.37-7-3.82-7.11a.24.24,0,0,0-.12,0c1-1.64,2-3.24,3.05-4.82a4.49,4.49,0,0,0,2.28,2.59,10.65,10.65,0,0,1,1.89,1.21c.71.63.65,1.86.61,2.72-.21,3.87-1.91,7.52-1.64,11.44h0c-.24-4,1.6-7.79,1.88-11.76.09-1.37.13-2.68-1-3.59s-3.07-1.49-3.73-2.94v0a55.56,55.56,0,0,1,4.49-5.55A41.12,41.12,0,0,1,289.29,177Z"/><path class="cls-4" d="M157.34,217.57a22.65,22.65,0,0,1-1,12.17c-1.07,3.21-2.9,6.19-3.62,9.5a8.13,8.13,0,0,0,2,7.51,13.07,13.07,0,0,0,5.13,3.22,22.63,22.63,0,0,0,3.81.88,10.89,10.89,0,0,0,3.68.3.23.23,0,0,0,0-.43c-1.17-.21-2.35-.23-3.51-.47a16.59,16.59,0,0,1-3.88-1.59,14.43,14.43,0,0,1-4.74-3.47c-1.86-2.23-1.44-5.14-.84-7.74.73-3.17,2-6.19,2.8-9.34a21.3,21.3,0,0,0,.25-10.55Z"/><path class="cls-4" d="M171.49,247.87c-.63-1.55.54-1.89,1.84-2a9.66,9.66,0,0,1,3.71.2c.12,0,.17-.15.05-.19-1.57-.51-3.23-1.14-4.88-.66-1.37.39-1.51,1.59-.93,2.71.06.11.26,0,.21-.09Z"/><path class="cls-4" d="M176.71,247.56c2-1.36,2.6-4.2,2.37-6.49a.12.12,0,0,0-.24,0c-.29,2.52-.37,4.47-2.19,6.41,0,.05,0,.12.06.08Z"/><path class="cls-5" d="M171.48,246.8s-.19-1.26,3.54-.88C175,245.92,173.12,247.37,171.48,246.8Z"/><path class="cls-3" d="M152.73,265.74s5.11-4.39,8.82-5.07c2.36-.43,4.23,1.64,6.48,1.88,2.65.29,4.9-1.26,7.52-1.38,3.87-.17,5.9.38,13.65,1.9s26.39,1.66,28.08,1.49c0,0-10.79,6.07-13.82,6.07s-23.6,2-24.44,2.19-10.62-.51-12.47-.51Z"/><path class="cls-6" d="M151.65,266.3a56.68,56.68,0,0,0,4.21,6.32c2.21,2.78,2.06,7.38,4,9.36,2.21,2.27,15,4.8,22.57,1.26s30.17-20.14,30.17-20.14-2.62.79-5.45,1.43c-2,.46-4.09,1.26-6.57,1.26-6,0-31,.51-31.64.76s-12-.25-12.62-.25Z"/><path class="cls-7" d="M158.22,273.89s-.3,5.89,5,7.41,12,.68,12,.68l6.5-.85,2.36-.67s7.37-3.71,8.85-6.91-6.94-2.87-6.94-2.87-5.12-.37-5.45,0-20.07.51-20.07.51Z"/><path class="cls-6" d="M158.22,273.89s-.3,5.89,5,7.41,12,.68,12,.68l6.5-.85,2.36-.67s7.37-3.71,8.85-6.91-6.94-2.87-6.94-2.87-5.12-.37-5.45,0-20.07.51-20.07.51Z"/><path class="cls-6" d="M207.13,264.53c-2,.46-4.09,1.26-6.57,1.26-6,0-31,.51-31.64.76s-12-.25-12.62-.25h-4.65a56.68,56.68,0,0,0,4.21,6.32,9.32,9.32,0,0,1,1.4,2.67l.15.11s.22-2,8.18-2,27.89-.51,28.33,2.53c0,.09,0,.18.05.28,8.84-5.93,18.61-13.09,18.61-13.09S210,263.89,207.13,264.53Zm-47.29,14.66a10.16,10.16,0,0,0,8,4.05c5.53.25,13.94-1.26,16.6-2.78C184.41,280.46,165.82,282.48,159.84,279.19Z"/><path class="cls-6" d="M153.09,267.31l3,3.79a28.85,28.85,0,0,1,4.31.13c2.33.25,1.55,1.77,6.86,1.77s5.65-.76,8.41-1.14,21.58-2.4,22.58-1.77l1,.63s7.2-3.79,9.19-5.81c0,0-8.52,2.53-10.07,3.16s-21.47,2.78-25,2.53l-3.32.63s-6.31,1.9-8.19-2C161.83,269.21,159.84,270.09,153.09,267.31Z"/><path class="cls-8" d="M212.64,263l0,0-5,.72a79,79,0,0,1-17.92.76c-6.64-.5-14.39-2.78-18.15-2a13.51,13.51,0,0,0-6,2.78s-4-3.54-5.75-3.54-4.65,1.52-6.64,2.78c-1.84,1.17-4.51-.45-4.9-.7l-.05,0s0,0,0,0a17.54,17.54,0,0,0,1.63,1.4l.11.09.72.52a21.06,21.06,0,0,0,6.85,3.09c1.06.33,2.13.63,3.22.91.08,0,.8,0,.85.14a3.53,3.53,0,0,0,.76,1,5.24,5.24,0,0,0,2.47,1.12,12.13,12.13,0,0,0,5.69-.56.13.13,0,0,0,0-.13l2.87-.73s0,0,0,0a103.48,103.48,0,0,0,19.32-1.45A83.43,83.43,0,0,0,203,267c1.61-.47,3.19-1,4.76-1.6s3.25-1.54,4.88-2.31C212.65,263,212.65,263,212.64,263Z"/><path d="M187.39,163.58a111.64,111.64,0,0,0,13.48-7.94A36.16,36.16,0,0,1,215.18,149c7.27-1.47,18.43-2.19,34.39,4.86,1,0,2.1,0,3.16,0a107.58,107.58,0,0,0-22.34-9.3c-13.17-3.78-25.17-1.87-34.31,3.05C186.69,152.65,183.28,160.71,187.39,163.58Z"/><path d="M192.65,160.44c-2.15,1.25-3.88,2.17-4.7,2.59a3.92,3.92,0,0,1-1.13-3.51c.35-3.35,4-8,9.85-11.19a39.85,39.85,0,0,1,7-2.93,44.82,44.82,0,0,1,26.58.26,100.39,100.39,0,0,1,19.8,8.56h-.54c-12-6-22.86-7-31-6.05a34.79,34.79,0,0,0-16.91,6.49c-.37.25-.72.51-1.07.76a92.24,92.24,0,0,1-7.9,5Z"/><path d="M150.09,166.55a25,25,0,0,1-8.22-5.42c-2.1-2-4.18-4.15-8.3-5.4-4-1.11-10.24-1.37-18.58,4.36q-1-.32-2-.57a66,66,0,0,1,12-8.23,18.28,18.28,0,0,1,18.55,1C149.21,155.82,152,162.43,150.09,166.55Z"/><path d="M146.74,164.38a22.37,22.37,0,0,0,2.88,1.5,7.81,7.81,0,0,0,.22-3.95c-.57-3.17-3.11-6.83-6.65-9a20.65,20.65,0,0,0-4-1.95,16.73,16.73,0,0,0-14.08,1.26,57.72,57.72,0,0,0-10.39,7.62l.35.09c6.28-4.77,12.23-5.77,16.64-5.08a17.22,17.22,0,0,1,9.61,5.2l.65.63a26.22,26.22,0,0,0,4.79,3.72Z"/><path d="M215.36,207.7l7.21,3.8s10.24-5.31,17.06-8.35l.76-9.1-24.65,12.14Z"/><path d="M239.11,181.86s9.38-5.58,12.23-13.26c0,0-.72,9.92-12.1,17.67Z"/><path d="M241.89,184.17a17.73,17.73,0,0,0,5.05-6.83s-10.11-8.6-28.06-6.83-24,22.25-27.3,35.15L209,199.59Z"/><path d="M193.4,203.68c1.69-6.32,3.92-13.25,7.45-19.12,4.73-7.87,10.67-12.05,18.16-12.79,1.57-.15,3.15-.23,4.69-.23,11.81,0,19.4,4.61,21.69,6.22a17.21,17.21,0,0,1-4.18,5.33l-32.67,15.33-15.14,5.26Z"/><path class="cls-9" d="M217.26,176.61c-14.41,1.9-22.75,19-26.54,31.47a42.15,42.15,0,0,1,7.83-1.13,82.89,82.89,0,0,0,17.27,2.23l.3,0c5.31.76,4.55,0,4.55,0,5.69-1.52,11.38-3.41,15.55-7.58a25.25,25.25,0,0,0,5.31-15.55v-2.65A33.5,33.5,0,0,0,217.26,176.61Z"/><path class="cls-10" d="M237.31,190.44A20.4,20.4,0,0,0,233.86,179a32.46,32.46,0,0,0-16.6-2.39c-6.52.86-11.79,4.81-16,10a20.44,20.44,0,0,0-.34,3.78c0,8.75,5.34,16.15,12.72,18.64l2.14.1.3,0c5.31.76,4.55,0,4.55,0a49.45,49.45,0,0,0,9.76-3.48A20,20,0,0,0,237.31,190.44Z"/><path class="cls-10" d="M219.13,207.42c8.73,0,15.8-7.6,15.8-17a17.47,17.47,0,0,0-5.64-13,31.77,31.77,0,0,0-12-.83,22.28,22.28,0,0,0-12.09,5.9,17.89,17.89,0,0,0-1.83,7.93C203.34,199.82,210.41,207.42,219.13,207.42Z"/><path d="M230.3,190.44c0,6.63-5,12-11.17,12s-11.17-5.38-11.17-12,5-12,11.17-12S230.3,183.81,230.3,190.44Z"/><path d="M228.84,190.44c0,5.76-4.35,10.43-9.71,10.43s-9.7-4.67-9.7-10.43,4.34-10.43,9.7-10.43S228.84,184.68,228.84,190.44Z"/><path d="M228.84,190.44c0,5.76-4.35,10.43-9.71,10.43s-9.7-4.67-9.7-10.43,4.34-10.43,9.7-10.43S228.84,184.68,228.84,190.44Z"/><path class="cls-9" d="M214.92,180.93a4.23,4.23,0,1,0,8.43,0,4.43,4.43,0,0,0-3.86-4.52l-1.27.1A4.46,4.46,0,0,0,214.92,180.93Z"/><path d="M241.6,183.36c-9-8.21-24.09-10.68-34.26-3.33a36.27,36.27,0,0,0-10.24,12.33,74.56,74.56,0,0,0-6.17,14.86l-.24.86s0,0,.05,0c3.27-9.82,7.95-20.07,16.41-26.51a23.11,23.11,0,0,1,15.77-4.47c6.69.35,12.92,2.94,18.56,6.42A.11.11,0,0,0,241.6,183.36Zm-5.41,18.25a30.31,30.31,0,0,1-7.26,4.67c-2.67,1.21-5.5,2-8.26,2.92,0,0,0,.05,0,0,5.52-1.06,11.72-3.29,15.56-7.58C236.28,201.63,236.23,201.58,236.19,201.61Z"/><path d="M127.39,202v3.79s5.69,3,11.38,6.82l5.68-4.17Z"/><path d="M125.34,194s-9.45-4.27-13.5-12.11c0,0,9.46,8.82,14.76,9.83Z"/><path d="M124.83,193s-2.52-.51-5.56-3.8c0,0,.14-11.15,9.86-14.91,7.84-3,14.14,3.11,17.43,9.69a40.93,40.93,0,0,1,3.32,11.85c.3,1.78.33,10.22,1.75,11.32,0,0-9.1-7.08-10.11-7.33S124.83,193,124.83,193Z"/><path d="M149.28,203.77c-6.43-4.9-7.18-5.09-7.45-5.16-.84-.24-10.57-4.27-16.5-6.76l-.11,0-.12,0a10.61,10.61,0,0,1-4.54-3c.16-2.12,1.25-10.24,9-13.25a9.9,9.9,0,0,1,3.63-.72c6.78,0,11.06,7.5,12.21,9.8,1.79,3.57,2.54,7.47,3.21,11.49.07.42.13,1.42.2,2.49.13,2.12.27,3.84.44,5.22Z"/><path class="cls-9" d="M124.36,193.3l.38,1.51a28.57,28.57,0,0,0,4.55,9.1c2.5,3.25,4.42,4.42,8,6.07,4.66,2.18,10.95-3.25,14.79-.38-1.14-8-1.52-16.3-6.45-23.89C139.27,176,125.87,175.85,124.36,193.3Z"/><path class="cls-10" d="M134,179.17c-2.38,3.34-3.75,8.32-3.45,13.8.53,9.63,6,17.16,12.24,16.81,3.51-.19,6.5-2.83,8.36-6.82-.81-5.86-2-11.75-5.57-17.25C142.63,181.16,138.12,178.71,134,179.17Z"/><path class="cls-10" d="M132,192.89c.46,8.36,5.22,14.91,10.64,14.61,3.55-.2,6.5-3.29,8-7.76a36.31,36.31,0,0,0-5.07-14,13.88,13.88,0,0,0-9.1-6.48C133.54,182,131.72,187.1,132,192.89Z"/><path d="M141.25,181.63c-3.83.21-6.67,5.18-6.34,11.1s3.69,10.54,7.52,10.33,6.57-5,6.36-10.8a30.71,30.71,0,0,0-3.2-6.55,16.19,16.19,0,0,0-3.71-4.06A4.42,4.42,0,0,0,141.25,181.63Z"/><path d="M147.87,192c.28,5.14-2.19,9.45-5.51,9.64s-6.26-3.84-6.54-9,2.18-9.46,5.51-9.64S147.59,186.88,147.87,192Z"/><path d="M147.87,192c.28,5.14-2.19,9.45-5.51,9.64s-6.26-3.84-6.54-9,2.18-9.46,5.51-9.64S147.59,186.88,147.87,192Z"/><path class="cls-9" d="M138.76,184c.12,2.23,1.39,4,2.84,3.9s2.52-2,2.39-4.19v-.11a14.56,14.56,0,0,0-4.08-3.21A4.72,4.72,0,0,0,138.76,184Z"/><path d="M150.79,199.56a44.26,44.26,0,0,0-2.83-10c-1.75-4.08-4.54-8.44-8.85-10.18a9.61,9.61,0,0,0-9.58,1.06c-3.69,2.91-4.87,8-5.17,12.44,0,.13,0,.26,0,.4s0,0,0,0c.54-4.43,1.93-9.34,5.74-12.07a9,9,0,0,1,9.17-.54c4.21,1.93,6.82,5.79,8.63,9.93a41.27,41.27,0,0,1,2.64,9.44c.54,3.16.66,6.44,1.38,9.57a.1.1,0,0,0,.2,0A87.08,87.08,0,0,0,150.79,199.56Zm-13.5,10.34c-1.38-.83-2.84-1.54-4.18-2.44a20.1,20.1,0,0,1-3.79-3.58s-.1,0-.07.05a16.17,16.17,0,0,0,8,6.14A.09.09,0,0,0,137.29,209.9Z"/><path class="cls-11" d="M263.67,298.76c1-8.2,4.45-15.62,9.21-22.27,8.55-11.94,20.46-20.91,29.64-32.3,10.43-12.93,15.79-28.81,18.31-45.08.21-1.36.4-2.72.59-4.08.06-.46.11-.92.16-1.38.12-.9.23-1.8.34-2.71l.18-1.83c.08-.75.16-1.5.23-2.26s.11-1.39.17-2.09.11-1.34.15-2,.1-1.5.14-2.25.08-1.23.11-1.85l.09-2.35.06-1.75c0-.8,0-1.6,0-2.39l0-1.72c0-.79,0-1.59,0-2.38,0-.4,0-.8,0-1.2s0-.89,0-1.33c-.57-27.78-3.71-55.84-16.12-81.12C278.79,27.05,198.09,15.82,147.9,50a154.5,154.5,0,0,0-34.13,31.27A196.24,196.24,0,0,0,97,106.42c-13.63,24.18-14.55,51.76-23.64,77.4-11.63,32.83-42.2,53.11-56.74,84.33A190.47,190.47,0,0,0,165.21,378.9c25-17.47,24.06-47.36,21.93-75.36a43.9,43.9,0,0,1-7.44-.05c-17.62-1.66-26.8-21.74-42-40.95A136.63,136.63,0,0,1,122,237.85c0-.31,0-.61,0-.92,0-.14,0-.27,0-.4s0-.33,0-.49l-.06-1.59c0-.17,0-.34,0-.52s0-.23,0-.34l0-1.64v-.83c0-.57,0-1.13,0-1.7,0-.21,0-.42,0-.62v-.17c0-.59,0-1.18,0-1.78l0-.67.06-1.66c0-.88.1-1.77.17-2.66,4-57.13,65.22-101.63,71.29-132.47,0,0,10.11,26.29,29.83,41.46s32.87,19.72,38.43,36.91c.16.49.3,1,.45,1.43.05.15.09.31.14.46.1.31.19.62.28.92s.09.32.14.49.17.59.25.88l.12.41c.11.4.22.79.32,1.18l.09.35c.07.27.14.54.2.81l.12.45.15.66c0,.15.07.29.11.44l.15.67c0,.12.05.24.08.35.07.31.13.61.19.91,0,.13.06.26.08.39s.07.35.1.52.06.27.08.41l.09.46c0,.13.05.26.07.38s.07.36.1.53,0,.29.07.43l.09.52c0,.11,0,.22.05.33l.06.38.06.33c0,.13,0,.25.05.38s.05.3.08.45.05.36.08.54,0,.2.05.3,0,.17,0,.26a2.17,2.17,0,0,1,0,.25c0,.09,0,.17.05.25s0,.16,0,.23,0,.16,0,.23.05.26.08.38,0,.13.05.19,0,.13,0,.19a1.05,1.05,0,0,1,.05.19.75.75,0,0,1,.05.16l.06.17a.75.75,0,0,0,.05.16,2.6,2.6,0,0,1,.1.25.91.91,0,0,1,.07.14c0,.05.05.09.07.13l.06.11.09.13.07.09.09.12a3,3,0,0,0,2,.85c4.55.5,4.55-8.6,12.13-13.15,6-3.59,8.82-3.4,12.73-1.92a11.28,11.28,0,0,1,2.91,5.41c.07.3.13.6.19.89.83,4.83,0,9.94-1.41,14.58a41.23,41.23,0,0,1-6.11,12.94c-2.05,2.73-4.5,5.17-6.8,7.67a58.69,58.69,0,0,0-3.91,4.58c-1,1.25-1.76,2.61-2.73,3.85-1.56,2-3.57,4.11-6.12,4.8a7.94,7.94,0,0,1-3.52.13,146.36,146.36,0,0,1-8.55,25.2,73.13,73.13,0,0,1-11.18,16.88c0,2.59-.06,6.81.05,11.92.34,15.54,1.91,39.29,8.1,50,.16.29.33.57.49.85,0,.08.09.16.14.24l.34.59.16.26c.11.19.22.38.34.57l.13.23.38.63s.05.09.08.14c.65,1.08,1.28,2.1,1.9,3.06,6.2,9.69,11.23,14.2,20.93,19a189.16,189.16,0,0,0,16.52-9.88,73.54,73.54,0,0,0-17.08-11.36C264.21,330.34,262,313.13,263.67,298.76Z"/></g></g></svg>