<svg xmlns="http://www.w3.org/2000/svg" xmlns:xlink="http://www.w3.org/1999/xlink" viewBox="0 0 380.54 380.54"><defs><style>.cls-1{fill:#accaff;}.cls-2{fill:#683021;}.cls-3{fill:#783a2a;}.cls-4{fill:#713526;}.cls-5{fill:url(#linear-gradient);}.cls-6{fill:#65291a;}.cls-7{fill:#531f15;}.cls-8{fill:#26110b;}.cls-9{fill:#fff;}.cls-10{fill:#3f0d00;}.cls-11{fill:url(#linear-gradient-2);}.cls-12{fill:url(#linear-gradient-3);}</style><linearGradient id="linear-gradient" x1="209.61" y1="142.23" x2="209.61" y2="18.35" gradientUnits="userSpaceOnUse"><stop offset="0" stop-color="#3f170c"/><stop offset="1" stop-color="#783a2a"/></linearGradient><linearGradient id="linear-gradient-2" x1="160.62" y1="182.45" x2="151.41" y2="181.19" gradientUnits="userSpaceOnUse"><stop offset="0" stop-color="#cf8464"/><stop offset="1"/></linearGradient><linearGradient id="linear-gradient-3" x1="-93.9" y1="182.45" x2="-102.87" y2="181.23" gradientTransform="matrix(-0.89, 0, 0, 1, 164.62, 0)" xlink:href="#linear-gradient-2"/></defs><title>Asset 6</title><g id="Layer_2" data-name="Layer 2"><g id="Avatar_4"><circle class="cls-1" cx="190.27" cy="190.27" r="190.27" transform="translate(-78.81 190.27) rotate(-45)"/><path class="cls-2" d="M263.42,333.71c-8.9-19.28.81-71.19.81-71.19l-146.53-8.9s1.62,68.23-4,81.58c-2.37,5.59-12.28,11.84-23,17.2a190.38,190.38,0,0,0,196.15,1.85C276.82,348.8,267.15,341.78,263.42,333.71Z"/><path class="cls-3" d="M292.44,174.31a37.84,37.84,0,0,0-6.63-.39,75.86,75.86,0,0,1-3.12,8.58l5.07,22.63C291.66,194.21,296.73,186.41,292.44,174.31Z"/><path class="cls-3" d="M287.37,189.14s1.56-9.76,5.07-12.1c0,0,3.64,9.37-2.73,21.07Z"/><path class="cls-3" d="M293,174.16a.56.56,0,0,0-.4-.39,27,27,0,0,0-6.78-.32.48.48,0,0,0-.46.6c.26,1.33-.78,3.24-1.23,4.46s-1,2.65-1.57,4c-.05.14.2.25.26.1.93-2.19,1.79-4.4,2.56-6.66.57-1.69,1.64-1.45,3.11-1.4a31.93,31.93,0,0,1,3.53.32,26.76,26.76,0,0,1,.67,15.5c-1.24,5.07-3.66,9.75-5.17,14.73-.1.34.38.44.5.14A112.89,112.89,0,0,0,293.66,190,27.81,27.81,0,0,0,293,174.16Zm-5.31,24.34a38,38,0,0,1,.59-10.75,63.53,63.53,0,0,1,3.24-9.86c.1-.26-.34-.44-.45-.19-2.65,6.27-5.67,14-4,20.88A.31.31,0,0,0,287.68,198.5Z"/><path class="cls-3" d="M284.64,182.11l-.78-3.51c-.78-9,3.12-33.16,3.12-33.16,2.12-15.68-.58-32-5.41-47-4-12.46-8.2-20.27-18.43-28.77C245.58,55.1,222.81,39.88,199.2,39.32c-32.78-.78-55.41,9.36-83.89,35.89s-30.82,46-31.21,63.6,9.37,38.62,9.37,38.62l-.16-.1c-.08-.09-.15-.19-.23-.29l.08.19-2-1.36c-1.55-1.17-9,2.34-12.09,4.29S75.52,192.26,76.3,202s6.24,15.61,9.36,19.9,5.86,7.8,7.42,12.48,13.65,5.07,13.65,5.07,5.07,22.25,7.41,26.15,16,11.31,16,11.31c11.31,12.09,17.17,19.51,37.45,29.26l55.79,6.24,16.78-7,18-14.82L271.76,273c5.47-7,10.54-35.89,12.1-44.09s5.46-11.31,7-21.07S284.64,182.11,284.64,182.11Z"/><path class="cls-3" d="M132.87,149s-11.31-50.72,7-68.66,73.74-41.36,119.78-.78c0,0,9.75,16.38,10.14,45.64s-3.9,25-3.9,25l-34.72,10.93-4.29,5.07H193.34s-16.38-5.07-17.94-5.46S132.87,149,132.87,149Z"/><path class="cls-3" d="M214,226.2c-17.67,0-32,10.13-32,22.63s14.32,22.63,32,22.63,32-10.13,32-22.63S231.69,226.2,214,226.2Z"/><path class="cls-3" d="M148.87,257.93c16.67-7.31,21.79-32.34,11.44-55.9s-32.24-36.73-48.9-29.41S89.62,205,100,228.52a64.41,64.41,0,0,0,6.09,10.91c.42,0,.67,0,.67,0s.11.5.31,1.35C118.48,256.36,135.39,263.85,148.87,257.93Z"/><path class="cls-3" d="M290.88,207.86c1.56-9.75-6.24-25.75-6.24-25.75l-.78-3.51a67.15,67.15,0,0,1,.22-9.86c-14.79,1-29.94,14.89-36.59,35-8.06,24.44-.59,48.87,16.7,54.57a24.74,24.74,0,0,0,13.17.57c3.06-11,5.5-24.74,6.5-30C285.42,220.74,289.32,217.62,290.88,207.86Z"/><path class="cls-3" d="M79.16,191.35s.26-10.15,9.11-5.2,12.22,20,12.48,22.88l-1.82,5.73s-3.64,5.46,2.08,8.84c0,0-3.9,4.16-7.54.78s-6.25-8.06-9.63-13S77.86,201.49,79.16,191.35Z"/><path class="cls-3" d="M101,223.6c-5.72-3.38-2.08-8.84-2.08-8.84l1.82-5.73c-.26-2.86-3.64-17.94-12.48-22.88s-9.11,5.2-9.11,5.2c-.13,1-.21,2-.27,2.92a5.57,5.57,0,0,1,8.8-1.11c3.35,3.24,1.54,8.64.57,12.68.43-1.4,2.65-4.29,4.42-4.1s2.53,2.9,3.08,4.43a17.27,17.27,0,0,1,1.35,6.51c-.13,2.29-1.9,3-2.34,4.94-.77,3.33,2.71,6.38,5.89,6.31Z"/><path class="cls-4" d="M151.21,287.84c-4.68-5.46-10.54-29.65-16-38.62s-14-19.12-24.58-29.65-8.58-22.63-8.58-22.63c-2.34,4.29,0,13.65,0,13.65s1.56,12.88.78,21.46c-.32,3.48-1.28,5.49-2.3,6.64a39.37,39.37,0,0,0,6.2.77s5.07,22.25,7.41,26.15,16,11.31,16,11.31c11.31,12.09,17.17,19.51,37.45,29.26l7.32.82L168,300.33S155.89,293.31,151.21,287.84Zm124.46-57.35c-7,8.59-9.76,21.46-12.88,36.29a139.76,139.76,0,0,1-7.8,25.35l-.28,1.25,3.4-2.8L271.76,273c5.47-7,10.54-35.89,12.1-44.09,1.49-7.84,5.12-11.05,6.8-19.86C288.09,216.24,281.61,223.23,275.67,230.49Z"/><path class="cls-3" d="M287,145.44c2.12-15.68-.58-32-5.41-47-4-12.46-8.2-20.27-18.43-28.77C245.58,55.1,222.81,39.88,199.2,39.32c-32.78-.78-55.41,9.36-83.89,35.89s-30.82,46-31.21,63.6,9.37,38.62,9.37,38.62l-.16-.1c-.08-.09-.15-.19-.23-.29l.07.17c1.28,2.64,4.82,10.14,5.78,14.27l3.12,5.46,1.56-7.8s.39-9,2.73-15.61,12.49-11.7,16.39-25,1.17-22.63,1.17-37.06,9.75-40.58,39.4-50.72S230,47.91,262.79,77.94c0,0,7.8,11.32,9,39.41s3.91,33.55,6.64,40.19-.27,17.49,5.49,21.23l0-.17C283.08,169.63,287,145.44,287,145.44Z"/><path class="cls-3" d="M287,126.72a122.19,122.19,0,0,0-8-34.39,54.57,54.57,0,0,0-16.62-22.75c-17-14-37.3-28-59.91-29.65a98.92,98.92,0,0,0-54.12,11.14,142.63,142.63,0,0,0-25,17.55c-8.71,7.47-17.16,15.49-24,24.77a75.29,75.29,0,0,0-11.53,22,76.92,76.92,0,0,0-3.16,19.17,85.26,85.26,0,0,0,3.65,28c-1.49-12.1-3.62-45.38,14-68C124.16,66.5,158,41.53,194.9,43.09s49.42,16.65,63,25c12.21,7.52,27.82,41.76,29.2,70.94A83.91,83.91,0,0,0,287,126.72Z"/><path class="cls-3" d="M224.86,205.09c1.91,4,6.46,7.76,5.14,12.64-1.59,5.94-7.32,8.24-12.82,8.89a19.93,19.93,0,0,1-17.09-6.57c-3.48-3.83-3.81-7.31-.87-11.74a18.47,18.47,0,0,0,3.29-12.54c-.2-3.1-1.64-6-1.75-9.17-.12-3.33,1.08-6.22,1.7-9.36.26-1.28-.16-3.4.44-4.49,1.75-3.17,18.65-1.4,18.73-2.34-.18,3.32-.64,7.34.71,10.48,1.73,4,3.34,8.63,2.08,13a15.64,15.64,0,0,0,.05,10.33C224.59,204.5,224.72,204.8,224.86,205.09Z"/><path class="cls-3" d="M198.61,207.08s14.63-7.6,28.09-.78L225,202.4s-13.46-5.07-25.75,1.95Z"/><path class="cls-3" d="M176.57,221.13c-.85,3.38,1.69,4.11,4.29,2.49,2-1.28,5.95-4.6,5.66-7.37-.53-5.08-9.28,2.12-10,4.68Z"/><path class="cls-3" d="M241.68,223.33c-1.56-.29-3.25-3.87-3.91-5.08-.76-1.39-2.15-3.86,0-4.79C242.28,211.58,244.92,223.94,241.68,223.33Z"/><path class="cls-3" d="M187.1,213.13c5.33-4.31,10-8.74,10-16,0-3.5-.62-6.83-.28-10.38.36-3.74,1.57-7.87,1.18-11.64-2.94,2.34-5.68,5.44-8.55,8-3.77,3.41-7.4,7.32-9.71,11.85a25,25,0,0,0-2.39,13.51c.15,1.85.76,7.54,2.54,8.34Z"/><path class="cls-3" d="M233.72,213.72a83,83,0,0,0-5.6-8,11.48,11.48,0,0,1-3-8c-.15-3.18.92-6,.79-9.17s-2.51-6.2-2.39-9.16a4.47,4.47,0,0,0-.17-.52c4.2,5.79,10.35,9.78,14.45,15.88,2.47,3.66,3.07,7.49,3.5,11.8.3,3.07,1.45,7,1,10-1.06-1.53-1.53-3.63-3.63-4.08-1.82-.38-3.5,1.27-4.53,2.58Z"/><path class="cls-3" d="M134,176.26s-17.42-7.8-12.48-17.68a38.07,38.07,0,0,1,20.54-6.51c11.71,0,35.12,4.17,35.12,4.17l14.3,7.54,2.6,2.6s-3.64,13.53-15.08,14.3l-14.83-1.3Z"/><path class="cls-3" d="M231.84,180.42s-9.1-5.72-4.68-14.3l6-6.5s9.88-5.73,10.92-6,13.27-1.3,13.27-1.3l12,1.3,7,4.43s6.24,12-4.95,18.2c0,0-9.62,4.16-10.66,4.16s-9.88-.26-11.44-.26S231.84,180.42,231.84,180.42Z"/><path class="cls-3" d="M160.57,190.83s11.44-4.42,14.83-7.54l4.16,1.3A38.17,38.17,0,0,1,160.57,190.83Z"/><path class="cls-3" d="M244.32,190.83s-7.52-4.42-9.74-7.54l-2.74,1.3A20.79,20.79,0,0,0,244.32,190.83Z"/><path class="cls-3" d="M177.35,228.54s7.61-4.68,14.82-4.48,11.32,1.17,13.66,3.51,16.78,7.21,24.19-4.29c0,0,10.14-.2,11.12,6,0,0-2.93,4.49-5.47,5.27,0,0-7.21,10.73-20.67,11.51s-31-10.73-31-10.73S179.1,232.83,177.35,228.54Z"/><path d="M189.44,229.13a13.23,13.23,0,0,1,12.29,1.56S195.88,235.37,189.44,229.13Z"/><path d="M227.68,230.88l2.14-2.53s4.68-.2,5.85,2C235.67,230.3,234.5,233,227.68,230.88Z"/><path class="cls-5" d="M236,232.47a3.27,3.27,0,0,0-1.49-3.59,6.77,6.77,0,0,0-4.2-.8,11.31,11.31,0,0,0,.69-1.45c0-.14-.18-.28-.28-.16-3.07,3.84-6.35,6.84-11.05,8.56a17.13,17.13,0,0,1-15.71-1.87.08.08,0,0,0-.1.12c4.56,3.71,10,4.44,15.53,2.75,3.75-1.14,8.07-3.7,10.43-7.17a18.47,18.47,0,0,1,3.69.28,3.25,3.25,0,0,1,2.31,3.3C235.77,232.55,236,232.58,236,232.47ZM224.75,202.6c3.72,4.7,8.18,8.87,10.32,14.63,0,0,.05,0,0,0a31.41,31.41,0,0,0-10-15A.28.28,0,0,0,224.75,202.6ZM239.17,212a.26.26,0,0,0-.36.37c3,3.47,4.51,7.36,3.79,12a15.35,15.35,0,0,1-7.17,10.39.1.1,0,0,0,.1.17,14.76,14.76,0,0,0,8.05-10.78A13.22,13.22,0,0,0,239.17,212Zm-14-18.71a17.47,17.47,0,0,0,.1,7.2s.08,0,.07,0c-1-4.85,1.24-9.6.22-14.5-1-5.07-4.09-9.91-1.7-15.07.06-.15-.14-.28-.22-.13-2.52,4.29-.27,9.22,1,13.53A20.24,20.24,0,0,1,225.2,193.26Zm-40.47,37.56a.07.07,0,1,0,.07.12c5.69-3.49,13.22-2.69,18.59.89.19.12.37-.15.23-.3C199.08,226.38,189.85,227.18,184.73,230.82Zm2.78,5.85a20.32,20.32,0,0,1-10.32-8.73c-2.91-5.37.93-10,5.3-12.93a.14.14,0,0,0-.14-.25c-4.73,2.49-8.12,6.9-6.43,12.39,1.61,5.22,6.62,8.23,11.55,9.65A.07.07,0,0,0,187.51,236.67Z"/><path class="cls-3" d="M98,219.11c-.11-.92.7-2.43,1.06-3.23.93-2,2-4.2,1.8-6.46a.32.32,0,0,0-.63-.08c-.4,1.44-.63,2.88-1.17,4.29-.46,1.23-1.05,2.39-1.39,3.67-.62,2.4,1.21,4.7,2.82,6.22.06.06.16,0,.1-.1A7.5,7.5,0,0,1,98,219.11ZM99.89,209a.21.21,0,0,0,.42,0c.35-3.85-1.67-8.06-3.24-11.49s-3.5-7.46-6.13-10.38a9.21,9.21,0,0,0-3.65-2.39,6.83,6.83,0,0,0-3.88,0c-3.19.61-4.29,3.81-4.4,6.69,0,0,0,0,0,0,.25-2.9,2.33-7.85,6.16-6.2a25.07,25.07,0,0,1,3.26,1.38,11.17,11.17,0,0,1,3.21,3.25c.19.26.37.54.56.82a53.56,53.56,0,0,1,.29,8.78c0,1.88-2.54,3.09-3.65,4.57-2.24,3-1.24,6.83-.13,10,0,0,.06,0,0,0a14.67,14.67,0,0,1-.9-6.9c.34-1.88,2-3.32,3.38-4.47.56-.45,1.87-1,2.23-1.63.48-.81.15-2.71.17-3.64a21.14,21.14,0,0,0-.49-5.33A69.19,69.19,0,0,1,97,198.86C98.51,202,99.89,205.45,99.89,209Z"/><path class="cls-4" d="M102,196.92c.25-1.4.55-2.8.84-4.2.26-1.23.51-2.47.74-3.7a42.13,42.13,0,0,0,.8-7.44c0-.34,0-.68,0-1,0,0,0,0,0,0,0,.5,0,1,0,1.48a28.45,28.45,0,0,1-.48,3.79c-.64,3.36-1.75,6.67-2.46,10a21.45,21.45,0,0,0-.22,9.7c.07.28.14.57.23.85a.25.25,0,0,0,.48-.13A23.1,23.1,0,0,1,102,197S102,196.94,102,196.92Zm185.81-8.08c-.83-2.26-1.75-4.49-2.78-6.67a16.16,16.16,0,0,1-.94-6.13c-.08-9.07,1.6-18,2.8-26.94a120.51,120.51,0,0,0,1.16-13c.3-11.86-1.88-23.72-5.26-35.05-2.61-8.75-6-17.26-11.86-24.33a75.51,75.51,0,0,0-11-10.17q-6.21-5-12.79-9.5A115.51,115.51,0,0,0,217.9,42.17c-9.88-3.19-20-3.72-30.34-3.07a97.15,97.15,0,0,0-25.86,5.09C143,50.68,126.92,63.42,112.78,77c-12.62,12.13-23.57,26.66-27.33,44.06a93.11,93.11,0,0,0-1.79,18.32c-.15,9.45,2.34,19,5.35,27.83,1,3,2.17,6.06,3.46,9-.43-.29-.85-.57-1.29-.83-.94-.55-2.51,0-3.44.26-3.1.88-7,2.42-9.45,4.55s-2.49,7.13-2.67,10.08a57.41,57.41,0,0,0,1,16.29c2.09,8.85,9.11,15.17,13.66,22.72,1.17,1.93,1.7,4.18,2.85,6.08a6.73,6.73,0,0,0,3,2.35,26.32,26.32,0,0,0,8.5,2c.58.06,1.17.1,1.76.12a.42.42,0,0,1,0,.06l.24,1c.61,2.63,1.25,5.24,1.91,7.85.86,3.39,1.75,6.77,2.74,10.13a35.29,35.29,0,0,0,2.44,6.77c1.25,2.3,4,4,6.11,5.4,2.72,1.88,5.56,3.57,8.43,5.19,2.53,1.42,4.24,3.67,6.22,5.78,2.66,2.83,5.36,5.63,8.23,8.26,7.31,6.71,15.88,11.68,24.79,16,0,0,.05,0,.05,0s0,0,0,0c-8.6-4.19-16.78-9.09-23.9-15.52-2.87-2.6-5.54-5.41-8.17-8.24-1.89-2-3.67-4.79-6.1-6.16q-4-2.24-7.76-4.72c-2.5-1.64-5.81-3.53-7.35-6.2a33.71,33.71,0,0,1-2.57-7.39c-1-3.36-1.84-6.76-2.68-10.16q-1-4.19-2-8.39a.35.35,0,0,0-.35-.26,39.29,39.29,0,0,1-6-.61c-3.29-.63-6.46-2-7.45-4.84-2.76-7.95-9.5-13.69-13.41-21-2.5-4.69-3.13-9.68-3.37-14.92-.21-4.7-.29-9.72,1-14.28,1-3.58,5.12-4.9,8.29-6.19,1.4-.57,3.32-1.44,4.87-1.14.87.17,1.87,1.2,2.6,1.69h0c.32.57.65,1.12,1,1.67a42.31,42.31,0,0,1,2.35,4.42c1.14,2.62,2.15,5.28,3.08,8a.05.05,0,0,0,.1,0c-.88-2.72-1.59-5.5-2.58-8.2-.74-2-1.72-4.55-3.31-6.18a.48.48,0,0,0,0-.26,107.78,107.78,0,0,1-5.51-14.61,85.26,85.26,0,0,1-3.65-28,76.92,76.92,0,0,1,3.16-19.17,75.29,75.29,0,0,1,11.53-22c6.82-9.28,15.27-17.3,24-24.77a142.63,142.63,0,0,1,25-17.55,98.92,98.92,0,0,1,54.12-11.14c22.61,1.67,42.94,15.67,59.91,29.65A54.57,54.57,0,0,1,279,92.33a122.19,122.19,0,0,1,8,34.39,83.91,83.91,0,0,1,.05,12.28c-.67,10.63-2.8,21.17-3.49,31.85a41.31,41.31,0,0,0,0,7.71,18.27,18.27,0,0,0,1.44,5.3c3.06,6.84,6,14.65,5.66,22.25a22.15,22.15,0,0,1-.7,4.58,53.26,53.26,0,0,1-3.44,9.21,44.79,44.79,0,0,0-3.32,10.41c-1.3,6.95-2.63,13.89-4.22,20.78s-3.11,14.34-6.63,20.49c-2,3.47-4.93,6.58-7.37,9.74q-3.25,4.24-6.52,8.47l-.51.67a.17.17,0,0,0,0,.21c.06.08.16.12.24,0,4.33-5.58,8.73-11.1,13.09-16.66,3.88-5,5.44-11.54,7-17.51,2-7.44,3.49-15,4.94-22.55a70,70,0,0,1,2.08-9.26c1.34-4,3.48-7.68,4.73-11.72C292.65,204.74,290.76,196.75,287.85,188.84Zm-183.66,32a63.37,63.37,0,0,1,2.14,13.53,0,0,0,0,0,0,0,75.66,75.66,0,0,0-4.54-24.84l-.06-.16c0-.1-.22-.09-.21,0a39.18,39.18,0,0,0,.85,4.55C103,216.28,103.63,218.57,104.19,220.86Z"/><path d="M258.89,287.26a78.25,78.25,0,0,1-28.36,11.25c-3.24.57-7.41-1.21-7.15-5.08.18-2.66,3-7.38,5.27-8.71,0,0-4.31,2.54-12.29,2.73A82.12,82.12,0,0,1,200,285.89s5.26,6.83,6.63,9.56c2.82,5.64-8.08,4.79-10.24,4.59-5.4-.48-10.76-1.27-16.1-2.25-13.85-2.53-27.5-9.16-27.5-9.16s1.36,3.31,3.31,4.68,5.27,6,12.29,14.63,17.95,12.48,17.95,12.48c29.85,10.73,44.28-.39,44.28-.39,17.17-8,25.56-27.51,26.53-29.45s4.68-5.08,4.68-5.08Z"/><path class="cls-6" d="M163.69,260.53s19,14.83,35.38,19.77a58.6,58.6,0,0,0,20,2.08,26.69,26.69,0,0,0,17.43-8.06s10.15-10.92,12-12.23-3.13-2.6-3.13-2.6L237,257.93l-39.79,1Z"/><path class="cls-7" d="M185.35,274.41v0a79.92,79.92,0,0,0,13.72,5.84,58.6,58.6,0,0,0,20,2.08,26.69,26.69,0,0,0,17.43-8.06s.39-.41,1-1.09a50.58,50.58,0,0,1-21,6.87C203.64,281.34,185.35,274.41,185.35,274.41Z"/><path class="cls-7" d="M248,258.19c-3.9-.39-14-8.58-23.4-8.58a14.52,14.52,0,0,0-3,.85c-1.58.63-2.68,2.07-4.24,2.59-3.17,1-5.83-2.12-8.75-2.6a18.36,18.36,0,0,0-6.56.39c-2,.47-3.95,1-5.91,1.5-4.61,1.25-9.23,2.59-13.7,4.29-8.19,3.12-11.31,3.51-14.44,3.51s-9.36-1.56-9.36-1.56c15.13,7.57,31,4.87,46.88,4.69l2.67.38c2.73,0,5.07,1.18,7.41,2a22.62,22.62,0,0,0,7.4-3.16c8.1-.79,17.31-2.28,25.37-.74a12.33,12.33,0,0,0,7-6.25S251.87,258.58,248,258.19Z"/><path class="cls-7" d="M207,263.19c-16.25-.58-33,2.5-48.35-4.66-.07,0-.13.07-.06.1a53.81,53.81,0,0,0,23.23,5.61c8.39.29,16.8-.55,25.18-.9A.07.07,0,0,0,207,263.19Zm48.35-7.74a11.64,11.64,0,0,1-6.6,5.64A9.46,9.46,0,0,1,245,261a44.09,44.09,0,0,0-4.88-.31A134.37,134.37,0,0,0,224.33,262a11.06,11.06,0,0,0,1.92-2.19c.1-.16-.12-.29-.24-.18a28,28,0,0,1-9,5,5.76,5.76,0,0,1-4.33-.2,14,14,0,0,0-4.48-.84,0,0,0,0,0,0,0,15.25,15.25,0,0,1,3.84.73c.8.25,2.72.64,3.13,1.46a.52.52,0,0,0,.58.24,19.19,19.19,0,0,0,7.85-3.44c6.22-.52,12.38-1.27,18.63-1.25,1.76,0,4.38-.26,5.91.72.5.31,1.61-.51,2-.71a12.48,12.48,0,0,0,5.29-5.94S255.37,255.41,255.35,255.45Z"/><path d="M121.17,158.71s6.63-3.52,23.8-3.52,20.28.39,23.79,1.57,9.76,5.07,15.22,5.85l4.29.78s5.07,2.34,6.24,3.51c0,0-5.85-10.53-9.75-12.88l1.17,3.52-4.29-3.91s-3.9-.39-11.31-1.17-30.44-7.41-30.44-7.41S134.43,145.83,121.17,158.71Z"/><path d="M276.45,158.71s-4.52-3.52-16.21-3.52-13.81.39-16.2,1.57-6.64,5.07-10.36,5.85l-2.92.78s-3.46,2.34-4.25,3.51c0,0,4-10.53,6.64-12.88l-.8,3.52,2.92-3.91s2.66-.39,7.71-1.17,20.72-7.41,20.72-7.41S267.41,145.83,276.45,158.71Z"/><path class="cls-8" d="M136.68,170.05c3.9-4.92,12-6.47,17.88-6.83,7.1-.44,14.83,1.15,19.95,6.38.14.14.32-.06.21-.2-4.56-5.89-13.21-7.16-20.16-7-6.34.2-14.29,1.81-18,7.55,0,0,0,.09.08.05Z"/><path d="M136.9,178.86l-3.12-2.6s4.68-6.76,17.43-8.84,22.11,4.42,25.49,10.4l-14,2.09Z"/><path class="cls-9" d="M136.38,177.3c9.37-11.44,31.47-9.88,40.32,1.3l2.6,2.08-3.38-.52c-10.67,5.73-27.83,9.37-39-1Z"/><path class="cls-10" d="M165.34,175.8a10,10,0,0,0-1.47-5.2,31.42,31.42,0,0,0-17.15.06,10,10,0,0,0,7.2,15.05c1,0,2.07,0,3.11-.05A10,10,0,0,0,165.34,175.8Z"/><path class="cls-10" d="M155.31,184.67a8.87,8.87,0,0,0,6.87-14.48,31.57,31.57,0,0,0-13.75,0,8.87,8.87,0,0,0,6.88,14.46Z"/><path d="M160.55,175.8a5.24,5.24,0,1,1-5.24-5.23A5.23,5.23,0,0,1,160.55,175.8Z"/><path d="M159,175.8a3.7,3.7,0,1,1-3.7-3.7A3.7,3.7,0,0,1,159,175.8Z"/><path class="cls-9" d="M157.46,171.45a2.15,2.15,0,1,1-2.15-2.14A2.15,2.15,0,0,1,157.46,171.45Z"/><path d="M136.44,177.36c5.11-5.52,13-7.68,20.29-7.46a30.18,30.18,0,0,1,11.08,2.47,27.38,27.38,0,0,1,8.71,6.41c.2.19.55-.06.39-.3-4.12-6.29-13.11-9-20.18-9.44a28.71,28.71,0,0,0-11.9,1.78,18.62,18.62,0,0,0-8.52,6.44c-.05.08.07.16.13.1Z"/><path class="cls-11" d="M136.84,179.19c10.55,9.64,27.49,7.88,39.12,1.05.1-.06,0-.2-.09-.15-12.23,5.81-27.83,9-38.91-1-.08-.08-.21.05-.12.13Z"/><path class="cls-8" d="M269.12,170.05c-3.39-4.92-10.43-6.47-15.53-6.83-6.17-.44-12.88,1.15-17.34,6.38-.11.14-.27-.06-.18-.2,4-5.89,11.48-7.16,17.52-7,5.51.2,12.41,1.81,15.59,7.55,0,0,0,.09-.06.05Z"/><path d="M268.92,178.86l2.71-2.6s-4.06-6.76-15.13-8.84a20.34,20.34,0,0,0-22.14,10.4l12.2,2.09Z"/><path class="cls-9" d="M269.37,177.3c-8.13-11.44-27.33-9.88-35,1.3l-2.26,2.08,2.93-.52c9.27,5.73,24.18,9.37,33.89-1Z"/><path class="cls-10" d="M260.84,175.8a10.26,10.26,0,0,0-1.58-5.5,24.11,24.11,0,0,0-16.81,1.52,10.31,10.31,0,0,0-.79,4,10,10,0,0,0,6.41,9.44,29.48,29.48,0,0,0,4.5.48A9.89,9.89,0,0,0,260.84,175.8Z"/><path class="cls-10" d="M251.25,184.67a8.68,8.68,0,0,0,8.49-8.87,9,9,0,0,0-2.17-5.9,24.34,24.34,0,0,0-13.52,1.22,9.12,9.12,0,0,0-1.29,4.68A8.68,8.68,0,0,0,251.25,184.67Z"/><path d="M256.26,175.8a5,5,0,1,1-5-5.23A5.13,5.13,0,0,1,256.26,175.8Z"/><path d="M254.79,175.8a3.54,3.54,0,1,1-3.54-3.7A3.63,3.63,0,0,1,254.79,175.8Z"/><path class="cls-9" d="M253.3,171.45a2.05,2.05,0,1,1-2.05-2.14A2.1,2.1,0,0,1,253.3,171.45Z"/><path d="M269.33,177.36c-4.44-5.52-11.3-7.68-17.63-7.46a23.42,23.42,0,0,0-9.63,2.47,24.27,24.27,0,0,0-7.56,6.41c-.17.19-.47-.06-.34-.3,3.58-6.29,11.39-9,17.53-9.44A22,22,0,0,1,262,170.82a16.55,16.55,0,0,1,7.39,6.44c.05.08-.05.16-.1.1Z"/><path class="cls-12" d="M269,179.19c-9.17,9.64-23.89,7.88-34,1.05-.09-.06,0-.2.07-.15,10.63,5.81,24.18,9,33.8-1,.07-.08.18.05.11.13Z"/></g></g></svg>