<svg xmlns="http://www.w3.org/2000/svg" xmlns:xlink="http://www.w3.org/1999/xlink" viewBox="0 0 380.54 380.54"><defs><style>.cls-1{fill:#ffc6ff;}.cls-2{fill:#f49e7f;}.cls-3{fill:#f6ae94;}.cls-4{fill:#cb6d50;}.cls-5{fill:#e88665;}.cls-6{fill:#742e2c;}.cls-7{fill:#de4d71;}.cls-8{fill:#c70046;}.cls-9{fill:#fff;}.cls-10{fill:url(#linear-gradient);}.cls-11{fill:url(#linear-gradient-2);}.cls-12{fill:url(#linear-gradient-3);}.cls-13{fill:url(#linear-gradient-4);}.cls-14{fill:url(#linear-gradient-5);}.cls-15{fill:#c27ba6;}.cls-16{fill:#87799a;}.cls-17{fill:#ffbeff;}.cls-18{fill:#ffdcff;}</style><linearGradient id="linear-gradient" x1="220.33" y1="189.36" x2="224.32" y2="217.74" gradientUnits="userSpaceOnUse"><stop offset="0" stop-color="#156d1e"/><stop offset="1" stop-color="#32a92d"/></linearGradient><linearGradient id="linear-gradient-2" x1="219.81" y1="189.44" x2="223.8" y2="217.82" xlink:href="#linear-gradient"/><linearGradient id="linear-gradient-3" x1="220.06" y1="191.23" x2="223.53" y2="215.89" gradientUnits="userSpaceOnUse"><stop offset="0" stop-color="#156d1e"/><stop offset="1" stop-color="#76d74c"/></linearGradient><linearGradient id="linear-gradient-4" x1="120.28" y1="183.52" x2="123.74" y2="208.06" gradientTransform="matrix(0.92, -0.05, 0.06, 1.03, 19.12, 10.75)" xlink:href="#linear-gradient"/><linearGradient id="linear-gradient-5" x1="121.3" y1="184.95" x2="124.3" y2="206.28" gradientTransform="matrix(0.92, -0.05, 0.06, 1.03, 19.12, 10.75)" xlink:href="#linear-gradient-3"/></defs><title>Asset 9</title><g id="Layer_2" data-name="Layer 2"><g id="Avatar_7"><circle class="cls-1" cx="190.27" cy="190.27" r="190.27" transform="translate(-78.81 190.27) rotate(-45)"/><path class="cls-2" d="M270,363.09c-4.43-4.09-8.07-9.38-12.83-17.64-9.61-16.69-8.09-64.72-8.09-64.72l-59.67,31.34c4,39.45-8.59,56.13-23.26,64.22-1.17.65-2.45,1.39-3.8,2.2A190.94,190.94,0,0,0,270,363.09Z"/><path class="cls-3" d="M295.31,186.2c-1-.71-4.79-1.77-5.83-2C292,164.43,298.3,127.74,271,98.64c-30.68-32.72-72.61-32.72-95.63-27.1s-50.11,28.64-55.74,53.7S117.56,157.86,115,166s-7.08,19.21-1,31.35a119.37,119.37,0,0,1,3,25.78c0,13.66,8.09,32.87,23.26,52.08s24.35,39.3,42,41c26.8,2.53,64.89-21.62,77.87-49.51a147.1,147.1,0,0,0,8.6-25.39c4.25.78,7.67-2,10.63-6.48,3.8-5.69,8.73-9.48,12.52-14.79C297.59,212,303.65,192.27,295.31,186.2Z"/><path class="cls-3" d="M126.83,124a43.17,43.17,0,0,1,13-19.24C151.45,95,168.27,90.48,183.3,91.46c7.93.52,17.49,2.5,24.58,6.27,13,6.9,20.28,14.28,22.57,29.17,1,6.26.94,12.66,2.1,18.9.21,1.14,5.25,15.72,7.4,13.86,0,0-8.72,7.58-9.86,7.58s-113,4.17-113,4.17l-2.65-1.51s7.59-10.62,8-19C122.81,141.82,123.84,132.47,126.83,124Z"/><path class="cls-3" d="M157.26,248.62s.25,2.78,4.3,3.29a7.38,7.38,0,0,0,8.34-4.81c1.51-3.54,4.55-22.25,3.54-42.72l-15.17.25s2.78,21.24,2.27,28.06S157.26,248.62,157.26,248.62Z"/><path class="cls-3" d="M158.18,244.66a8,8,0,0,1,4-1.52c2,0,9.44,2.87,9.44,2.87l1-2s-7.75-3-10.45-3a5.28,5.28,0,0,0-2.87,1Z"/><path class="cls-3" d="M205.44,220.52a8.91,8.91,0,1,1-8.91-8.91A8.91,8.91,0,0,1,205.44,220.52Z"/><path class="cls-3" d="M159.15,220c.39,4.59-2.31,8.57-6,8.87s-7-3.16-7.4-7.75,2.31-8.57,6-8.88S158.77,215.37,159.15,220Z"/><path class="cls-3" d="M263.67,251.81c-9.2,16.05-26.13,23.63-37.79,16.94s-13.67-25.13-4.46-41.18,26.13-23.63,37.79-16.94S272.88,235.76,263.67,251.81Z"/><path class="cls-3" d="M145.89,236.05c-5.27-15.73-18.44-26.7-29.49-24.6a110,110,0,0,1,.66,11.63c0,12.12,6.38,28.62,18.42,45.62C146.51,266.42,151.17,251.82,145.89,236.05Z"/><path class="cls-3" d="M118.22,198.34s-3.79-26.93,5.69-31.1,21.24.76,21.24.76l6.44,8,.76,2.66s3.79,16.68,2.66,43.61l-11-8.73s-9.1-9.1-11-9.48-9.48-.37-9.48-.37Z"/><path class="cls-3" d="M193.3,220.33s-7.58-39.44,1.52-51.57,23.89-11,23.89-11l15.93,1.52s14.79,4.17,17.82,7.58c0,0,0,22-9.86,42.09Z"/><path class="cls-3" d="M156.33,251.23c-.2.88,2.79,2.68,3.36,2.92,4,1.73,8.53-.42,12.31-1.74,3.38-1.18,8.77,1.86,9.27,3.71,0,0,.17,2.19-1.18,2.53s-21.4.17-21.4.17l-2.19-1.35-.84-3.2S156.33,251.24,156.33,251.23Z"/><path class="cls-3" d="M156,253.68s1.27,3.53,6.57,3.28,8.6-2.78,10.37-3.28,8.09,1.26,7.84,3.28l-.51,2s-3,13.4-9.1,13.66S166.1,264,161.81,262C161.81,262,156,258.48,156,253.68Z"/><path class="cls-3" d="M175.46,299.94s8.09.5,10.36,0c0,0-1.26,4.3-3.79,4.05S175.46,299.94,175.46,299.94Z"/><path class="cls-3" d="M152.45,276.43,150.94,280S147.65,276.43,152.45,276.43Z"/><path class="cls-3" d="M223,274.91l2.78,4.3S229.06,275.42,223,274.91Z"/><path class="cls-4" d="M213.78,178.24s11-4.93,25.79,2.65C239.57,180.89,225.54,168,213.78,178.24Z"/><path class="cls-4" d="M144.5,181.94s-8.42-4-18.84,3.77C125.66,185.71,135.18,173,144.5,181.94Z"/><path class="cls-5" d="M291.63,189l-2.11,2c-2.25,1.36-7.12,8.49-7.12,8.49l-2.82,4.38-.09-.08c-1.51,1.38-4.55,8.46-4.55,8.46l.16.5-.16.14a5.57,5.57,0,0,1,.4.59l.57,1.79a7.89,7.89,0,0,1-1.47,5s4.29-1.52,5.18-4.55a5.34,5.34,0,0,0-1.5-5c.45-1.06.9-2,1.25-2.67a2.57,2.57,0,0,1,3-1.38l-1.07-1,.44.14c-.63-1.26,2.4-4.3,2.4-4.3l-.07-.07c1.15.89,2.47,1.72,2.47,1.72s-1.26-3.42,0-5.44c.93-1.48,3.42-3,4.68-3.65a27.75,27.75,0,0,1,4,5.42S293.4,190.85,291.63,189Zm-9.1,25.91.76-4.3S281.52,211.58,282.53,214.87Zm2.9,2.78c2.66-5.06,1.39-8.47,1.39-8.47A48.34,48.34,0,0,0,285.43,217.65Zm7.34-15.3c1.26,3.42-1.27,13.15-1.27,13.15,4.05-6.95,3.41-12.39,3.41-12.39Z"/><path class="cls-3" d="M160.71,259.32s4.89,3,7.08,2.87a5,5,0,0,0,4-3.37S165.09,260.5,160.71,259.32Z"/><path class="cls-4" d="M299.29,192.86a11.57,11.57,0,0,0-3.2-6.42,9.54,9.54,0,0,0-10-1.81,12.53,12.53,0,0,0-4.49,2.93,8.69,8.69,0,0,0-1.3,2.14c-.49.86-.91,1.76-1.36,2.64-1.94,3.87-3.69,7.9-6.43,11.3a0,0,0,1,0,0,0,43.86,43.86,0,0,0,5-8.07c.71-1.38,1.42-2.77,2.22-4.1a11.64,11.64,0,0,1,2.93-3.73c2.86-1.95,5.72-3.29,9.28-2.63a8.44,8.44,0,0,1,6,4.71c2.16,4.55,1.31,10.29.2,15a50.93,50.93,0,0,1-5.73,14.05c-3.26,5.54-8.56,9.56-12.37,14.69-1.85,2.48-3.5,5.06-6.27,6.62s-6,.88-8.7-.68a.19.19,0,0,0-.19.34,9,9,0,0,0,7.34,1.43c2.55-.68,4.56-2.78,6.12-4.79,1-1.24,1.78-2.6,2.73-3.86a58.55,58.55,0,0,1,3.91-4.57c2.3-2.51,4.75-5,6.8-7.67a41.28,41.28,0,0,0,6.11-12.95C299.28,202.79,300.13,197.68,299.29,192.86Zm-27.12,32.78s0,0,0,0c.3-2.75,2-4.74,3.31-7a6,6,0,0,0,.15-6.11c-.29-.58-1.18-.07-.87.51a6.13,6.13,0,0,1-.35,6.8A12.36,12.36,0,0,0,272.17,225.64Zm19.71-36c.44-.35-.16-1.13-.61-.79a33,33,0,0,0-4.36,4.32,57.14,57.14,0,0,0-4.35,5.55,73.38,73.38,0,0,0-7.47,12.87c-.07.16.16.31.25.14,1.23-2.33,2.46-4.65,3.78-6.91a.29.29,0,0,0,.26.29c3.27.21,4.44,3.74,3.77,6.54,0,0,0,.05.05,0,1-2.77-.37-7-3.82-7.11a.21.21,0,0,0-.12,0c1-1.64,2-3.25,3.05-4.82a4.47,4.47,0,0,0,2.28,2.58,12.48,12.48,0,0,1,1.9,1.21c.7.64.64,1.86.59,2.72-.2,3.87-1.9,7.52-1.63,11.45h0c-.24-4,1.6-7.8,1.88-11.76.09-1.38.13-2.68-1-3.59s-3.07-1.5-3.73-3h0a54.44,54.44,0,0,1,4.49-5.55A41.21,41.21,0,0,1,291.88,189.59Z"/><path class="cls-4" d="M159.93,230.19a22.68,22.68,0,0,1-1,12.18c-1.07,3.2-2.9,6.19-3.62,9.5a8.14,8.14,0,0,0,2,7.51,13.07,13.07,0,0,0,5.13,3.22,23.65,23.65,0,0,0,3.81.88,11.39,11.39,0,0,0,3.67.3.23.23,0,0,0,0-.44c-1.16-.2-2.34-.23-3.5-.46a16.62,16.62,0,0,1-3.88-1.6,14,14,0,0,1-4.74-3.47c-1.86-2.22-1.44-5.13-.84-7.73.73-3.18,2-6.19,2.8-9.35a21.27,21.27,0,0,0,.25-10.54Z"/><path class="cls-4" d="M174.08,260.5c-.63-1.55.54-1.89,1.84-2a9.86,9.86,0,0,1,3.71.21c.12,0,.17-.16.05-.2-1.57-.51-3.23-1.13-4.88-.66-1.37.4-1.51,1.59-.93,2.71.06.12.26,0,.21-.08Z"/><path class="cls-4" d="M179.3,260.19c2-1.36,2.6-4.2,2.37-6.49a.12.12,0,0,0-.24,0c-.29,2.51-.37,4.47-2.19,6.41a.05.05,0,0,0,.06.08Z"/><path class="cls-6" d="M174.07,259.43s-.19-1.27,3.54-.89C177.61,258.54,175.71,260,174.07,259.43Z"/><path class="cls-3" d="M155.32,278.37s5.11-4.4,8.82-5.08c2.36-.43,4.23,1.65,6.48,1.89,2.64.28,4.9-1.27,7.52-1.38,3.87-.17,5.9.38,13.65,1.89s26.4,1.66,28.08,1.5c0,0-10.79,6.06-13.82,6.06s-23.6,2-24.44,2.19-10.62-.5-12.47-.5Z"/><path class="cls-7" d="M210.75,277.86a27.35,27.35,0,0,1-6.46,1.23c-5.88,0-30.5.49-31.15.73s-11.77-.24-12.42-.24h-4.57a55,55,0,0,0,4.13,6.13c.15.18.28.37.41.56l.12.21c.08.13.16.26.23.39l.13.27c.06.12.12.24.17.37a2.55,2.55,0,0,1,.13.29l.14.36c.92,2.44,1.21,5.22,2.6,6.62,2.17,2.21,14.81,4.66,22.21,1.23a108.57,108.57,0,0,0,11.38-6.84h0l.07-.05,1.05-.7.26-.17,1.12-.75,0,0,1.12-.75.18-.13,1.16-.78,0,0L204,285l.13-.08,2.3-1.59,0,0,1.13-.78h0c2.24-1.55,4.22-2.95,5.71-4l.06,0,1.27-.91,0,0,.9-.64.07-.06.15-.1.22-.16,0,0,.11-.08S213.54,277.24,210.75,277.86Z"/><path class="cls-8" d="M216.18,276.4l-.05,0-4.87.71a79.71,79.71,0,0,1-17.65.73c-6.53-.49-14.16-2.7-17.86-2a13.35,13.35,0,0,0-5.88,2.7s-3.92-3.44-5.66-3.44-4.58,1.48-6.54,2.7-4.45-.44-4.83-.68l-.05,0h0a0,0,0,0,0,0,0,16.69,16.69,0,0,0,1.61,1.35l.11.08c.23.18.47.35.71.51a21.06,21.06,0,0,0,6.73,3c1,.32,2.1.61,3.18.89.08,0,.78,0,.84.13a3.19,3.19,0,0,0,.75.95,5.11,5.11,0,0,0,2.43,1.09,7.69,7.69,0,0,0,2.83,0,7.43,7.43,0,0,0,2.76-.6.11.11,0,0,0,.05-.13l2.82-.7s0,0,0,0a103.68,103.68,0,0,0,19-1.41,83,83,0,0,0,10.05-2.18c1.58-.46,3.15-1,4.69-1.56s3.19-1.49,4.8-2.23C216.19,276.42,216.19,276.4,216.18,276.4Z"/><path d="M190,176.21a111.64,111.64,0,0,0,13.48-7.94,35.88,35.88,0,0,1,14.31-6.64c7.27-1.48,18.43-2.19,34.39,4.86,1,0,2.1-.05,3.16,0a107.58,107.58,0,0,0-22.34-9.3c-13.17-3.78-25.17-1.87-34.31,3C189.28,165.28,185.87,173.34,190,176.21Z"/><path d="M195.24,173.07c-2.15,1.24-3.89,2.17-4.7,2.59a4,4,0,0,1-1.13-3.52c.35-3.35,4-8,9.85-11.18a39.89,39.89,0,0,1,7-2.94,44.75,44.75,0,0,1,26.58.27,98.49,98.49,0,0,1,19.79,8.56h-.53c-12-6-22.86-7-31-6.05a34.79,34.79,0,0,0-16.91,6.49l-1.08.77a92,92,0,0,1-7.89,5Z"/><path d="M152.68,179.18a24.84,24.84,0,0,1-8.22-5.43c-2.1-2-4.18-4.14-8.3-5.4-4-1.1-10.24-1.36-18.58,4.37-.67-.21-1.35-.4-2-.58a66.54,66.54,0,0,1,12-8.23,18.3,18.3,0,0,1,18.55,1C151.8,168.45,154.62,175.05,152.68,179.18Z"/><path d="M149.33,177a25.41,25.41,0,0,0,2.88,1.5,7.82,7.82,0,0,0,.22-3.95c-.57-3.17-3.11-6.84-6.65-9a20.65,20.65,0,0,0-4-2,16.77,16.77,0,0,0-14.08,1.25,58.72,58.72,0,0,0-10.39,7.62l.35.1c6.28-4.77,12.23-5.77,16.64-5.08a17.21,17.21,0,0,1,9.61,5.19l.65.64a26.66,26.66,0,0,0,4.79,3.72Z"/><path d="M218,220.33l7.21,3.79s10.24-5.31,17.06-8.34l.76-9.1-24.65,12.13Z"/><path d="M241.69,194.48s9.39-5.58,12.24-13.25c0,0-.72,9.91-12.1,17.67Z"/><path d="M244.48,196.79a17.75,17.75,0,0,0,5.05-6.82s-10.11-8.6-28.06-6.83-24,22.25-27.3,35.14l17.44-6.07Z"/><path d="M196,216.31c1.69-6.32,3.92-13.26,7.45-19.12,4.73-7.87,10.67-12.05,18.16-12.79a46.48,46.48,0,0,1,4.69-.24c11.81,0,19.4,4.61,21.7,6.22a17.34,17.34,0,0,1-4.19,5.33L211.13,211,196,216.31Z"/><path class="cls-9" d="M219.85,189.24c-14.41,1.89-22.75,19-26.55,31.47a42.34,42.34,0,0,1,7.84-1.13,82.81,82.81,0,0,0,17.27,2.22l.3,0c5.31.75,4.55,0,4.55,0,5.69-1.52,11.38-3.42,15.55-7.59a25.2,25.2,0,0,0,5.31-15.54v-2.66A33.5,33.5,0,0,0,219.85,189.24Z"/><path class="cls-10" d="M218.71,221.85l-.3,0-2.14-.09a17,17,0,0,0,5.45.89,17.32,17.32,0,0,0,11.3-4.23,49.86,49.86,0,0,1-9.76,3.48S224,222.6,218.71,221.85Z"/><path class="cls-11" d="M239.9,203.07a20.43,20.43,0,0,0-3.45-11.45,32.35,32.35,0,0,0-16.6-2.38c-6.51.85-11.79,4.81-16,10a20.55,20.55,0,0,0-.35,3.79c0,8.75,5.35,16.15,12.73,18.64l2.14.09.3,0c5.31.75,4.55,0,4.55,0a49.86,49.86,0,0,0,9.76-3.48A20.06,20.06,0,0,0,239.9,203.07Z"/><path class="cls-12" d="M221.72,220.05c8.73,0,15.8-7.61,15.8-17a17.45,17.45,0,0,0-5.64-13,31.76,31.76,0,0,0-12-.83,22.28,22.28,0,0,0-12.09,5.9,17.86,17.86,0,0,0-1.83,7.93C205.93,212.44,213,220.05,221.72,220.05Z"/><path d="M232.89,203.07c0,6.63-5,12-11.17,12s-11.17-5.37-11.17-12,5-12,11.17-12S232.89,196.44,232.89,203.07Z"/><path d="M231.43,203.07c0,5.76-4.35,10.43-9.71,10.43s-9.7-4.67-9.7-10.43,4.34-10.43,9.7-10.43S231.43,197.31,231.43,203.07Z"/><path d="M231.43,203.07c0,5.76-4.35,10.43-9.71,10.43s-9.7-4.67-9.7-10.43,4.34-10.43,9.7-10.43S231.43,197.31,231.43,203.07Z"/><path class="cls-9" d="M217.5,193.55a4.23,4.23,0,1,0,4.58-4.51c-.42,0-.85.05-1.27.09A4.48,4.48,0,0,0,217.5,193.55Z"/><path class="cls-9" d="M223.9,214.84a2.18,2.18,0,1,1-2.18-2.34A2.26,2.26,0,0,1,223.9,214.84Z"/><path d="M244.19,196c-9-8.21-24.09-10.68-34.26-3.34A36.46,36.46,0,0,0,199.69,205a75.05,75.05,0,0,0-6.17,14.86l-.24.86a0,0,0,1,0,.05,0c3.27-9.82,7.95-20.08,16.41-26.52,4.63-3.53,10-4.77,15.77-4.47,6.69.35,12.92,3,18.55,6.42A.1.1,0,0,0,244.19,196Zm-5.41,18.25a30,30,0,0,1-7.26,4.66c-2.67,1.21-5.5,2-8.26,2.93,0,0,0,0,0,0,5.52-1.06,11.72-3.29,15.57-7.58C238.87,214.25,238.82,214.21,238.78,214.24Z"/><path d="M130,214.64v3.79s5.69,3,11.38,6.83l5.68-4.17Z"/><path d="M127.93,206.65s-9.45-4.27-13.5-12.11c0,0,9.45,8.82,14.76,9.84Z"/><path d="M127.42,205.64s-2.52-.5-5.56-3.79c0,0,.14-11.16,9.86-14.92,7.84-3,14.14,3.12,17.43,9.7a40.93,40.93,0,0,1,3.32,11.85c.3,1.78.33,10.21,1.75,11.32,0,0-9.1-7.08-10.11-7.33S127.42,205.64,127.42,205.64Z"/><path d="M151.87,216.39c-6.43-4.89-7.18-5.08-7.45-5.15-.84-.24-10.57-4.28-16.51-6.77l-.1,0-.12,0a10.52,10.52,0,0,1-4.54-3c.16-2.12,1.25-10.25,9-13.26a10.09,10.09,0,0,1,3.63-.71c6.78,0,11.06,7.5,12.21,9.79,1.79,3.57,2.54,7.48,3.21,11.5.07.41.13,1.42.2,2.48.13,2.13.27,3.85.44,5.22Z"/><path class="cls-9" d="M126.94,205.92l.38,1.52a28.81,28.81,0,0,0,4.55,9.1c2.51,3.24,4.43,4.41,8,6.06,4.66,2.18,10.95-3.25,14.79-.37-1.14-8-1.52-16.31-6.45-23.89C141.85,188.6,128.46,188.48,126.94,205.92Z"/><path class="cls-13" d="M136.6,191.8c-2.38,3.34-3.75,8.31-3.45,13.8.53,9.62,6,17.15,12.24,16.81,3.51-.19,6.5-2.84,8.36-6.82-.81-5.86-2-11.76-5.57-17.25C145.22,193.78,140.71,191.33,136.6,191.8Z"/><path class="cls-14" d="M134.63,205.51c.46,8.37,5.22,14.91,10.64,14.61,3.55-.19,6.5-3.29,8-7.75a36.25,36.25,0,0,0-5.07-14,13.88,13.88,0,0,0-9.1-6.48C136.13,194.58,134.31,199.72,134.63,205.51Z"/><path d="M143.84,194.26c-3.83.21-6.67,5.18-6.34,11.1s3.69,10.54,7.52,10.33,6.57-5,6.36-10.8a31,31,0,0,0-3.2-6.55,16.24,16.24,0,0,0-3.71-4.07A4.42,4.42,0,0,0,143.84,194.26Z"/><path d="M150.46,204.64c.28,5.14-2.19,9.46-5.52,9.64s-6.25-3.83-6.53-9,2.18-9.46,5.51-9.65S150.17,199.5,150.46,204.64Z"/><path d="M150.46,204.64c.28,5.14-2.19,9.46-5.52,9.64s-6.25-3.83-6.53-9,2.18-9.46,5.51-9.65S150.17,199.5,150.46,204.64Z"/><path class="cls-9" d="M141.35,196.63c.12,2.23,1.39,4,2.84,3.9s2.52-2,2.39-4.19a.41.41,0,0,0,0-.11A14.42,14.42,0,0,0,142.5,193,4.74,4.74,0,0,0,141.35,196.63Z"/><path class="cls-9" d="M146.36,215.4c.07,1.16-.49,2.12-1.23,2.16s-1.41-.86-1.47-2,.49-2.12,1.24-2.16S146.3,214.25,146.36,215.4Z"/><path d="M153.38,212.18a44.56,44.56,0,0,0-2.83-10c-1.75-4.07-4.54-8.43-8.85-10.17a9.58,9.58,0,0,0-9.58,1.05c-3.69,2.92-4.87,8-5.17,12.44l0,.4a0,0,0,1,0,0,0c.55-4.42,1.94-9.34,5.75-12.06a9,9,0,0,1,9.17-.54c4.21,1.93,6.82,5.78,8.63,9.92a41.21,41.21,0,0,1,2.64,9.45c.55,3.16.66,6.44,1.38,9.56,0,.11.2.09.19,0A85.36,85.36,0,0,0,153.38,212.18Zm-13.5,10.35c-1.38-.83-2.84-1.54-4.18-2.44a20.1,20.1,0,0,1-3.79-3.58s-.1,0-.07.05a16.15,16.15,0,0,0,8,6.13C139.91,222.73,140,222.58,139.88,222.53Z"/><path class="cls-15" d="M316,190.54c.06-.16.12-.33.17-.51s.09-.25.13-.38.12-.37.17-.55l.14-.44c.06-.2.12-.4.17-.61s.09-.31.14-.48.12-.44.18-.66.09-.34.13-.52.12-.47.18-.72.09-.35.14-.54.12-.53.19-.8l.12-.53.06-.26h0c5.73-25.78,9.91-93.24-42.92-121C214.35,30.72,142.55,65.1,142.55,65.1c-73.68,36.4-79.17,72-79.41,80.17h0c-.16.41-.32.82-.47,1.24l.46-.45h0a8.8,8.8,0,0,0,0,.95,13.39,13.39,0,0,1,.78-1.9c.09-.21.2-.41.31-.62s.19-.36.3-.54.24-.42.38-.64l.35-.55c.14-.22.28-.44.44-.66s.26-.37.39-.56l.5-.68.43-.56.55-.7.46-.56.61-.72.48-.54c.22-.25.43-.5.66-.74l.48-.52.73-.78c.12-.13.24-.26.37-.38,1-1,2-2,3-3l.5-.49.79-.73.59-.55.77-.69.63-.57.76-.67.65-.57.75-.65.65-.57.75-.63.65-.55.73-.6.66-.55L84,124l.64-.52.68-.55.64-.51.65-.52c.21-.16.42-.32.62-.49l.62-.48.61-.47L89,120l.58-.45.53-.4.56-.42.48-.37.5-.38.45-.33.47-.35L93,117l.4-.3.36-.25a3.43,3.43,0,0,1,.33-.24l.29-.22.31-.22.2-.14.23-.17.15-.1.11-.09.19-.13-.47.46h0c-24.4,24-31.4,41.08-30.39,52.64.68,7.85,1.82,16.85,2.49,21.87h0c.33,2.41.54,3.91.54,3.91.06-.72.14-1.43.22-2.14,0-.24.06-.47.09-.71,0-.47.11-.94.18-1.4l.12-.84c.07-.41.13-.82.2-1.24s.1-.58.16-.87l.21-1.17.18-.89.24-1.12c.06-.29.13-.59.2-.88s.17-.73.26-1.09.14-.58.22-.87l.27-1.06.24-.85c.09-.35.19-.69.29-1s.16-.56.25-.83.21-.69.31-1,.17-.53.25-.79.23-.68.34-1,.17-.5.25-.75l.36-1c.09-.24.17-.47.25-.7l.41-1.08c.07-.19.14-.39.22-.58.19-.5.39-1,.58-1.48l.08-.18c.2-.5.4-1,.61-1.48l.23-.53.41-1,.27-.58c.12-.29.25-.57.38-.85l.27-.58c.13-.26.25-.52.37-.78s.18-.38.28-.57l.35-.72.28-.56c.11-.22.22-.45.34-.67l.27-.52.33-.64.26-.48.32-.6c.08-.15.16-.3.25-.45l.31-.56.22-.4.32-.55.19-.33c.11-.2.22-.38.33-.56l.14-.24c.13-.23.26-.44.39-.64l0-.08c1-1.64,1.63-2.53,1.63-2.53-.52,1.59-1,3.16-1.46,4.7l0-.05c-.36,1.21-.69,2.4-1,3.59l-.27,1c-.31,1.19-.61,2.38-.88,3.54-.05.2-.1.4-.14.61l-.42,1.8.1-.4c-7.23,32.53-.16,52.78,2.28,58.41l0,.11c.18.42.34.75.46,1v0l.16.34,0,0,0,.08,0,0C79.86,209.21,93,165.72,93,165.72c-.22.93-.42,1.85-.6,2.74,0,.08,0,.15,0,.23-.18.88-.33,1.75-.47,2.6,0,0,0,0,0,.06q-.21,1.32-.36,2.61v.11c-.1.86-.18,1.72-.25,2.56h0c-1.47,19.21,5.79,34.86,5.79,75.56,0,48-33.88,49-33.88,49a36.09,36.09,0,0,0,10.4.84h.05c16.8-1,33.26-12.1,40.63-17.77h0l.9-.7,0,0L116,283h0c.5-.39.92-.74,1.26-1h0l.43-.36,0,0,.3-.26,0,0,.18-.16,0,0,0,0c1,10.61-8.59,21.23-8.59,21.23.75,0,1.5,0,2.24-.05h0l.64,0c1.65-.09,3.26-.27,4.83-.51l.41-.06,1.23-.22.67-.13c.38-.07.76-.16,1.13-.24l.72-.16,1.07-.28.73-.19,1-.29.74-.22,1-.32.73-.24.93-.34.71-.26.91-.35.68-.28.87-.37.67-.29.83-.38.65-.3.79-.39.62-.31.77-.4.59-.32.73-.4.56-.32.69-.4.54-.32c.22-.13.44-.26.65-.4s.35-.21.52-.32l.61-.39.49-.32.57-.38.45-.31c.19-.12.36-.25.54-.37l.42-.3.5-.36.39-.29.45-.34.37-.27.41-.32.33-.26.37-.3.29-.24.33-.27.26-.22.28-.24.23-.2.23-.2a1.8,1.8,0,0,0,.2-.18l.19-.16.16-.15.14-.13.13-.13.08-.07.12-.12h0l.05,0-.33-.26.57-.31c-2.53-3.56-5.18-7.21-8-10.84-15.17-19.21-23.26-38.42-23.26-52.08a119.37,119.37,0,0,0-3-25.78,28.9,28.9,0,0,1-2.15-5.77c.11-.93.24-1.86.38-2.8l.06-.42c.13-.89.28-1.78.43-2.69l.09-.5c.15-.9.32-1.81.49-2.72l.09-.4c.18-.93.37-1.87.57-2.8,0,0,0,0,0-.08.2-.94.42-1.89.64-2.84,0-.15.07-.3.11-.45.21-.91.43-1.82.66-2.72,0-.18.09-.36.14-.53.23-.91.47-1.82.71-2.73l.12-.4c.24-.91.5-1.82.76-2.73l0-.17c.26-.92.54-1.84.81-2.76,0-.17.11-.34.16-.51.26-.88.54-1.76.81-2.63.06-.19.12-.38.19-.57l.84-2.61.15-.44.84-2.5.11-.3.9-2.57c.07-.19.14-.38.2-.57.3-.81.59-1.62.88-2.42l.24-.63c.29-.8.59-1.59.88-2.38l.2-.5.81-2.12c.07-.16.13-.32.19-.48.29-.75.59-1.49.88-2.23l.27-.68c.28-.69.56-1.39.84-2.07l.3-.74.83-2c.09-.23.19-.45.29-.68.21-.51.42-1,.64-1.51.12-.28.23-.56.35-.83l.7-1.63c.13-.28.25-.56.37-.83l.69-1.58c.14-.3.27-.6.4-.9s.32-.69.47-1,.4-.89.6-1.32l.34-.75q.38-.83.75-1.62c.07-.15.14-.3.2-.45,3.63-7.8,6.21-12.63,6.21-12.63s-.14,2.28,1.74,6.94h0l0,.12c.06.16.13.33.21.5s.05.12.08.19.17.4.27.61l0,.1c.22.49.47,1,.74,1.56l.08.16.34.67.1.19.39.73c0,.05.05.09.07.13.32.6.67,1.21,1.05,1.85l.1.18.48.79c0,.08.09.15.14.23.16.27.33.54.51.82l.12.19c.43.68.9,1.39,1.4,2.13l.14.21.61.89.21.29c.2.29.41.58.63.88l.2.27c.27.38.56.77.85,1.16h0l.94,1.23.19.25c.25.32.5.65.77,1l.29.37c.25.31.49.62.75.93l.29.36.92,1.12.17.19,1.14,1.36.25.28.94,1.09.39.44.88,1,.42.47c.33.36.66.73,1,1.09l.33.36,1.38,1.48.26.26c.38.41.78.83,1.18,1.24l.49.5,1,1.06.54.55,1.14,1.13.46.46,1.65,1.62.22.21,1.5,1.44.58.54,1.24,1.16.65.6,1.3,1.2.6.55c.64.58,1.29,1.17,2,1.76,37.41,33.37,79.13,28.06,81.4,66.49.06.91.1,1.79.12,2.66,0,.14,0,.29,0,.42,0,.82,0,1.61,0,2.39v.49c0,.77,0,1.52,0,2.25,0,.13,0,.25,0,.39,0,.65-.06,1.3-.11,1.93,0,.12,0,.25,0,.37-.05.66-.12,1.29-.18,1.91,0,.19,0,.38-.07.57-.07.58-.14,1.15-.22,1.7,0,.2-.07.4-.1.6-.08.48-.16.95-.25,1.41,0,.23-.09.45-.13.68-.09.39-.17.77-.26,1.14,0,.2-.09.4-.14.6-.11.44-.23.87-.35,1.29l-.18.61c-4,13.07-12.65,15.64-16.22,16.14h0a11.13,11.13,0,0,1-1.55.12h0c16.69,4.8,29.08-21.49,29.08-21.49,0,.32,0,.65,0,1v0c0,.12,0,.23,0,.34s0,.47-.05.72,0,.27,0,.41-.06.54-.1.81c0,.11,0,.21,0,.32-.06.38-.12.77-.2,1.16,0,.13,0,.27-.08.4-.06.29-.12.59-.19.89,0,.15-.06.29-.1.44-.07.33-.16.67-.25,1a1,1,0,0,1,0,.17l0,.12c-.23.9-.49,1.81-.78,2.72,0,.13-.07.26-.11.39s-.09.28-.14.42c-.09.29-.18.58-.28.87l-.15.45-.18.53c-.06.16-.11.33-.17.49s-.11.33-.17.49l-.31.87-.15.41c-.07.18-.14.37-.2.56s-.1.24-.14.36l-.45,1.18s0,.08,0,.12c-.08.2-.16.39-.23.59l-.12.29c-.07.19-.15.39-.23.58l0,.09c-.16.4-.33.8-.48,1.18l-.09.21-.24.58-.06.15c-.15.37-.31.73-.45,1.08a.54.54,0,0,0-.05.11c-.07.18-.15.35-.22.52L261,264c-.22.52-.43,1-.63,1.45,0,.07,0,.13-.08.19l-.17.38-.09.19-.26.58c0,.07-.06.13-.08.19l-.13.28-.08.17-.22.47,0,.07-.09.2a1.11,1.11,0,0,0-.07.16l-.05.09-.07.16a.49.49,0,0,0-.06.13.59.59,0,0,0,0,.08h0l0,.05a24.6,24.6,0,0,0,.5,6.07c-1.51-8.09,38.18-41,56.13-82.93l.28-.68c.05-.14.1-.29.16-.44S316,190.67,316,190.54Z"/><path class="cls-16" d="M153,197.05l.53,5.33h29.94l-1.58,2.88H154.57L154,215.52s5.26-7,13.14-7,15.75,6.16,15.75,6.16l2.63-17.24A202.46,202.46,0,0,1,153,197.05Z"/><path d="M156.2,196.41c-5.9-7.74-13.77-10.79-21.09-12.93-31.3-9.14-43.85-11.07-44.5,1.16-.38,7.38,6.83,23.14,18.4,34.9l17.58-14.28Z"/><path d="M109.1,218c-10.85-11.38-17.69-26.25-17.32-33.27.28-5.32,2.94-7.49,9.21-7.49,7.08,0,18.18,2.83,33.8,7.39,6.85,2,13.92,4.76,19.41,11.19l-27.95,8.35a1.31,1.31,0,0,0-.4.22L109.1,218Z"/><path d="M263.4,185.54c-.34-12.54-15.81-10.65-54.15-1.55-8,1.89-16.46,4.53-23.35,10.66l1-.06L238.18,222C253.54,210.19,263.61,193.38,263.4,185.54Z"/><path d="M238.06,220.62l-49.64-26.55c6.36-4.94,13.87-7.23,21.1-8.94,19-4.52,32.54-7.32,41.26-7.32,8,0,11.31,2.25,11.46,7.77.2,7.52-9.65,23.64-24.18,35Z"/><path class="cls-17" d="M177.35,210.34c0-.19,0-.38,0-.57-.14-5.81,3.45-10.58,6.48-13.43,7.16-6.73,16.38-8.84,24.7-10.12,33.18-5.11,45.64-5.59,47.5,4.52s-15,40-44.1,43.72c-9.16,1.16-19.67.18-27.23-8.26C181.57,222.72,177.72,216.35,177.35,210.34Z"/><path class="cls-9" d="M252.06,188.85c0,2-5.58-.07-12.46-.17s-12.46,1.79-12.45-.17,5.6-3.47,12.48-3.37S252.07,186.89,252.06,188.85Z"/><path class="cls-9" d="M254.24,193.47c0,1.09-.58,2-1.33,2s-1.39-.82-1.41-1.91.58-2,1.33-2S254.22,192.39,254.24,193.47Z"/><path class="cls-17" d="M161.22,210a5.44,5.44,0,0,0,0-.57c.21-5.81-2.72-10.63-5.2-13.52-5.87-6.83-13.52-9.07-20.44-10.47-27.59-5.57-38-6.23-39.67,3.85s12,40.24,36.1,44.33c7.63,1.28,16.41.45,22.83-7.87C157.52,222.34,160.83,216,161.22,210Z"/><path class="cls-18" d="M255.64,190.71c-.47-2.57-2.13-5.14-9.74-5.79h0c-.92-.07-1.93-.12-3-.14h-2.13l-1.74,0c-6.62.26-15.49,1.31-30.62,3.64-7.77,1.2-16.05,3.09-23,8.52-3.47,2.71-7.34,6.76-7.11,13,0,.38,0,.77.08,1.15a.17.17,0,0,1,0,.07,24.5,24.5,0,0,0,6.74,13.68c6.28,6.59,14.64,8.11,22.22,7.82,1.35-.06,2.76-.18,4.18-.36,20.62-2.6,35.1-18.19,41.23-30.74C255.35,196.18,255.94,192.35,255.64,190.71Zm-100.88,5.83C149,191,142.16,189,135.7,187.7c-12.58-2.55-20-3.73-25.47-4.08l-1.53-.07h-.19c-9.85-.3-11.75,2.71-12.26,5.75-.28,1.63.16,5.47,2.29,10.93,4.92,12.63,16.75,28.41,33.9,31.31a33.72,33.72,0,0,0,3.49.41c6.31.4,13.3-1,18.64-7.49a26.23,26.23,0,0,0,5.92-14.81C160.77,203.4,157.61,199.3,154.76,196.54Z"/></g></g></svg>