<svg xmlns="http://www.w3.org/2000/svg" xmlns:xlink="http://www.w3.org/1999/xlink" viewBox="0 0 380.54 380.54"><defs><style>.cls-1{fill:#ff4f88;}.cls-2{fill:#7f4227;}.cls-3{fill:url(#linear-gradient);}.cls-4{fill:#8f4c31;}.cls-5{fill:url(#linear-gradient-2);}.cls-6{fill:#8b2e29;}.cls-7{fill:#71211c;}.cls-8{fill:#3d1e11;}.cls-9{fill:#fff;}.cls-10{fill:#3f0d00;}.cls-11{fill:url(#linear-gradient-3);}.cls-12{fill:url(#linear-gradient-4);}</style><linearGradient id="linear-gradient" x1="203.25" y1="47.64" x2="171.1" y2="295" gradientUnits="userSpaceOnUse"><stop offset="0" stop-color="#4f1b0d"/><stop offset="1" stop-color="#280e07"/></linearGradient><linearGradient id="linear-gradient-2" x1="211.44" y1="185.25" x2="211.44" y2="58.33" gradientUnits="userSpaceOnUse"><stop offset="0" stop-color="#3f170c"/><stop offset="1" stop-color="#783a2a"/></linearGradient><linearGradient id="linear-gradient-3" x1="162.86" y1="226.75" x2="153.9" y2="225.53" gradientUnits="userSpaceOnUse"><stop offset="0" stop-color="#cf8464"/><stop offset="1"/></linearGradient><linearGradient id="linear-gradient-4" x1="1396.11" y1="226.82" x2="1388.66" y2="225.8" gradientTransform="matrix(-1, 0, 0, 1, 1641.85, 0)" xlink:href="#linear-gradient-3"/></defs><title>Asset 10</title><g id="Layer_2" data-name="Layer 2"><g id="Avatar_8"><circle class="cls-1" cx="190.27" cy="190.27" r="190.27"/><path class="cls-1" d="M380.54,190.27C380.54,85.19,295.35,0,190.27,0S0,85.19,0,190.27A190.34,190.34,0,0,0,121.14,367.59c3.14-2.66,5.49-5.34,6.41-7.87,4.6-12.58,3.29-76.85,3.29-76.85l119,8.38s-7.89,48.91-.65,67.07a31,31,0,0,0,7.35,10.35A190.32,190.32,0,0,0,380.54,190.27Z"/><path class="cls-2" d="M249.84,291.25l-119-8.38s1.31,64.27-3.29,76.85c-.92,2.53-3.27,5.21-6.41,7.87a191,191,0,0,0,135.4,1.08,31,31,0,0,1-7.35-10.35C242,340.16,249.84,291.25,249.84,291.25Z"/><path class="cls-3" d="M268,286.62l-.59,1,1.06,1.55c1.59.56,7.42,2.17,7.67,3,1.95-.9,3.71.21,3.13,2.46,2.36-2.63,4.65.24,6,.74a47,47,0,0,0,8.94,2.05,2.87,2.87,0,0,0,.32-1.05c-6.05-.93-8.38-3.26-13-6C277.28,288,273.09,288,268,286.62Zm2.8,17.7c.47-4.19-3.73-5.12-7.45-6.05l-1.68,1.84c1.67.84,3.75,1.92,4.27,3.71,1.17-.36,1.93.67.92,2.14,1.64.39,3.39.48,4.77,1.61a.72.72,0,0,1,0-.52c1.54.78.55,1.95,1.4,2.67s2.82,1.39,4.05,2.16c1.76,1.12,4.86,3.92,7.64,5.49.17-.31.33-.62.49-.94a66.59,66.59,0,0,0-9.32-6.52C276.82,307.58,273.55,305.25,270.76,304.32Zm20.49-47c-4.65.93-12.57-2.33-12.57-6.52l-3.7,6.41a7.27,7.27,0,0,1,4.28,3.26c1.16-1.91,4.4-2.39,5.69-.27,1.95-.93,4.7-.19,4.49,2.42,1.62-.08,3.27.41,4.78.34,0,0,.83-1.06,1.45-1s1.42.95,1.85,1a65,65,0,0,0,11.69.12c1.72-1.29,2.71-2.77,2.07-4.35C306.62,261,295,261.47,291.25,257.28Zm7.46-129c-2.33-2.33-2.33-1.87-5.59-1.87-1.4-.93-3.73-1.4-5.13-2.33l-.93-.93c.15-.26.31-.52.47-.77-2.39.67-4.91,3.2-7.22,4.12-3.1,1.23-8,.14-10.36,2,2.36,0,8.62-.65,9,2.13.55-1.24,4.66-2.34,6-2.43,1.67-.12,6.41.28,3.9,3.1a7.29,7.29,0,0,1,5.75,1.7c-.28-2.78,3-3.17,4-1.06a3.42,3.42,0,0,1,4,0c1-2.09,2.85-.47,4.28-1.33s1.35-2.9,3.21-3.8,8.79-2.33,8.64.16c2.7-2.65,8.63-.91,11.89-.32.6.11,1.43.38,2.26.61-.55-3.57-5.11-4.37-9-3.2-3.26-2.79-16.77-2.33-17.24,3.73A7.94,7.94,0,0,0,298.71,128.26ZM264.45,294.63c-.35-.1-.69-.2-1-.28l-.11.19A8.61,8.61,0,0,1,264.45,294.63Zm-175.1-6.95c-3.19,1.84-6.39,4.12-10,6.39a3,3,0,0,1,.46.3,43.67,43.67,0,0,0,5.94-2.12c2.07-1.11,4.43-3.49,6-4.1A22.91,22.91,0,0,0,89.35,287.68Zm21.18-3.74c-1.39.4-2.41,1.7-3.38,3.09a12.84,12.84,0,0,1,3.85.52l2.32.47c1.87,6.05-4.65,9.32-4.65,14.91-2.8.46-3.73,1.39-4.2,4.19a7.2,7.2,0,0,0-5.59,4.65c-4.65-1.86-7.91,3.73-12.57,4.66.44.66.77,1.42,1.15,2.13a9.82,9.82,0,0,1,4.86-1.83c.23-2.6,4.25-4.94,6.23-2.78a19.93,19.93,0,0,1,5.89-4.23c-.21-1.61,1.34-2,2.88-1.73.53-2,2.28-1.89,3.31-3.34s.32-3.41,2.3-4.35c-1.26-2.12-1.15-3.31,0-5.09.51-.76,3.43-3.34,4.49-3.64.08-2.55.11-4.5,1.77-6.51C116.92,284.61,112.85,283.28,110.53,283.94Zm-16.78.56c1.87-1,6.93-.07,5.64-3.63,1-.17,1.72-.81,2.7-.82-.42-2.11,1.16-3.09,2.87-1.82.49-3.49,8.89-5.39,5-9.94l-.34.17c-3.73,3.72-12.11,7.45-12.11,12.57-.47,0-3.73.93-4.2.93-2.32-1.86-19.09-6-20-4.65a2.3,2.3,0,0,0-.57,1.22c3.74.81,7.45,1.59,10.92,2.61C86.72,282.05,91.31,282.15,93.75,284.5ZM45.15,131.58c.08-.33,0-.62.1-1,3.61-.52,7.32.72,11,.38,2.4-.22,7,.1,9.61,1.54,1.43-3.27,4-.62,5.75.15,2.79,1.2,6,2,8.78,3.77-4.53-4.26-10.89-9.79-16.72-10.79a8.9,8.9,0,0,0-2.47,0l.37.2.47,3.26c-3.73-.47-7.92-2.33-11.18.46-2.8-4.66-8.39-.46-12.58,0a7.69,7.69,0,0,0-.14,2.48A32,32,0,0,1,45.15,131.58Zm33.95,116c.89-.1,2.14.13,3.55-.07a50.17,50.17,0,0,0,5.81-1.38c-.94-4.57,10.35-4.3,12.56-7,.69-.83,1-2.17,1.46-2.77,1-1.3,1.82-1.44,3.16-2.46,1.56-1.18,3.68-3.91,5.83-4.54-3.77-.2-8,1.09-11.69,1.69-1.18.2-1.34-.25-2.79.49-.77.4-1.95,2-2.88,2.64a10.64,10.64,0,0,1-2.43,1.22c.82,0,1.66,0,2.55-.09l.46,1.87c-3.72.93-10.25,3.26-10.25,7.45-4.65.47-15.37,1.4-17.7,5.13-3.72-1.4-9.78,3.25-12.57,6a12.1,12.1,0,0,0,.46,2.33A13.8,13.8,0,0,1,58.77,257c-.35-2.15,1.75-2.62,3.5-2.79-.27-2.83,3.63-4.4,5.2-1.82a7.08,7.08,0,0,1,4.93-2c-.15-.41,0-1.13-.25-1.62C73.84,247.46,77,247.81,79.1,247.6ZM60.59,214.37c1-.22,2.45-1.76,3.79-2.12-.34-.3-.68-1-1.06-1.3.86-1.45,7.75-2.75,8.85-1.11,1.5-1.06,8.41-10.88,10.49-4.18.86-.54,2.78-.53,3.42-1,1.69-1.27.67-1.17,1.47-3.42,1.31-3.69,3.43-4.34,7.28-5.67,4.08-1.41,7.42-4.4,10.41-7.88a39.19,39.19,0,0,1-7.92,5.06c-.83-4.1-6.12-.63-8.8.47C84.9,194.69,82.28,196,78,196.88c-2.14.45-3.64,1.44-5.64,2.08l-.36.11,1.69.45-.93,1.86c-3.26.47-7.45,1.87-8.85,4.66-3.73-.47-6.52,1.86-6.52,5.59-4.19-.46-8.85.47-13,0a18,18,0,0,1-7.92-1.86c-1.4-.47-2.8-2.8-5.59-2.8-1.19,2.68.27,4,1.13,5.86,1,.43,1.87,1.38,2.6,1.62,2,.65,4.58-.17,6,2a16.41,16.41,0,0,1,8,0c-.07-2.85,4.52-2.3,6.69-2.42C56.88,214,59.25,214.66,60.59,214.37ZM40.65,175.58c.32.2,1.1-.45,1.75.14,1.19,1.09,1.14,3.11,2.36,4.22,1.45,1.31,4.63,1.69,6.48,2.09a37.07,37.07,0,0,1,8.29,3.06c3.85,1.7,7.54,3.62,11.88,1.75,4-1.7,5.08-4.33,9.7-3.87,3.94.38,5.8,1.42,9.52-.95a30.27,30.27,0,0,1,8-4c3.5-1.15,5.63-3.29,8.61-5.55a32.84,32.84,0,0,1-7.91,4c-1.38.4-2.7-.19-3.57,0-1.5.26-1.94,1.53-3.77,1.26-1.39-.21-1.64-1.71-2.53-1.95-1.2-.33-2,.25-3.4.28a77.14,77.14,0,0,0-7.69.92c.15.09.31.16.46.24l-.46,2.33c-5.59,1.87-8.85,3.26-14,3.26-4.66-.46-10.25-3.26-14.44-1.86-2.33-1.86-1.87-1.86-4.2-2.8,0-4.19-3.26-4.19-6.05-7.45l-2.33-1.4c-1.71.35-2.92.94-3.63,2.35,1.79.95,3.69,2.17,4.9,2.66A15.07,15.07,0,0,1,40.65,175.58ZM309.89,207c-.94-4.19-4.66-5.12-8.39-4.65,0-2.8-1.4-2.8-2.79-3.73l-1.72-1c-3.19.94-6.18,2.05-10,.48.06,4-3.85,2.5-6.29,2.81-.19,1.34-.42,1.77-1.7,2.32,2.34.54,4.07,2,3.1,4.57,4.28,1.25,9.17-4.81,12.79-.34,1.9-2.87,4.43-.47,6.72,0s5.48-.77,5.29,2.72a3.86,3.86,0,0,1,2.83,2.48c2.52-2.55,9.35-1.4,12.57-1.37a59.88,59.88,0,0,0,9.2-.22c0-1-.2-2.07-.2-2.69C323.86,207.44,316.41,210.23,309.89,207ZM95.6,163.41c1.89.28,2.26,1.43,4.17,1.68s4.09-.77,6.11-.62c-2.14-.42-5.56-1.33-5.19-4.14-3.17-.06-5.7-1.18-8.68-2.08a21.53,21.53,0,0,0-4.16-.79c1.07.85,2,1.54,2.65,2-3.73,0-6.06,2.33-6.06,6.06-2.79-1.4-3.72-.47-5.59,1.86l-.46.93c-3.43-.86-30.59-2.11-30.47,3.89,1.66-.47,3.43-.73,4.6-1a51.09,51.09,0,0,1,8-1.83c3.2-.28,13.43-.37,15.18,2a7.33,7.33,0,0,1,4.47-.69c.4-2.93,6.78-2.18,9-1.93C88.82,164.82,92,162.89,95.6,163.41Zm224.53-12.8c-3.26-3.73-13-1.39-16.3,1.4-.93-.47-2.8-.93-3.73-1.4h-2.33a4.62,4.62,0,0,1,.5-1.15,20.73,20.73,0,0,1-4.34,2.43,118.94,118.94,0,0,0-11.85,4.74c2.6-1.06,5.3,0,7.64-.08,2.71-.12,5.55-2.14,7.73.81-.87-2.41,2-2.32,3.82-2.32a8.21,8.21,0,0,0,4.53-.8c2.64-1,9.12-4.71,10.9-1,1.84.68,3.23-.45,5.18-.65,1.58-.17,4.28.89,5.86,1.15a97.52,97.52,0,0,1,15.75,3.79C342.07,151.6,324.59,149,320.13,150.61ZM256.15,76a14.49,14.49,0,0,1,2.1-6.33c-1.16-2.15-1-4.6-1.51-6.88A9.78,9.78,0,0,0,254.92,70c-4.64,3.8-8.51,12.18-10.58,18.57,0,.21,0,.43,0,.64,2-2.91,2.94-6.6,7.3-7.27C251.49,79,252.92,76.28,256.15,76ZM45.2,99.2c1.22,1.39,1.21,3.49,1.72,4.93.4,1.11,1.78,1.46,1.48,3.35,2.43.17,5.06,3.86,6.92,5.37,1.28,1,2.53,2.64,3.84,3.44,1.47.89,3,.19,4.28,2a3.84,3.84,0,0,1,4.56,1c.65-2.65,3.51-2,5.52-1.54,1.42.35,3.23,2.58,4.07,2.81s1.77-.38,2.8-.1c.45.13,2.73,1,3,1,1.93,0,3.14-2.05,4.82.29a3.72,3.72,0,0,1,4.28-2c3.32,1,1.19,3,2.34,4.92.86,1.43,2.55,1.44,3.51,3.22.54,1,.35,3.24.74,4.41,2-.05,5.44,2.5,7,3.62a16.22,16.22,0,0,1,4.59,6.53c.25,0,1.78-.05,2-.1.45-.76.76-1.47,1.33-2.33-3.71-.36-.08-5,.87-5.57-3.11.37-3.09-.67-4.84-2.55-.86-.93-1.66-.41-2.2-2s.73-2.84,0-4.2c-.56-1.07-2.56-1.08-2.92-2.08-.65-1.79,1.23-1.43,1.08-3.07-.27-3-2.54-2.26-4.47-3.93-1-.88-1.58-1.57-2.27-2.21l.63,1.28c-6-3.26-8.38-1.4-14.9-1.4-4.19,0-10.25-3.26-13.51-.47-2.79-2.32-6.52-2.32-7,.94l-1.87-.47c-4.19-.93-6.52-5.59-8.85-8.38s-5.59-6.52-8.38-10.25a6.75,6.75,0,0,0-3,1.08A25.45,25.45,0,0,1,45.2,99.2Zm232.42,85.2c2.29-.56,6.25-1,7.31,1.69,2.2-1.29,8-4,10.15-2.11,2.13-1.85,5.73-2,7.67.35,2.08-1.06,4.09-.43,6.2-.92,1.62-.37,2.81-1.66,4.54-2.53a29.54,29.54,0,0,1,13.44-3.12,6.58,6.58,0,0,0-1.21-2c-5.12.94-14,.94-17.7,4.66-.93,0-4.19-1.86-5.12-2.33.46-3.26-.93-5.59-3.73-6.05-.46-1.4-1.4-2.33-1.86-3.73l-.18-.44-1.05-.22c-.24,1.88-1.36,3.36-1.92,4.87s-.09,3.4-2.24,4.89-2.94.32-5,.65c-1.25.2-2,1.4-3.43,1.48C284.22,183.51,279.94,183,277.62,184.4ZM214.58,32a19.06,19.06,0,0,1,1.95-8.21,9.26,9.26,0,0,0-2.13-.36C210.67,29,208.34,36,206.48,42.08c-.93,2.33-2.79,7.92-2.33,10.72l-1.4,2.32c-2.79-3.26-4.19-7.45-8.38-8.84,1.4-2.8-5.59-9.78-8.38-8.85L184.12,36c-1.75-4.55-13.2-10.14-18-8.71a102.48,102.48,0,0,1,9.75,4.06c3.18,1.58,4.12,3.4,6.21,6.28,3,4.1,10.34,6,9.92,12.17,3.5.3,2,2.35,3.06,4.25s4.08,3.1,1.56,5.87c2.15,1.36,1.1,2.79,2,4.61.73,1.53,1.9,1.94,2.79,3.48a10.82,10.82,0,0,1-.29,10.75c2.55,1.71.23,3.73,1,5.6,1.1,2.54,4.71,2.85,5.12,6.47.32,3-1.42,5.83-2,8.63A26.8,26.8,0,0,0,205,104c.65-4.27,4.13-5.11,5.85-8.73,1.17-2.46.95-4,2.8-6.3a14.21,14.21,0,0,0,2.74-4.82c-5.26-.73,2.36-9.44-5.85-9.2.18-2.68-1.62-6.06-4.54-6.28-.15-2.7.84-7.44-2.82-8.05A5.62,5.62,0,0,0,204.5,56c.63-1.18,1.81-1.14,2.47-2.29a16.15,16.15,0,0,0,1.12-4.41c.3-2.8-1.13-9.42,3-10.62C211,36.28,211.81,32.33,214.58,32Zm-78.94,87.81c-2.48-.82-2.6-1.29-4.41-2.87-1.65-1.44-2-2.54-4.58-2.15-.15-2.72-1.83-4.84-4.89-4.54.19-3.59-1.37-4-3.29-6.24-.23-.26-.46-.55-.69-.83l-.73.37c-1.4-.47-5.12-2.33-7.45-2.8.93-2.79-.47-4.66-3.73-4.66.47-5.12-13.51-14-18.63-14.9-.47-3.26-1.4-2.8-3.73-2.8L82.12,78c-1.4-3.73-4.66-5.12-7.92-2.79-3.26-4.66-12.58-3.73-17.7-4.66a7.52,7.52,0,0,0-1,2.91c4.14.2,8.43-.49,12.42,1.54,2,1,3.56,3.1,5.58,3.86,2.32.87,5.26-.35,5.22,3.43A3.47,3.47,0,0,1,84,85.81a9.25,9.25,0,0,1,4.14,2c1.55-2.09,3.67.11,3.55,2.17,3.51-.32,5.2,2.18,3.47,5.2A3.46,3.46,0,0,1,98,98c2.55-2.61,5.69,1.1,3.82,3.54,4.79-.46,1.79,4.27,5.19,5.34,1.94.61,2.92-2,4.85.67.71,1,.51,3.31.46,4.49,1.85-.16,3.42.81,3.14,2.79,2.86.48,9.18-2.89,8.38,3.49,5.48.57,12.37,5.55,16.68,8.9C139.12,125.9,134.51,122.14,135.64,119.83Zm92.6-67.15c0-2.12,1-2.71,1.51-4.47.73-2.71.16-5.59,2.68-7.76,2.21-1.89,4.86-3.05,6.67-5.64s2.69-6.05,4.51-8.6c-5.72.28-7.6,7.94-11.05,12.15-3.26,4.19-9.78,8.38-7.91,14.44-1.4.93-1.4,1.86-1.87,3.26l-.93,1.4c-1.4,1.86-3.26,2.32-4.19,4.19-.16-.27-.33-.54-.5-.81.37,4.18,1.71,7.89,1.65,12.35.85-3,2.44-6.71,4.63-8.89.58-.59,1.9-.37,2.39-1,.38-.5,0-1.43.33-1.84,1-1.3,1.05-2.52,3.45-2.5C229.44,56.87,228.21,54.83,228.24,52.68Zm29.7,51.43c1.06-.62,2.64-.33,3.6-.75,2.48-1.08,3.1-2.76,6.48-1.82.29-2,.64-5,3.15-4.9.17-3-.23-8.71,4.54-7a2.87,2.87,0,0,1,1-3.15,4.63,4.63,0,0,1,4.55-5.24c1.17-2.54,2.69-2.58,4.95-3.44s3.51-2,5.66-3.16c2.5-1.3,4.48-1.57,6.89-3.11a41.82,41.82,0,0,1,5.55-2.2L302,68.17c-5.59,1.4-14.91,3.26-18.63,7.92-2.33-.93-14,8.85-16.31,11.64-1.86,2.33-3.26,4.66-5.12,7.45l-3.06.39a22.57,22.57,0,0,1-9.15,7.49c.58,3-1.87,1.67-2.94,2.71a27.06,27.06,0,0,0-1.74,2.45c-1.66,2.11-3.87,4.32-5.19,6.5a6.11,6.11,0,0,1,4.09-1.66c.18-2.4,3.22-4.85,5.3-5.79,2.33-1.06,4.8.62,6.56-.15C256.49,106.82,256.93,104.71,257.94,104.11ZM275,122.49c.26-3.7,3.23-3,5.94-3.14,0-4.9,3.5-3.22,6.36-4.47,2.21-1,2.54-4.08,5.86-3.92,2.72-4,4.13-8.29,3.63-12.94-.46-4.37-2.05-9.35-1.87-14l-.88.44c.46,4.66-1.4,14,.93,16.77-.93.93-.93,2.33-1.4,3.26l-.46,2.33c-.47.93-2.33,2.33-3.27,3.72-2.79-.93-6.05.47-8.38,2.33-3.72-1.86-6.52,2.8-11.18,2.8,0-.35.07-1,.15-1.81-.43.46-.84.92-1.24,1.41-1.27,1.55-2.15,4.3-4.55,4.19-1.55,3.09-6.74,3.82-8,6.44,2.46-1.72,5.58-2.07,8.07-2.94C268.68,121.58,270.89,121.84,275,122.49ZM243.57,73.94c-.28-4.44,3.87-7.82,7.33-9.79-.23-2.44,1.27-4.31,2.43-6.31,1.77-3,3.88-3.28,6.29-5.24,4.14-3.37,5.3-8.09,10.84-10.34,2.73-1.11,6.48-2.65,8.83-5-.52-.64-1.06-1.24-1.54-1.73-8.85,4.66-33.54,17.7-31.21,29.35-1.4.46-3.26,1.86-4.19,1.86a15.76,15.76,0,0,0-2.8,1.4h-1.86a9.49,9.49,0,0,1-1.15-2.56c-.44,3-.47,12.29-5.44,12.62-.23,4-1.35,7.51-2.16,11.36,2.29-3.47,6.22-5.09,6.93-9,.61-3.32-.72-2.58,2.51-4.55C239.68,75.29,241.56,73.64,243.57,73.94Zm-55.8,11c0,.3,0,.58,0,.82A4.68,4.68,0,0,0,187.77,84.94Zm-14,5.74c-2.69-2.45-3.52-9.14-8-6.25-.41-1.9-2.82-3.72-4-5.6.14.34.28.67.44,1v.93c-3.73-1.86-6.52-5.12-10.71-6,.46-3.26-3.26-7.45-5.13-10.71-2.33-4.66-2.79-9.32-4.65-13.51-1.6-2.8-12.11-12.44-16.53-10.42,3.87,1.72,7.82,4.8,10.81,7,3.33,2.47,4.15,6.3,5.69,9.78a21.23,21.23,0,0,1,1.23,4.84c.27,1.26,1.21,2.94,1.49,4.6s.12,3,.42,4.55,1,2.72,1,4.5c2.87,0,3.76,3,2.53,5.23,2.1.61,2,2.71.53,3.9,2.56,2.7,5.77-.33,8.15,1,2.75,1.48,1.87,6.83-.32,7.88,2.53.81,1.51,2.93.21,4.44a10.32,10.32,0,0,1,2.48,7.24,42.54,42.54,0,0,0,.7-5.49c.29-2.09-.35-2.33,2.74-2.84.54-5.79,3.52-6.17,7.29-3.1a11.2,11.2,0,0,0,4,2.37,10.88,10.88,0,0,1,5.11,3.88C177.6,96.11,176.54,93.22,173.76,90.68ZM148.55,101.3c-.87,0-1.68-.65-2.69-.46.28-2.81-2.2-3.64-4.56-3.5,1.6-4.77-1.63-3.25-3.9-5.17a9.89,9.89,0,0,1-2-3.29l-.15.25a9.91,9.91,0,0,0-7-3.26c-1.4-2.8-1.4-2.8-4.66-3.73-2.33-3.73.47-8.85-3.26-11.64,3.26-4.66-3.26-14.91-5.59-19.1a13.83,13.83,0,0,0-2.39,1c3.3,4.61,7.23,8.87,6.49,15.07a18.87,18.87,0,0,0,.09,6.89A65.61,65.61,0,0,1,120,83c3,.74,1.5,3.2,2.82,4.87,1.52,2,4.22,1.54,5.16,4.62.67,2.19-.52,3.88.77,5.86a22,22,0,0,0,5.52,4.64c1.43.54,4.28-.45,5.94-.36,3.37.18,3.08.83,4.21,3.16,1.31,2.7.82,8.25,3.85,10.34-1.23-2.34,1.25-3,3.07-3.08-.29-2.12,1-3.45,2.71-4.47a11.29,11.29,0,0,1-.61-3.11C150.16,106.61,148.26,104.63,148.55,101.3Zm41.94-39.47c-2.43.19-4.46-1-6.25-2.84l-.12.79c-2.33-2.79-5.59-6.05-9.31-5.59-.47-7.91-8.85-9.31-14-13s-9.31-9.78-15.83-14a3.55,3.55,0,0,0-1.27,1.57,46,46,0,0,0,7.33,6c3,2,5.1,4.32,7.76,6.74,2.45,2.23,15.12,10.48,9.45,13.88,1.62.63,1.91,2.27,1.7,3.87,2.38.38,3.56,2.15,5.53,2.85,2.27.8,4.61-.35,4.25,3.43,5.89-.91,2.9,5.41,1.72,7.75,2.82,1.68,2,4.1,3.19,6.56,1,2,3,2.67,3.11,5.08.25-3.3,1.83-9.45,4.47-10.7-2.76-2.14.35-4.09,1.75-5.76C190.76,67.49,188.57,65.24,190.49,61.83Z"/><path d="M127.74,302.37c-2.26.77-4.52,1.53-6.88.72a.3.3,0,0,0-.3.08,10.18,10.18,0,0,1-2,2.07,5.84,5.84,0,0,1-3.4.63.31.31,0,0,0-.31.23c-.38,2.51-1.86,2.78-3.9,3.68s-3.62,2.62-5.49,3.82a65.12,65.12,0,0,1-7.2,3.57c-2.8,1.35-5.64,2.68-8.38,4.18-.28.15,0,.54.25.42,4.55-2.08,9-4.46,13.52-6.49a23,23,0,0,0,4.75-3,13.59,13.59,0,0,1,2.48-1.79c.73-.36,1.54-.58,2.29-.89a3.29,3.29,0,0,0,2-2c.39-1.18.64-1.07,1.82-1.19a4.24,4.24,0,0,0,1.41-.35,5.23,5.23,0,0,0,1.28-.91c.85-.81.94-1.39,2.29-1.14,2,.37,4.06-.66,5.84-1.47C127.9,302.49,127.83,302.34,127.74,302.37Zm-41,14.37s3.1-1.59,3.37-1.76c2.17-1.34,5.94-4.86,8.61-2.85a.41.41,0,0,0,.57-.15,7.41,7.41,0,0,1,5.37-4.39.49.49,0,0,0,.34-.34c.45-2.43,1.42-3.4,3.8-4a.33.33,0,0,0,.23-.3c0-5.56,6.25-9.09,4.53-15a.19.19,0,0,0-.37.1c1.15,4.45-2,7.47-3.85,11.15a10.11,10.11,0,0,0-.8,2.38c-.21,1-.16,1-1.24,1.26a3.89,3.89,0,0,0-2.82,2.45c-.41,1.14-.37,1.31-1.56,1.74a7.31,7.31,0,0,0-2.23,1.36,7.83,7.83,0,0,0-1.76,2.28c-.46.87-1.18.5-2.09.5-1.7,0-3.3,1-4.67,1.94-1.88,1.24-3.63,2.57-5.86,3.13a.17.17,0,0,0-.1.26c1,1.44,1.47,3.13,2.88,4.21.11.09.27-.11.15-.2A10,10,0,0,1,86.69,316.74Zm10.44-27.32c.48-.48,1.11-1.63,1.92-1.58a16.93,16.93,0,0,0,2.36,0c3.29-.22,6.28-1,9.56-.16a.09.09,0,0,0,0-.17c-3.25-1-6.32-.37-9.61-.12-1.21.1-2.73-.52-3.53.48a18.54,18.54,0,0,1-3.65,3.43,21.67,21.67,0,0,1-7.54,3.09c-1.36.34-2.74.64-4.1,1-.68.16-1.23.48-1.71-.15a5.72,5.72,0,0,0-1.11-1.09c3.31-2.1,6.52-4.36,9.92-6.32a.24.24,0,0,0,0-.37,8.76,8.76,0,0,0-3-1.26c-2.09-.69-4.19-1.35-6.26-2.11a24.44,24.44,0,0,1-6-2.93A3.82,3.82,0,0,1,73,279.16c-.2-.66.17-1.72.89-1.86,1.7-.34,3.79.27,5.45.59,2.56.49,5.08,1.13,7.58,1.85a30,30,0,0,1,5.82,2.11c1.46.79,3.2-.43,4.8-.58a.25.25,0,0,0,.24-.24c.12-3.23,3.09-5.5,5.45-7.29a68.18,68.18,0,0,0,6.59-5.11c.23-.22-.12-.57-.35-.35-2.64,2.55-5.9,4.36-8.66,6.77a12.54,12.54,0,0,0-2.87,3.46,5.81,5.81,0,0,0-.58,1.75c-.14.72.09.51-.75.7s-2.67,1.07-3.5.57a13.51,13.51,0,0,0-2.59-1.12A72.78,72.78,0,0,0,81.9,278a37.67,37.67,0,0,0-7.3-1.18,1.88,1.88,0,0,0-2.17,1.92c-.13,1.62,1.77,2.82,2.93,3.52a37.24,37.24,0,0,0,7.23,3c2,.7,4.18,1.25,6.18,2.1l.37.18c.37.19,0,0-.2.11-1.06.61-2.09,1.26-3.12,1.92-2.22,1.42-4.4,2.89-6.62,4.29a.25.25,0,0,0,0,.43A8.68,8.68,0,0,1,81,296.11a.24.24,0,0,0,.24.07c4.53-1.18,9.28-1.78,13.24-4.47A18.53,18.53,0,0,0,97.13,289.42ZM76.57,252.9c2.32-.38,4.64-.77,7-1.1a119.68,119.68,0,0,1,14.88-1.42c.11,0,.11-.17,0-.18a119.2,119.2,0,0,0-20.14,1.69l-5.1.87a9.24,9.24,0,0,0-2.41,1.35,7.89,7.89,0,0,1-2.23.58c-.26.08-.53.57-.7.77-1.4,1.56-3.33,1.67-5.22,1.11a.23.23,0,0,0-.24.06c-.48.46-6.31,5-6.8,3.83s-1.77-4-.73-5c2.75-2.64,7.71-6.81,11.85-5.49a.18.18,0,0,0,.21-.08c1.67-2.46,5.37-3.17,8.08-3.74a85.81,85.81,0,0,1,9.45-1.28.19.19,0,0,0,.2-.2c.21-4.52,6.54-6.34,10.11-7.26.25-.06.14-.45-.11-.39-3.67.94-9.34,2.63-10.32,6.88-.1.42,0,.58-.48.63l-1.72.18c-1.1.12-2.2.25-3.29.4a40.09,40.09,0,0,0-8,1.8,13.07,13.07,0,0,0-2.66,1.29c-.38.25-1.27,1.43-1.67,1.3-2.21-.7-4.8.65-6.65,1.71a28,28,0,0,0-3.24,2.26A11,11,0,0,0,54,255.78c-.25.43.24,1.68.33,2.09a18.33,18.33,0,0,0,1,3.25.24.24,0,0,0,.27.11A21.25,21.25,0,0,0,60.22,259,18.61,18.61,0,0,0,62,257.71c.84-.71,1.64-.33,2.64-.28a4.53,4.53,0,0,0,3-1c.51-.44,1-1.13,1.67-1.23a5.91,5.91,0,0,0,2.21-.71,17.76,17.76,0,0,1,1.9-1.07A17.15,17.15,0,0,1,76.57,252.9Zm-12-31c.63.14.32,1,.28,1.37a3.17,3.17,0,0,0,.55,2.09c1.18,1.53,3.46,2.18,5.1,3.12a57.53,57.53,0,0,0,6.69,3.28c5.59,2.29,10.86,4.17,17,3.72.18,0,.18-.3,0-.29-6.33.38-11.88-1.73-17.59-4.18a76.78,76.78,0,0,1-6.93-3.57c-.93-.52-1.92-.93-2.84-1.47-1.58-.91-1.61-2.44-1.28-4.08a.26.26,0,0,0-.18-.3c-6.63-1.59-13.51-1.07-20.13-2.6-3.15-.72-6.28-1.52-9.47-2.07-.6-.1-1.2-.18-1.81-.26-.85-.11-1.4.1-1.3-.87a5.62,5.62,0,0,0-.41-2.92c-.37-.9-3.31-6.08-.48-5.64,1.38.22,2.41,1.25,3.48,2a11.73,11.73,0,0,0,2.72,1.3c6.22,2.47,13,.61,19.42,1.23a.23.23,0,0,0,.22-.22c.11-3.54,2.93-5.56,6.3-5.23a.32.32,0,0,0,.31-.18c1.68-3,5.49-4,8.64-4.49.45-.08.25-.76-.19-.69a19.89,19.89,0,0,0-5.66,1.69,10.08,10.08,0,0,0-2,1.36c-.74.62-1,1.56-2,1.53a6,6,0,0,0-4.09,1.54,4.67,4.67,0,0,0-1.24,1.78c-.17.42-.38,2.46-.84,2.42-5.4-.52-10.83.83-16.21-.34a14,14,0,0,1-5.35-2.26,7.5,7.5,0,0,0-4.39-2,.22.22,0,0,0-.21.16,4.65,4.65,0,0,0,0,3.91c.91,2.08,2,3.44,1.36,5.86a.22.22,0,0,0,.22.28c6.11.53,11.91,2.89,18,3.39,3.9.31,7.79.46,11.65,1.07C62.83,221.57,63.72,221.76,64.61,222ZM33.14,173.68c1.81.47,3.16,1.92,4.36,3.28,1.52,1.71,2.87,3.57,4.38,5.29,2.73,3.13,6.39,6,10.82,5.29.49-.09,1.2-.54,1.25.06a6.58,6.58,0,0,0,.27,1.32,7.25,7.25,0,0,0,1.27,2.37A16.47,16.47,0,0,0,61,195.46c4,2.07,8.36,3.06,12.71,4.07,0,0,0,0,0,0-3.54-1.11-7.23-2.17-10.67-3.64-3.77-1.61-8.52-4.3-8.64-8.93a.26.26,0,0,0-.32-.24c-6.18,1.77-10.38-2.88-13.89-7.26a29.58,29.58,0,0,0-4.65-5.09,6.5,6.5,0,0,0-2.06-1.1c-.38-.13,1.09-2.4,1.29-2.6a5.34,5.34,0,0,1,2.67-1.17.24.24,0,0,0-.12-.47A5,5,0,0,0,33,173.37.26.26,0,0,0,33.14,173.68Zm45.18,5.56c-4.19,1.41-8.29,3-12.75,3.23-4.27.23-8.35-2-12.62-2.19a10.21,10.21,0,0,0-2.07.17c-1.17.2-1.72-.48-2.54-1.17-1-.81-2.21-.89-2.49-2.23-.66-3.13-4.1-4.27-6.08-6.45-.05-.06-.13,0-.08.08,2.22,2.5,5.84,3.61,5.94,7.41,0,.08,0,.12.12.15A9.78,9.78,0,0,1,48.61,180c1.13,1,1,1.13,2.37.85,3.29-.7,7,.8,10.15,1.58,6.05,1.47,11.64-.77,17.33-2.68C78.77,179.63,78.64,179.14,78.32,179.24Zm.6-2.18c-8-4.45-17-4.77-26-3.91-1,.1-2.08.22-3.12.34s-1.2.25-1.54-.62a1.83,1.83,0,0,1,.31-1.85c1-1.26,3-1.7,4.45-2.06,4.76-1.13,9.84-1.17,14.7-1.13a51.92,51.92,0,0,1,10.57.71c.29.06.42-.38.12-.45a35,35,0,0,0-7.29-.66,99,99,0,0,0-12.3.2c-2.72.22-14.07,1.14-10.49,6.4a.24.24,0,0,0,.21.12c10.25-1.33,20.77-1.78,30.21,3.12C78.93,177.34,79.05,177.13,78.92,177.06Zm5.44-11.39a.18.18,0,0,0,.26-.15c.22-3.51,2.31-5.72,5.88-5.81a.25.25,0,0,0,.13-.46A98.35,98.35,0,0,1,79,149.33a54.29,54.29,0,0,1-5.92-6.67c-1.16-1.58-2.79-3.86-2.34-5.95a.27.27,0,0,0-.39-.3c-3,1.57-5.61,0-6.59-3.1a.28.28,0,0,0-.4-.17c-2,1.45-3.68,1-5.92.89a.28.28,0,0,0,0,.56,19,19,0,0,0,4.19.08,18.84,18.84,0,0,0,1.76-.74,6.79,6.79,0,0,0,.9,1.73c1.4,2.07,3.77,2.33,5.87,1.42a8.07,8.07,0,0,0,1.54,4.48,40.37,40.37,0,0,0,5.76,7,94.41,94.41,0,0,0,12.36,10.75,5.8,5.8,0,0,0-5.44,4.81c-.15.75.06,1.21-.85.87a3.1,3.1,0,0,0-1.62-.2c-1.42.29-2.26,1.51-3.1,2.6,0,.05,0,.12.1.07C80.52,165.51,81.84,164.45,84.36,165.67ZM39.42,136.33c2.62-2.76,6.37-1.74,9.63-2.93a5,5,0,0,0,1.26-.68c.73-.58,1.07-.08,1.75.29,1.3.71,3,.45,4.41.92.11,0,.16-.13.05-.17-1.92-.71-3.89-.42-5.49-1.9a.18.18,0,0,0-.24,0c-2,1.84-4.58,1.6-7.1,2a9.15,9.15,0,0,0-3,.91,6.53,6.53,0,0,0-1.19.9c-.22.2-.79-1.86-.82-2a11.13,11.13,0,0,1-.26-2.58c0-1,.38-1.23,1.23-1.41A34.93,34.93,0,0,0,43,128.58c2.76-.92,5.8-1.66,7.67,1.19a.24.24,0,0,0,.36,0c3.32-2.6,7.3-.87,11-.41.24,0,.29-.39,0-.42-2.45-.39-4.87-1.11-7.37-1a7.05,7.05,0,0,0-3.07.87c-1.11.59-.89,0-1.85-.7-3.47-2.4-8,.84-11.58,1.33a.22.22,0,0,0-.16.16,10.87,10.87,0,0,0,1,6.7A.22.22,0,0,0,39.42,136.33ZM61.57,126a.11.11,0,0,0,.1-.19c-9.76-5.09-16.6-15.67-20.14-25.83-.19-.55-.37-1.11-.54-1.67s1.08-1.17,1.51-1.43A8.64,8.64,0,0,1,44.61,96c.78-.23,1.35.88,1.72,1.36,2,2.57,4.11,5,6.21,7.54,2.9,3.43,5.26,8.43,10,9.65a.25.25,0,0,0,.13-.48c-2.95-.75-4.87-3.08-6.6-5.43-1.47-2-3-3.9-4.61-5.8-1.07-1.25-2.13-2.52-3.17-3.79l-1.6-2a10,10,0,0,0-1.21-1.55c-.42-.25-1.49.24-1.85.39a11.23,11.23,0,0,0-3.08,2,.25.25,0,0,0,0,.22C43.67,109.09,51,120.71,61.57,126Zm38.11-10.1c.31.16.59-.31.28-.48a15.83,15.83,0,0,0-9.49-1.79,52,52,0,0,1-6,.38,33.77,33.77,0,0,1-6.13-1.14,13.35,13.35,0,0,0-4.75-.29,5,5,0,0,0-2,.8c-.43.28-1.75-.74-2.18-.92-2.2-1-4.69-.3-5.08,2.26,0,0,0,.05,0,0,.88-3.59,4.7-2.54,6.85-.82a.18.18,0,0,0,.2,0c3.88-2.88,9.68.58,14,.56,2.22,0,4.41-.36,6.62-.49A14.43,14.43,0,0,1,99.68,115.92ZM55.57,76.35c5.2.68,10.08,2,14.27,5.23S77.41,88.8,81.63,92a47.64,47.64,0,0,1,7.11,6c2.14,2.38,2.28,5.12,3.44,7.94a5.33,5.33,0,0,0,1.35,1.9c.78.73,2.25.69,2.24,1.9,0,2.12,1.6,2.9,3,4.22a.18.18,0,0,0,.25-.25c-.63-.61-1.32-1.13-2-1.73-1-.89-.87-2.09-.71-3.27,0-.11-.09-.22-.19-.25-3.92-1-3.82-4.67-5-7.84-1.13-3-4.23-5.37-6.7-7.25a105.15,105.15,0,0,1-8.7-7.2,72.11,72.11,0,0,0-6.42-5.69,22.26,22.26,0,0,0-6.78-3.31,35.48,35.48,0,0,0-5.21-1.1c-.94-.14-1.61,0-1.69-1.12a8.36,8.36,0,0,1,.52-3.21c.48-1.47,2.14-.74,3.4-.64,1.63.14,3.26.22,4.89.38,3.35.31,7.4.92,9.55,3.8a.23.23,0,0,0,.3.08c3.17-2.1,6.2-.68,7.56,2.68.12.3.61.16.49-.14-.87-2.12-2.31-3.82-4.7-4.09a5.39,5.39,0,0,0-3.13.88c-.43.25-2-1.39-2.48-1.7-4.58-2.75-10.47-1.67-15.49-2.7a.24.24,0,0,0-.27.1,7.9,7.9,0,0,0-1,5.79A.27.27,0,0,0,55.57,76.35Zm27.94,2.2a13.37,13.37,0,0,1,2.1,0c1.18.18,1.32,1.72,1.47,2.65a.14.14,0,0,0,.11.12c3.85.79,7.51,3.19,10.68,5.39,2.77,1.93,7.92,5.45,7.69,9.35a.31.31,0,0,0,.31.31c2.67.1,4.2,1.56,3.4,4.26a.34.34,0,0,0,.24.42c2.6.59,4.89,2.19,7.47,2.72.28.06.48-.34.2-.48a38.93,38.93,0,0,0-6.67-2.69c-.74-.23-.25-1.52-.39-2.31a3,3,0,0,0-1.26-1.8c-.26-.19-2.65-1-2.67-.64a4.24,4.24,0,0,0-.45-1.74,14.69,14.69,0,0,0-3.5-4.38,42,42,0,0,0-11.41-7.51,22.59,22.59,0,0,0-2.36-.92c-.32-.1-.64-.19-1-.26s-.4-1.39-.51-1.63c-.68-1.47-2.07-1.21-3.48-1.18C83.33,78.28,83.33,78.56,83.51,78.55Zm25-24.59c2.87,1.79,4.06,6.06,5,9.09a32.42,32.42,0,0,1,1.8,9.29c.05,3.22-.26,6.44-.09,9.66.08,1.75.29,4.13,1.82,5.27-2,1.61-3.2,4.37-.91,6.33.64.54,1.59.41,1.07,1.34a5.59,5.59,0,0,0-.61,2.37c-.15,2,1,3.93,2.21,5.4.08.11.23,0,.15-.15-1.91-2.45-2.75-5.5-.79-8.18.1-.14,0-.32-.15-.37-3.49-1.3-3.13-4.58-.4-6.52a.27.27,0,0,0,0-.45c-2.33-1.33-1.93-5.64-1.91-7.89,0-3.24.37-6.53,0-9.76a41.86,41.86,0,0,0-2.38-8.72c-.92-2.54-2.12-5.67-4.51-7.17C108.51,53.32,108.24,53.78,108.53,54ZM129.4,85.67c-1.17-.2-1.27-.7-1.83-1.63a3.54,3.54,0,0,0-1.13-1.18,7.29,7.29,0,0,0-1.87-.71c-1.6-.47-1.69-2.49-1.8-3.91-.15-2.1.07-4.19-.83-6.16-.28-.62-1.45-1.42-1.12-2a5.78,5.78,0,0,0,.55-2,13.3,13.3,0,0,0-1-5.86,73.12,73.12,0,0,0-5.49-10.85.13.13,0,0,0-.15-.06,11.6,11.6,0,0,0-4.23,2.39c-.09.09.05.22.14.14a9.76,9.76,0,0,1,3.69-2.13c.63-.21,1.17,1.31,1.42,1.75,1,1.7,1.9,3.41,2.75,5.17,1.58,3.26,3.92,8.35,1.66,11.8a.23.23,0,0,0,0,.26c3.11,2.57,1.54,6.89,2.58,10.32.45,1.51,1,1.47,2.43,1.93,1.58.52,2.12,1.71,2.82,3.11a.26.26,0,0,0,.24.14A10.11,10.11,0,0,1,135,89.34a.3.3,0,0,0,.42-.42A11.3,11.3,0,0,0,129.4,85.67Zm33-5.18c-3-1.57-5.54-4.11-8.71-5.4-.69-.29-1.83-.33-1.83-1.2a6.18,6.18,0,0,0-.35-1.76,17,17,0,0,0-2.11-4.06c-.9-1.42-1.89-2.79-2.74-4.24a28,28,0,0,1-2.39-6.56c-.77-2.68-1.27-5.81-3.05-8-2.4-3-15.19-15.13-17.91-7.22a.33.33,0,0,0,.13.33c5.85,4.48,11.2,9.53,13.26,16.83,2.48,8.85.43,18.65-.11,27.63,0,.06.08,0,.09,0,.91-9.28,3-19,.43-28.19-2-7-7.29-12.08-12.89-16.41-1-.74,1.18-2,1.79-2.1a6.73,6.73,0,0,1,3.89.83,30.21,30.21,0,0,1,7.43,5.15c2,1.79,3.87,3.57,4.82,6.13,1.7,4.55,2.34,9.39,5,13.54,1.69,2.6,4.37,5.64,4.07,8.94a.3.3,0,0,0,.21.28c4.08,1,7,4.13,10.64,6C162.42,81.17,162.71,80.67,162.38,80.49Zm-6.86-36.08c0-.35-.56-.35-.55,0,.16,6.18,5.18,10.91,5.19,17.17s-.84,12.49,2,18.26c0,0,.1,0,.08,0-2.7-5.92-1.69-12.48-1.64-18.73C160.67,55,155.64,50.39,155.52,44.41Zm23.75,10.53a8,8,0,0,0-2.89-1c-.14,0-1.31,0-1.33-.18a13,13,0,0,0-.24-1.39C174,48.77,171,46.52,168,44.85c-1.66-.93-3.38-1.73-5-2.66a29.54,29.54,0,0,1-5.73-4.47C153.27,34,149.69,30,145.12,27a.28.28,0,0,0-.3,0c-2.64,2.12-1.19,4.91.61,7.07,2.5,3,6.28,5.15,8.31,8.54.08.13.29,0,.21-.12-2-3.41-5.65-5.79-8.19-8.75-1.21-1.42-2.64-3.48-1.58-5.35.25-.45.65-1,1.19-.67.95.63,1.86,1.33,2.75,2.05,1.32,1.06,2.55,2.23,3.77,3.4,4,3.87,7.58,7.81,12.55,10.42,4.54,2.38,9.73,4.78,10.07,10.6a.31.31,0,0,0,.3.3c3.9-.25,6.76,2.76,9.09,5.52.27.31.71-.14.45-.45A20.87,20.87,0,0,0,179.27,54.94Zm3.58-7c0-.34.3-1.63,0-1.84a23.06,23.06,0,0,1-5.27-6.43A26.57,26.57,0,0,0,173.55,34a11.14,11.14,0,0,0-6.48-2.83,18.13,18.13,0,0,0-2.44-.12c-.55,0-.37-.86-.35-1.27a2.45,2.45,0,0,1,1.61-2.09c1.92-.79,4.37-.14,6.25.42a28.32,28.32,0,0,1,7.06,3.27c1.8,1.13,3.84,2.68,4.68,4.7.12.3.6.17.48-.13-.82-2-2.62-3.44-4.34-4.65a27.67,27.67,0,0,0-8-3.85c-3.56-1-9.11-1.22-8.18,4a.29.29,0,0,0,.28.22c3.19-.08,6.31.42,8.81,2.53,1.92,1.62,3.13,3.94,4.42,6.06a22.43,22.43,0,0,0,4.6,5.7c.66.54.49,1.18.49,2a10.85,10.85,0,0,0,.36,2.59c.49,2,1.2,4,1.69,6,0,.16.29.09.25-.07-.42-1.87-1-3.7-1.47-5.56A15.69,15.69,0,0,1,182.85,48Zm14.91.1c-.25-.25-3-2.23-3.09-1.92a3.09,3.09,0,0,0-.2-2.11,12.61,12.61,0,0,0-4.14-5.1c-1.14-.91-2.83-2.06-4.38-1.62a.13.13,0,0,0,.07.25c2-.47,4.19,1.66,5.46,2.91s3.51,3.77,2.7,5.7a.23.23,0,0,0,.13.33c4.1,1.71,5.45,5.76,8.25,8.83.21.22.61-.08.43-.33C201.25,52.69,199.81,50.1,197.76,48.05ZM221.7,57.3c-1.21,1.47-2.95,2.34-4,3.9a34.54,34.54,0,0,0-2.6-3.88,20.59,20.59,0,0,0-1.94-2.13c-.91-.89-.5-1.75-.33-2.89a49.75,49.75,0,0,0,.45-5.85c.05-1.63-.6-4.55.64-5.69,1.81-1.66,2.51-4.56,3.14-6.82.83-3,1.36-6.14,2.71-9a.27.27,0,0,0-.09-.35,19,19,0,0,0-3.6-1.18c-1-.24-1.59-.5-2.17.39a54,54,0,0,0-5.19,11c-1.17,3.2-2.19,6.47-3.24,9.71-.84,2.58-1.75,5.54-1.34,8.29,0,0,.09,0,.08,0-.27-2.45.55-5,1.26-7.34.8-2.59,1.75-5.15,2.61-7.73a77.69,77.69,0,0,1,3.84-9.48,45.48,45.48,0,0,1,2.37-4.19c.6-.94,3.45.34,4.28.65s.67.14.42.74-.38,1-.56,1.47c-.38,1.09-.67,2.22-.95,3.35a53,53,0,0,1-2.24,7.53,8.62,8.62,0,0,1-1.67,2.61c-.22.23-.61.35-.76.62-.27.45-.08,1.6-.08,2.12a57.58,57.58,0,0,1-.93,11.43.3.3,0,0,0,.08.3,29.08,29.08,0,0,1,5.59,6.89.25.25,0,0,0,.42,0c1-1.75,2.89-2.63,4.14-4.16C222.18,57.39,221.88,57.08,221.7,57.3Zm14.85-24.93c1.8-3.07,4.1-6.15,8-5.88a8.7,8.7,0,0,1,1.52.3c.73.19,1.55.31.87,1.1-.93,1.09-1.84,2.18-2.73,3.31a23.72,23.72,0,0,0-3.93,6.64c-.07.2.25.33.33.14,1.78-4,4.65-7.31,7.49-10.61a.28.28,0,0,0-.06-.43c-3-1.28-5.95-1.45-8.54.71s-4,5.75-5.78,8.62c-2.24,3.65-5.81,6.2-8.12,9.8a8.45,8.45,0,0,0-1.41,5.36,2.31,2.31,0,0,1-.66,2.23,7.38,7.38,0,0,0-.89,2.37c0,.14.18.2.23.06a5.35,5.35,0,0,1,1.81-3.19.14.14,0,0,0,.06-.14c-1.34-5,2.78-8.7,5.94-12A42.14,42.14,0,0,0,236.55,32.37Zm3.37,10.11c.54-.82.05-2.25.21-3.16,0-.15-.2-.21-.23-.06-.36,1.78.45,3.23-1.8,4a.22.22,0,0,0-.15.26c1.34,5.29-4.48,9.25-3.65,14.56a45.2,45.2,0,0,0,1.51,6c.38,1.24.74,3.23,1.74,4.17.16.15.44,0,.31-.24-1.22-1.76-1.69-4.33-2.24-6.37-.74-2.74-1.29-5.07-.27-7.84,1.11-3,3.29-5.65,3.25-9,0-.44-.34-1.14.16-1.41A3,3,0,0,0,239.92,42.48Zm6.8,22.38c-.84-4.73,2.51-9,5.62-12.12a71.71,71.71,0,0,1,13.72-10.33c2.16-1.33,4.37-2.59,6.59-3.82.69-.38,4.73-3,5.24-2.5a14.5,14.5,0,0,1,3.19,4.7c.14.36-4.24,3-4.73,3.33a54.24,54.24,0,0,0-8.11,7.56.29.29,0,0,0,0,.32c1.3,3-.75,5.67-3.57,6.59-.33.11-.19.64.15.53a6.65,6.65,0,0,0,3.77-2.93,5.2,5.2,0,0,0,.61-2.19c.06-.63-.6-1.88-.15-2.38a48.93,48.93,0,0,1,12.6-10.23.28.28,0,0,0,.13-.31,14.54,14.54,0,0,0-3.81-5.7.26.26,0,0,0-.32,0c-8.1,4.27-16.22,8.8-23.17,14.83-3.15,2.73-6.26,6-7.69,10a10.57,10.57,0,0,0-.53,2.42c-.05.45.27,2.16-.16,2.33-1.3.5-2.41,1.34-3.74,1.77a9.73,9.73,0,0,0-2.83,1.45c-.07.06,0,.18.1.13a9.49,9.49,0,0,1,3.11-1.35c1.37-.41,2.55-1.29,3.89-1.8A.19.19,0,0,0,246.72,64.86Zm16.92,6.37a6.17,6.17,0,0,0-.21-4.57,3.56,3.56,0,0,1-.59-2.77,26,26,0,0,1,.53-3.16.07.07,0,0,0-.13,0c-.36,1.19-.5,2.43-.75,3.65s-.34.88.38,2c1.94,3.08-.41,6.84-2.56,9a.29.29,0,0,0,0,.34c1.82,3,1,7.38.46,10.58a35.1,35.1,0,0,1-2.74,9.2.22.22,0,0,0,.39.22,24,24,0,0,0,2.47-7.12,30.31,30.31,0,0,0,1-9.71,8.57,8.57,0,0,0-.91-3.22c0-.09,1.42-1.84,1.56-2A9.94,9.94,0,0,0,263.64,71.23Zm-8.55-1c.15-.14,0-3,.07-3.45a10.83,10.83,0,0,1,2.13-4.61s0-.1-.07-.06a11,11,0,0,0-2.61,6.84c0,1.44-1.13,2.07-2,3.1a28.05,28.05,0,0,0-2.35,3.18,54.23,54.23,0,0,0-6.14,13.29c.55-9.62,4.54-20.36,12.36-26.17.25-.18,0-.6-.24-.42-8.61,6.09-12.64,18.48-12.73,28.63a.27.27,0,0,0,.53.07,60.47,60.47,0,0,1,6.38-14.71A24.1,24.1,0,0,1,255.09,70.2Zm15.1,14.11c-3.55,3.14-5.78,6.86-8.29,10.87a0,0,0,1,0,0,0c1.88-2.69,3.67-5.68,6-8a56.5,56.5,0,0,1,4.67-4.21,69.63,69.63,0,0,1,6.17-4.65c1-.69,3.18-2.38,4.55-2a.26.26,0,0,0,.25-.07c4.33-5.16,12.34-6.3,18.52-7.84.35-.08.2-.61-.15-.53-4.85,1.2-9.8,2.27-14.29,4.56a15.45,15.45,0,0,0-2.68,1.72c-.42.34-1.4,1.61-1.82,1.59a6.6,6.6,0,0,0-3.23,1.2A60.44,60.44,0,0,0,270.19,84.31Zm34.95-11.22c-.52,0-1.05.07-1.57.13a14.34,14.34,0,0,0-4.8,1.57c-3.52,1.78-6.38,4.47-10.39,5.22a.28.28,0,0,0-.2.27c-.22,2.57-3.16,3.36-5.31,3.4a.32.32,0,0,0-.31.24c-.68,4-5,5.76-5.61,9.78-.06.43.59.62.66.18.54-3.38,3.7-5.07,5.1-8a4.89,4.89,0,0,0,.42-1.41,12,12,0,0,1,2.36-.55,5,5,0,0,0,2.95-2.27c.17-.32.13-1.1.58-1.21a15.61,15.61,0,0,0,2.31-.76,28.61,28.61,0,0,0,4.12-2.29c3.24-2.11,6.27-3.8,10.24-3.88.13,0,.26-.13.21-.26-.5-1.21-.53-2.53-1-3.73-.05-.13-.26,0-.21.09a12.27,12.27,0,0,1,.54,2.56C305.23,72.39,305.58,73.08,305.14,73.09ZM271,110c-.79.58-.59,1.08-.69,2.07-.12,1.19-.31,2.39-.34,3.59a.28.28,0,0,0,.29.29,11,11,0,0,0,4.8-1.44c2-1,4-2.41,6.24-1.4a.3.3,0,0,0,.29,0c2.32-1.79,5.19-3.14,8.16-2.31a.28.28,0,0,0,.32-.13c1-1.33,2.39-2.32,3.25-3.73a.26.26,0,0,0-.46-.26,20.85,20.85,0,0,1-2.58,2.82c-.83.91-1.84.42-3,.49a8,8,0,0,0-2.72.7c-.68.29-2.77,2-3.41,1.73a5.74,5.74,0,0,0-4.55.61c-1,.49-2,1.07-3,1.55a10.25,10.25,0,0,1-2,.66c-1,.21-1,.38-1-.38.08-.93.2-1.86.3-2.79.05-.44.09-.88.11-1.32,0-.17,1-.76,1.13-.9a10.86,10.86,0,0,0,3.5-6,10.47,10.47,0,0,0,.2-3c0-.31-.34-1.26.07-1.43a2.49,2.49,0,0,0,.78-.43c1.14-1,.26-2.53.2-3.8,0-.14-.23-.14-.23,0a9,9,0,0,0,.16,1.55c.24,1.36-.17,2-1.5,2.42a.24.24,0,0,0-.17.29A10.66,10.66,0,0,1,271,110Zm16.32,13.28c3.74-6.36,9.68-11.22,12.19-18.3s1.83-15.43-.59-22.46a.25.25,0,0,0-.24-.18c-1.66.15-3.33,1.16-4.79,1.89a.25.25,0,0,0-.12.22c.32,3.77-.29,7.58-.25,11.35a13,13,0,0,0,.68,4.51c.32.83.56.73.06,1.6a19.74,19.74,0,0,0-.84,2.53c-.06.15.19.25.25.11.47-1.09.58-2.29,1.41-3.2a.17.17,0,0,0,0-.23C294,99.55,294,97.27,294,95.38c0-2.46.22-4.92.32-7.38,0-1,.05-1.89,0-2.83s1.38-1.24,2.15-1.59a13,13,0,0,1,1.77-.65c.49-.14.83,1.78.91,2a37.8,37.8,0,0,1,1.05,5.27,29.89,29.89,0,0,1-2.8,18.05c-2.87,5.34-7.61,9.42-10.66,14.67A.34.34,0,0,0,287.35,123.3Zm13.94,3.6c-.4.08-2.42,1.15-2.77.81a8.6,8.6,0,0,0-1.45-1.18,5.14,5.14,0,0,0-3-.38,7.15,7.15,0,0,1-2.74-.76A21,21,0,0,1,288,124a.07.07,0,1,0-.07.13,18.06,18.06,0,0,0,2.82,1.31c1,.38,1.82,1.18,2.85,1.18a12.26,12.26,0,0,1,2.57.06,5.5,5.5,0,0,1,2.33,1.76.24.24,0,0,0,.3,0,8.08,8.08,0,0,1,7.66-.44.28.28,0,0,0,.41-.24c.57-4.92,8.29-5.3,12-5a14.56,14.56,0,0,1,3,.58c.55.17,1.49,1,2,1a19.38,19.38,0,0,0,2.09-.43,10.9,10.9,0,0,1,2.06,0,5.18,5.18,0,0,1,4.07,2,3.85,3.85,0,0,1,.55,1.93c.09,1.49-.27,1.34-1.48,1.13a17.83,17.83,0,0,0-5.26.08c-3.24.42-6.34,1.48-9.57,2-2.71.42-6.07.63-8.36,2.31a4.89,4.89,0,0,0-1.52,2.21c-.67,1.7-1.27,2.59-3.16,3.08a.35.35,0,0,0-.21.5c2.49,5-4.41,7.28-5.63,11.38a.35.35,0,0,0,.67.18c1.27-4.3,7.95-6.34,5.72-11.52A4.47,4.47,0,0,0,307,136c1-2.9,4-3.38,6.72-3.89s5.17-.88,7.74-1.51c3.65-.89,7.47-1.67,11.17-.68a.31.31,0,0,0,.39-.21c.63-3.29-.81-5.67-4.14-6.33a10,10,0,0,0-2.5-.11,15.69,15.69,0,0,1-2.47.43,7.76,7.76,0,0,0-3.33-1.29c-4.16-.83-13.16-.5-14.16,5A8.62,8.62,0,0,0,301.29,126.9ZM326.68,150a22.81,22.81,0,0,0-5.54.11,7.24,7.24,0,0,0-.92.22,11.45,11.45,0,0,1-1-.77,7.6,7.6,0,0,0-3.25-1,18.4,18.4,0,0,0-8.46,1.25,14.35,14.35,0,0,0-3.07,1.51c-.56.36-.62.51-1.32.24-1-.37-2-.62-3-1.05-.18-.08-.34.18-.16.27,1.21.55,2.53.82,3.71,1.43a.2.2,0,0,0,.23,0,16.76,16.76,0,0,1,7.43-3c2.78-.51,6.47-.62,8.57,1.61a.23.23,0,0,0,.24.06c2.89-1,6.5-.42,9.43,0a29.17,29.17,0,0,1,10.71,3.45,6.06,6.06,0,0,1,2.83,3.12,3.17,3.17,0,0,1-.08,2c-.25.83-.54.57-1.32.39-1-.24-2.11-.43-3.17-.6-7.05-1.08-14.25-.46-21.19-2.33a.28.28,0,0,0-.32.13c-1.51,3.13-4.89,3.32-7.46,1.33a.3.3,0,0,0-.51.21c-.19,5.94-8.89,5.49-12.9,7.18-.37.16-.05.7.32.54,4.18-1.77,12.48-1.31,13.14-7.17a5.8,5.8,0,0,0,5.08.94,4.68,4.68,0,0,0,2.09-1.5c.27-.32.46-1.1,1-1,1.05.28,2.11.48,3.17.66,7.24,1.23,14.67.55,21.82,2.45a.3.3,0,0,0,.34-.14C347.53,152.82,331,150.34,326.68,150Zm-1.48,30.67a46.24,46.24,0,0,0-4.47,1.39,59.24,59.24,0,0,0-8.06,3.69,130.81,130.81,0,0,0-16.45,11.18c-.32.24,0,.79.32.54,9.43-7.17,19.31-14.27,31.12-16.76a.28.28,0,0,0,.21-.28,8,8,0,0,0-1.7-4.56c-.37-.42-.35-.39-.89-.29-1.09.19-2.19.31-3.28.44-3.69.45-7.65.73-11.09,2.26a12.73,12.73,0,0,0-2.14,1.19,1.74,1.74,0,0,1-2.27.2c-.74-.33-1.46-.71-2.17-1.08l-.9-.47c-.45-.24-.23-1-.23-1.49a5.07,5.07,0,0,0-1.68-3.74,4.5,4.5,0,0,0-1.87-.92c-.89-.25-2-2.91-2.26-3.67,0-.1-.2-.06-.16,0,.49,1.31,1.35,2.42,1.78,3.75a.16.16,0,0,0,.12.12c2.94.63,3.9,3.13,3.54,5.89a.22.22,0,0,0,.11.2,29.38,29.38,0,0,0,4.76,2.3c.72.23.9-.25,1.48-.69a11.71,11.71,0,0,1,3.31-1.62,38.57,38.57,0,0,1,7.83-1.51l3.59-.43,1.29-.18c.81-.13,1.09.58,1.42,1.2a9.27,9.27,0,0,1,.76,2.3C327.4,180.48,325.66,180.55,325.2,180.66Zm6.11,27.43c-4-.44-8,.07-12,.23a24.24,24.24,0,0,1-6.52-.54c-1.11-.26-2.57-.63-3-1.81a5.73,5.73,0,0,0-.87-1.59c-1.37-1.92-3.91-2.4-6.12-2.37-.85,0-1.15.16-1.29-.77a2.46,2.46,0,0,0-.44-1.1,7.77,7.77,0,0,0-2.37-1.61c-.07,0-.13.07-.06.11,1.57,1,2.63,1.51,2.66,3.68a.16.16,0,0,0,.16.15,11.63,11.63,0,0,1,4.62.41,5.45,5.45,0,0,1,2.23,1.46c.79.81.8,1.85,1.33,2.75.15.26,1,.52,1.26.63a15.49,15.49,0,0,0,3.48.9,29.3,29.3,0,0,0,6.14.17c2.1-.1,4.19-.28,6.29-.34,1.06,0,2.12,0,3.18.07.62,0,1-.06,1.06.59,0,.48.09,1,.13,1.44a7.1,7.1,0,0,1,0,1c0,1-1.27.83-1.88.88-1.33.12-2.65.2-4,.31a51.86,51.86,0,0,0-6.7.9.29.29,0,0,0-.22.29c-.18,4.62-5.51,7-9.22,8.43a30.24,30.24,0,0,1-15.56,2,.31.31,0,0,0-.34.14c-1.34,2.42-3.93,3.32-5.77,5.24a88.74,88.74,0,0,0-5.83,7.27c-.24.31.19.75.44.44,1.72-2.22,3.1-4.7,5.16-6.63,1.59-1.49,3.44-2.62,5.06-4.08.46-.42,1.14-1.78,1.85-1.69a32.26,32.26,0,0,0,4.71.26,28,28,0,0,0,7.42-1.33c4-1.19,8.4-2.87,11.15-6.1a6,6,0,0,0,1.12-1.87,5.44,5.44,0,0,0,.34-1.24c.1-.88,1.11-.8,1.83-.92,3.47-.59,7-.65,10.51-1a.28.28,0,0,0,.28-.21,13.9,13.9,0,0,0,0-4.27A.29.29,0,0,0,331.31,208.09Zm-20.15,50.38c-5.11,2.3-12.55,2.59-17.66.16a7.34,7.34,0,0,1-1.64-1.07c-.16-.13-.36-.51-.61-.51a21.27,21.27,0,0,1-4.84-.2c-3-.64-7.42-2.58-7.69-6.09,0-.06-.09-.06-.08,0,.05,2.66,2.53,4.36,4.69,5.42a15.63,15.63,0,0,0,4.69,1.37,13.42,13.42,0,0,0,2.1.09,2.12,2.12,0,0,1,1.92.66c2.2,1.72,5.31,2.14,8,2.33a26,26,0,0,0,9.85-1.11,6.91,6.91,0,0,0,1.25-.53,2.44,2.44,0,0,1-.29,1.95,8.12,8.12,0,0,1-3.29,2.82,37.83,37.83,0,0,1-9.21,3.54c-4.12,1.12-8.61.41-12.72-.44a103.71,103.71,0,0,1-13.86-4.28c-.37-.14-.52.44-.16.58a90.81,90.81,0,0,0,15,4.53c4,.8,8.22,1.2,12.19.12a37.16,37.16,0,0,0,9.34-3.76c1.85-1.11,4.21-3,3.35-5.44A.24.24,0,0,0,311.16,258.47Zm-16.58,37.68c-4.81-.72-8.49-3.19-12.54-5.67s-9.42-2.71-14.06-3.92a.06.06,0,1,0,0,.12c3.63,1,7.42,1.34,11,2.64,3.28,1.2,6,3.66,9,5.27a20.2,20.2,0,0,0,4.19,1.59c.41.11,2.1.3,2.05.55a2.6,2.6,0,0,1-.5,1c-1.06,1.37-3.27,1.45-4.84,1.46-4.87,0-9.82-1.37-14.51-2.55-2.18-.56-4.35-1.14-6.54-1.65a16.38,16.38,0,0,0-4.49-.71.23.23,0,0,0,0,.46,47.08,47.08,0,0,1,7.77,1.63c3.57.92,7.14,1.86,10.77,2.57,3.19.61,12.17,2.66,12.92-2.5A.26.26,0,0,0,294.58,296.15Zm-18,13.85c-.48-.29-.26-.81-.3-1.25a3,3,0,0,0-.47-1.23,7,7,0,0,0-2.6-2.29,8.75,8.75,0,0,0-1.44-.71c-.9-.35-.7-.77-.87-1.56a4.45,4.45,0,0,0-1.27-2.3c-1.58-1.56-4.23-2-6.28-2.49-.12,0-.18.16-.05.19,3.23.82,7.68,1.73,7.32,6,0,.07.06.13.12.15,2,.76,5.77,2.62,4.91,5.37a.27.27,0,0,0,.12.29q2.47,1.47,4.83,3.1c1.07.76,4.62,2.58,3.88,4-.53,1-.91,1.79-2,1.16-.89-.51-1.78-1-2.68-1.5q-2.46-1.35-5-2.56c-6.55-3.17-13.88-5.71-21.25-5.6a.27.27,0,0,0,0,.54c10.84.37,20.43,4.9,29.66,10.24a.32.32,0,0,0,.37-.05,12.31,12.31,0,0,0,1.91-2.86.3.3,0,0,0,0-.36A84.8,84.8,0,0,0,276.56,310Z"/><path d="M122.17,265.2c-2.32-1.63-12.57,3.26-12.57,3.26-3.73,3.72-12.11,7.45-12.11,12.57-.47,0-3.73.93-4.2.93-2.32-1.86-19.09-6-20-4.65-4.2,5.12,14.9,8.85,16.3,10.24-3.26,1.87-6.52,4.19-10.25,6.52.93.47,1.4,1.4,1.86,1.87,7-1.87,12.11-1.87,17.24-8.39,4.66.47,7.92-1.39,12.58,0l2.32.47c1.87,6.05-4.65,9.32-4.65,14.91-2.8.46-3.73,1.39-4.2,4.19a7.2,7.2,0,0,0-5.59,4.65c-4.65-1.86-7.91,3.73-12.57,4.66.93,1.4,1.4,3.26,2.79,4.19l.93.94c4.66-2.33,9.32-4.66,13.51-6.53a28,28,0,0,0,6.06-4.19c2.79-1.86,5.12-.93,5.59-4.66,3.26,0,3.72-.46,5.59-2.79,2.32.93,4.66,0,7-.93l3-31.67C130.09,269.62,124.5,266.83,122.17,265.2Zm148.59,39.12c.47-4.19-3.73-5.12-7.45-6.05L253.52,309c10.72,0,21,5.12,29.81,10.25a9.85,9.85,0,0,0,1.87-2.8,66.59,66.59,0,0,0-9.32-6.52C276.82,307.58,273.55,305.25,270.76,304.32Zm-2.8-17.7-4.65,7.92c5.59,0,30.27,9.78,31.2,1.86-6.05-.93-8.38-3.26-13-6C277.28,288,273.09,288,268,286.62Zm23.29-29.34c-4.65.93-12.57-2.33-12.57-6.52l-7,12.11c7.45,2.79,17.23,6.05,25.15,5.12,4.19-.93,16.31-4.66,14.44-9.32C306.62,261,295,261.47,291.25,257.28Zm18.17-98.75c2.79,2.33,6.52,1.87,7.92-1.4,8.38,2.33,17.23.93,25.62,3.27,4.65-7.92-17.7-11.65-22.83-9.79-3.26-3.73-13-1.39-16.3,1.4-.93-.47-2.8-.93-3.73-1.4h-2.33c.94-3.73,8.39-6.52,5.59-11.64,4.2-.93,2.33-3.73,5.13-5.59,2.33-1.4,7.45-1.87,9.78-2.33,4.19-.93,9.78-2.79,14.44-1.4,1.4-5.59-4.19-7-8.85-5.59-3.26-2.79-16.77-2.33-17.24,3.73a7.94,7.94,0,0,0-7.91.47c-2.33-2.33-2.33-1.87-5.59-1.87-1.4-.93-3.73-1.4-5.13-2.33l-.93-.93c3.73-6.52,8.85-10.25,11.65-16.77s2.79-15.83,0-23.75c-.94,0-3.73,1.39-4.66,1.86.46,4.66-1.4,14,.93,16.77-.93.93-.93,2.33-1.4,3.26l-.46,2.33c-.47.93-2.33,2.33-3.27,3.72-2.79-.93-6.05.47-8.38,2.33-3.72-1.86-6.52,2.8-11.18,2.8,0-.93.47-4.19.47-5.13a10.68,10.68,0,0,0,4.66-11.17c2.79-.94,1.4-1.87,1.4-4.2l.46-1.39c.47-4.2,5.12-5.59,5.59-9.79,2.8,0,5.59-1.39,5.59-3.72,7-1.4,9.31-7,17.23-7-.46-.93-.46-2.79-.93-3.72L302,68.17c-5.59,1.4-14.91,3.26-18.63,7.92-2.33-.93-14,8.85-16.31,11.64-1.86,2.33-3.26,4.66-5.12,7.45l-3.73.47c1.87-3.26,5.13-15.84,2.33-20,2.8-2.79,4.66-7,1.86-10.25.47-1.39.47-3.26.94-4.66l1.39-1.86c3.26-.93,5.13-4.19,3.73-7a48.88,48.88,0,0,1,13-10.71c-.46-1.86-2.33-4.19-3.72-5.59-8.85,4.66-33.54,17.7-31.21,29.35-1.4.46-3.26,1.86-4.19,1.86a15.76,15.76,0,0,0-2.8,1.4h-1.86c-.93-.93-3.26-9.32-3.26-11.18,0-4.66,5.12-8.85,3.72-13.51,2.8-.93,1.4-2.33,1.87-4.19l.46-1.4c1.4-3.72,4.66-7.45,7.46-10.71-9.32-4.19-11.18,6-15.38,11.18-3.26,4.19-9.78,8.38-7.91,14.44-1.4.93-1.4,1.86-1.87,3.26l-.93,1.4c-1.4,1.86-3.26,2.32-4.19,4.19a26.37,26.37,0,0,0-5.59-7c.93-4.19.93-8.85.93-13.51,3.73-2.33,4.19-11.64,6.52-16.3a16.34,16.34,0,0,0-5.12-1.4C210.67,29,208.34,36,206.48,42.08c-.93,2.33-2.79,7.92-2.33,10.72l-1.4,2.32c-2.79-3.26-4.19-7.45-8.38-8.84,1.4-2.8-5.59-9.78-8.38-8.85L184.12,36c-2.33-6.06-21.89-14-20-4.66,12.58-.47,11.18,9.32,18.64,14.91-.47,3.72.93,6,1.86,10.24l-.47,3.26c-2.33-2.79-5.59-6.05-9.31-5.59-.47-7.91-8.85-9.31-14-13s-9.31-9.78-15.83-14c-5.59,4.19,6.52,11.18,8.85,15.37l1.39,1.86c0,6.06,5.59,10.71,5.13,17.7-.47,5.13-.47,13,1.86,17.7v.93c-3.73-1.86-6.52-5.12-10.71-6,.46-3.26-3.26-7.45-5.13-10.71-2.33-4.66-2.79-9.32-4.65-13.51-1.87-3.26-15.84-15.84-18.17-8.39C133.35,49.54,138,55.59,138,68.17c0,6.52-.93,12.57-1.4,18.63l-1.39,2.33a9.91,9.91,0,0,0-7-3.26c-1.4-2.8-1.4-2.8-4.66-3.73-2.33-3.73.47-8.85-3.26-11.64,3.26-4.66-3.26-14.91-5.59-19.1a9.43,9.43,0,0,0-4.19,2.33h-1.86c3.26,1.86,5.58,10.25,6.52,14.44,1.39,5.12-1.4,17.23,2.33,19.09-2.8,1.87-3.73,5.59.46,7-1.86,2.33-1.4,5.59.93,8.39l-1.86.93c-1.4-.47-5.12-2.33-7.45-2.8.93-2.79-.47-4.66-3.73-4.66.47-5.12-13.51-14-18.63-14.9-.47-3.26-1.4-2.8-3.73-2.8L82.12,78c-1.4-3.73-4.66-5.12-7.92-2.79-3.26-4.66-12.58-3.73-17.7-4.66a8,8,0,0,0-.93,5.59c11.64,1.39,14,4.65,21.42,11.64,4.19,4.19,10.25,7,13.51,12.11,1.86,3.73.93,7.92,5.59,8.85-.47,3.26.93,3.26,2.79,5.12l.93,1.87c-6-3.26-8.38-1.4-14.9-1.4-4.19,0-10.25-3.26-13.51-.47-2.79-2.32-6.52-2.32-7,.94l-1.87-.47c-4.19-.93-6.52-5.59-8.85-8.38s-5.59-6.52-8.38-10.25c-1.4,0-3.73,1.4-4.66,2.33,2.8,9.78,10.71,22.82,21,28l.47,3.26c-3.73-.47-7.92-2.33-11.18.46-2.8-4.66-8.39-.46-12.58,0a10.69,10.69,0,0,0,.93,6.52c3.26-3.72,8.39-.93,11.65-4.19,1.86,1.86,3.26.93,5.59,1.86l.93.47c2.33,0,3.72.93,6-.93.94,3.26,3.73,5.12,7,3.26-1.4,5.59,15.37,19.56,20,22.82-3.73,0-6.06,2.33-6.06,6.06-2.79-1.4-3.72-.47-5.59,1.86l-.46.93c-3.73-.93-35.4-2.33-29.81,5.59,10.71-1.4,21-1.86,30.27,3.26l-.46,2.33c-5.59,1.87-8.85,3.26-14,3.26-4.66-.46-10.25-3.26-14.44-1.86-2.33-1.86-1.87-1.86-4.2-2.8,0-4.19-3.26-4.19-6.05-7.45l-2.33-1.4c-2.33.47-3.73,1.4-4.19,4.2,6,1.39,10.25,16.77,21,13.5,0,7.92,14.44,11.18,19.56,12.58l-.93,1.86c-3.26.47-7.45,1.87-8.85,4.66-3.73-.47-6.52,1.86-6.52,5.59-4.19-.46-8.85.47-13,0a18,18,0,0,1-7.92-1.86c-1.4-.47-2.8-2.8-5.59-2.8-1.86,4.2,2.79,5.13,1.4,9.78,6,.47,13,2.8,16.76,3.26,5.13.47,10.72.47,16.31,1.87-.93,4.19,1.39,4.19,4.65,6.05a50,50,0,0,0,8.85,4.2c5.13,2.32,9.32,3.72,15.38,3.25l.46,1.87c-3.72.93-10.25,3.26-10.25,7.45-4.65.47-15.37,1.4-17.7,5.13-3.72-1.4-9.78,3.25-12.57,6a20.79,20.79,0,0,0,1.4,5.12,17.54,17.54,0,0,0,7-4.19A4.92,4.92,0,0,0,68.61,255c2.33,0,3.26-1.4,4.66-1.87,8.38-1.39,16.3-2.79,25.15-2.79,0,0,7,2.79,7.68,2.79A116.17,116.17,0,0,0,122.87,248c4.66-2.1,12.35-12.58,14.44-16.3s5.13-13.74,5.13-13.74l139.5,19.33c1.86-2.33,3.26-5.12,5.59-7,1.4-1.86,4.66-2.79,6.05-5.59,6.06.93,10.25,0,15.37-1.86,3.73-1.4,9.79-4.19,9.79-8.85,4.19-.93,8.38-.93,12.57-1.4.47-1.39,0-3.26,0-4.19-7.45-.93-14.9,1.86-21.42-1.4-.94-4.19-4.66-5.12-8.39-4.65,0-2.8-1.4-2.8-2.79-3.73l-2.33-1.4c9.78-7.45,19.56-14.44,31.2-16.77a8.34,8.34,0,0,0-1.86-4.66c-5.12.94-14,.94-17.7,4.66-.93,0-4.19-1.86-5.12-2.33.46-3.26-.93-5.59-3.73-6.05-.46-1.4-1.4-2.33-1.86-3.73l-.93-2.33C300.57,164.12,309.42,164.59,309.42,158.53ZM254.92,70c-5.12,4.19-9.31,14-11.18,20.5,0-9.79,4.66-22.83,12.58-28.42h.93A10.08,10.08,0,0,0,254.92,70Z"/><path class="cls-4" d="M284.27,227c-2.1-6.29-5.59-5.12-5.59-5.12-.47,5.11-.93,10.46-2.56,15.35-.3-1.59-.65-3.16-1.05-4.64-2.1-7.68,0-19.91.7-24.1s-6.64-16.07-7.69-25.5,2.8-22-10.13-38.43-29.34-13.28-34.58-10.13a26.46,26.46,0,0,1-11.18,4.19l-.35-2.45s-2.1,3.85-5.59,4.19c0,0,.35-1.74.7-3.84a6.23,6.23,0,0,1-3.5,2.45c-2.44.7-9.08-2.8-9.08-2.8s-4.54-3.84-7.69-3.84l2.45,3.14s-10.83-4.19-16.07-2.79-23.4,7.68-30.74,21.66-8,25.15-8,25.15-11.87,13.62-13.62,25.5,2.09,23.76-5.59,35.29l-.7,1.39a18.24,18.24,0,0,1-10.44,8.15l0-.11a.49.49,0,0,0,0,.12,14.64,14.64,0,0,1-3.15.58l-1,.35a53.65,53.65,0,0,0,4.19,9.08c.7,5.24,1.75,11.18,4.19,15.37,4.19-.35,10.13-.7,12.93-4.19,0,0,1.74,20.61,5.94,31.79,0,0,11.53,11.88,23.4,19.21A166.06,166.06,0,0,0,186,352.41s26.55,5.59,49.25-2.79c0,0,14.33-18.87,20.26-32.49,0,0,4.55-9.08,7.69-12.92s7.34-11.53,7.34-11.53a199,199,0,0,0,3.84-28.3s.07-.28.2-.76l-.55,9.49a12.83,12.83,0,0,0,3-2.32c.93-1.17.93-6.06,1.16-11s5.59-14.44,5.59-14.44S286.36,233.29,284.27,227Z"/><path class="cls-4" d="M178.53,294.08c0,14.4,15.64,26.08,34.94,26.08,18.27,0,33.26-10.48,34.79-23.83a36.62,36.62,0,0,1-7.49-18.52c-6.4-6-16.25-9.82-27.3-9.82C194.17,268,178.53,279.67,178.53,294.08Z"/><path class="cls-4" d="M132.19,287.78l5.52,20.54a25.58,25.58,0,0,0,14.53-.77c16.7-6.06,23.66-29.11,15.54-51.47s-28.24-35.58-44.94-29.51a23.66,23.66,0,0,0-3.2,1.44,29.28,29.28,0,0,1-4.19,11.68c3.19,9.88,6.26,20.85,6.26,20.85Z"/><path class="cls-4" d="M280.31,247.26s-6.19-11.15-5.75-17.11a41.74,41.74,0,0,1-.37-7.58c-12.48,2.87-24.5,14.15-30.37,30.16a53.42,53.42,0,0,0-3,25.08c4.77,4.46,7.63,10.11,7.63,16.27a18.62,18.62,0,0,1-.14,2.25,24.57,24.57,0,0,0,14.18,8.85c.26-.35.51-.68.75-1a96.31,96.31,0,0,0,7.27-11.41l-.63-11.3,3.88-8.94c.29-2.67.52-5.43.66-8.18,0,0,.07-.28.2-.76l-.46,8,2.71-6.23Z"/><path class="cls-4" d="M147.33,186.94s.46-35.4,13-42.85,25.61-2.79,37.26-.46,27.48-3.73,33.07-5.59,21-1.87,28.41,19.09S261,188.34,261,188.34l-31.21,15.84-48.44-3.73-32.14-7Z"/><path class="cls-4" d="M258,144.56c-12.93-16.42-29.34-13.28-34.58-10.13a26.46,26.46,0,0,1-11.18,4.19l-.35-2.45s-2.1,3.85-5.59,4.19c0,0,.35-1.74.7-3.84a6.23,6.23,0,0,1-3.5,2.45c-2.44.7-9.08-2.8-9.08-2.8s-4.54-3.84-7.69-3.84l2.45,3.14s-10.83-4.19-16.07-2.79-23.4,7.68-30.74,21.66-8,25.15-8,25.15-11.87,13.62-13.62,25.5q-.16,1.13-.27,2.25l.27-.15s10.83-15.72,19.56-24.46,3.15-34.58,23.06-44,23.06,3.14,41.57,2.79,22.36-10.48,34.93-7,21.31,14.67,24.11,23.75-1.05,23.76.35,26.9c1.18,2.66,6.88,13.36,10.3,17.62-2-5.51-5.73-13.2-6.46-19.71C267,173.55,270.88,161,258,144.56Z"/><path class="cls-4" d="M151.75,320.27S146.51,293,143,285s-14.67-23.06-19.56-30.74-4.55-21-4.55-21l-.41-.2a27.55,27.55,0,0,1-3.43,7.19l-.38.75,2.48,2.74s3.14,11.88,2.44,19.21c-.58,6.13-5.79,10.55-7.49,11.84,3.38-.44,6.92-1.34,8.89-3.8,0,0,1.74,20.61,5.94,31.79,0,0,11.53,11.88,23.4,19.21a162.07,162.07,0,0,0,21.3,20.22C164.72,335.68,151.75,320.27,151.75,320.27Zm126.11-71.61c-1,4.89-4.19,11.53-8.38,19.56s-5.59,18.17-6.64,26.55-5.94,15.72-8.73,21.31c-2.08,4.15-9.33,18.28-13,25.31,4.66-6.73,10.9-16.37,14.34-24.26,0,0,4.55-9.08,7.69-12.92s7.34-11.53,7.34-11.53a199,199,0,0,0,3.84-28.3s.07-.28.2-.76l-.55,9.49a12.83,12.83,0,0,0,3-2.32c.93-1.17.93-6.06,1.16-11,.2-4.24,4.26-12,5.33-14C281.53,244.87,278.64,245,277.86,248.66Z"/><path class="cls-4" d="M215.68,275.56s-10.13-1.05-11.88-7,1.4-7.68,1.75-16.07,0-36.68,0-36.68h18.16s-3.49,23.41-2.09,37c0,0,.35,4.54,1.75,7S230,273.81,215.68,275.56Z"/><path class="cls-4" d="M204.15,257.28s8.85-5.36,18.87-.93l-.24-2.57a24.64,24.64,0,0,0-19.33,1.63Z"/><path class="cls-4" d="M189.48,270.1c2-.21,2.82-2.75,3.67-4.21,1.21-2.08,6.46-8.41,2.22-9.93-2.32-.83-6.89,2.29-7.92,4.25C186.09,262.79,184.44,270.63,189.48,270.1Z"/><path class="cls-4" d="M236.48,262.63c.37,1.16.84,7-1.12,7.25-1.3.14-3.69-5.8-4.61-6.84-.75-.85-2.47-2.52-2.55-3.68C227.87,254.51,235.74,260.31,236.48,262.63Z"/><path class="cls-4" d="M191.58,255.88s6-4,7.45-10,1.63-22.82.7-24.68-8.62,3.26-11.88,6.75-11.65,24.92-9.78,29.81,8.15,8.39,8.15,8.39S187.61,258.67,191.58,255.88Z"/><path class="cls-4" d="M233,258s-9.78-3.73-10-9.09.23-25.15,1.63-29.58c0,0,.69,6.53,2.56,9.09s13,15.84,13,22.82a18.76,18.76,0,0,1-3.77,11.41S233.5,258.21,233,258Z"/><path class="cls-4" d="M138.13,221.41S120.31,215.47,125.2,206s18.17-11.88,18.17-11.88l17.81,1.05,22.71,5.59,9.78,6.29s-.35,17.82-12.57,18.51-27.95-1.74-27.95-1.74Z"/><path class="cls-4" d="M230,226s-8.73-6.29-.35-21,19.57-9.78,19.57-9.78l14,.35,8.73,8.38L273,206s4.54,11.53-7,15.37-21,3.5-22.36,3.84S230,226,230,226Z"/><path class="cls-4" d="M185.29,329.36a35.11,35.11,0,0,0,10.83-3.85s19.21,5.94,33.53-.69l7,7s-36.68-3.14-54.5,1.05Z"/><path class="cls-4" d="M106.57,268s1.86-4.42,3.49-7.68,7.46-5.83,7.46-5.83a11.18,11.18,0,0,0-1.17-6.29,22.85,22.85,0,0,1-2.12-6.29,18.3,18.3,0,0,1-10.3,7.92l0-.11a.49.49,0,0,0,0,.12,14.89,14.89,0,0,1-2.83.55c1.46,2.78,4,7.64,4.33,8.29C105.87,259.61,106.57,268,106.57,268Z"/><path class="cls-4" d="M277.34,248v2.27c.28,4.08-1.93,11.33-2.8,14l-.52,8.89a12.83,12.83,0,0,0,3-2.32c.93-1.17.93-6.06,1.16-11s5.59-14.44,5.59-14.44,2.09-9.87.95-16.42C280.75,231.56,277.34,248,277.34,248Z"/><path class="cls-4" d="M114.78,244.1c0-.06-.13,0-.12,0a10.88,10.88,0,0,0,1.42,4.43c1.09,2.06,1.62,3.69.93,6a.16.16,0,0,0,.3.12C119.65,250.44,115.43,248,114.78,244.1ZM116,249c-1.32,4.19-4.34,7.45-5.8,11.57h0c1.66-3.89,5.57-7.22,6.09-11.53C116.29,248.84,116,248.82,116,249Zm-12.26.74a8.92,8.92,0,0,0,2.27,5.94s0,0,0,0a11.38,11.38,0,0,1-1.92-5.93A.18.18,0,0,0,103.71,249.71Z"/><path class="cls-4" d="M114.48,241.74a.13.13,0,0,0-.22-.13c-3.15,4.69-7.75,8.15-13.51,8.75-.06,0-.06.09,0,.09A17.28,17.28,0,0,0,114.48,241.74ZM285,229.7c-.34-2.7-2.39-9.22-6.39-8a.17.17,0,0,0-.12.15,73,73,0,0,1-2.35,14.71,71.59,71.59,0,0,1-1.57-8.16,58.54,58.54,0,0,1,.35-12.62c.19-1.75.45-3.51.72-5.25a13.46,13.46,0,0,0,.36-3.28c-.26-3.14-1.87-6.3-3-9.18a82.07,82.07,0,0,1-4.2-12.29c-1.44-6.33-.34-13-1.1-19.42-1-8.58-4.92-16.34-10.37-23a31.34,31.34,0,0,0-19.49-11.5,24.6,24.6,0,0,0-13.33,1.64c-1.63.72-3.08,1.81-4.69,2.58a26.32,26.32,0,0,1-5.91,2c-.36.07-1.48.58-1.53.22l-.12-.84c-.06-.46-.13-.93-.19-1.39a.24.24,0,0,0-.44-.05,7.9,7.9,0,0,1-5.09,4c.23-1.16.44-2.32.63-3.47a.24.24,0,0,0-.43-.19c-2.8,4.45-7.9,1.44-11.34-.24-2.71-1.32-5.19-4.16-8.72-4.32-.47,0-.59.53-.34.84l1.33,1.72c-4.42-1.62-9.49-3-14.09-2.34a30.7,30.7,0,0,0-6.1,1.94,67.51,67.51,0,0,0-8.33,3.85c-6.46,3.51-12.4,8.29-16.32,14.58a67.28,67.28,0,0,0-8.56,23.42c-.2,1.14-.37,2.29-.47,3.45a1.08,1.08,0,0,0-.14.15c-.41.49-.8,1-1.19,1.47a76.06,76.06,0,0,0-9,14.15,36.81,36.81,0,0,0-3.08,8.88,57.94,57.94,0,0,0-.69,11.55c.06,8.63-.07,17.07-4.87,24.6-.24.38.34.71.58.35a31.06,31.06,0,0,0,4.86-13.34c.63-4.81.35-9.7.4-14.53a39.46,39.46,0,0,1,2.13-13.47A56.19,56.19,0,0,1,128.56,188a80.56,80.56,0,0,1,5.19-7.13,3.36,3.36,0,0,0,1.09-2,66.12,66.12,0,0,1,5.85-20.11A39.37,39.37,0,0,1,152,143.74a57.71,57.71,0,0,1,14.16-8.16c3.5-1.45,7.13-2.91,11-2.62A42.74,42.74,0,0,1,189,136c.52.2.74-.49.48-.82L187.81,133a15.89,15.89,0,0,1,5.92,3.28,14.29,14.29,0,0,0,3.16,1.62c3.07,1.32,7.19,2.3,9.65-.45-.16,1-.33,1.92-.52,2.87a.24.24,0,0,0,.29.29,8.06,8.06,0,0,0,5.39-3.75c.09.61.17,1.23.26,1.84a.23.23,0,0,0,.23.17,26.79,26.79,0,0,0,10.38-3.63,19.37,19.37,0,0,1,4.69-2.15,26.67,26.67,0,0,1,18.8,1.86c8.8,4.23,15.36,13.1,18.84,22,2.65,6.8,2.72,13.87,2.73,21.05a37.37,37.37,0,0,0,1.07,9.42,99.89,99.89,0,0,0,4.38,12.18c1.06,2.65,2.9,6.11,2.41,9.06-.53,3.18-1,6.36-1.29,9.57a50.73,50.73,0,0,0,.14,12.19c.31,2,.94,4,1.35,6,.51,2.51.86,5.05,1.12,7.6.34,3.27.7,6.83-.06,10.07-.71,3.08-1.56,6.13-2.38,9.18a14.84,14.84,0,0,0-.42,3.14c-.18,2.83-.47,5.66-.81,8.48-.54,4.52-1.26,9-2.1,13.5-.26,1.39-.42,3.43-1,4.52-1.58,2.83-3.25,5.62-5.07,8.31-2,3-4.21,5.69-6,8.79-1.32,2.25-2.57,4.55-3.76,6.88a203.17,203.17,0,0,1-11.65,20.24c-2.75,4.14-5.6,8.23-8.59,12.2-.18.23-1.2.38-1.51.48-1.14.39-2.29.74-3.45,1.06a74.18,74.18,0,0,1-7.52,1.67,94.6,94.6,0,0,1-14.35,1.28,111.35,111.35,0,0,1-19.72-1.37c-.61-.1-1.23-.2-1.84-.32a9.34,9.34,0,0,1-3-1.75,153.89,153.89,0,0,1-12.47-9.09,171.42,171.42,0,0,1-16.44-15.09q-1.83-1.91-3.57-3.89l-.43-.51a12.26,12.26,0,0,0-2.51-1.62c-1.14-.75-2.25-1.54-3.35-2.34a145.45,145.45,0,0,1-17-14.6,3.35,3.35,0,0,1-1-1.62c-.63-1.8-1.13-3.63-1.59-5.47-1-3.79-1.67-7.64-2.28-11.49-.73-4.51-1.32-9.06-1.72-13.61,0-.2-.27-.36-.43-.18-2,2.29-4.86,3.12-7.73,3.61-1.52.26-3.06.38-4.59.51-1.08.09-2.11-4-2.37-4.85a59.78,59.78,0,0,1-2-9.74c-.21-1.47-1.45-2.95-2.09-4.3-.84-1.73-1.54-3.54-2.23-5.34,0-.1-.2,0-.16.05.67,1.82,1.39,3.63,2.19,5.41.5,1.1,1.06,2.17,1.66,3.21a10,10,0,0,1,.69,3.34c.63,4.32,1.59,8.74,3.74,12.58a.2.2,0,0,0,.18.1c4.31-.34,9.53-.54,12.73-3.83.37,4.26.92,8.51,1.56,12.74.58,3.86,1.28,7.7,2.18,11.5.41,1.73.89,3.45,1.42,5.14a5.51,5.51,0,0,0,1,2.3A150.18,150.18,0,0,0,142,316.61c1.71,1.33,3.46,2.6,5.25,3.83a15.19,15.19,0,0,1,3,2.06c1,1.14,2,2.24,3,3.34a172,172,0,0,0,15.49,14.57q5.43,4.51,11.23,8.56c1,.71,2.06,1.4,3.1,2.09a10.7,10.7,0,0,0,2.76,1.75l.9.18c14.2,2.61,29.48,2.51,43.43-1.28,2.19-.59,4.7-.86,6.09-2.73s2.78-3.81,4.14-5.73a194.77,194.77,0,0,0,12.61-20c2.91-5.45,5.3-11.06,8.66-16.28,2-3.06,4.27-5.86,6.18-9,.79-1.3,1.56-2.63,2.31-4a5.2,5.2,0,0,0,.69-1.32,192.16,192.16,0,0,0,3.06-19.37.19.19,0,0,0,.18,0c2-1.14,3.47-2.25,3.78-4.63.51-3.82,0-7.79,1-11.53a46.21,46.21,0,0,1,3.52-8.67,15.69,15.69,0,0,0,1.6-3.2A49.08,49.08,0,0,0,285,229.7Zm-.12,4.87a61.64,61.64,0,0,1-1,9.18,8.22,8.22,0,0,1-1,2.89,69.12,69.12,0,0,0-3.5,7.63,28.3,28.3,0,0,0-1.58,9.49,32.51,32.51,0,0,1-.58,6c-.35,1.47-2,2.44-3.28,3.15,0-.42.1-.83.14-1.25.13-1.31.24-2.63.34-3.94a19.23,19.23,0,0,1,.22-3.32c.29-1.07.57-2.14.86-3.2a62.74,62.74,0,0,0,2.06-8.64,28.66,28.66,0,0,0,.12-4.64c1-2.89,1.47-6,2.25-9,0-.2.11-.39.16-.59a33.42,33.42,0,0,1-.07,12.17s0,0,0,0a25.94,25.94,0,0,0,.24-12.89,38.34,38.34,0,0,1,3.5-8.06s0-.07-.06,0c-3.35,4.72-5.23,10.85-6.17,16.62-.14-1.64-.34-3.28-.56-4.88-.18-1.4-.45-2.77-.75-4.15a61.65,61.65,0,0,0,2.31-12.79c.1-1-.4-2.41.84-2.4a4.41,4.41,0,0,1,3.35,2.26C284.84,227.16,285,231.11,284.91,234.57Z"/><path class="cls-4" d="M188.55,275s2.33-5.59,7.68-4.89,7.92,4,10.25,5.35,13,4.43,17.23-.46,4.66-7.69,11.65-3.5l-1.4,5.13-3.49,2.56s-4.19,10.48-15.37,10.25S196,280.8,196,280.8l-5.82-2.56Z"/><path d="M193,273.29s1.92-2.62,8.91,2.27C201.88,275.56,198.39,278.7,193,273.29Z"/><path d="M226,276.26s1.22-3.67,3.14-3.5c0,0,2.45-.35,2.62,1.58A7.22,7.22,0,0,1,226,276.26Z"/><path class="cls-5" d="M192,279c-.73-.28-1.35-.29-1.51-.88a5.34,5.34,0,0,0-.88-1.25,18.41,18.41,0,0,1-2.7-7c-1-5.31.33-11,5.19-13.85.15-.08,0-.34-.12-.28-5.17,1.85-6.48,8.21-6.16,13.06a18.77,18.77,0,0,0,2.2,7.71c.28.5,1.19,2.36,1.92,2.29,1.1-.09,2.73.86,3.78,1.19a35.16,35.16,0,0,0,3.65.86c.05,0,.07-.07,0-.08A39.68,39.68,0,0,1,192,279Zm40.11-21.33c-.15-.05-.2.15-.1.24,1.83,1.36,3.26,2.57,3.92,4.83a12.55,12.55,0,0,1,0,5.75,31.46,31.46,0,0,1-1.54,5.27c-.32.86-.66,1.72-1,2.58-.55,1.43-2.16,2.1-3.4,2.87,0,0,0,0,0,0l2.35-1.37a7.42,7.42,0,0,0,1.55-.8,9.16,9.16,0,0,0,1.23-2.67,25.85,25.85,0,0,0,1.85-6.6C237.46,263.78,236.27,259.14,232.13,257.62ZM192.26,275a0,0,0,0,0,0,0c1-6.05,10.6,1.32,13,2.89.11.08.22-.09.14-.18C203.52,275.57,192.62,268.78,192.26,275Zm34.4-.28c-4.16,6.36-14.84,9.32-20.78,3.67-.11-.11-.32,0-.22.17,5.09,6.81,18,3.4,21.16-3.75A.09.09,0,1,0,226.66,274.7Zm5.39.51a.05.05,0,1,0,.1,0,2.76,2.76,0,0,0-1.72-2.72,2.66,2.66,0,0,0-3.16,1.23.2.2,0,0,0,.31.23c.78-.72,1.41-1.36,2.57-1.13A2.53,2.53,0,0,1,232.05,275.21ZM226,261.88a18.74,18.74,0,0,1,1.47,6.34s0,0,0,0c.27-3.82-1.68-7.06-2.71-10.62A49.93,49.93,0,0,1,223,244.22a152.53,152.53,0,0,1,2.15-28.15.07.07,0,1,0-.14,0,86.59,86.59,0,0,0-1.69,12.75c-.38,4.91-.73,9.83-.77,14.76,0,4.08-.35,8.73.91,12.67C224.11,258.15,225.21,260,226,261.88Zm-.62-47.49s0,.07,0,.07A0,0,0,1,0,225.34,214.39Z"/><path class="cls-6" d="M175.27,302.69s9.32,7,14.91,12.34,11.64,10,17.23,11,19.57-.47,24.22-7.45,7.69-11.65,10.72-14.44,7.91-8.39,7.91-8.39l-8.15,4s-15.6,2.8-17.46,3-26.09,1.63-28,1.63S175.27,302.69,175.27,302.69Z"/><path class="cls-7" d="M196.31,320.37c3.73,2.87,7.51,5,11.1,5.61,5.59.93,19.57-.47,24.22-7.45l.14-.2a39.13,39.13,0,0,1-16,6.25A28.42,28.42,0,0,1,196.31,320.37Z"/><path class="cls-7" d="M242.35,304.09c3-2.8,7.91-8.39,7.91-8.39l-8.15,4s-15.6,2.8-17.46,3-26.09,1.63-28,1.63-21.43-1.63-21.43-1.63,7,5.25,12.51,10.14c-.4-.61-2.29-3.69-.4-4.32,2.1-.7,10.48,0,17.47.7s18.63-.93,24.69-2.79a62.28,62.28,0,0,1,10.24-2.33l-1.85,5.2A35.52,35.52,0,0,1,242.35,304.09Z"/><path class="cls-7" d="M252,293.72a25.63,25.63,0,0,1-9.2,3.85c-4.66.7-13-4.43-15.14-4.89s-9.54,3.49-10.94,4.66c0,0-3.73-1.87-7.22-3.27S196,296.17,192,298.73s-10.48,4.43-14.2,3.73a32.4,32.4,0,0,1-6.18-1.75c12.58,7.34,21.66,6.64,36,5.59h1c5.74,1.51,9.91,1.71,14.55-1.42C232.89,304.45,243.79,302,252,293.72Z"/><path class="cls-7" d="M207.65,306.1c-6.06-.09-12.11.74-18.17.31-6.38-.46-12.2-2.74-17.81-5.71,0,0,0,0,0,0,10.78,6.73,23.71,7.77,36,5.77C207.93,306.46,207.87,306.1,207.65,306.1Zm44.25-12.49A44.25,44.25,0,0,1,237.21,302c-1.17.38-2.37.69-3.57,1s-1.91.81-3,1a56.75,56.75,0,0,1-6.63.75,14.83,14.83,0,0,0,1.52-1.45c.11-.12,0-.32-.17-.22a22,22,0,0,1-7.62,3.59,16.46,16.46,0,0,1-4,.53,30.28,30.28,0,0,1-5.1-.91c-.07,0-.1.08,0,.1a32.11,32.11,0,0,0,4.65,1,15.11,15.11,0,0,0,4.28.37,13.05,13.05,0,0,0,6.13-2.76,64.7,64.7,0,0,0,6.5-.64c1.29-.2,2.43,0,3.69-.32a41.22,41.22,0,0,0,4.08-1.16c5.21-1.75,10.54-4.77,14.11-9A.16.16,0,0,0,251.9,293.61Z"/><path d="M124.5,206.39a42.34,42.34,0,0,1,16.77-6.29c9.08-1,25.5,2.45,33.54,2.1,0,0,5.59.7,8,1.74s7.34,4.2,9.78,3.85,2.8-5.24-.34-10.83a21.09,21.09,0,0,1,0,4.89s-2.45-7-4.9-8.74a60,60,0,0,1,1.75,6.29s-4.54-4.89-5.24-5.94-11.18-1.74-20.61-2.79-20.61-5.94-20.61-5.94-4.19,3.15-7.69,6.29S126.25,201.15,124.5,206.39Z"/><path d="M192.22,206.84c-1.58,0-4.42-1.48-6.5-2.56-.93-.48-1.8-.94-2.49-1.24-2.54-1.08-8.07-1.78-8.3-1.81h-.17c-.37,0-.76,0-1.16,0a126,126,0,0,1-12.74-1.06l-.76-.09a138,138,0,0,0-14.91-1.16,34.65,34.65,0,0,0-4,.2A41.74,41.74,0,0,0,126.55,204a46.63,46.63,0,0,1,9.09-12.27c2.76-2.49,6-5,7.17-5.89,2.36,1,11.95,4.85,20.36,5.78,2.42.27,4.91.52,7.29.75,5.18.51,11.62,1.15,12.69,1.72.89,1.24,4.81,5.47,5.26,6a1,1,0,0,0,.72.31,1,1,0,0,0,1-1.14c0-.1,0-.2-.05-.31.59,1.3,1.06,2.52,1.31,3.24a1,1,0,0,0,.92.66h.09a1,1,0,0,0,.88-.81s0-.06,0-.08a6.74,6.74,0,0,1,0,4.25c-.28.57-.63.62-.75.64l-.26,0Z"/><path d="M273.32,206.39s-5.1-5.24-11.12-6.29-16.92,2.45-22.25,2.1a20.33,20.33,0,0,0-5.33,1.74c-1.62,1.05-4.87,4.2-6.49,3.85s-1.85-5.24.23-10.83a31.11,31.11,0,0,0,0,4.89s1.63-7,3.25-8.74c0,0-.93,4.2-1.16,6.29,0,0,3-4.89,3.47-5.94s7.42-1.74,13.68-2.79,13.67-5.94,13.67-5.94,2.78,3.15,5.1,6.29A49.51,49.51,0,0,1,273.32,206.39Z"/><path d="M228.4,206.84c1,0,2.94-1.48,4.31-2.56.62-.48,1.2-.94,1.66-1.24a20.49,20.49,0,0,1,5.5-1.81H240c.25,0,.5,0,.77,0a56.19,56.19,0,0,0,8.45-1.06l.51-.09a61.29,61.29,0,0,1,9.88-1.16,15.33,15.33,0,0,1,2.68.2c4.06.71,7.66,3.22,9.69,4.89a50.07,50.07,0,0,0-6-12.27c-1.83-2.49-4-5-4.75-5.89-1.57,1-7.93,4.85-13.51,5.78-1.6.27-3.26.52-4.84.75-3.43.51-7.7,1.15-8.41,1.72-.6,1.24-3.19,5.47-3.49,6a.59.59,0,0,1-.48.31.44.44,0,0,1-.28-.1,1.15,1.15,0,0,1-.36-1c0-.1,0-.2,0-.31-.39,1.3-.7,2.52-.87,3.24-.09.4-.34.66-.62.66h-.05c-.3,0-.54-.37-.59-.81v-.08a10.08,10.08,0,0,0,0,4.25c.19.57.42.62.5.64l.17,0Z"/><path d="M139.87,221.93,138,220.71A26.64,26.64,0,0,1,153.5,212c10.13-1.75,18.34,3.67,24.1,10.48l-11.53,2.09Z"/><path class="cls-8" d="M141.29,215.32a27.42,27.42,0,0,1,14.4-5.2,32.64,32.64,0,0,1,14.56,3c.06,0,.1-.07,0-.11-4.45-2.68-10-3.36-15.1-3a23.1,23.1,0,0,0-13.95,5.32s0,.08,0,0Z"/><path class="cls-9" d="M139.87,222.11c8.74,9.43,26.2,7.68,37.73,3.49l3.5.18-2.1-1.57c-9.43-11.18-27.25-15-39.48-2.8Z"/><path class="cls-10" d="M167.91,219.29a9.89,9.89,0,0,0-.65-3.5A25.8,25.8,0,0,0,149,215.3a9.84,9.84,0,0,0,6.59,13.54c1.41.12,2.84.16,4.28.14A9.87,9.87,0,0,0,167.91,219.29Z"/><path class="cls-10" d="M158,228a8.73,8.73,0,0,0,7.74-12.77,25.83,25.83,0,0,0-15.23-.45A8.73,8.73,0,0,0,158,228Z"/><path d="M163.19,219.29a5.15,5.15,0,1,1-5.15-5.16A5.15,5.15,0,0,1,163.19,219.29Z"/><path d="M161.68,219.29a3.64,3.64,0,1,1-3.64-3.65A3.64,3.64,0,0,1,161.68,219.29Z"/><path class="cls-9" d="M158,217.12a2.1,2.1,0,0,0,1.84-3.13,25.72,25.72,0,0,0-3.62-.11,2.08,2.08,0,0,0-.33,1.13A2.11,2.11,0,0,0,158,217.12Z"/><path d="M139.56,221.45c5.88-4.85,12.83-7.61,20.52-6.91a29,29,0,0,1,18.9,9.69s.06,0,0,0c-4.46-5.51-11.37-9.8-18.48-10.66a23.6,23.6,0,0,0-21,7.85,0,0,0,0,0,.07.07Z"/><path class="cls-11" d="M139.86,222.12c4.42,4.92,10.94,6.67,17.35,7a51.43,51.43,0,0,0,20.42-3.4c.14-.05.08-.26-.06-.21-11.74,4-28,6.27-37.69-3.4,0,0,0,0,0,0Z"/><path d="M264.74,221.93l1.59-1.22A22,22,0,0,0,253.44,212c-8.4-1.75-15.21,3.67-20,10.48l9.56,2.09Z"/><path class="cls-8" d="M263.56,215.32a20.44,20.44,0,0,0-11.94-5.2c-4.21-.3-8.22,1-12.07,3-.06,0-.08-.07,0-.11,3.7-2.68,8.3-3.36,12.53-3a17.38,17.38,0,0,1,11.56,5.32s0,.08,0,0Z"/><path class="cls-9" d="M264.74,222.11c-7.24,9.43-21.73,7.68-31.29,3.49l-2.89.18,1.74-1.57c7.82-11.18,22.59-15,32.73-2.8Z"/><path class="cls-10" d="M257.25,219.29a10.36,10.36,0,0,0-.95-4.33c-5.91-2.21-12.22-.94-17.47,2.69a11,11,0,0,0-.14,1.64,9.78,9.78,0,0,0,6.94,9.54,33.28,33.28,0,0,0,4.11.14A9.73,9.73,0,0,0,257.25,219.29Z"/><path class="cls-10" d="M248,228a8.48,8.48,0,0,0,8.21-8.73,9.07,9.07,0,0,0-1.36-4.81,18.7,18.7,0,0,0-14.72,2.35,9,9,0,0,0-.34,2.46A8.49,8.49,0,0,0,248,228Z"/><path d="M252.82,219.29a4.86,4.86,0,1,1-4.85-5.16A5,5,0,0,1,252.82,219.29Z"/><path d="M251.39,219.29a3.43,3.43,0,1,1-3.42-3.65A3.53,3.53,0,0,1,251.39,219.29Z"/><path class="cls-9" d="M248,217.12a2.06,2.06,0,0,0,2-2.11,2.13,2.13,0,0,0-.32-1.13,17.83,17.83,0,0,0-3.55.48,2.32,2.32,0,0,0-.1.65A2,2,0,0,0,248,217.12Z"/><path d="M265,221.45c-4.88-4.85-10.64-7.61-17-6.91-6.14.68-11.56,4.23-15.68,9.69,0,0-.06,0,0,0,3.69-5.51,9.43-9.8,15.32-10.66,6.59-1,13.11,1.73,17.46,7.85,0,.05,0,.11-.06.07Z"/><path class="cls-12" d="M264.75,222.12c-3.67,4.92-9.07,6.67-14.38,7a36.15,36.15,0,0,1-16.94-3.4c-.11-.05-.07-.26,0-.21,9.74,4,23.2,6.27,31.25-3.4,0,0,0,0,0,0Z"/></g></g></svg>