<svg xmlns="http://www.w3.org/2000/svg" viewBox="0 0 671.87 182.88"><defs><style>.cls-1{fill:#ffde59;}</style></defs><title>Asset 1</title><g id="Layer_2" data-name="Layer 2"><g id="Layer_1-2" data-name="Layer 1"><polygon points="89.95 174.5 55.3 174.5 55.16 175 0 175 46.34 19.76 109.6 13.73 109.24 16.27 109.59 15.47 165.72 7.67 148.27 168.22 89.75 176.35 89.95 174.5"/><polygon points="63.26 88.5 58.26 159.5 80.26 159.5 107.26 88.5 99.26 159.5 135.26 154.5 150.26 16.5 114.26 21.5 83.76 93 93.76 22 51.76 26 11.76 160 43.76 160 63.26 88.5"/><path d="M172.52,180.26c-7.28,0-20.86-1.65-30.14-12.68-8-9.47-10.48-23.08-7.45-40.46L154.38,19.06l56.18-6.81-1,4.82,43.77-4.53s-6.21,32.31-7.91,41.19q-4.78,25-9.55,49.92-1.71,9-3.41,17.93-.21,1.17-.42,2.31c-1,5.42-2,11-4.63,17a91.57,91.57,0,0,1-5.94,11.27c-6.87,11-15.12,18.94-24.52,23.5-5.59,2.71-10.59,3.3-15,3.81-1.22.14-2.38.28-3.54.46A42.43,42.43,0,0,1,172.52,180.26Z"/><path d="M160.76,25l33-4-20,99s-5,17,3,18c0,0,7,1,12-22l19-92,29-3q-2.56,13.34-5.12,26.66-4.78,25-9.55,49.93-1.71,9-3.41,18c-1.1,5.83-1.88,11.38-4.3,16.85a80.57,80.57,0,0,1-5.22,9.9c-4.93,7.92-11.48,15.29-20,19.42-5.19,2.51-9.93,2.44-15.42,3.28,0,0-39,6-31-40Z"/><path d="M226.87,176.71a6.16,6.16,0,0,0,1-.55l-17-10.95,24.24-146.5L293.7,7,270.11,128H286.3l6.05,42.3-12,.69C258.5,172.25,231.81,174.8,226.87,176.71Z"/><path d="M241.76,24l35-7-23,118h20l3,21s-52,3-58,7Z"/><polygon points="293.77 64.63 277.76 62.85 277.76 18.6 374.13 13.24 365.25 61.16 347.43 65.13 330.37 170.52 272.04 180.52 293.77 64.63"/><polygon points="285.76 25 357.76 21 352.76 48.01 334.76 52.01 317.76 157 282.76 163 303.76 51.01 285.76 49.01 285.76 25"/><path d="M328,164.8c9.82-48.09,23.09-121,21.84-132.36l-1-9.48L358,20.59c1-.27,25.8-6.56,47.88-6.56,30.09,0,38.75,12.18,40.62,22.68,3.7,14.62,1.86,45.31-27.89,67.31l24.06,53.36-53.38,18.94L383.4,155l-2.17,10.63-56.94,17.25Z"/><path d="M335.76,163s24-117.52,22-135.76c0,0,71-18.24,75,7.76,0,0,10,37-31,61l23,51-31,11-15-54-10,49Zm54-115-5,31s26-14,29-25S389.76,48,389.76,48Z"/><polygon points="531.35 24.02 586.65 10.2 557.17 171.74 499.89 180.16 531.35 24.02"/><polygon points="537.76 29 569.76 21 544.76 158 510.76 163 537.76 29"/><path d="M588,176.63a33,33,0,0,1-26.09-12.16,49.34,49.34,0,0,1-11.08-25.3c-.06-.63-.13-1.26-.18-1.89-2.49-26.48,2.09-52.2,13.25-74.4a122.81,122.81,0,0,1,13.6-21.36,72.11,72.11,0,0,1,25.63-20.18,74.72,74.72,0,0,1,16.75-5.92,42.53,42.53,0,0,1,8.8-.95c14.13,0,25.4,7.41,30.91,20.33a53.77,53.77,0,0,1,3.84,15.33c.05.48.22,2,.33,3.48.08,1,.12,1.83.12,2.52,0,6.79-4.32,10.4-8.16,11.47l-.19.05-35.61,9.24-.76-1.52a63.77,63.77,0,0,0-4.41,7.28c-2.74,6.43-5,12.41-6.84,18.27a129.83,129.83,0,0,0-4,15.54,10.32,10.32,0,0,0,.67,2.62l10-4,4.11-10.37,27,11.05,1.55,5c1.59,5.16-.07,8-6.24,18.42-2.6,4.41-5.71,9.51-6.44,10.6a58.6,58.6,0,0,1-19.07,18.31C609,172,598.87,176.63,588,176.63Z"/><path d="M649.76,53c.36-.09-.24-5.33-.28-5.69a43.05,43.05,0,0,0-3-12.19C641.6,23.72,631,19.69,619.14,22.18a63.38,63.38,0,0,0-14.27,5.09,61.11,61.11,0,0,0-21.77,17.1,111.58,111.58,0,0,0-12.38,19.45c-10.61,21.1-14.33,45-12.13,68.42,0,.59.11,1.18.17,1.76.72,6.78,4.27,14.27,8.57,19.42,10.64,12.71,27,8.69,39.63,1.24a47.73,47.73,0,0,0,15.5-14.92c1-1.52,11.93-19.48,11.3-19.74l-22-9c.51.21-5.17,9.5-5.61,10.07a17.28,17.28,0,0,1-8.15,6.14c-2.92.94-8.66,1.35-9.31-2.38a23.26,23.26,0,0,1,.2-5.65,117.93,117.93,0,0,1,5.52-25.58C596.52,87,599,80.42,601.76,74c0,0,14-28,21-14Z"/><path d="M453.78,178.48a35.35,35.35,0,0,1-27.29-12.25c-10.82-12.6-14.05-33.76-9.6-62.89l.07-.49.12-.48C418,98.74,439.71,13.55,501,10c.34,0,.83,0,1.45,0A32.11,32.11,0,0,1,526,20.79C536.67,32.44,541,52,538.73,78.92V79a144.52,144.52,0,0,1-12.23,42.85c-13.91,30-36.49,49.34-65.29,55.85A34.71,34.71,0,0,1,453.78,178.48ZM489,73.13c-10.24,3.94-17,21.52-18.6,27.65l-.13.49-.18.49c-5.32,14.64-4.88,20.73-4.46,22.64l.29,0,.73-.25.29,0c13.34-2.22,20.48-24.29,22-32.06C490.84,80.24,489.7,75,489,73.13Z"/><path d="M498.76,17s31-3,26,57c0,0-7,75-69,89,0,0-42,10-31-62C424.76,101,444.76,20,498.76,17Zm-42,77c-16,44,9,37,9,37,24-4,31-41,31-41,6-37-12-32-12-32C464.76,63,456.76,94,456.76,94Z"/><polygon points="97.95 167.5 63.3 167.5 63.16 168 8 168 54.34 12.76 117.6 6.73 117.24 9.27 117.59 8.47 173.72 0.67 156.27 161.22 97.75 169.35 97.95 167.5"/><polygon points="74.26 85.5 69.26 156.5 91.26 156.5 118.26 85.5 110.26 156.5 146.26 151.5 161.26 13.51 125.26 18.5 94.76 90 104.76 19 62.76 23 22.76 157 54.76 157 74.26 85.5"/><path d="M180.52,173.26c-7.28,0-20.86-1.65-30.14-12.68-8-9.47-10.48-23.08-7.45-40.46L162.38,12.06l56.18-6.81-1,4.82,43.77-4.53s-6.21,32.31-7.91,41.19q-4.78,25-9.55,49.92-1.71,9-3.41,17.93-.21,1.17-.42,2.31c-1,5.42-2,11-4.63,17a91.57,91.57,0,0,1-5.94,11.27c-6.87,11-15.12,18.94-24.52,23.5-5.59,2.71-10.59,3.3-15,3.81-1.22.14-2.38.28-3.54.46A42.43,42.43,0,0,1,180.52,173.26Z"/><path d="M171.76,22l33-4-20,99s-5,17,3,18c0,0,7,1,12-22l19-92,29-3q-2.56,13.34-5.12,26.66-4.78,25-9.55,49.93-1.71,9-3.41,18c-1.1,5.83-1.88,11.38-4.3,16.85a80.57,80.57,0,0,1-5.22,9.9c-4.93,7.92-11.48,15.29-20,19.42-5.19,2.51-9.93,2.44-15.42,3.28,0,0-39,6-31-40Z"/><path d="M234.87,169.71a6.16,6.16,0,0,0,1-.55l-17-10.95,24.24-146.5L301.7,0,278.11,121H294.3l6.05,42.3-12,.69C266.5,165.25,239.81,167.8,234.87,169.71Z"/><path d="M252.76,21l35-7-23,118h20l3,21s-52,3-58,7Z"/><polygon points="301.77 57.63 285.76 55.85 285.76 11.6 382.13 6.25 373.25 54.16 355.43 58.13 338.37 163.52 280.04 173.52 301.77 57.63"/><polygon points="296.76 22 368.76 18 363.76 45.01 345.76 49.01 328.76 154 293.76 160 314.76 48.01 296.76 46.01 296.76 22"/><path d="M336,157.8c9.82-48.09,23.09-121,21.84-132.36l-1-9.48L366,13.59c1-.27,25.8-6.56,47.88-6.56C444,7,452.66,19.21,454.53,29.71,458.23,44.33,456.39,75,426.64,97l24.06,53.36-53.38,18.94L391.4,148l-2.17,10.63-56.94,17.25Z"/><path d="M346.76,160s24-117.52,22-135.76c0,0,71-18.24,75,7.76,0,0,10,37-31,61l23,51-31,11-15-54-10,49Zm54-115-5,31s26-14,29-25S400.76,45,400.76,45Z"/><polygon points="539.35 17.02 594.65 3.19 565.17 164.74 507.89 173.16 539.35 17.02"/><polygon points="548.76 26 580.76 18 555.76 155 521.76 160 548.76 26"/><path d="M596,169.63a33,33,0,0,1-26.09-12.16,49.34,49.34,0,0,1-11.08-25.3c-.06-.63-.13-1.26-.18-1.89-2.49-26.48,2.09-52.2,13.25-74.4a122.81,122.81,0,0,1,13.6-21.36,72.11,72.11,0,0,1,25.63-20.18,74.72,74.72,0,0,1,16.75-5.92,42.53,42.53,0,0,1,8.8-1c14.13,0,25.4,7.41,30.91,20.33a53.77,53.77,0,0,1,3.84,15.33c.05.48.22,2,.33,3.48.08,1,.12,1.83.12,2.52,0,6.79-4.32,10.4-8.16,11.47l-.19,0-35.61,9.24-.76-1.52a63.77,63.77,0,0,0-4.41,7.28c-2.74,6.43-5,12.41-6.84,18.27a129.83,129.83,0,0,0-4,15.54,10.32,10.32,0,0,0,.67,2.62l10-4,4.11-10.37,27,11.05,1.55,5c1.59,5.16-.07,8-6.24,18.42-2.6,4.41-5.71,9.51-6.44,10.6a58.6,58.6,0,0,1-19.07,18.31C617,165,606.87,169.63,596,169.63Z"/><path d="M660.76,50c.36-.09-.24-5.33-.28-5.69a43.05,43.05,0,0,0-3-12.19C652.6,20.72,642,16.69,630.14,19.18a63.38,63.38,0,0,0-14.27,5.09,61.11,61.11,0,0,0-21.77,17.1,111.58,111.58,0,0,0-12.38,19.45c-10.61,21.1-14.33,45-12.13,68.42,0,.59.11,1.18.17,1.76.72,6.78,4.27,14.27,8.57,19.42,10.64,12.71,27,8.69,39.63,1.24a47.73,47.73,0,0,0,15.5-14.92c1-1.52,11.93-19.48,11.3-19.74l-22-9c.51.21-5.17,9.5-5.61,10.07a17.28,17.28,0,0,1-8.15,6.14c-2.92.94-8.66,1.35-9.31-2.38a23.26,23.26,0,0,1,.2-5.65,117.93,117.93,0,0,1,5.52-25.58C607.52,84,610,77.42,612.76,71c0,0,14-28,21-14Z"/><path d="M461.78,171.48a35.35,35.35,0,0,1-27.29-12.25c-10.82-12.6-14.05-33.76-9.6-62.89l.07-.49.12-.48C426,91.74,447.71,6.55,509,3c.34,0,.83,0,1.45,0A32.11,32.11,0,0,1,534,13.79C544.67,25.44,549,45,546.73,71.92V72a144.52,144.52,0,0,1-12.23,42.85c-13.91,30-36.49,49.34-65.29,55.85A34.71,34.71,0,0,1,461.78,171.48ZM497,66.13c-10.24,3.94-17,21.52-18.6,27.65l-.13.49-.18.49c-5.32,14.64-4.88,20.73-4.46,22.64l.29,0,.73-.25.29,0c13.34-2.22,20.48-24.29,22-32.06C498.84,73.24,497.7,68,497,66.13Z"/><path d="M509.76,14s31-3,26,57c0,0-7,75-69,89,0,0-42,10-31-62C435.76,98,455.76,17,509.76,14Zm-42,77c-16,44,9,37,9,37,24-4,31-41,31-41,6-37-12-32-12-32C475.76,60,467.76,91,467.76,91Z"/><polygon class="cls-1" points="74.26 84.5 69.26 155.5 91.26 155.5 118.26 84.5 110.26 155.5 146.26 150.5 161.26 12.51 125.26 17.5 94.76 89 104.76 18 62.76 22 22.76 156 54.76 156 74.26 84.5"/><path class="cls-1" d="M171.76,21l33-4-20,99s-5,17,3,18c0,0,7,1,12-22l19-92,29-3q-2.56,13.34-5.12,26.66-4.78,25-9.55,49.93-1.71,9-3.41,18c-1.1,5.83-1.88,11.38-4.3,16.85a80.57,80.57,0,0,1-5.22,9.9c-4.93,7.92-11.48,15.29-20,19.42-5.19,2.51-9.93,2.44-15.42,3.28,0,0-39,6-31-40Z"/><path class="cls-1" d="M252.76,20l35-7-23,118h20l3,21s-52,3-58,7Z"/><polygon class="cls-1" points="296.76 21 368.76 17 363.76 44.01 345.76 48.01 328.76 153 293.76 159 314.76 47.01 296.76 45.01 296.76 21"/><path class="cls-1" d="M346.76,159s24-117.52,22-135.76c0,0,71-18.24,75,7.76,0,0,10,37-31,61l23,51-31,11-15-54-10,49Zm54-115-5,31s26-14,29-25S400.76,44,400.76,44Z"/><polygon class="cls-1" points="548.76 25 580.76 17 555.76 154 521.76 159 548.76 25"/><path class="cls-1" d="M660.76,49c.36-.09-.24-5.33-.28-5.69a43.05,43.05,0,0,0-3-12.19C652.6,19.72,642,15.69,630.14,18.18a63.38,63.38,0,0,0-14.27,5.09,61.11,61.11,0,0,0-21.77,17.1,111.58,111.58,0,0,0-12.38,19.45c-10.61,21.1-14.33,45-12.13,68.42,0,.59.11,1.18.17,1.76.72,6.78,4.27,14.27,8.57,19.42,10.64,12.71,27,8.69,39.63,1.24a47.73,47.73,0,0,0,15.5-14.92c1-1.52,11.93-19.48,11.3-19.74l-22-9c.51.21-5.17,9.5-5.61,10.07a17.28,17.28,0,0,1-8.15,6.14c-2.92.94-8.66,1.35-9.31-2.38a23.26,23.26,0,0,1,.2-5.65,117.93,117.93,0,0,1,5.52-25.58C607.52,83,610,76.42,612.76,70c0,0,14-28,21-14Z"/><path class="cls-1" d="M509.76,13s31-3,26,57c0,0-7,75-69,89,0,0-42,10-31-62C435.76,97,455.76,16,509.76,13Zm-42,77c-16,44,9,37,9,37,24-4,31-41,31-41,6-37-12-32-12-32C475.76,59,467.76,90,467.76,90Z"/></g></g></svg>