<svg id="e37c00f5-ff96-45aa-87ea-1a24b78ba7bd" xmlns="http://www.w3.org/2000/svg" viewBox="0 0 1015.1 867.07"><defs><style>.cls-1,.cls-3{fill:#f2f2f2;}.cls-1{opacity:0.28;}.cls-2{fill:#c400f5;}.cls-4{fill:#3f3d56;}.cls-5{fill:#2f2e41;}.cls-6{fill:#a0616a;}.cls-7{fill:#e6e6e6;}.cls-8{fill:#ffb8b8;}.cls-9{fill:#ccc;}</style></defs><title>q</title><path class="cls-1" d="M974.59,316.91C862.91,161.5,627,98.46,395,166.36,272.32,202.25,154.06,274.17,95.45,413.42-9.32,662.36,210.66,741.87,354.5,767.2c69.55,12.26,135.06,32.84,194.92,60.86,107.7,50.41,298.33,95.09,442.08-114.91C1095.69,560.94,1049,420.42,974.59,316.91Z" transform="translate(-68.1 -3.05)"/><circle class="cls-2" cx="531.85" cy="640.78" r="53.79"/><path class="cls-3" d="M921.28,694.59c30.09-9,62.08-18.46,86-39.94,21.32-19.2,35.72-48.52,26.89-77.31s-35.23-47.89-62.49-57.42c-15.47-5.4-31.65-8.4-47.82-10.75-17.58-2.56-35.24-4.66-52.89-6.68q-107.19-12.25-215.2-15c-35.53-.9-71.05-.87-106.58-.36-31.74.46-65.16.45-94.6-13-22.89-10.48-43.67-29.57-50.05-54.64-7.36-29,6.22-58.42,25.7-79.39,10.27-11.05,22.27-20.35,34.66-28.9,13.43-9.28,27.33-17.9,41.53-25.95a577.86,577.86,0,0,1,87.43-40.3c14.9-5.42,30-10.09,45.28-14.41,12.88-3.64,25.8-7.29,38.25-12.25,24.07-9.59,47-25.84,53.08-52.48,5.8-25.24-4-52.65-21.12-71.41-19.83-21.7-49.74-31.21-78.41-32.75C598.7,59.9,567.25,68,537,78.18c-32.27,10.91-63.85,23.45-96.8,32.28A651.6,651.6,0,0,1,340.58,129c-16.46,1.75-33.43,3.73-50,2.39-13.88-1.13-27.69-5.21-37.93-15.06-8.77-8.45-14-20.06-12.2-32.31.33-2.23,3.71-1.28,3.38.93-2.18,14.92,8,28.66,20.45,35.7,14.44,8.14,32,8.15,48.08,7.22a628.42,628.42,0,0,0,103.5-15c33.44-7.63,65.68-18.55,97.88-30.21,30.58-11.07,61.85-21.88,94.52-24.28,28.36-2.08,58.18,2,82.88,16.86,21.7,13,37.67,34.74,42.75,59.66,5,24.35-1.91,48.86-20.34,65.85-19.09,17.59-45.26,25.12-69.64,32-30.93,8.79-61.2,19.06-90.5,32.4a569,569,0,0,0-85.12,47.85c-26,17.78-51.69,40.15-59.91,71.86-3.84,14.77-3.13,30.44,3.28,44.39,5.71,12.41,15.1,22.84,26,30.89,26.1,19.21,59,23.15,90.52,23.54,35.41.44,70.82-.75,106.24-.17q108.28,1.77,216.11,13.18,27,2.86,54,6.32c16.16,2.08,32.38,4.14,48.27,7.83,28.25,6.56,55.74,19.17,73.31,43.12a71.79,71.79,0,0,1,14,35.6c1.22,13.48-2.07,27-8.17,39-13.48,26.53-38.74,43.4-65.56,54.49C952,689,937.09,693.51,922.21,698c-2.16.66-3.09-2.73-.93-3.38Z" transform="translate(-68.1 -3.05)"/><circle class="cls-3" cx="174.63" cy="81.27" r="28.06"/><circle class="cls-3" cx="369.32" cy="134.47" r="28.06"/><circle class="cls-3" cx="534.19" cy="28.06" r="28.06"/><circle class="cls-3" cx="637.09" cy="147.33" r="28.06"/><circle class="cls-3" cx="497.94" cy="285.31" r="28.06"/><circle class="cls-3" cx="389.47" cy="355.01" r="28.06" transform="matrix(0.16, -0.99, 0.99, 0.16, -91.43, 679.54)"/><circle class="cls-3" cx="508.47" cy="456.03" r="28.06"/><circle class="cls-3" cx="709.59" cy="514.49" r="28.06"/><circle class="cls-3" cx="944.62" cy="501.63" r="28.06"/><path class="cls-2" d="M594.19,82.56c-84.07.6-152.9,68.91-154.09,153,0,.77,0,6.23,0,13.37a39.47,39.47,0,0,0,39.46,39.46h0A39.5,39.5,0,0,0,519,248.86v0c0-4.86,0-8.22,0-8.42a74.84,74.84,0,1,1,115.2,63h0s-56.16,36.16-73.29,85.76h0a109.82,109.82,0,0,0-4.53,31.3c0,4.36.26,42.47.75,73.41a40.67,40.67,0,0,0,40.68,40h0a40.69,40.69,0,0,0,40.69-40.69V493c-.18-28.33-.27-61.32-.27-63.71,0-30.46,29.38-60.8,53.51-80.59,27.79-22.78,47.79-53.83,55.82-88.86a101,101,0,0,0,2.92-22A155.22,155.22,0,0,0,595.31,82.56Z" transform="translate(-68.1 -3.05)"/><path class="cls-4" d="M1081.81,699.09H96.91a1.4,1.4,0,0,1,0-2.79h984.9a1.4,1.4,0,0,1,0,2.79Z" transform="translate(-68.1 -3.05)"/><circle class="cls-5" cx="762.27" cy="284.14" r="35.08"/><polygon class="cls-6" points="697.45 680.68 683.11 680.68 676.29 625.39 697.45 625.39 697.45 680.68"/><path class="cls-5" d="M741,679.64h27.65V697H723.56A17.41,17.41,0,0,1,741,679.64Z" transform="translate(-68.1 -3.05)"/><polygon class="cls-6" points="808.53 680.68 794.2 680.68 787.38 625.39 808.53 625.39 808.53 680.68"/><path class="cls-5" d="M852.05,679.64H879.7V697H834.65A17.4,17.4,0,0,1,852.05,679.64Z" transform="translate(-68.1 -3.05)"/><circle class="cls-6" cx="756.94" cy="290.7" r="28.72"/><path class="cls-5" d="M842.15,415.12,855,385.59A36.68,36.68,0,0,0,846.88,344a38.13,38.13,0,0,0-3.59-3.13,36.2,36.2,0,0,0-22.21-7.68,37.58,37.58,0,0,0-15.67,3.49c-.42.18-.83.38-1.25.58-.8.39-1.6.81-2.37,1.24a37.06,37.06,0,0,0-18.36,27.92l-5.67,47.52c-1.43,3.73-52.31,138.44-34.52,241.28a5.23,5.23,0,0,0,4.47,4.29l18,2.45a5.25,5.25,0,0,0,5.86-4.12L801.88,513.5a4.1,4.1,0,0,1,8-.27L852.61,665a5.23,5.23,0,0,0,5,3.83,5.66,5.66,0,0,0,1-.09l22.05-4.25a5.22,5.22,0,0,0,4.24-5.62C881.71,622.74,864.5,441.81,842.15,415.12Z" transform="translate(-68.1 -3.05)"/><path class="cls-6" d="M713.43,317.65a11.75,11.75,0,0,0,10.31,13,11.94,11.94,0,0,0,2.07.06l16.06,38.58,12.14-18L736.9,317.45a11.82,11.82,0,0,0-23.47.2Z" transform="translate(-68.1 -3.05)"/><path class="cls-6" d="M823.44,454a11.79,11.79,0,0,0,9.86-15.1l33.77-24.6-20.33-7.61-29,24.53A11.82,11.82,0,0,0,823.44,454Z" transform="translate(-68.1 -3.05)"/><path class="cls-5" d="M768.38,395.05a19.94,19.94,0,0,1-3.85-.38,19.07,19.07,0,0,1-14-11.25L728.07,356a5.26,5.26,0,0,1,1.29-7.81l16-9.91a5.25,5.25,0,0,1,7.24,1.71l0,0,15.85,26.12,30.36-22.44a11.37,11.37,0,0,1,13.23,18.2l-30.3,27.64A19,19,0,0,1,768.38,395.05Z" transform="translate(-68.1 -3.05)"/><path class="cls-5" d="M850.41,436.29h-.12a5.28,5.28,0,0,1-3.88-1.84l-14.22-16.59a5.26,5.26,0,0,1,.57-7.42,6.12,6.12,0,0,1,.5-.39L859.9,392.3l-24.13-29A11.37,11.37,0,0,1,853.18,349l29.33,28.66a19.32,19.32,0,0,1-4.3,31.5l-24,25.44A5.29,5.29,0,0,1,850.41,436.29Z" transform="translate(-68.1 -3.05)"/><path class="cls-7" d="M817.73,375.14a5.31,5.31,0,0,1-.68-.05,5.2,5.2,0,0,1-4.34-3.58L802,338.73a3.6,3.6,0,0,1,1.87-4.35l.34-.17.95-.44a38,38,0,0,1,15.9-3.53,36.61,36.61,0,0,1,20.07,6,3.66,3.66,0,0,1,1.05,5l-20.05,31.42A5.23,5.23,0,0,1,817.73,375.14Z" transform="translate(-68.1 -3.05)"/><circle class="cls-5" cx="789.93" cy="257" r="11.48"/><path class="cls-5" d="M818.67,247.43h0a30.4,30.4,0,0,0-30.4,30.4v12.86h15.82l7.57-12.86,2.27,12.86h48l-12.86-12.86A30.41,30.41,0,0,0,818.67,247.43Z" transform="translate(-68.1 -3.05)"/><path class="cls-5" d="M863.92,252.18A17.71,17.71,0,0,1,883.19,240c7.32,1.22,13.1,7.1,16.55,13.67s5,13.91,7.35,21,5.61,14.13,11.45,18.69,14.83,5.8,20.57,1.11a23.52,23.52,0,0,1-43.82,8.39c-3-5.39-3.81-11.71-4.71-17.83s-2.07-12.45-5.69-17.47-10.39-8.29-16.14-6Z" transform="translate(-68.1 -3.05)"/><path class="cls-4" d="M490.68,269.69h0a39.46,39.46,0,0,1-39.46-39.46c0-7.13,0-12.59,0-13.37a153.75,153.75,0,0,1,18-70.05,154.06,154.06,0,0,0-29.65,88.76c0,.78,0,6.24,0,13.37A39.46,39.46,0,0,0,479,288.4h0a39.49,39.49,0,0,0,38-28.75A39.28,39.28,0,0,1,490.68,269.69Z" transform="translate(-68.1 -3.05)"/><path class="cls-4" d="M596.86,165.71a74.82,74.82,0,0,1,65.08,104.55,74.83,74.83,0,1,0-125.61-78.33A74.67,74.67,0,0,1,596.86,165.71Z" transform="translate(-68.1 -3.05)"/><path class="cls-4" d="M609,515.25h0a40.68,40.68,0,0,1-40.68-40c-.49-30.93-.75-69.05-.75-73.4a109.82,109.82,0,0,1,4.53-31.3h0a111.5,111.5,0,0,1,6.43-14.85,129,129,0,0,0-18.12,33.56h0a109.87,109.87,0,0,0-4.53,31.3c0,4.36.25,42.47.75,73.41a40.68,40.68,0,0,0,40.68,40h0a40.72,40.72,0,0,0,39.06-29.29A40.57,40.57,0,0,1,609,515.25Z" transform="translate(-68.1 -3.05)"/><polygon class="cls-8" points="175.39 681.22 189.72 681.22 196.54 625.92 175.38 625.92 175.39 681.22"/><path class="cls-5" d="M285.47,697.58H240.41V680.17h27.65a17.41,17.41,0,0,1,17.41,17.41Z" transform="translate(-68.1 -3.05)"/><polygon class="cls-8" points="123.94 681.22 138.27 681.22 145.09 625.92 123.94 625.92 123.94 681.22"/><path class="cls-5" d="M234,697.58H189V680.17h27.65A17.41,17.41,0,0,1,234,697.58Z" transform="translate(-68.1 -3.05)"/><path class="cls-5" d="M204.56,667.26l-14-.74a5.46,5.46,0,0,1-5.17-5.74v-.06l16.74-185.3,77.07,20.8,7.42-2-23.22,164a5.47,5.47,0,0,1-5.09,4.61l-15.1.7a5.47,5.47,0,0,1-5.76-5.15c0-.15,0-.3,0-.45l2.73-98.46a1.82,1.82,0,0,0-3.6-.42L210.2,662.91a5.43,5.43,0,0,1-5.34,4.36Z" transform="translate(-68.1 -3.05)"/><circle class="cls-8" cx="177.96" cy="292.04" r="28.72"/><path class="cls-9" d="M198.24,379.47l3.16,68.13,1.14,24.79a5.44,5.44,0,0,0,3.6,4.88L280.2,504.1a5.45,5.45,0,0,0,7.32-5.08v-.19l-3-122.51a43.18,43.18,0,0,0-36-41.72l-2.17-.31a42.36,42.36,0,0,0-34.1,11,43.55,43.55,0,0,0-14,34.14Z" transform="translate(-68.1 -3.05)"/><path class="cls-8" d="M315.57,490.5a11.75,11.75,0,0,1-6.27-17.8l-25.12-33.4L305.85,438l20.53,31.92a11.82,11.82,0,0,1-10.81,20.62Z" transform="translate(-68.1 -3.05)"/><path class="cls-9" d="M297.92,466.65a5.41,5.41,0,0,1-3-2.94l-37.83-90.15A14.57,14.57,0,0,1,284,362.26v0l37.84,90.15a5.47,5.47,0,0,1-2.92,7.15l-16.8,7.05a5.37,5.37,0,0,1-4.18,0Z" transform="translate(-68.1 -3.05)"/><path class="cls-4" d="M236.83,463.47l36.34-69.58a5.69,5.69,0,0,1,7.68-2.41L333.6,419a5.7,5.7,0,0,1,2.42,7.68L299.68,496.3a5.7,5.7,0,0,1-7.69,2.41l-52.75-27.55A5.7,5.7,0,0,1,236.83,463.47Z" transform="translate(-68.1 -3.05)"/><path class="cls-8" d="M261.2,431.68a11.79,11.79,0,0,0-18.15-5.21l-34.82-23.1-.06,21.71,33.08,18.61a11.82,11.82,0,0,0,19.95-12Z" transform="translate(-68.1 -3.05)"/><path class="cls-9" d="M217.17,436.57,188.72,414a20.07,20.07,0,0,1-12.64-25.42,19.82,19.82,0,0,1,3.49-6.31l25.84-33.87a11.81,11.81,0,0,1,20,12L205,393.9l30,14.25a5.47,5.47,0,0,1,2.59,7.28,4.71,4.71,0,0,1-.32.58L225.19,435.2a5.48,5.48,0,0,1-3.71,2.47h-.09A5.47,5.47,0,0,1,217.17,436.57Z" transform="translate(-68.1 -3.05)"/><path class="cls-5" d="M224.36,314.32a2.5,2.5,0,0,1,1.55-3.17,2.62,2.62,0,0,1,.62-.12,5.74,5.74,0,0,1,4.06,2,16.31,16.31,0,0,0,3.59,3.09c1.39.7,3.28.6,4.07-.74s.23-2.93-.22-4.39a43.4,43.4,0,0,1-1.9-11.42c-.13-4.33.48-8.84,2.87-12.22,3.1-4.35,8.62-6,13.85-5.89s10.38,1.74,15.56,2.76c1.79.35,3.9.53,5.09-.86s.81-3.86.27-5.85c-1.41-5.16-2.9-10.5-6.16-14.67a22.05,22.05,0,0,0-14.1-7.94,33.83,33.83,0,0,0-15.74,1.78,42.2,42.2,0,0,0-20.68,14.41,34.15,34.15,0,0,0-6.52,25.25,31.16,31.16,0,0,0,11.56,19.71Z" transform="translate(-68.1 -3.05)"/><path class="cls-4" d="M588.1,684.49a53.78,53.78,0,0,1-20-83.59,53.79,53.79,0,1,0,73.16,77.72A53.73,53.73,0,0,1,588.1,684.49Z" transform="translate(-68.1 -3.05)"/></svg>