<svg xmlns="http://www.w3.org/2000/svg" viewBox="0 0 800 800"><defs><style>.cls-1{fill:#2889cd;}.cls-2{opacity:0.5;}.cls-3{fill:#1ccdf9;}.cls-4{fill:#434242;}.cls-5{fill:#47a4ff;}.cls-6{fill:#f68f04;}.cls-7{fill:#73baff;}.cls-8{fill:#f1a30d;}.cls-9{fill:#fab802;}.cls-10{fill:#fad000;}.cls-11{fill:#fcef67;}.cls-12,.cls-14,.cls-32{fill:none;stroke-miterlimit:10;}.cls-12{stroke:#f5b903;}.cls-13,.cls-33{fill:#939389;}.cls-13,.cls-17{opacity:0.3;}.cls-14{stroke:#edeef2;stroke-width:3px;}.cls-15{fill:#545351;}.cls-16{fill:#3b3a39;}.cls-17{fill:#ffeef1;}.cls-18{font-size:90.56px;font-family:NexaRustSans-Black, NexaRustSans Black;font-weight:800;letter-spacing:0em;}.cls-18,.cls-24{fill:#fff;}.cls-19{letter-spacing:0em;}.cls-20{fill:#e53328;}.cls-21{fill:#eeae06;}.cls-22{fill:#a4e65e;}.cls-23{fill:#e9e8e4;}.cls-25{fill:#6ebc1a;}.cls-26{fill:#edeef2;}.cls-27{fill:#d3d3d3;}.cls-28{fill:#ecdca8;}.cls-29{fill:#1d8246;}.cls-30{fill:#559c1c;}.cls-31{fill:#333231;}.cls-32{stroke:#fad000;stroke-width:2px;}.cls-33{opacity:0.1;}</style></defs><title>quiz</title><g id="BACKGROUND"><rect class="cls-1" width="800" height="800"/><g class="cls-2"><ellipse class="cls-3" cx="743.6" cy="441.33" rx="11.57" ry="12.47"/></g><g class="cls-2"><ellipse class="cls-3" cx="112.88" cy="611.25" rx="11.57" ry="12.47"/></g><path class="cls-3" d="M711.65,448.39a11,11,0,0,0,11-11v-2.58a11,11,0,0,0-11-11h-16a11,11,0,0,1-11-11v-2c0-6.05,3.82-11,8.48-11s8.47-5,8.47-11V361.91a11,11,0,0,0-11-11h-9.43a11,11,0,0,1-11-11V313.59a11,11,0,0,1,11-11h.68a11,11,0,0,0,11-11V264.71a11,11,0,0,0-11-11h-43.7a11,11,0,0,1-11-11v-2.3a11,11,0,0,0-11-11h-3a11,11,0,0,1-11-11v-26.6a11,11,0,0,0-11-11H563.42a11,11,0,0,1-11-11v-2.3a11,11,0,0,0-11-11H519.34a11,11,0,0,1-11-11v-2.29a11,11,0,0,0-11-11H484.61a11,11,0,0,1-11-11V115.4a11,11,0,0,0-11-11H351.76a11,11,0,0,0-11,11v5.82a11,11,0,0,1-11,11H324a11,11,0,0,0-11,11v2.29a11,11,0,0,1-11,11h-26.6a11,11,0,0,0-11,11v2.3a11,11,0,0,1-11,11H230a11,11,0,0,0-11,11v2.59c0,6,.54,11,1.19,11s1.19,4.95,1.19,11v2a11,11,0,0,1-11,11H197.24a11,11,0,0,0-11,11v2.3a11,11,0,0,1-11,11h-38.1a11,11,0,0,0-11,11V267a11.15,11.15,0,0,0,11,11.1l8,.08a11.16,11.16,0,0,1,11,11.1v2a11,11,0,0,1-11,11H121.07a11,11,0,0,0-11,11v2.3a11,11,0,0,1-11,11H67.18a11,11,0,0,0-11,11v2.58a11,11,0,0,0,11,11h28a11,11,0,0,1,11,11v2a11,11,0,0,1-11,11H82.72a11,11,0,0,0-11,11v2.58a11,11,0,0,0,11,11h40a11,11,0,0,1,11,11v2a11,11,0,0,1-11,11H105.83a11,11,0,0,0-11,11v2.58a10.82,10.82,0,0,0,10.55,11,10.82,10.82,0,0,1,10.56,11v2.3c0,6.05,0,11,0,11s0,4.95,0,11v2a11,11,0,0,1-11,11h-1.45a11,11,0,0,0-11,11v2.59a11,11,0,0,0,11,11h5.12a11,11,0,0,1,11,11v2.3a11,11,0,0,0,11,11h49a11,11,0,0,1,11,11v2.29a11,11,0,0,1-11,11h-4.58a11,11,0,0,0-11,11v2a11,11,0,0,1-11,11h-8.83a11,11,0,0,0-11,11v2.58a11,11,0,0,0,11,11h18.33a11,11,0,0,1,11,11v2.3a11,11,0,0,0,11,11h20.17a11,11,0,0,1,11,11v2.3a11,11,0,0,0,11,11H244.6a11,11,0,0,1,11,11v2.3a11,11,0,0,0,11,11H537.52a11,11,0,0,0,11-11v-2.3a11,11,0,0,1,11-11H592.7a11,11,0,0,0,11-11v-2.3a11,11,0,0,1,11-11H627a11,11,0,0,0,11-11v-26.6a11,11,0,0,1,11-11h.25a11,11,0,0,0,11-11V556.59a11,11,0,0,1,11-11h7.53a11,11,0,0,0,11-11V508c0-6.05,4.19-11,9.32-11s9.33-4.95,9.33-11v-2.58a11,11,0,0,0-11-11h-1.74a11,11,0,0,1-11-11v-2a11,11,0,0,1,11-11Z"/></g><g id="OBJECTS"><rect class="cls-4" x="600.76" y="478.04" width="8.38" height="27.62" transform="translate(-144.01 708.51) rotate(-55.25)"/><circle class="cls-4" cx="575.24" cy="471.24" r="32.64" transform="translate(33.15 980.27) rotate(-82.52)"/><circle class="cls-5" cx="575.24" cy="471.24" r="28.4" transform="translate(-123.41 216.58) rotate(-19.3)"/><path class="cls-6" d="M650.83,524a8.65,8.65,0,0,1-12.06,2.07l-28.7-20.3A8.67,8.67,0,0,1,608,493.68h0a8.67,8.67,0,0,1,12.07-2.07l28.7,20.3A8.66,8.66,0,0,1,650.83,524Z"/><path class="cls-7" d="M552,454.87l-.26.39,41.69,28.92,5,3.45A28.4,28.4,0,0,0,552,454.87Z"/><path class="cls-8" d="M611,491.16a8.62,8.62,0,0,0-3.08,2.67l-.16.26,8.42,5.84L650.83,524a8.67,8.67,0,0,0-2.16-11.92L620,491.77A8.63,8.63,0,0,0,611,491.16Z"/><rect class="cls-9" x="186.91" y="401.47" width="33.44" height="15.57" transform="translate(-207.3 609.47) rotate(-89.52)"/><path class="cls-10" d="M236.36,430.43a15.61,15.61,0,0,0-15.48-15.74l-34.59-.29a15.61,15.61,0,0,0-15.74,15.48C197.37,430.11,203.79,430.2,236.36,430.43Z"/><path class="cls-9" d="M126,323.17l50.13.42-.06,7.43s-30.08-.06-40.33-.34c-.08,9.66,13.52,35.44,41.85,36.83,0,0,0,1.95-.07,8C168.29,375.47,126.23,366.48,126,323.17Z"/><path class="cls-9" d="M283.88,324.48l-50.12-.41-.07,7.43s30.08.44,40.33.33c-.08,9.66-14.1,35.21-42.45,36.13,0,0,0,2-.07,8C240.72,376.08,282.91,367.78,283.88,324.48Z"/><path class="cls-9" d="M204.43,313.28l-48.72-.4c-.45,53.36,16.48,81.92,48,82.19,32.9.27,48.95-28,49.4-81.38Z"/><path class="cls-10" d="M155.62,323.4c-.44,53.36,24.35,71.47,48.13,71.67s48.87-17.5,49.31-70.86Z"/><path class="cls-11" d="M189,351s-1.23-14.31,14.79-14.17c14.13.11,15.47,10.2,15.46,12.28-.11,13.07-10.54,8.1-10.62,18.44l-8.78-.07c.11-12.22,9.85-11.23,9.9-17.73,0-2.54-1.38-5.93-5.59-6-4.82,0-6.81,3.77-6.84,7.28Z"/><rect class="cls-11" x="199.09" y="371.46" width="9.62" height="9.36" transform="translate(-173.91 576.91) rotate(-89.52)"/><path class="cls-12" d="M204.32,325.92"/><path class="cls-13" d="M204.43,313.29l-48.72-.41c0,3.63,0,7.13.15,10.53h-.24v0L126,323.17c.19,33.32,25.12,46.32,40.81,50.59a44.82,44.82,0,0,0,16,15.82l.31.17c.39.22.78.44,1.18.65a38.78,38.78,0,0,0,11.67,4l-.17,20.12-9.51-.08a15.61,15.61,0,0,0-15.74,15.48l33.5.3,1-116.89Zm-68.71,17.39c4.36.12,12.33.2,20,.25.52,13.31,2.72,24.19,6.15,32.94C144.21,356.15,135.65,338.34,135.72,330.68Z"/><path class="cls-10" d="M654,372.31c15,0,30,11,30,27.3s-13.57,18.45-13.56,28.28,0,21.12,0,21.12l-16.36,0-16.36,0s0-11.29,0-21.12-13.62-12-13.64-28.25S639,372.33,654,372.31Z"/><path class="cls-14" d="M638.5,397.75c1.89,0,3,1.68,4.75,1.68S646,391,654,391s8.71,8.41,10.78,8.41,3.24-1.69,4.75-1.69a2.87,2.87,0,0,1,3.17,3.06c0,2.31-18.66,21-18.63,42.46,0-21.46-18.76-41.16-18.76-42.41A3.32,3.32,0,0,1,638.5,397.75Z"/><ellipse class="cls-15" cx="654.11" cy="453.58" rx="11.23" ry="10.08" transform="matrix(1, 0, 0, 1, -0.65, 0.95)"/><rect class="cls-16" x="636.99" y="438.26" width="34.22" height="16.59" transform="translate(-0.65 0.96) rotate(-0.08)"/><path class="cls-17" d="M684,399.68c0,16.28-13.57,18.45-13.56,28.28,0,3.45,0,7.09,0,10.35h.75l0,16.59h-6c-.68,4.91-5.3,8.72-10.93,8.82l-.14-91.35C669.1,372.45,684,383.46,684,399.68Z"/><text class="cls-18" transform="translate(278.78 668.92)">Q<tspan class="cls-19" x="62.66" y="0">uiz</tspan></text><path class="cls-20" d="M526.67,543.46s9.83-1.88,11.43-2.32c1.87-.51,3-.9,2.89-2-.13-1.56-3-1.92-3.45-4.21a4.95,4.95,0,0,1,9.54-2.56c.47,3.24-1.66,4.41-1.36,5.87.13.66,1.52,1.12,3.26.75s11.61-2.36,11.61-2.36l2.22,10.92s.73,3.63,2.23,3.33,2.06-2.88,4.3-3.33,5,.08,5.77,3.9a4.41,4.41,0,0,1-3.61,5.62c-2.45.51-4.15-1.46-5.49-1.22,0,0-1.32.59-.77,3.68s2.23,11,2.23,11L556,572.81s-2.86.69-3.28-.56,2.17-3.28,1.33-5.85a4.73,4.73,0,0,0-5.65-3.36,4.83,4.83,0,0,0-4.08,5.58c.41,2.8,3.3,3.14,3.46,4.54,0,0,.47,1.33-4,2.24s-10.25,2.15-10.25,2.15-1.66-8-1.86-9.18-1.2-5.38.31-5.69,2.75,1.94,5.78,1.33,3.66-3.85,3.17-6.22a4.89,4.89,0,0,0-5.51-3.52c-2.26.46-2.86,3.25-4.37,3.56s-2.19-3.22-2.72-5.83S526.67,543.46,526.67,543.46Z"/><path class="cls-21" d="M608,532.49s1.89,9.83,2.32,11.43c.51,1.87.9,3,2,2.89,1.56-.12,1.92-2.95,4.22-3.44a4.58,4.58,0,0,1,5.81,3.79c.73,3.58-1.79,5.53-3.26,5.74-3.24.47-4.41-1.65-5.87-1.36-.66.13-1.12,1.52-.75,3.26s2.36,11.62,2.36,11.62L604,568.63s-3.64.74-3.34,2.23,2.88,2.06,3.34,4.3-.09,5-3.91,5.77a4.39,4.39,0,0,1-5.61-3.61c-.52-2.45,1.45-4.14,1.21-5.48,0,0-.59-1.33-3.68-.77s-11,2.22-11,2.22l-2.33-11.43s-.69-2.86.56-3.28,3.28,2.17,5.85,1.33a4.73,4.73,0,0,0,3.36-5.65,4.83,4.83,0,0,0-5.58-4.08c-2.8.41-3.14,3.3-4.54,3.47,0,0-1.33.46-2.24-4S574,539.41,574,539.41s8-1.66,9.18-1.86,5.38-1.2,5.69.32-1.94,2.74-1.33,5.77,3.85,3.66,6.22,3.17a4.88,4.88,0,0,0,3.52-5.51c-.46-2.26-3.25-2.86-3.56-4.37s3.22-2.19,5.83-2.72Z"/><path class="cls-20" d="M252.07,612.77s-9.92,1.31-11.55,1.65c-1.89.4-3,.73-3,1.84,0,1.56,2.83,2.09,3.19,4.41a4.95,4.95,0,0,1-9.67,2c-.27-3.26,1.91-4.31,1.7-5.78-.09-.66-1.45-1.21-3.2-.94s-11.74,1.68-11.74,1.68l-1.58-11s-.52-3.67-2-3.45-2.23,2.75-4.49,3.07-5-.37-5.54-4.23a4.41,4.41,0,0,1,3.94-5.4c2.47-.37,4,1.7,5.4,1.53,0,0,1.36-.51,1-3.63s-1.58-11.07-1.58-11.07l11.55-1.65s2.89-.53,3.24.75-2.36,3.14-1.67,5.76a4.74,4.74,0,0,0,5.45,3.68,4.84,4.84,0,0,0,4.4-5.33c-.25-2.82-3.12-3.33-3.2-4.73,0,0-.39-1.36,4.11-2s10.35-1.56,10.35-1.56,1.2,8.07,1.33,9.27.88,5.45-.65,5.66-2.63-2.09-5.69-1.65-3.87,3.62-3.53,6a4.89,4.89,0,0,0,5.3,3.83c2.29-.33,3-3.08,4.57-3.29s2,3.33,2.38,6S252.07,612.77,252.07,612.77Z"/><path class="cls-22" d="M537.89,589.61s9.83-1.88,11.43-2.32c1.87-.51,3-.9,2.89-2-.12-1.56-2.94-1.92-3.44-4.21a4.6,4.6,0,0,1,3.8-5.82c3.57-.72,5.53,1.79,5.74,3.26.46,3.24-1.66,4.42-1.37,5.88.14.65,1.52,1.11,3.26.74s11.62-2.36,11.62-2.36L574,593.69s.74,3.63,2.23,3.33,2.07-2.88,4.3-3.33,5,.08,5.78,3.9a4.42,4.42,0,0,1-3.62,5.62c-2.45.51-4.14-1.46-5.48-1.22,0,0-1.33.6-.77,3.68s2.23,11,2.23,11L567.26,619s-2.85.69-3.28-.56,2.17-3.28,1.34-5.85a4.75,4.75,0,0,0-5.66-3.36,4.83,4.83,0,0,0-4.08,5.58c.41,2.8,3.31,3.14,3.47,4.54,0,0,.46,1.33-4,2.24s-10.25,2.15-10.25,2.15-1.66-8-1.87-9.17-1.2-5.39.32-5.69,2.75,1.94,5.77,1.32,3.66-3.85,3.18-6.22a4.89,4.89,0,0,0-5.52-3.51c-2.26.45-2.85,3.24-4.37,3.55s-2.19-3.22-2.72-5.82S537.89,589.61,537.89,589.61Z"/><path class="cls-10" d="M618.16,579.31s1.89,9.83,2.32,11.43c.51,1.87.91,3,2,2.89,1.56-.12,1.93-3,4.22-3.44a4.94,4.94,0,0,1,2.55,9.53c-3.24.47-4.41-1.65-5.87-1.36-.65.13-1.12,1.52-.75,3.26S625,613.24,625,613.24l-10.91,2.21s-3.64.74-3.33,2.23,2.87,2.06,3.33,4.3-.09,5-3.91,5.77a4.39,4.39,0,0,1-5.61-3.61c-.52-2.45,1.45-4.14,1.21-5.48,0,0-.59-1.33-3.68-.77s-11,2.22-11,2.22l-2.32-11.43s-.7-2.86.55-3.28,3.28,2.17,5.85,1.33a4.73,4.73,0,0,0,3.36-5.65A4.83,4.83,0,0,0,593,597c-2.8.41-3.14,3.3-4.53,3.47,0,0-1.34.46-2.24-4s-2.16-10.25-2.16-10.25,8-1.66,9.18-1.86,5.38-1.2,5.69.32-1.94,2.74-1.33,5.77,3.85,3.66,6.23,3.18a4.9,4.9,0,0,0,3.51-5.52c-.46-2.26-3.25-2.86-3.56-4.37s3.22-2.19,5.83-2.72Z"/><path class="cls-23" d="M585.58,173.8H504A20.19,20.19,0,0,0,483.76,194v59.25A20.19,20.19,0,0,0,504,273.43h20.51c.11,11.82-4.79,22.85-5.9,26.13,17.18-7.85,25.8-18.05,30.14-26.13h36.88a20.19,20.19,0,0,0,20.19-20.19V194A20.19,20.19,0,0,0,585.58,173.8Z"/><path class="cls-24" d="M675.58,258.44c-.1-25.79-24.89-46.6-55.37-46.48s-55.11,21.11-55,46.9,24.89,46.6,55.37,46.48c.8,0,1.6,0,2.39-.06,5.27,7.44,14.49,16,30.59,22.23-1.37-3.38-7.39-15-7.63-27.5C663.6,292.17,675.65,276.48,675.58,258.44Z"/><path class="cls-24" d="M506.83,353c.1-24.59,23.75-44.44,52.82-44.33s52.57,20.14,52.48,44.74-23.74,44.45-52.82,44.33c-.77,0-1.53,0-2.28-.05-5,7.09-13.82,15.27-29.18,21.2,1.31-3.22,7-14.28,7.28-26.23C518.26,385.13,506.77,370.17,506.83,353Z"/><polygon class="cls-25" points="591.63 255.36 614.53 271.66 654.91 235.39 614.83 286.49 591.63 255.36"/><path class="cls-10" d="M523.12,216.45s-1.56-18.22,18.82-18c18,.15,19.71,13,19.68,15.64-.13,16.63-13.41,10.31-13.52,23.47l-11.17-.09c.13-15.56,12.54-14.3,12.6-22.57,0-3.23-1.75-7.55-7.11-7.59-6.15,0-8.67,4.8-8.71,9.28Z"/><rect class="cls-10" x="536.24" y="241.35" width="12.25" height="11.92" transform="translate(290.54 787.6) rotate(-89.52)"/><rect class="cls-24" x="304.88" y="286.94" width="187.14" height="267.35" rx="6.97"/><path class="cls-16" d="M485.05,558.29H311.85a11,11,0,0,1-11-11V293.91a11,11,0,0,1,11-11h173.2a11,11,0,0,1,11,11v253.4A11,11,0,0,1,485.05,558.29ZM311.85,290.94a3,3,0,0,0-3,3v253.4a3,3,0,0,0,3,3h173.2a3,3,0,0,0,3-3V293.91a3,3,0,0,0-3-3Z"/><rect class="cls-10" x="334.12" y="273.66" width="128.65" height="43.5"/><rect class="cls-9" x="334.12" y="296.71" width="128.65" height="20.45"/><path class="cls-10" d="M415.41,273.66a16.1,16.1,0,1,1-16.1-16.1A16.09,16.09,0,0,1,415.41,273.66Z"/><path class="cls-1" d="M406.45,273.66a7.14,7.14,0,1,1-7.14-7.14A7.13,7.13,0,0,1,406.45,273.66Z"/><rect class="cls-26" x="319.74" y="343.13" width="147.27" height="3.59"/><rect class="cls-26" x="319.74" y="349.66" width="96.8" height="3.59"/><rect class="cls-26" x="319.74" y="356.29" width="73.63" height="3.59"/><rect class="cls-26" x="351.05" y="387.36" width="116.96" height="5.56"/><rect class="cls-26" x="351.05" y="415.36" width="116.96" height="5.56"/><rect class="cls-26" x="351.05" y="443.86" width="116.96" height="5.56"/><rect class="cls-26" x="351.05" y="470.44" width="116.96" height="5.56"/><rect class="cls-26" x="350.05" y="495.66" width="116.96" height="5.56"/><path class="cls-26" d="M338.62,380.88v15.88H322.74V380.88h15.88m3-3H319.74v21.88h21.88V377.88Z"/><path class="cls-26" d="M338.62,409.25v15.88H322.74V409.25h15.88m3-3H319.74v21.88h21.88V406.25Z"/><path class="cls-26" d="M338.62,437.58v15.89H322.74V437.58h15.88m3-3H319.74v21.89h21.88V434.58Z"/><path class="cls-26" d="M338.62,466.28v15.88H322.74V466.28h15.88m3-3H319.74v21.88h21.88V463.28Z"/><path class="cls-26" d="M338.62,494.5v15.88H322.74V494.5h15.88m3-3H319.74v21.88h21.88V491.5Z"/><polygon class="cls-25" points="321.67 382.8 330.17 388.84 345.15 375.39 330.27 394.35 321.67 382.8"/><path class="cls-6" d="M448.09,510.43a7.8,7.8,0,0,1,0,11h0a7.8,7.8,0,0,1-11,0l-10.79-10.83a7.79,7.79,0,0,1,0-11h0a7.8,7.8,0,0,1,11,0Z"/><rect class="cls-27" x="430.12" y="507.58" width="15.7" height="7.47" transform="translate(-233.21 458.57) rotate(-44.93)"/><polygon class="cls-28" points="348.9 433.34 360.01 422.26 338.7 411.88 348.9 433.34"/><polygon class="cls-29" points="338.37 411.66 341.57 418.39 345.05 414.91 338.37 411.66"/><rect class="cls-30" x="387.04" y="411.04" width="15.7" height="114.39" transform="translate(-215.43 416.37) rotate(-45)"/><rect class="cls-25" x="391.45" y="411.04" width="6.89" height="114.39" transform="translate(-215.43 416.37) rotate(-45)"/><polygon class="cls-25" points="321.67 411.53 330.17 417.57 345.15 404.12 330.27 423.08 321.67 411.53"/><path class="cls-24" d="M185.4,474a30.12,30.12,0,1,1-30.18-30A30.11,30.11,0,0,1,185.4,474Z"/><path class="cls-20" d="M155.28,505.82a31.71,31.71,0,1,1,.07,0Zm0-60.23a28.5,28.5,0,1,0,0,57v1.62l.06-1.62a28.5,28.5,0,0,0-.06-57Z"/><rect class="cls-20" x="151.18" y="431.62" width="7.82" height="4.94" rx="0.97" transform="matrix(1, 0, 0, 1, -0.89, 0.32)"/><rect class="cls-20" x="154" y="436.26" width="2.37" height="6.26" transform="translate(-0.72 0.26) rotate(-0.09)"/><path class="cls-20" d="M155.09,441.91a8.57,8.57,0,1,1,8.56-8.58,8.57,8.57,0,0,1-8.56,8.58Zm0-15.51a6.95,6.95,0,1,0,0,13.89v0a6.95,6.95,0,0,0,0-13.89Z"/><path class="cls-20" d="M160,474.13a4.77,4.77,0,1,1-4.78-4.76A4.76,4.76,0,0,1,160,474.13Z"/><polygon class="cls-20" points="170.23 460.1 159.07 473.07 156.97 470.97 170.23 460.1"/><path class="cls-20" d="M177.58,474.79a.81.81,0,0,1-.81-.8h0a.82.82,0,0,1,.81-.82H181a.8.8,0,0,1,.81.8h0a.82.82,0,0,1-.81.82Z"/><path class="cls-20" d="M129,474.79a.8.8,0,0,1-.81-.8h0a.82.82,0,0,1,.81-.82h3.45a.81.81,0,0,1,.82.8h0a.82.82,0,0,1-.81.82Z"/><path class="cls-20" d="M155.81,451.39a.81.81,0,0,1-.81.81h0a.81.81,0,0,1-.81-.81v-3.45a.82.82,0,0,1,.81-.82h0a.81.81,0,0,1,.81.81Z"/><path class="cls-20" d="M155.81,500a.82.82,0,0,1-.81.82h0a.81.81,0,0,1-.81-.81v-3.46a.81.81,0,0,1,.81-.81h0a.81.81,0,0,1,.81.81Z"/><path class="cls-24" d="M291.32,455.34l-45.07-22.9a26.27,26.27,0,0,0-3.76,5.53l-2.21,4.34-8.09,15.94a26.12,26.12,0,1,0,46.58,23.66l8.1-15.93,2.2-4.35A26.18,26.18,0,0,0,291.32,455.34Z"/><rect class="cls-24" x="227.36" y="487.79" width="33.75" height="8.69" transform="translate(-305.14 486.97) rotate(-63.07)"/><path class="cls-24" d="M194.84,533.63l45.07,22.9a26.46,26.46,0,0,0,3.76-5.52l2.2-4.35,8.1-15.93a26.12,26.12,0,1,0-46.58-23.67L199.29,523l-2.21,4.34A26.3,26.3,0,0,0,194.84,533.63Z"/><path class="cls-25" d="M242.71,504.66,249.63,491,242,487.15l-6.93,13.63a18.63,18.63,0,0,0-21,9.67l-5.77,11.36-1.58,3.1a18.92,18.92,0,0,0-1.6,4.48l32.13,16.32a18.42,18.42,0,0,0,2.68-3.93l1.58-3.1,5.77-11.36A18.64,18.64,0,0,0,242.71,504.66Z"/><path class="cls-13" d="M238.93,440.5l1.56.8-.45.89-8.1,15.93a26.15,26.15,0,0,0,8.13,33.12L238.68,494a26.13,26.13,0,0,0-31.54,13l-8.09,15.93-.46.89L197,523a5.75,5.75,0,1,0-5.21,10.25l24.67,12.54,52.32-103-24.67-12.53a5.75,5.75,0,1,0-5.21,10.25Z"/><path class="cls-4" d="M296.61,463.36a5.75,5.75,0,0,1-7.73,2.52l-49.7-25.25a5.74,5.74,0,0,1-2.53-7.73h0a5.76,5.76,0,0,1,7.73-2.53l49.71,25.26a5.75,5.75,0,0,1,2.52,7.73Z"/><path class="cls-4" d="M189.55,525.62a5.76,5.76,0,0,1,7.73-2.53L247,548.35a5.75,5.75,0,0,1,2.52,7.73h0a5.75,5.75,0,0,1-7.73,2.52l-49.7-25.25a5.75,5.75,0,0,1-2.52-7.73Z"/><path class="cls-25" d="M237.47,464.42A18.63,18.63,0,0,0,242.09,487l-6.93,13.63,7.63,3.88,6.93-13.64a18.61,18.61,0,0,0,21-9.57Z"/><rect class="cls-20" x="554.98" y="378.3" width="9.72" height="8.22"/><polygon class="cls-20" points="550.11 324.79 568.86 324.83 564.5 372.59 555.05 372.57 550.11 324.79"/><path class="cls-23" d="M290,238.14a21.17,21.17,0,0,0-28.2-25.63,32.19,32.19,0,0,0-61.37,7.25,32.19,32.19,0,1,0-16.12,60.05,31.61,31.61,0,0,0,3.79-.23h100a18.65,18.65,0,0,0,18.65-18.65V256.7A18.66,18.66,0,0,0,290,238.14Z"/><path class="cls-24" d="M341.2,216.93a29.05,29.05,0,0,0,.22-3.52A28.33,28.33,0,0,0,292.47,194a22.72,22.72,0,0,0-37.06,22.9h-1.8a17.56,17.56,0,0,0,0,35.12h86.33a17.56,17.56,0,0,0,1.26-35.07Z"/><path class="cls-3" d="M97,277.5a4.78,4.78,0,0,0-5-4.5,5,5,0,0,1-5-5,4.52,4.52,0,1,0-9,0,5,5,0,0,1-5,5,4.53,4.53,0,1,0,0,9,5,5,0,0,1,5,5,4.53,4.53,0,1,0,9,0,5,5,0,0,1,5-5A4.78,4.78,0,0,0,97,277.5Z"/><path class="cls-3" d="M82,513.83a3.9,3.9,0,0,0-4.08-3.67,4.1,4.1,0,0,1-4.08-4.08,3.7,3.7,0,1,0-7.35,0,4.09,4.09,0,0,1-4.08,4.08,3.7,3.7,0,1,0,0,7.35,4.08,4.08,0,0,1,4.08,4.08,3.7,3.7,0,1,0,7.35,0,4.09,4.09,0,0,1,4.08-4.08A3.91,3.91,0,0,0,82,513.83Z"/><path class="cls-24" d="M622.09,110.78a3.9,3.9,0,0,0-4.08-3.67,4.1,4.1,0,0,1-4.09-4.08,3.69,3.69,0,1,0-7.34,0,4.1,4.1,0,0,1-4.08,4.08,3.69,3.69,0,1,0,0,7.34,4.1,4.1,0,0,1,4.08,4.08,3.69,3.69,0,1,0,7.34,0,4.1,4.1,0,0,1,4.09-4.08A3.9,3.9,0,0,0,622.09,110.78Z"/><path class="cls-24" d="M297.54,126a3.9,3.9,0,0,0,2.65-4.81,4.09,4.09,0,0,1,3.05-4.9,3.69,3.69,0,1,0-1.67-7.15,4.09,4.09,0,0,1-4.9-3.05,3.69,3.69,0,1,0-7.15,1.67,4.1,4.1,0,0,1-3,4.9,3.69,3.69,0,1,0,1.67,7.15,4.09,4.09,0,0,1,4.9,3.05A3.9,3.9,0,0,0,297.54,126Z"/><path class="cls-24" d="M157.6,689.33a3.9,3.9,0,0,0-1.57-5.26,4.1,4.1,0,0,1-1.36-5.61,3.69,3.69,0,1,0-6.27-3.82,4.1,4.1,0,0,1-5.61,1.35,3.69,3.69,0,1,0-3.82,6.27,4.1,4.1,0,0,1,1.36,5.61,3.69,3.69,0,1,0,6.27,3.83,4.09,4.09,0,0,1,5.61-1.36A3.9,3.9,0,0,0,157.6,689.33Z"/><path class="cls-3" d="M740.33,281.5a3.9,3.9,0,0,0-4.08-3.67,4.1,4.1,0,0,1-4.08-4.08,3.69,3.69,0,1,0-7.34,0,4.1,4.1,0,0,1-4.08,4.08,3.69,3.69,0,1,0,0,7.34,4.1,4.1,0,0,1,4.08,4.08,3.69,3.69,0,1,0,7.34,0,4.1,4.1,0,0,1,4.08-4.08A3.9,3.9,0,0,0,740.33,281.5Z"/><path class="cls-3" d="M687,626.83a3.9,3.9,0,0,0-4.08-3.67,4.1,4.1,0,0,1-4.08-4.08,3.7,3.7,0,1,0-7.35,0,4.09,4.09,0,0,1-4.08,4.08,3.7,3.7,0,1,0,0,7.35,4.08,4.08,0,0,1,4.08,4.08,3.7,3.7,0,1,0,7.35,0,4.09,4.09,0,0,1,4.08-4.08A3.91,3.91,0,0,0,687,626.83Z"/><circle class="cls-24" cx="525" cy="94.5" r="9.5"/><circle class="cls-24" cx="721" cy="187.5" r="5.5"/><circle class="cls-24" cx="95.11" cy="180.1" r="5.5"/><circle class="cls-24" cx="43" cy="423.5" r="5.5"/><circle class="cls-24" cx="739" cy="573" r="12.37"/><circle class="cls-3" cx="183.6" cy="125.1" r="9.38" transform="translate(-34.69 166.47) rotate(-45)"/><circle class="cls-3" cx="648.58" cy="159.98" r="9.38" transform="translate(343.3 754.16) rotate(-76.66)"/><path class="cls-16" d="M363.75,166.26l-.15,38.25s2.11,12.39,46.4,12.39,46.26-12.55,46.26-12.55V164.14h-93"/><polygon class="cls-31" points="482.49 156.09 410.08 126.77 408.49 126.77 336.08 156.09 408.19 185.42 410.38 185.42 482.49 156.09"/><ellipse class="cls-16" cx="409.78" cy="154.62" rx="7.63" ry="3.33"/><polyline class="cls-32" points="410.53 153.56 442.73 169.74 442.58 241.09"/><path class="cls-10" d="M447.12,242.9a4.77,4.77,0,1,1-4.77-4.53A4.66,4.66,0,0,1,447.12,242.9Z"/><path class="cls-10" d="M446.29,251.82c-2.17-6.07-5.7-6.07-7.87,0s-.39,11,3.93,11S448.45,257.89,446.29,251.82Z"/><ellipse class="cls-31" cx="409.78" cy="154.62" rx="5.81" ry="2.53"/><path class="cls-33" d="M408.4,126.77,336,156.09l27.66,11.25-.15,37.17s2.1,12.25,45.69,12.39V126.77Z"/></g></svg>