<svg id="OBJECTS" xmlns="http://www.w3.org/2000/svg" viewBox="0 0 450 450"><defs><style>.cls-1{fill:#ff9fd1;}.cls-2{fill:#ff61ac;}.cls-3{fill:#e5489a;}.cls-4{fill:#521e3f;}.cls-5{fill:#d3d0ff;}.cls-6{fill:#b1b1f2;}.cls-7{fill:#ffa26e;}.cls-8{fill:#fff;}.cls-9{fill:#f4905d;}.cls-10{fill:#3c68cd;}.cls-11{fill:#2453b2;}.cls-12{fill:#e87f52;}.cls-13{fill:#db6b45;}.cls-14{fill:#93426e;}.cls-15{fill:#7c315d;}.cls-16{fill:#1b4c9b;}.cls-17{fill:#103e82;}.cls-18{fill:#00afcc;}.cls-19{fill:#0295a5;}.cls-20{fill:#7c2d0e;}.cls-21{fill:#ffd079;}.cls-22{fill:#eab763;}.cls-23{fill:#00adca;}.cls-24{fill:#0091a0;}.cls-25{fill:#ff6200;}.cls-26{fill:#00c3c0;}.cls-27{fill:#ba6397;}.cls-28{fill:#ff813b;}.cls-29{fill:#6b210a;}.cls-30{fill:#6d2351;}</style></defs><title>gaming</title><path class="cls-1" d="M420.71,239.73a35.39,35.39,0,0,0-13-21.25c-7.73-6.07-17.17-9-26.71-9.79-13.83-1.2-28.13,1.74-41.71-2.2-11.35-3.3-19.62-11.66-26.72-21.1-3.46-4.6-6.61-9.47-10.26-13.91A80.87,80.87,0,0,0,290.6,159.9c-8-6.44-17.66-11.14-27.87-11.58-10.75-.47-20.4,5-27.61,13-8.22,9.14-11.4,21.59-17.72,32a31.51,31.51,0,0,1-13.14,12.38c-5.25,2.57-11.17,3.53-16.9,4.08-10.23,1-20.4.47-30.38,3.43a49.8,49.8,0,0,0-22.33,13.65c-14,15-17,39.83-11.3,59.29,3.49,11.83,11.6,20.38,20,28.7A76.71,76.71,0,0,1,154.44,328c3.43,5.45,5.19,11.69,6.57,18,1.33,6.06,2.3,12.21,4.32,18.08a37.87,37.87,0,0,0,9.09,14.58c7.72,7.72,19.07,10,29.38,10.14,39.14.62,54.47,1.32,84.85,8,14.34,3.14,38.73,8.21,56.67-2.21C357.69,387.36,364.6,373.92,368,360c1-4.21,1.79-8.55,2.53-12.91,1.07-4.73,2.1-9.48,3.42-14.16a76.45,76.45,0,0,1,7.36-17.68c3.36-5.77,7.89-10.73,12.25-15.67,8.42-9.54,17.14-19,22.59-30.79C420.32,259.77,422.51,249.7,420.71,239.73Z" transform="translate(-25 -25)"/><path class="cls-2" d="M338.94,128.51c-1.8-11.1-5.63-20.57-14.41-28.32-1.6-1.42-5.22,1.5-3.66,3,9.67,9.28,12.51,19.15,12.76,33.95A186.92,186.92,0,0,1,332.9,156c-.45,5.4,5,5.12,5.57,1.76C339.54,151.11,340,135,338.94,128.51Z" transform="translate(-25 -25)"/><path class="cls-3" d="M328.28,108.53a25.27,25.27,0,0,0-2.68-3.66c-1.38-1.53-3.17-2.79-3-4.89-1.46.53-2.78,2.2-1.73,3.21,9.67,9.28,12.51,19.15,12.76,33.95A186.92,186.92,0,0,1,332.9,156a4.17,4.17,0,0,0,1,3.47c2.48-5.48,2.31-12.66,2.41-18.28A66,66,0,0,0,333,118.07,47.32,47.32,0,0,0,328.28,108.53Z" transform="translate(-25 -25)"/><path class="cls-4" d="M313.56,103.83c-11.43-13.9-31.75-21.57-58.47-11.5-12.11,4.56-20.76,11.69-26,21.3-7,12.9-7.25,36.15-3.28,51.55.43,2,.92,3.91,1.45,5.84,3.53,12.8,10.05,24.45,21,32.69a45.83,45.83,0,0,0,35.89,8.37c12.71-2.39,23.55-10.57,30.27-21.05C330.58,165.87,333.16,127.65,313.56,103.83Z" transform="translate(-25 -25)"/><path class="cls-5" d="M403.44,344.33A125.23,125.23,0,0,0,399.83,329c-1.86-6.27-6.2-10.92-8.52-17-1.36-3.58-.6-8.7-1.95-12.3s-5.16-5.23-6.59-8.83-.46-9.1-2-12.59a158.47,158.47,0,0,0-9.08-17.62c-5.69-9.42-13.39-19.18-23-25.08-.93-.57-1.83-1.08-2.71-1.55-6.16-4.08-14.49-6.76-23.12-10.44-7.37-3.13-36.48-9.63-63.11-9.57-24.63.06-47.1,6.54-49.27,7.13-16.4,4.45-21.37,4.9-36.35,18.14-5.88,5.21-11.74,10.45-17.83,15.39-3.07,2.49-8.39,2.45-11.62,4.73-4.2,3-6.37,8.2-11,10.66-13.24,7.09-28.08,7.61-36.6,20.8C93.43,296.52,90,308.63,90,315.4a18.37,18.37,0,0,0,6.94,14c8.13,6.87,20.47,7.54,30.6,7.06,14.71-.7,29.23-5.16,42.92-10.33,13.1-4.94,18.1-.35,17.53,9.79q-.76,13.38-1.33,26.76c-.41,9.69-.61,19.39-.89,29.08-.31,10.68,4.06,19.36,15.34,21.07,27,4.1,115.59,13.77,127.59,1.43,1.26-1.3,3.6-14.17,6-31.91,1.11-8.08,4.24-10.92,10.67-4.91a47.26,47.26,0,0,0,28.58,12.79,27.7,27.7,0,0,0,27.12-15.63C405.62,365.29,405.07,354.25,403.44,344.33Z" transform="translate(-25 -25)"/><path class="cls-6" d="M378.7,289.71c-1.83,3.75-3.34,7.46-5.7,11a82.83,82.83,0,0,1-9.1,11c-.07.07,0,.22.12.15a44.18,44.18,0,0,0,9.5-9.66c2.52-3.5,5.1-8,5.35-12.36a.09.09,0,0,0-.17,0Z" transform="translate(-25 -25)"/><path class="cls-7" d="M248.51,248.25c-1.89-3.81-4.23-6.71-8.46-7.41s-8.8.85-12.7,2.52c-7.28,3.13-14.71,7.75-20,14.09-4,4.81,31.6,10.51,37.52,10.53C256.1,268,251.74,254.78,248.51,248.25Z" transform="translate(-25 -25)"/><path class="cls-8" d="M250.24,258.73c-.72-2.23-1.28-5.27-4.33-5.63a10.82,10.82,0,0,0-3.88.41c-1.81.63-1.25,1.82-.78,2.88,1,2.15,2.22,4.05,5,4.43C248.17,261.08,250.82,260.53,250.24,258.73Z" transform="translate(-25 -25)"/><path class="cls-9" d="M235.54,262.16c-2.3-4-2.7-8.77-3-13.28,0-.15-.24-.2-.28,0a17.07,17.07,0,0,0-.4,3c-1.18,3.12-5.4,2.16-7.62,4.22a8,8,0,0,0-2.46,7.2c.06.38.14.77.22,1.15,6.68,1.5,14.07,2.69,18.8,3.23A15.41,15.41,0,0,1,235.54,262.16Z" transform="translate(-25 -25)"/><path class="cls-6" d="M283.05,217.41a143.54,143.54,0,0,0-21.84-.78c-14,.52-20.18,12.67-8.89,23,14.32,13.15,39.25,14.77,50.38-2,3.88-5.86,4.76-15-7.47-18.32A83.62,83.62,0,0,0,283.05,217.41Z" transform="translate(-25 -25)"/><path class="cls-6" d="M397.4,380.22a22.89,22.89,0,0,1-2.85,1c-8.55,2.45-17.95.39-26.16-2.34a116.79,116.79,0,0,1-20.7-9.45c-7-3.92-18-8.27-20.91,2.39-3,11.21,6.21,36-10.35,39.82-10.12,2.35-19.8-4-29.2-6.43s-19.49-3-29.21-3.14a222.55,222.55,0,0,0-22.95,1c-6.91.65-14.06,2.52-21,1.94-10.38-.86-16.55-9.14-18.65-18.71-1.37-6.22-1.11-12.75-.35-19a98.33,98.33,0,0,1,2.21-11.52c.9-3.66,4-6.43,5.68-9.72.84-1.62,1.49-4.26.55-6-1.27-2.32-3.76-3.77-5.22-6-3.46-5.34,1.78-11.8,2.16-17.34.71-10.23-10.43-12.72-18.3-12.2-9.72.65-18.9,4.17-28.27,6.5-10.59,2.64-21.29,5.43-32.11,6.86-9.57,1.26-25.93,2.37-30-8.95a19.53,19.53,0,0,1-.61-2.11A42,42,0,0,0,90,315.4a18.37,18.37,0,0,0,6.94,14c8.13,6.87,20.47,7.54,30.6,7.06,14.71-.7,29.23-5.16,42.92-10.33,13.1-4.94,18.1-.35,17.53,9.79q-.76,13.38-1.33,26.76c-.41,9.69-.61,19.39-.89,29.08-.31,10.68,4.06,19.36,15.34,21.07,27,4.1,115.59,13.77,127.59,1.43,1.26-1.3,3.6-14.17,6-31.91,1.11-8.08,4.24-10.92,10.67-4.91a47.26,47.26,0,0,0,28.58,12.79A27.62,27.62,0,0,0,397.4,380.22Z" transform="translate(-25 -25)"/><path class="cls-7" d="M401.4,353.48a45.6,45.6,0,0,0-13.22-16.55c-9.27-7.5-21.31-11.11-32.27-15.38-6.23-2.43-12.56-4.89-18.25-8.41-2.89-1.8-6.18-4.46-9.65-2.83-2.9,1.36-4.8,5-6.21,7.65a71.44,71.44,0,0,0-4.21,10c-3,8.65-4.79,12.93,1.75,18.21,4.24,3.43,11.64,9.12,14.68,12.45,5.44,6,10.08,12.61,15.67,18.44,8.12,8.47,19.35,14.52,31.18,15.28,11.53.74,23.2-6.33,25-18.34C407,367.12,404.16,359.65,401.4,353.48Z" transform="translate(-25 -25)"/><path class="cls-9" d="M403,381.73a29.13,29.13,0,0,1-12.88,4.2,41.63,41.63,0,0,1-21.36-3.44c-5.55-2.61-10.1-6.88-14-11.55a93,93,0,0,1-19.2-40.14c-1.37-6.62-2.43-14.76-6.06-20.94a5.32,5.32,0,0,0-1.53.45c-2.9,1.36-4.8,5-6.21,7.65a71.44,71.44,0,0,0-4.21,10c-3,8.65-4.79,12.93,1.75,18.21,4.24,3.43,11.64,9.12,14.68,12.45,5.44,6,10.08,12.61,15.67,18.44,8.12,8.47,19.35,14.52,31.18,15.28C389.64,392.9,398.47,388.93,403,381.73Z" transform="translate(-25 -25)"/><path class="cls-7" d="M197.73,268a337.85,337.85,0,0,1-48.66,8.27c-13.47,1.24-27.93,1.2-39.43,9.3-5.14,3.61-9.42,8.7-13.33,13.57S89,309.28,88,315.39c-.72,4.52.7,9.79,4.54,12.56,4.11,3,9.4,4.12,14.35,4.75a139.25,139.25,0,0,0,14,.95,51.4,51.4,0,0,0,18.91-3.36c6.92-2.46,54.13-21.49,58.78-26,3.59-3.48,5.73-8.32,6.85-13.12C208.35,278.58,204.88,266.15,197.73,268Z" transform="translate(-25 -25)"/><path class="cls-9" d="M198.57,304.29a20.42,20.42,0,0,0,3.08-3.85q-.47-.94-1-1.86c-5.49-10.07-24.87-16.14-43.7-2.58-4,2.89-7.37,6.62-11.2,9.74-5,4.07-10.95,7.11-16.81,9.74-9.11,4.08-22,8.19-31.3,2.62-4.78-2.87-6.13-7.57-5.86-12.6A28.21,28.21,0,0,0,88,315.39c-.72,4.52.7,9.79,4.54,12.56,4.11,3,9.4,4.12,14.35,4.75a139.25,139.25,0,0,0,14,.95,51.4,51.4,0,0,0,18.91-3.36C146.71,327.83,193.92,308.8,198.57,304.29Z" transform="translate(-25 -25)"/><path class="cls-7" d="M322.11,276.91c-.77-3.26-1.85-6.27-5-7.86-4.23-2.13-12.87-2.82-14.27,3-1.12,4.72,1.88,11.88,5.7,14.7,6.34,4.67,17.45,6.46,16-.9C324,282.85,322.79,279.86,322.11,276.91Z" transform="translate(-25 -25)"/><path class="cls-10" d="M325.59,288.14c-2.14-1.74-15.24-8.58-17.54-9-4.27-.82-6.22.59-10.47.56-1.56,0-23.58-7.5-28.81-10.24-1.92-1-3-3.32-3.67-3.9-3.92-3.51-14.29-5.72-19.51-6.15-1.56-.13-5.5,1.18-9.74,3.11-11.79,5.38-17.36,10.53-24,26.61-2.07,5-3.93,10.26-4.29,15.69-.33,5.11,2.26,8.18,8,7.74,5.12-.39,19.2-12.23,26.68-18.42,3-2.48,3.82-1.63,6-.59l1.45.7c1.57.75,1.65,1.57,1.06,3.7a14.74,14.74,0,0,0-.75,5.3c.23,2.52,3,3.85,5,4.75,3.62,1.64,7.38,2.93,11,4.66,3.28,1.57,5.34-.63,7.88-2.54l2.05-1.54a4.88,4.88,0,0,1,3.88-.6c1.6.69,3.14,1.35,4.6,2,3.24,1.35,3,5.4,1.54,10.67-6.3,22.57,7,15.17,16.38,9.28,7.13-4.47,15.54-10.62,21.94-18.79C326.5,308.11,328.27,290.31,325.59,288.14Z" transform="translate(-25 -25)"/><path class="cls-11" d="M266.83,272.38c-.33-.14-3.48,6-4.1,9.09-.21,1,23.4,10.11,23.6,9.78a74.35,74.35,0,0,0,4.32-9.44C290.73,281.65,275,275.82,266.83,272.38Z" transform="translate(-25 -25)"/><path class="cls-11" d="M323.67,311.67c2.24-6.35,2-13.13-3.37-17.82-4.55-4-11.34-4.77-17.12-4.37-7.08.5-12.87,3.89-18.37,8.15-3.12,2.43-6,5.07-9.45,7.08-4.39,2.58-8.49,2.66-13.14.86a20.79,20.79,0,0,1-5.66-3.19c-1.89-1.53-1.46-4.2-1.05-6.25.75-3.77,2.16-7.3,2.45-11.17.45-5.85-3.35-10.81-8.1-13.75-12.84-7.93-27-2.24-32.53,6.74a79,79,0,0,0-5.5,11.16c-2.07,5-3.93,10.26-4.29,15.69-.33,5.11,2.26,8.18,8,7.74,5.12-.39,19.2-12.23,26.68-18.42,3-2.48,3.82-1.63,6-.59l1.45.7c1.57.75,1.65,1.57,1.06,3.7a14.74,14.74,0,0,0-.75,5.3c.23,2.52,3,3.85,5,4.75,3.62,1.64,7.38,2.93,11,4.66,3.28,1.57,5.34-.63,7.88-2.54l2.05-1.54a4.88,4.88,0,0,1,3.88-.6c1.6.69,3.14,1.35,4.6,2,3.24,1.35,3,5.4,1.54,10.67-6.3,22.57,7,15.17,16.38,9.28C309.18,325.51,317.34,319.54,323.67,311.67Z" transform="translate(-25 -25)"/><path class="cls-12" d="M300.93,225.17a36.86,36.86,0,0,1-1-6.75c0-1.92.42-12.76.17-19.61-.1-2.46-.21-5.44-6.92-6.24-5.29-.62-29.54,0-32.37.14-3.68.2-5.16,1.7-5.21,5.15-.07,5.81.07,11.66-1.25,17.33-.95,4.09-2.8,8.21-2.34,12.48.5,4.58,4.6,7.33,8.4,9.28a41.1,41.1,0,0,0,18.26,4.11c5.55.05,11.44-.86,16.38-3.44S301.9,230.51,300.93,225.17Z" transform="translate(-25 -25)"/><path class="cls-13" d="M270.92,230.81c-5.48-8.59-1.28-20.13,3.39-28.06a34.07,34.07,0,0,1,9.54-10.45c-9.07,0-21.13.31-23.08.41-3.68.2-5.16,1.7-5.21,5.15-.07,5.81.07,11.66-1.25,17.33-.95,4.09-2.8,8.21-2.34,12.48.5,4.58,4.6,7.33,8.4,9.28a41.1,41.1,0,0,0,18.26,4.11c5.55.05,11.44-.86,16.38-3.44a16.84,16.84,0,0,0,1.61-1C287.13,239.56,276.51,239.57,270.92,230.81Z" transform="translate(-25 -25)"/><path class="cls-14" d="M312.67,166.55c.41-4.36,1.46-19.7,2.45-22.9,1.46-4.72,7.22-4.83,11.39-4.48a31.66,31.66,0,0,1,7.84,1.59c4.54,1.63,7,2.81,6.85,6.72-.59,13.31-2.45,23.54-4.54,29.66-1.72,5.08-3.78,6-6.85,6.35-2.21.24-8.17-.37-11.78-.94-2.55-.4-5.3-1.24-5.88-5.91C311.73,173.28,312.4,169.47,312.67,166.55Z" transform="translate(-25 -25)"/><path class="cls-15" d="M318,182.55c1.21.19,2.7.39,4.22.56,4.53.5,7.72-3.81,9.5-8.72,2.52-6.95,3-14.89,2.8-22.1a74,74,0,0,0-.94-11.76,32.92,32.92,0,0,0-7.1-1.36c-4.17-.35-9.93-.24-11.39,4.48-1,3.2-2,18.54-2.45,22.9-.27,2.92-.94,6.73-.52,10.09C312.73,181.31,315.48,182.15,318,182.55Z" transform="translate(-25 -25)"/><path class="cls-7" d="M304.47,98.75c-9.35-3.43-24.9-4.22-38.23-1.64C246.86,100.87,234,116.24,232,139.92a125.05,125.05,0,0,0,2.94,37.5c8.31,35.76,41.31,44,58.08,38.89,9.44-2.89,16.17-8.78,21.22-17.22,10.55-17.63,17.12-48.59,10.78-73.76C322.07,113.5,315.93,102.94,304.47,98.75Z" transform="translate(-25 -25)"/><path class="cls-9" d="M325.05,125.33c-3-11.83-9.12-22.39-20.58-26.58-9.35-3.43-24.9-4.22-38.23-1.64C246.86,100.87,234,116.24,232,139.92a125.05,125.05,0,0,0,2.94,37.5c6.16,26.52,25.91,37.92,42.54,39.94-.73-.18-1.46-.36-2.19-.57a46.14,46.14,0,0,1-18.13-10c-4.77-4.37-8.63-10.3-9-16.9-.31-6.14,3.56-11.38,8.5-14.55,8.79-5.65,20.63-6.07,30.74-5.9,6.23.1,12.46.61,18.68.95,5.86.32,12.58.2,18.45,1.74C328,157.16,328.8,140.23,325.05,125.33Z" transform="translate(-25 -25)"/><path class="cls-4" d="M314.69,94.52C301.41,82.67,284,80.13,267,83.64c-15.5,3.2-30.38,11.84-38.1,26.07a57.75,57.75,0,0,0-6.76,24.79c-.22,5.48.84,13.69,4.93,18.22,1.69,1.88,2.2.62,2-1.18-1.28-10,.6-20.49,6.88-28.62,7.16-9.26,19.87-9.15,30.5-8.26,11.07.93,21.89,3.25,33.07,2.47,4.88-.34,11.74-1.07,15.77-4.59a34.58,34.58,0,0,1,8.18,11c2.09,4.41,2.74,9.15,3.18,13.92.24,2.68,1.13,3.07,1.78.31A44.91,44.91,0,0,0,314.69,94.52Z" transform="translate(-25 -25)"/><path class="cls-16" d="M282.9,89.58a6.72,6.72,0,0,0-4.66-2.75,82.88,82.88,0,0,0-11.94.35,12.36,12.36,0,0,0-3,.81c-1,.44-.56.77,0,1.16,7.06,4.67,7.47,17.87,7.54,25.78,0,1.12.9,1.43,2.27,1.39l14-.4c1.82,0,2-.33,2.08-1.59C289.64,105.47,288,96.38,282.9,89.58Z" transform="translate(-25 -25)"/><path class="cls-17" d="M274.67,107.07a16.43,16.43,0,0,1,.57-11.29c1.62-3.56,4.91-4.87,8.53-5-.28-.41-.57-.82-.87-1.22a6.72,6.72,0,0,0-4.66-2.75,82.88,82.88,0,0,0-11.94.35,12.36,12.36,0,0,0-3,.81c-1,.44-.56.77,0,1.16,7.06,4.67,7.47,17.87,7.54,25.78,0,1.12.9,1.43,2.27,1.39l7.6-.21A19.61,19.61,0,0,1,274.67,107.07Z" transform="translate(-25 -25)"/><path class="cls-14" d="M241.56,168.54c-.4-4.36-1.45-19.7-2.44-22.9-1.46-4.72-7.23-4.83-11.4-4.48a31.59,31.59,0,0,0-7.83,1.59c-4.54,1.63-7,2.8-6.86,6.72.59,13.31,2.46,23.54,4.54,29.66,1.73,5.08,3.78,6,6.86,6.35,2.21.25,8.17-.37,11.78-.94,2.55-.4,5.3-1.24,5.88-5.91C242.5,175.27,241.84,171.46,241.56,168.54Z" transform="translate(-25 -25)"/><path class="cls-15" d="M239.12,145.64c-1.29-4.15-5.89-4.74-9.81-4.58,4.43,5.21,5.12,13.56,5.46,20.06,1,19.38-2.81,22.43-9.78,24.4a75.86,75.86,0,0,0,11.22-1c2.55-.4,5.3-1.24,5.88-5.91.41-3.36-.25-7.17-.53-10.09C241.16,164.18,240.11,148.84,239.12,145.64Z" transform="translate(-25 -25)"/><path class="cls-5" d="M222.37,149.87c-2.62-4.91-9.66-6.28-9.26,1.19.66,12.53,2.46,22.19,4.46,28.07,2.61,7.67,7.1,1.74,8-1.79C227.19,170.44,225.38,155.52,222.37,149.87Z" transform="translate(-25 -25)"/><path class="cls-6" d="M222.37,149.87c-2.11-4-7.08-5.6-8.73-2.2,2.77-2,6.24.31,7.72,4.23,1.29,3.41,1.81,7.29,2.48,10.86.9,4.8,1.3,9.84-.35,14.52a8.79,8.79,0,0,1-2,3.27c-1.5,1.56-3-.66-3.72-1.67-.23-.34-.43-.71-.64-1.07q.21.69.42,1.32c2.61,7.67,7.1,1.74,8-1.79C227.19,170.44,225.38,155.52,222.37,149.87Z" transform="translate(-25 -25)"/><path class="cls-10" d="M318.25,108a166.75,166.75,0,0,0-18.42-1.23c-15.9-.29-47.82,1.24-60.4,5.8-3.24,1.17-9.52,4.54-11.3,11.13-2.11,7.8-1.55,21.15,0,30.08,2.08,12.1,9.74,14.66,15.74,15.73,18,3.19,59.75,3.14,84.82-.13,7.24-.94,13.57-7,14.32-14a153.15,153.15,0,0,0,.43-28.89C342.7,112.31,333.67,110,318.25,108Z" transform="translate(-25 -25)"/><path class="cls-16" d="M338.39,121.64a13.19,13.19,0,0,0-8-8.52c-11.8-5-50.43-3.49-71.06-1.27-8.55.92-14.24,2.76-17.44,6.28-4.51,5-3.61,29.49-1.49,35.43,3,8.44,11,8.7,17.21,9.07,15.66.94,60,1.18,72.22-2.79,7-2.27,9.44-5.07,10-17.46C340.07,135.34,339.67,125.69,338.39,121.64Z" transform="translate(-25 -25)"/><path class="cls-18" d="M326.08,98.37C321.4,92.28,315,88.19,308.19,84.68a58.72,58.72,0,0,0-24.74-6.86c-16.3-.77-34.16,3-47.21,13.17-3.12,2.42-8.48,6.75-9.1,11.27-.29,2.11,2.35,5.49,4.38,5.67,1.06.09,6.2-.82,7.63-1.64a38.78,38.78,0,0,0,4.24-3,70.89,70.89,0,0,1,25-12.7c10.42-2.77,20.18-1.5,29.92,2.93a94.4,94.4,0,0,1,10.89,6.1,41.6,41.6,0,0,0,7.86,4.38,12.61,12.61,0,0,0,4.39.37,7.64,7.64,0,0,0,4.22-1.62A3.86,3.86,0,0,0,326.08,98.37Z" transform="translate(-25 -25)"/><path class="cls-19" d="M303.63,93.42c-9.1-5.2-18.8-7.84-29.32-6.38a65.75,65.75,0,0,0-26.65,10.38c-3.68,2.42-8.1,5.89-12.77,5.14-1.93-.31-3.5-1.76-5.54-1.78a6.38,6.38,0,0,0-1.93.27,7.55,7.55,0,0,0-.28,1.21c-.29,2.11,2.35,5.49,4.38,5.67,1.06.09,6.2-.82,7.63-1.64a38.78,38.78,0,0,0,4.24-3,70.89,70.89,0,0,1,25-12.7c10.42-2.77,20.18-1.5,29.92,2.93a94.4,94.4,0,0,1,10.89,6.1,41.6,41.6,0,0,0,7.86,4.38,12.61,12.61,0,0,0,4.39.37,8.72,8.72,0,0,0,3.73-1.22C317.69,105.24,310.06,97.09,303.63,93.42Z" transform="translate(-25 -25)"/><path class="cls-2" d="M227.05,103.19c-4.09,4-10.51,13.89-14,25.11a64.56,64.56,0,0,0-2.15,27.45,16.5,16.5,0,0,0,1.75,5.95c.75,1.29,2.81,1.4,4.71,1.09s3.66-1,3.84-3.27a45.6,45.6,0,0,0-.4-7.16c-.42-4.62-2.71-8.39-2.68-13.16.12-16.5,7.52-25.51,13.65-32.46C232.84,105.5,229.24,101,227.05,103.19Z" transform="translate(-25 -25)"/><path class="cls-7" d="M261,274.82a57.18,57.18,0,0,0-13.1-10.09,67.3,67.3,0,0,0-15.9-6.86c-7.38-2-17.63-4.47-26.33-.11-7.27,3.63-13.06,10.73-17.32,17.48s-7.4,14.43-7.12,22.39a18.2,18.2,0,0,0,1.52,6.75h0a.93.93,0,0,1,.05.1,18.65,18.65,0,0,0,1.71,3l.06.1.37.51a27.26,27.26,0,0,0,7.28,7.13c4.47,2.92,20.9,3,29,3.18a9.59,9.59,0,0,0,7.71-4.36,10.63,10.63,0,0,0,5.42-1.54,9,9,0,0,0,4.21-6.73c.26,0,.52-.05.78-.1,3.62-.64,5.37-4.09,6.32-7.37.53-1.82.83-4.85-.42-5.82-.41-.33-5.69.28-9.19-2.08a35.42,35.42,0,0,1-5.72-5.43c-1.48-1.6-3.84-4.18-4.87-6.74-1.14-2.81-.22-4,2.28-3.22a60.73,60.73,0,0,1,17.34,8.3c4.34,3,8.87,6.31,14.36,6.42,3.11.07,6.41-1.78,6.64-5.16C266.31,280.58,263.53,277.57,261,274.82Z" transform="translate(-25 -25)"/><path class="cls-7" d="M337.89,302.89c-.3-2.79-2.29-5.33-3.85-7.55-1.88-2.67-3.47-5.45-5.79-7.79-4.31-4.37-11-4.37-16.73-4.57a94.33,94.33,0,0,0-17.46.58c-4.56.69-7.89,2.51-8.09,7.48-.14,3.5,3.08,5.23,6,6,7,1.87,14.92.31,21.74,2.24,3,.85,3.19,1.93,2.52,4.38a16.08,16.08,0,0,1-.61,1.77c-1.1,2.62-3.59,3.49-5.44,4.28-2.18.93-4.75,2-6.48,2.53-2.58.82-5.13,1.14-7.59-.16-1.77-.94-3.27-2.47-5.18-3.14a18.39,18.39,0,0,0-12.79,0c-1.68.62-3.17,1.76-3,3.49-1.34,1.06-1.55,2.69-.92,4.91,1.41,5,3.5,11,6.8,15.07l.36.39c.45,2.2,2.2,4.2,4.38,5.87,2.79,2.15,5.91,3.95,8.86,5.85s6.38,4.3,9.93,4.92c4.24.75,10,.58,13.93-1.24,2.12-1,4-4.21,4.75-6.24a14,14,0,0,0,.53-1.62,20.53,20.53,0,0,0,4.61-3.44c2.07-2.1,2.59-5,2.41-7.89a26.41,26.41,0,0,0,5.47-6.73c1.9-3.51,1.28-8.17-.48-11.84A12,12,0,0,0,337.89,302.89Z" transform="translate(-25 -25)"/><path class="cls-20" d="M297.69,182.84c-6.36,2-14.21,2.78-24.54.87-5.91-1.09-8.93,2.87-7.64,7.89a16.22,16.22,0,0,0,7.32,10c11.83,7.44,24.26,2,28.4-3a18.75,18.75,0,0,0,4.11-8.74C306.2,184.35,302.13,181.42,297.69,182.84Z" transform="translate(-25 -25)"/><path class="cls-2" d="M275.26,200.72a20.63,20.63,0,0,0,9.92,2.54,21.69,21.69,0,0,0,12.12-3.78c2.47-1.76,1.87-3.44-1.05-4.42a28.12,28.12,0,0,0-20.38,1C271.74,198,272.52,199.25,275.26,200.72Z" transform="translate(-25 -25)"/><path class="cls-20" d="M285.71,175.41a3.23,3.23,0,0,0,1-.89c.71-1.1-1.92-1.18-2.4-.34A1,1,0,0,0,285.71,175.41Z" transform="translate(-25 -25)"/><path class="cls-20" d="M289.62,175a2.73,2.73,0,0,1-.8-.69c-.59-.85,1.59-.9,2-.26A.79.79,0,0,1,289.62,175Z" transform="translate(-25 -25)"/><path class="cls-8" d="M263.05,281.09a7.92,7.92,0,0,0-3.87-2.4c-2.71-.58-5.7,1.18-4.57,5,.69,2.4,2.92,4.86,5.6,4.65a5,5,0,0,0,3.47-2.33C264.9,284.44,264.27,282.46,263.05,281.09Z" transform="translate(-25 -25)"/><path class="cls-8" d="M288.74,288.19a4.54,4.54,0,0,0,.65,6.12c2.13,1.6,6.68.59,8.25-1.28a3.77,3.77,0,0,0,.73-3.69c-.5-1.43-.43-1.88-3.25-2.49C293.05,286.39,290,286.31,288.74,288.19Z" transform="translate(-25 -25)"/><path class="cls-9" d="M309.57,325.71c-4.41,0-8.83,0-13.25.06-1.22,0-2.76.28-3.9-.26-1.52-.71-12.62-9-13.51-9.79-2.71-2.5-3.87-4.43.91-7.34a17.37,17.37,0,0,0-1.69.53c-1.68.62-3.17,1.76-3,3.49-1.34,1.06-1.55,2.69-.92,4.91,1.41,5,3.5,11,6.8,15.07l.36.39c.45,2.2,2.2,4.2,4.38,5.87,2.79,2.15,5.91,3.95,8.86,5.85,2.62,1.68,5.55,3.73,8.64,4.62-4.69-2.68-14-9.54-15.4-11.13-2.71-3.11,2.19-3.1,6.46-2.54,3.72.48,7.47.73,11.2,1.09.56.05,1.77-.07.08-.49-5.44-1.36-11-2-16.5-2.82a13.76,13.76,0,0,1-6.53-3,29,29,0,0,1-5.53-8.77c-1.53-3.79-.68-3.54,2.09-1.88s10.62,6.2,11.55,6.68a9.51,9.51,0,0,0,4.58,1.09,121.28,121.28,0,0,0,14.38-1.1C311.26,326.05,311.22,325.7,309.57,325.71Z" transform="translate(-25 -25)"/><path class="cls-9" d="M245.2,292.51c-.41-.33-5.69.28-9.19-2.08a35.42,35.42,0,0,1-5.72-5.43,27,27,0,0,1-4.64-6.24,17.26,17.26,0,0,0,1.91,4.18,40,40,0,0,0,6,7.92c2.46,2.49,5.5,3.22,8.4,4.89s-.67,5.56-2,6.87c-2.15,2.12-10.31.47-15.74-2.26a169.93,169.93,0,0,1-15.21-9.2.2.2,0,0,0-.24.31,71.61,71.61,0,0,0,19,12.43,39.83,39.83,0,0,0,5.39,2c.29.19.57.37.85.59,2.28,1.78-.21,4.37-1.8,5.25-3,1.66-8.36.38-12.28-.87a83.43,83.43,0,0,1-12.24-5.2.25.25,0,0,0-.25.44,48.84,48.84,0,0,0,13.48,7c2.7.88,4.39,2.91.86,3.94a14.36,14.36,0,0,1-2.15.53,45.69,45.69,0,0,1-27.46-7.55c-7.09-4.81-9.49-12.38-10.16-20.27a30.69,30.69,0,0,0-.78,7.82,18.2,18.2,0,0,0,1.52,6.75h0a.93.93,0,0,1,.05.1,18.65,18.65,0,0,0,1.71,3l.06.1.37.51a27.26,27.26,0,0,0,7.28,7.13c3.22,2.1,12.64,2.74,20.69,3h.19l2,.05h.25l2,0h.18l1.94,0,1.78,0a8.15,8.15,0,0,0,1.22-.09l.16,0a9.09,9.09,0,0,0,1-.25l.3-.1q.42-.15.81-.33l.46-.23.35-.19a10,10,0,0,0,3.38-3.15,10.63,10.63,0,0,0,5.42-1.54,9,9,0,0,0,4.21-6.73c.26,0,.52-.05.78-.1,3.62-.64,5.37-4.09,6.32-7.37C246.15,296.51,246.45,293.48,245.2,292.51Z" transform="translate(-25 -25)"/><path class="cls-6" d="M353.36,247a77.43,77.43,0,0,1-15.62,37.85.18.18,0,0,0,.25.25c5.35-4.36,8.61-10.38,11.25-16.65A50.35,50.35,0,0,0,353.5,247a.07.07,0,0,0-.14,0Z" transform="translate(-25 -25)"/><path class="cls-6" d="M187.39,236.37c-2,8-1.06,16.74.35,24.75,0,.15.24.1.25,0,.61-8.17-.41-16.48-.42-24.68a.09.09,0,0,0-.18,0Z" transform="translate(-25 -25)"/><path class="cls-6" d="M233,333.29c10.56,10.07,27.34,21.14,42.29,14.15a.18.18,0,0,0-.13-.32c-15.82,4.63-29.74-5.35-42.07-13.95-.07-.05-.15.06-.09.12Z" transform="translate(-25 -25)"/><path class="cls-6" d="M273.66,350.4a7,7,0,0,0,7.36-1.86.17.17,0,0,0-.2-.26,17,17,0,0,1-7.14,2,.08.08,0,0,0,0,.16Z" transform="translate(-25 -25)"/><path class="cls-17" d="M330.35,113.12c-11.8-5-50.43-3.49-71.06-1.27-8.55.92-14.24,2.76-17.44,6.28a8.78,8.78,0,0,0-1.61,3.25,33.7,33.7,0,0,1,9.2-4c7-1.91,14.55-2.41,21.8-2.86a407.25,407.25,0,0,1,43.5-.38c7.41.34,17.38.64,20.06,9,1.58,4.91,1.52,10.5,1.41,15.61A59.17,59.17,0,0,1,333.67,156a16.93,16.93,0,0,1-1.24,2.85c5-2.23,6.87-5.79,7.34-16.46.3-7-.1-16.69-1.38-20.74A13.19,13.19,0,0,0,330.35,113.12Z" transform="translate(-25 -25)"/><path class="cls-16" d="M243.86,169.52c18,3.19,59.75,3.14,84.82-.13a17.31,17.31,0,0,0,11.47-6.9c-4,3.33-9.91,4.23-12.09,4.66-5.23,1-10.79,1.16-15.78,1.52a399.89,399.89,0,0,1-51.46.59c-7.43-.42-15.9-.89-22.56-4.51-6.1-3.32-7.94-10.21-8.93-16.58a86.86,86.86,0,0,1-.59-19.07A32.62,32.62,0,0,1,231,118.3a14.07,14.07,0,0,0-2.89,5.41c-2.11,7.8-1.55,21.15,0,30.08C230.2,165.89,237.86,168.45,243.86,169.52Z" transform="translate(-25 -25)"/><path class="cls-3" d="M230,103.15c.38,5.07-4.23,10-6.93,13.95a40.65,40.65,0,0,0-6.51,16c-1,5.32-.37,10.3.86,15.5a21.9,21.9,0,0,1,.82,8.32,6.24,6.24,0,0,1-5.07,5.35c1,.75,2.63.8,4.21.54,1.91-.31,3.66-1,3.84-3.27a45.6,45.6,0,0,0-.4-7.16c-.42-4.62-2.71-8.39-2.68-13.16.12-16.5,7.52-25.51,13.65-32.46C232.4,106,231.36,104.09,230,103.15Z" transform="translate(-25 -25)"/><path class="cls-21" d="M419.22,152.36c2,2.55.69,2.4-1.5,2.5-20.73.92-41.52.85-62.27,1-.22,0-6,.61-.33-1.63a443.21,443.21,0,0,1,47-16.23c3.33-.91,3.05-.75,5,1a65,65,0,0,1,5.31,5.45C414.74,147,417.1,149.6,419.22,152.36Zm-223.59,17.5c-16.32-3.59-32.8-6.46-49.2-9.67-4.85-.95-2.78,1.55-2,3.41,1.68,4.05,3.4,8.09,5.36,12,1.46,2.92,1.69,2.66,4.92,2.29,13.76-1.58,27.48-3.68,41.12-6.07C201.1,170.9,197.81,170.34,195.63,169.86Zm183.69-44.64c-2.94-1-6.05-1.68-9.07-2.43a3.9,3.9,0,0,0-4.34,1.33c-4.52,5.84-8.74,12-12.93,18.09-2.56,3.72-1.09,2.62,1.15,1.27,8.51-5.14,17.41-9.68,25.66-15.22C382.29,126.58,381.83,126.08,379.32,125.22Zm-194.6,11.45c-2.24.88-4.47,1.78-6.71,2.64-3.42,1.31-2.74,1.72-.36,3,6.14,3.3,12.44,6.32,18.7,9.39,2.92,1.43,3,1.15,1.31-1.44C194.94,146,192,142,189,138,187.45,136,186.85,135.83,184.72,136.67Zm182,41.81c-4-3.27-8.08-6.43-12.32-9.37-1.51-1.05-2.21-.82-1.4,1,2.86,6.42,5.68,12.9,8.77,19.21,1.63,3.33,1.9,3,3.24-.11.87-2.05,1.78-4.1,2.67-6.14C369.19,179.57,368.71,180.11,366.71,178.48Zm-166.11.31c-5.63,4.3-11.06,8.85-16.39,13.51-2.3,2-1.85,2.59.55,2.41,1.76-.13,3.55-.24,5.28-.53,2.47-.41,3.39-.94,5.46-3.93,2.4-3.46,4.75-6.94,6.87-10.58C204.85,175.42,201.73,177.92,200.6,178.79Z" transform="translate(-25 -25)"/><path class="cls-22" d="M366.44,185.84a7,7,0,0,1-.69.2c-2.81.6-4.6-3.13-5.88-5-2-3-4-6.1-5.86-9.19-.34-.55-.67-1.12-1-1.69,2.86,6.4,5.66,12.86,8.75,19.15,1.63,3.33,1.9,3,3.24-.11Z" transform="translate(-25 -25)"/><path class="cls-22" d="M412.43,144.44c-.59-.66-1.2-1.33-1.81-2,.55,1.33,1.09,2.65,1.71,4,.9,1.91,2.59,5.62-.51,6.21a91.51,91.51,0,0,1-10.84,1c-12.73.82-25.48,1.31-38.22,1.86-3.26.14-6.52.26-9.77.47a12,12,0,0,0,2.46,0c20.75-.19,41.54-.12,62.27-1,2.19-.1,3.46,0,1.5-2.5C417.1,149.6,414.74,147,412.43,144.44Z" transform="translate(-25 -25)"/><path class="cls-22" d="M371.93,130.48q-3.44,2.63-6.88,5.21c-2.56,1.91-5.09,3.9-7.64,5.85,7.49-4.38,15.19-8.45,22.38-13.28,2.5-1.68,2-2.18-.47-3-1.95-.67-4-1.19-6-1.68a4.45,4.45,0,0,1,1.63,2.92C375.09,128.26,373.2,129.51,371.93,130.48Z" transform="translate(-25 -25)"/><path class="cls-22" d="M200.6,178.79l-.33.25c-1.25,3.52-6.53,9.56-7.34,10.42a30.25,30.25,0,0,1-6.34,5.11c1.16-.09,2.32-.2,3.45-.39,2.47-.41,3.39-.94,5.46-3.93,2.4-3.46,4.75-6.94,6.87-10.58C204.85,175.42,201.73,177.92,200.6,178.79Z" transform="translate(-25 -25)"/><path class="cls-22" d="M191.62,148.37a101.12,101.12,0,0,1-8.56-5.79,5.83,5.83,0,0,1-2.49-3.6,3,3,0,0,1,0-.67l-2.56,1c-3.42,1.31-2.74,1.72-.36,3,6.14,3.3,12.44,6.32,18.7,9.39a8.72,8.72,0,0,0,2.1.85Q195,150.5,191.62,148.37Z" transform="translate(-25 -25)"/><path class="cls-22" d="M197.75,171.41c-9.34,1-18.72,1.52-28.13,2.1a86.7,86.7,0,0,1-8.68.16c-3-.11-6.27-.32-9-1.61s-4.52-3.68-6.42-5.92c1.35,3.2,2.75,6.38,4.3,9.47,1.46,2.92,1.69,2.66,4.92,2.29,13.76-1.58,27.48-3.68,41.12-6.07A18.48,18.48,0,0,0,197.75,171.41Z" transform="translate(-25 -25)"/><path class="cls-5" d="M27.29,195.27c-1.08,2.11,1.71,8.74,3.38,8.42,4-.74,20.81-7.2,24-9.74,1.65-1.31-2.21-7.77-3.76-8.24C46.84,184.48,28.87,192.17,27.29,195.27Z" transform="translate(-25 -25)"/><path class="cls-6" d="M27.54,199.24c.73,2.33,2.13,4.64,3.13,4.45,4-.74,20.81-7.2,24-9.74.82-.65.27-2.59-.68-4.43a20.79,20.79,0,0,0-5.32.28C42,190.89,31.82,193.08,27.54,199.24Z" transform="translate(-25 -25)"/><path class="cls-5" d="M109.15,159.7c2.28.66,5.22,7.22,3.85,8.23-3.26,2.4-19.47,10.3-23.51,10.9-2.09.32-4.18-6.91-3.47-8.37C87.92,166.63,105.81,158.75,109.15,159.7Z" transform="translate(-25 -25)"/><path class="cls-6" d="M111.88,162.6c1.21,2.13,1.94,4.72,1.12,5.33-3.26,2.4-19.47,10.3-23.51,10.9-1,.16-2.09-1.57-2.78-3.51a20.93,20.93,0,0,1,3.83-3.71C95.93,167.45,104.46,161.52,111.88,162.6Z" transform="translate(-25 -25)"/><path class="cls-23" d="M122.93,169.51c-5.21-4.36-9.56-6.63-17.25-4.72-3.66.91-11,5.26-17.81,10.91a11.55,11.55,0,0,0-4.32,6.79c-4.85,4.08-16.14,8.91-22.13,9.62a11.56,11.56,0,0,0-7.92-1.47c-8.75,1.09-17,3.51-20.13,5.57-6.64,4.31-8,9-8.32,15.82-.63,11.83,4.39,26.21,12.43,43.75a51.1,51.1,0,0,0,6.68,11.32c10.93,13.29,24.35,9,26.94-9.38.81-5.71,1.31-12.65,1.59-19.22,4.72-9,26.6-19.16,37-16.13,5,4.28,10.43,8.67,15.16,12,15.19,10.62,27.5,3.77,25.25-13.29a51.18,51.18,0,0,0-3.72-12.61C139.09,190.61,132,177.13,122.93,169.51Z" transform="translate(-25 -25)"/><path class="cls-24" d="M126.22,172.62q.54.66,1,1.32c5,6.27,8.07,13.75,10.89,21.17,3.54,9.31,7.09,19.58,7.09,29.64,0,3.87-.84,8.61-5.4,9.17-7.86,1-15.84-6.31-21.49-10.83-4.66-3.75-9-8-15.4-7-6.68,1.06-13.27,4-19.19,7.14-4,2.14-9.56,5.08-12.59,8.52s-3.08,7.63-3.75,12.28c-.93,6.46-.72,28.3-12,25.31-4.08-1.09-7.35-4.91-9.9-8a78.12,78.12,0,0,1-8.93-14.45C31.12,236,27.89,224,25.05,212.12c-.6,11.81,4.41,26.16,12.43,43.66a51.1,51.1,0,0,0,6.68,11.32c10.93,13.29,24.35,9,26.94-9.38.81-5.71,1.31-12.65,1.59-19.22,4.72-9,26.6-19.16,37-16.13,5,4.28,10.43,8.67,15.16,12,15.19,10.62,27.5,3.77,25.25-13.29a51.18,51.18,0,0,0-3.72-12.61C140,192.82,133.77,180.54,126.22,172.62Z" transform="translate(-25 -25)"/><path class="cls-24" d="M68.86,214.73c-.76-3.32-1.64-7-4.19-9.53a18.64,18.64,0,0,0-7.73-5.68,18.83,18.83,0,0,0-14.37.25c-9.2,4-14.07,15.42-9.74,24.71a24.37,24.37,0,0,0,2.7,4.51c2.67,3.32,4.28,3.79,7.93,5.79a18.72,18.72,0,0,0,25.4-20.05Z" transform="translate(-25 -25)"/><path class="cls-24" d="M95,203.38c-1.91-2.83-4-6-4.11-9.57A18.81,18.81,0,0,1,102,173.94c9.2-4,20.88.25,24.71,9.75a25,25,0,0,1,1.45,5.05c.6,4.22-.15,5.72-1.18,9.75a18.73,18.73,0,0,1-32,4.89Z" transform="translate(-25 -25)"/><path class="cls-23" d="M107.64,187a5.37,5.37,0,1,0-7.06-2.79,5.42,5.42,0,0,0,7.06,2.79Z" transform="translate(-25 -25)"/><path class="cls-21" d="M115.69,205.55a5.37,5.37,0,1,0-7.07-2.79,5.42,5.42,0,0,0,7.07,2.79Z" transform="translate(-25 -25)"/><path class="cls-2" d="M105.19,193.25a5.37,5.37,0,1,0-2.79,7.06,5.44,5.44,0,0,0,2.79-7.06Z" transform="translate(-25 -25)"/><path class="cls-7" d="M123.71,185.2a5.37,5.37,0,1,0-2.79,7.07,5.42,5.42,0,0,0,2.79-7.07Z" transform="translate(-25 -25)"/><path class="cls-21" d="M41,208.38l1,2.38c.73,1.69,4.36,4.45,6.86,3.41s2.93-5.66,2.19-7.34l-1-2.39C49,202.05,39.94,206,41,208.38Z" transform="translate(-25 -25)"/><path class="cls-21" d="M59.37,225.92l-1-2.39c-.73-1.68-4.37-4.44-6.86-3.4s-2.93,5.66-2.2,7.34l1,2.39C51.35,232.25,60.41,228.32,59.37,225.92Z" transform="translate(-25 -25)"/><path class="cls-21" d="M41.4,226.34l2.39-1c1.68-.73,4.44-4.37,3.41-6.87s-5.66-2.92-7.35-2.19l-2.39,1C35.07,218.33,39,227.38,41.4,226.34Z" transform="translate(-25 -25)"/><path class="cls-21" d="M59,208l-2.39,1c-1.68.73-4.45,4.37-3.41,6.87s5.66,2.92,7.34,2.19l2.39-1C65.27,216,61.34,206.92,59,208Z" transform="translate(-25 -25)"/><path class="cls-23" d="M82.67,240.05a10.6,10.6,0,1,0-14-5.5,10.69,10.69,0,0,0,14,5.5Z" transform="translate(-25 -25)"/><path class="cls-23" d="M104.09,230.75a10.61,10.61,0,1,0-14-5.5,10.71,10.71,0,0,0,14,5.5Z" transform="translate(-25 -25)"/><path class="cls-5" d="M81.34,237a7.26,7.26,0,1,0-9.54-3.77A7.33,7.33,0,0,0,81.34,237Z" transform="translate(-25 -25)"/><path class="cls-6" d="M77.58,235.18c-4.46-.45-6.25-6.14-4.39-9.83a7.25,7.25,0,1,0,11.91,2.09,7.12,7.12,0,0,0-1.62-2.32A6.4,6.4,0,0,1,77.58,235.18Z" transform="translate(-25 -25)"/><path class="cls-5" d="M102.75,227.67a7.25,7.25,0,1,0-9.54-3.76,7.32,7.32,0,0,0,9.54,3.76Z" transform="translate(-25 -25)"/><path class="cls-6" d="M99,225.88c-4.47-.45-6.25-6.14-4.39-9.84a7.24,7.24,0,1,0,11.9,2.09,7.19,7.19,0,0,0-1.62-2.31A6.4,6.4,0,0,1,99,225.88Z" transform="translate(-25 -25)"/><path class="cls-5" d="M79.59,215.31l1.77-.77a1.58,1.58,0,0,0-1.26-2.89l-1.77.77a1.58,1.58,0,0,0,1.26,2.89Z" transform="translate(-25 -25)"/><path class="cls-5" d="M86.34,212.38l1.76-.77a1.58,1.58,0,0,0-1.25-2.89l-1.77.77a1.58,1.58,0,0,0,1.26,2.89Z" transform="translate(-25 -25)"/><path class="cls-5" d="M89.72,200.45c.73-2-3.47-12-6.19-17.94-4.85,4.07-16.1,8.88-22.09,9.6,2.46,6,6.91,15.92,8.89,16.77C72.88,210,88.79,203.07,89.72,200.45Z" transform="translate(-25 -25)"/><path class="cls-7" d="M89.09,200.23c.57-1.6-3.1-10.8-6.1-17.3-4.91,3.83-15,8.14-20.87,9.08,2.7,6.62,6.92,15.57,8.48,16.25.79.34,4.49-.53,9.76-2.82S88.79,201,89.09,200.23Z" transform="translate(-25 -25)"/><path class="cls-14" d="M377.25,43.64c.84-2.1,2-4.74,1.62-7.08a5.53,5.53,0,0,0-3-3.83,173.86,173.86,0,0,0-18.67-7.48,5.51,5.51,0,0,0-4.8.69c-1.92,1.42-2.88,4.14-3.73,6.25-.66,1.66-3.33,8.31-4,10-.85,2.11-2,4.74-1.63,7.09a5.53,5.53,0,0,0,3,3.82,176,176,0,0,0,18.67,7.49,5.51,5.51,0,0,0,4.8-.7c1.92-1.41,2.88-4.14,3.73-6.25C373.91,52,376.58,45.31,377.25,43.64Z" transform="translate(-25 -25)"/><path class="cls-15" d="M373.25,53.61c.22-.56.69-1.71,1.22-3-3.4,8-6.25,8.63-10.92,6.78l-4.28-1.69c-3-1.19-6-2.38-9-3.66-1.53-.66-3.15-1.42-3.91-3-.61-1.24-.18-2.72.21-4,.83-2.62,1.88-5.19,2.9-7.74s2-4.86,3.09-7.24a10.12,10.12,0,0,1,2.26-3.4,5.1,5.1,0,0,1,3.48-1.12c-.45-.15-.84-.27-1.12-.33a5.51,5.51,0,0,0-4.8.69c-1.92,1.42-2.88,4.14-3.73,6.25-.66,1.66-3.33,8.31-4,10-.85,2.11-2,4.74-1.63,7.09a5.53,5.53,0,0,0,3,3.82,176,176,0,0,0,18.67,7.49,5.51,5.51,0,0,0,4.8-.7C371.44,58.45,372.4,55.72,373.25,53.61Z" transform="translate(-25 -25)"/><path class="cls-14" d="M334.4,61.17c.84-2.11,2-4.75,1.62-7.09a5.55,5.55,0,0,0-3-3.83,173.86,173.86,0,0,0-18.67-7.48,5.5,5.5,0,0,0-4.8.7c-1.92,1.41-2.88,4.13-3.73,6.24-.66,1.66-3.33,8.31-4,10-.84,2.11-2,4.74-1.62,7.09a5.53,5.53,0,0,0,3,3.82,176,176,0,0,0,18.67,7.49,5.51,5.51,0,0,0,4.8-.7c1.92-1.41,2.88-4.14,3.73-6.25C331.06,69.47,333.73,62.83,334.4,61.17Z" transform="translate(-25 -25)"/><path class="cls-15" d="M330.4,71.13c.22-.56.68-1.71,1.22-3-3.4,8-6.25,8.63-10.92,6.78l-4.29-1.69c-3-1.19-6-2.38-9-3.66-1.52-.66-3.14-1.42-3.9-3-.61-1.24-.19-2.72.2-3.95.84-2.62,1.89-5.18,2.91-7.74s2-4.86,3.09-7.24a10.12,10.12,0,0,1,2.26-3.4,5.1,5.1,0,0,1,3.48-1.12c-.46-.15-.84-.26-1.12-.33a5.5,5.5,0,0,0-4.8.7c-1.92,1.41-2.88,4.13-3.73,6.24-.66,1.66-3.33,8.31-4,10-.84,2.11-2,4.74-1.62,7.09a5.53,5.53,0,0,0,3,3.82,176,176,0,0,0,18.67,7.49,5.51,5.51,0,0,0,4.8-.7C328.59,76,329.55,73.24,330.4,71.13Z" transform="translate(-25 -25)"/><path class="cls-14" d="M365.25,73.54c.85-2.1,2-4.74,1.63-7.08a5.53,5.53,0,0,0-3-3.83,176,176,0,0,0-18.67-7.49,5.5,5.5,0,0,0-4.8.7c-1.92,1.41-2.88,4.14-3.73,6.25-.66,1.66-3.33,8.3-4,10-.84,2.1-2,4.74-1.62,7.08a5.53,5.53,0,0,0,3,3.83,176,176,0,0,0,18.67,7.49,5.57,5.57,0,0,0,4.8-.7c1.92-1.42,2.88-4.14,3.73-6.25C361.92,81.85,364.59,75.21,365.25,73.54Z" transform="translate(-25 -25)"/><path class="cls-15" d="M361.26,83.51c.22-.56.68-1.72,1.22-3.05-3.4,8-6.25,8.64-10.92,6.79l-4.29-1.69c-3-1.19-6-2.39-9-3.67-1.52-.65-3.14-1.41-3.9-3-.61-1.23-.18-2.71.2-3.94.84-2.62,1.89-5.19,2.91-7.74s2-4.86,3.09-7.25a10.08,10.08,0,0,1,2.26-3.39,5.08,5.08,0,0,1,3.48-1.12c-.46-.15-.84-.27-1.12-.34a5.5,5.5,0,0,0-4.8.7c-1.92,1.41-2.88,4.14-3.73,6.25-.66,1.66-3.33,8.3-4,10-.84,2.1-2,4.74-1.62,7.08a5.53,5.53,0,0,0,3,3.83,176,176,0,0,0,18.67,7.49,5.57,5.57,0,0,0,4.8-.7C359.45,88.34,360.41,85.62,361.26,83.51Z" transform="translate(-25 -25)"/><path class="cls-14" d="M396.14,85.93c.85-2.11,2-4.74,1.62-7.09a5.51,5.51,0,0,0-3-3.82,172.94,172.94,0,0,0-18.66-7.49,5.5,5.5,0,0,0-4.8.7c-1.92,1.41-2.89,4.14-3.73,6.25l-4,10c-.84,2.11-2,4.75-1.62,7.09a5.53,5.53,0,0,0,3,3.83,174.54,174.54,0,0,0,18.66,7.48,5.56,5.56,0,0,0,4.81-.69c1.91-1.42,2.88-4.14,3.73-6.25C392.81,94.24,395.48,87.59,396.14,85.93Z" transform="translate(-25 -25)"/><path class="cls-15" d="M392.15,95.9c.22-.57.68-1.72,1.22-3.05-3.41,8-6.25,8.63-10.92,6.79L378.16,98c-3-1.2-6-2.39-9-3.67-1.52-.65-3.14-1.41-3.91-3-.6-1.23-.18-2.71.21-3.94.84-2.63,1.88-5.19,2.91-7.74s2-4.86,3.09-7.25A10,10,0,0,1,373.75,69a5.08,5.08,0,0,1,3.48-1.12c-.46-.15-.84-.27-1.12-.34a5.5,5.5,0,0,0-4.8.7c-1.92,1.41-2.89,4.14-3.73,6.25l-4,10c-.84,2.11-2,4.75-1.62,7.09a5.53,5.53,0,0,0,3,3.83,174.54,174.54,0,0,0,18.66,7.48,5.56,5.56,0,0,0,4.81-.69C390.33,100.73,391.3,98,392.15,95.9Z" transform="translate(-25 -25)"/><path class="cls-8" d="M354.47,43.81l10.13-7.28,2.29,12.27Z" transform="translate(-25 -25)"/><path class="cls-8" d="M358.45,69.85l-10.14,7.28L346,64.86Z" transform="translate(-25 -25)"/><path class="cls-8" d="M320.88,67.66,313.6,57.53l12.26-2.29Z" transform="translate(-25 -25)"/><path class="cls-8" d="M379.69,76.83,387,87l-12.27,2.29Z" transform="translate(-25 -25)"/><path class="cls-2" d="M211.61,38.47C204.1,25,197.1,22.92,180.77,26.62c-12.59,2.85-30.66,9.83-39.86,14.52-14.28,7.28-20.49,14.59-15.84,31.3,2.19,7.87,6.16,15.69,10,22.89,7,13.23,16.27,13.25,26.77,10.51,3.79-1,8.08-2.25,12.55-3.75,4-1.34,4.28-.42,6.09,2a30,30,0,0,0,8.8,7.81c5.88,3.36,12.66,3.37,19,1.53,2.15-.63,4.2-.91-.1-3.11a23.11,23.11,0,0,1-11.44-13c-1-2.78.67-4.58,3.35-6a63.83,63.83,0,0,0,13-8.94c5.52-5.18,8.86-13.08,5.24-26.53A76.8,76.8,0,0,0,211.61,38.47Z" transform="translate(-25 -25)"/><path class="cls-8" d="M157.21,93.32l-3.56-9.44a30.31,30.31,0,0,0-2.15-4,30.44,30.44,0,0,1-2.27-4.27A19.82,19.82,0,0,0,147,71.73a42.73,42.73,0,0,0-3-3.83,27.9,27.9,0,0,1-5.37-7.9.77.77,0,0,1,.16-.77,1.82,1.82,0,0,1,.76-.6c.3-.12.77.12,1.41.73A17.59,17.59,0,0,1,143,61.81q1.13,1.55,2.19,3.12c.71,1,1.38,2.07,2,3.07s1.07,1.63,1.29,1.9c0-.3-.25-1-.59-2.1s-.69-2.23-1-3.39-.64-2.38-.91-3.59c-.63-2.77-.51-4.33.34-4.67s1.36-.35,1.5,0a46.58,46.58,0,0,1,2.13,8.57,45.82,45.82,0,0,0,2.15,8.63l.54,1.73.3.73,5.45,12.71,1.14,2.34.44,1.08a1.36,1.36,0,0,1-.06,1.23,1.76,1.76,0,0,1-.9.81,1.38,1.38,0,0,1-1.07,0A1.19,1.19,0,0,1,157.21,93.32Z" transform="translate(-25 -25)"/><path class="cls-8" d="M162.87,71.1l-1.22.44a1.28,1.28,0,0,0-.85.76l6,14.91L169.48,86c1.84-.75,2.93-.7,3.28.15l.06.17a2.33,2.33,0,0,1-.72,1.47,4.88,4.88,0,0,1-1.25,1c-.4.19-.92.42-1.56.68l-1.51.62c-1.2.48-2,.55-2.51.19a2,2,0,0,1-.54-.8L153.34,61.37A13.64,13.64,0,0,0,152,59.05a14.82,14.82,0,0,1-1.34-2.35l-.07-.16a9.9,9.9,0,0,1,.52-2.19l3.41-1.88a3.1,3.1,0,0,1,1.65-.16,1.4,1.4,0,0,1,1.21.84c.39,1-.15,1.74-1.61,2.33l-1.41.52a3.34,3.34,0,0,0-.51.23l3.61,7.82c.26.65.61,1.61,1,2.87s.75,2.19,1,2.75c.16-.1.37-.25.64-.45a7.15,7.15,0,0,1,1.44-.89,1.53,1.53,0,0,1,1.15,0,1.38,1.38,0,0,1,.83.79,1.78,1.78,0,0,1,.06,1.16A1.22,1.22,0,0,1,162.87,71.1Z" transform="translate(-25 -25)"/><path class="cls-8" d="M186.34,82.16c-1,.4-1.65.19-2-.65l-2.56-6.3a7.47,7.47,0,0,0-2.79.2,30.82,30.82,0,0,0-3.34.86,8.9,8.9,0,0,0,.18,2.79c.22,1.15.44,2.32.65,3.5a9.21,9.21,0,0,1,.13,2.94c-1.26.51-2.09.47-2.51-.11q.27-1.22-1.77-10.52t-3.09-14.62a74.69,74.69,0,0,1-1.29-9.1c-.16-2.54.09-3.94.77-4.21a2.62,2.62,0,0,1,1.73-.21q.69,1.73,4.72,8.94t4.93,9.44q.91,2.23,3.52,7.2t3.66,7.57A1.54,1.54,0,0,1,186.34,82.16Zm-8.43-15q-2.16-4.11-4.07-7.85t-2.25-4.56c-.22-.54-.34-.85-.36-.94-.29.72.16,3.9,1.33,9.54s2,9.18,2.53,10.6a14.18,14.18,0,0,0,3.58-.82,9.67,9.67,0,0,0,1.87-.92C180.23,71.63,179.36,70,177.91,67.21Z" transform="translate(-25 -25)"/><path class="cls-8" d="M193.45,78.62l-3.55-9.44a31.24,31.24,0,0,0-2.16-4,29.92,29.92,0,0,1-2.27-4.28A20.5,20.5,0,0,0,183.23,57a44.59,44.59,0,0,0-3.06-3.83,28,28,0,0,1-5.37-7.9.75.75,0,0,1,.17-.77,1.7,1.7,0,0,1,.76-.6c.29-.12.76.12,1.4.72a17.75,17.75,0,0,1,2.08,2.46q1.13,1.55,2.19,3.12c.71,1.05,1.38,2.07,2,3.07s1.07,1.63,1.29,1.9c-.05-.31-.25-1-.59-2.11s-.69-2.22-1-3.38-.64-2.38-.91-3.59c-.63-2.77-.51-4.33.34-4.67s1.36-.35,1.5,0A46.65,46.65,0,0,1,186.16,50a46,46,0,0,0,2.15,8.64l.54,1.73.3.73,5.45,12.71,1.14,2.34.45,1.08a1.37,1.37,0,0,1-.07,1.23,1.78,1.78,0,0,1-.89.81,1.42,1.42,0,0,1-1.07,0A1.18,1.18,0,0,1,193.45,78.62Z" transform="translate(-25 -25)"/><path class="cls-8" d="M198.47,62.35l1,2.27c.89,2.2,1,3.42.44,3.66q-.49.21-1.38-.81a9.57,9.57,0,0,1-1.62-2.8l-3.06-8.08-6.67-15.76a1.82,1.82,0,0,1,.11-1.57,2.07,2.07,0,0,1,1-1.07,1.42,1.42,0,0,1,1.12,0,1.23,1.23,0,0,1,.68.7q1.56,3.87,4.18,11.76T198.47,62.35Zm5.61,11.93c.46,1.13-.1,2-1.69,2.66a1.7,1.7,0,0,1-1.28-.07A1.92,1.92,0,0,1,200,75.74,2.45,2.45,0,0,1,200,74a2,2,0,0,1,1.19-1.26,1.82,1.82,0,0,1,1.68.11A2.78,2.78,0,0,1,204.08,74.28Z" transform="translate(-25 -25)"/><path class="cls-3" d="M200,91.25a63.83,63.83,0,0,0,13-8.94c5.52-5.18,8.86-13.08,5.24-26.53a76.8,76.8,0,0,0-6.64-17.31,38,38,0,0,0-5.83-8.17,59.63,59.63,0,0,1,5.2,9.38c3.74,8.25,6.11,17.66,5.46,26.75A21.27,21.27,0,0,1,213,77.27c-3.34,4.73-9.41,7.7-14.14,10.78-1.8,1.17-3.92,2.14-4.65,4.28a9.26,9.26,0,0,0,.32,5.36,22.87,22.87,0,0,0,8.06,11.39c2.95,2.36.95,2.4-1.29,2.5a21.29,21.29,0,0,1-5.94-.57c-6.08-1.49-9.34-6.32-13.45-10.54a9.33,9.33,0,0,0-8.75-3.08c-8.75,1.37-17.37,7.26-26.27,3.39-5.19-2.27-9.15-7.08-12.45-11.51a65.19,65.19,0,0,1-8.29-15A50.74,50.74,0,0,1,124,67.61a47.11,47.11,0,0,0,1.08,4.83c2.19,7.87,6.16,15.69,10,22.89,7,13.23,16.27,13.25,26.77,10.51,3.79-1,8.08-2.25,12.55-3.75,4-1.34,4.28-.42,6.09,2a30,30,0,0,0,8.8,7.81c5.88,3.36,12.66,3.37,19,1.53,2.15-.63,4.2-.91-.1-3.11a23.11,23.11,0,0,1-11.44-13C195.67,94.5,197.32,92.7,200,91.25Z" transform="translate(-25 -25)"/><path class="cls-18" d="M474.89,208.13c.78-8.84-2.53-15.08-9.32-19.3-11.48-7.14-31-12.56-51.47-15.54-14.84-2.15-28.24-.8-33.54,12.86a150.53,150.53,0,0,0-5.82,20.56c-3.83,16.5,3.9,26.11,17.33,31.67,2.45,1,5.09,2,7.86,3,4,1.43,5.16,2.75,3.41,5.93a18.32,18.32,0,0,1-2.77,3.75,22.14,22.14,0,0,1-9.1,5.49c-6.57,2.2-4.68,3.21,0,4.86,9.79,3.42,21.94.84,29.17-6.46,3.53-3.56,5.89-5.8,10.1-5,9.31,1.76,17.75,2.43,23.32,1.18,10.53-2.36,14.47-14.4,16.84-23.55C472.57,221.23,474.3,214.7,474.89,208.13Z" transform="translate(-25 -25)"/><path class="cls-8" d="M396,224.91c-.86-.2-1.16-.86-.89-2q2.26-9.66,3.76-18a14.91,14.91,0,0,0-2.49-.84,5.5,5.5,0,0,0-2.23-.11c-.44,1.88-1,4.77-1.59,8.65s-1.16,6.8-1.61,8.75a1.62,1.62,0,0,1-.52.85,1,1,0,0,1-.89.23q-1.4-.3,0-9.18,1.9-12,5.86-28.8a.83.83,0,0,1,1.09-.72,2.65,2.65,0,0,1,1,.5,2.17,2.17,0,0,1,.64.74c-.4,1.18-.76,2.44-1.07,3.78l-2.11,10.52-.5,1.89a7,7,0,0,0-.21,1.34l5,.79,3.72-16.7.32-1.34a2.13,2.13,0,0,1,1.89,2.27,31,31,0,0,1-.83,4.33q-.81,3.45-3,14.73t-3.45,16.83a2.17,2.17,0,0,1-.72,1.15A1.3,1.3,0,0,1,396,224.91Z" transform="translate(-25 -25)"/><path class="cls-8" d="M410.8,208l-1.25-.35a1.29,1.29,0,0,0-1.13.13l-3.69,15.66c1.76.31,2.71.48,2.86.52,1.94.45,2.8,1.12,2.59,2l0,.17a2.41,2.41,0,0,1-1.44.79,5.21,5.21,0,0,1-1.59.07c-.44-.07-1-.18-1.67-.34l-1.59-.38c-1.26-.29-2-.72-2.15-1.29a1.84,1.84,0,0,1,0-1l7-29.5a14.37,14.37,0,0,0,.26-2.65,14.91,14.91,0,0,1,.27-2.69l0-.17a9.72,9.72,0,0,1,1.68-1.49l3.87.44a3.2,3.2,0,0,1,1.44.82,1.4,1.4,0,0,1,.5,1.39c-.24,1-1.12,1.33-2.66,1l-1.45-.39a4.31,4.31,0,0,0-.55-.11l-1.58,8.47c-.16.68-.43,1.66-.82,2.94s-.65,2.21-.79,2.8h.78a7,7,0,0,1,1.69.12,1.53,1.53,0,0,1,.94.66,1.39,1.39,0,0,1,.22,1.13,1.69,1.69,0,0,1-.62,1A1.21,1.21,0,0,1,410.8,208Z" transform="translate(-25 -25)"/><path class="cls-8" d="M419.74,209.42l-.33,1.62-.05.22c-.56,3-1.53,7.4-2.92,13.29l-.3,1.28,3.87.92c.61.66.86,1.22.75,1.67a1.64,1.64,0,0,1-.63,1,1.06,1.06,0,0,1-.87.25,2.93,2.93,0,0,1-.87-.39,4.59,4.59,0,0,1-1-.12l-1.62-.46a1.69,1.69,0,0,1-1.45.31,2,2,0,0,1-1.2-.79,1.54,1.54,0,0,1-.27-1.26l.85-2.15q1.37-5.77,3.57-17.43T420.85,190a.92.92,0,0,1,.55-.67,1.56,1.56,0,0,1,1.91.59,1.43,1.43,0,0,1,.22,1.15Z" transform="translate(-25 -25)"/><path class="cls-8" d="M430.4,211.93l-.33,1.62-.05.22c-.56,3-1.53,7.4-2.92,13.29l-.3,1.28,3.86.91c.61.67.87,1.23.76,1.67a1.64,1.64,0,0,1-.63,1,1.08,1.08,0,0,1-.87.25,3,3,0,0,1-.88-.39,4.21,4.21,0,0,1-1-.13l-1.61-.45a1.7,1.7,0,0,1-1.45.31,2,2,0,0,1-1.2-.79,1.54,1.54,0,0,1-.27-1.26l.85-2.15q1.36-5.78,3.57-17.43t3.57-17.44a.9.9,0,0,1,.55-.66,1.5,1.5,0,0,1,1-.07,1.54,1.54,0,0,1,.92.66,1.39,1.39,0,0,1,.21,1.15Z" transform="translate(-25 -25)"/><path class="cls-8" d="M449.83,220.61l-1.95,6.31-.06.23a14.6,14.6,0,0,0-1,3,9.09,9.09,0,0,1-1.31,3,7.85,7.85,0,0,1-2.37,2.29,3.68,3.68,0,0,1-2.83.58,4,4,0,0,1-2.31-1.54,7.59,7.59,0,0,1-1.31-2.86,19.64,19.64,0,0,1-.49-3.83,36.46,36.46,0,0,1,.06-4.2c.1-1.34.25-2.75.46-4.22q.48-3.36.92-5.18c.3-1.22.54-2.26.72-3.13l.51-2.35.27-1.16c.1-.42.2-.87.31-1.35.25-1,.49-1.84.71-2.6s.5-1.59.82-2.47a23.82,23.82,0,0,1,1-2.28,12.76,12.76,0,0,1,1.15-1.86,7.29,7.29,0,0,1,1.38-1.43,3.82,3.82,0,0,1,3.19-.77,6.28,6.28,0,0,1,2.61,1.23,5,5,0,0,1,1.49,2.33c.31,1,.57,1.92.77,2.82a12.6,12.6,0,0,1,.12,3.6c-.12,1.5-.22,2.71-.29,3.63a39.36,39.36,0,0,1-.65,4q-.71,3.42-1.15,5.33ZM449.71,201a5.52,5.52,0,0,0-.79-2.31,2.33,2.33,0,0,0-1.33-1.06,1.63,1.63,0,0,0-1.35.23,4.15,4.15,0,0,0-1.17,1.29c-.37.58-.73,1.21-1.08,1.9a19.23,19.23,0,0,0-1,2.42c-.32.93-.6,1.78-.85,2.54s-.47,1.58-.72,2.5l-.92,3.57,0,.23a57.85,57.85,0,0,0-1.21,7.44q-.4,4.05-.43,6.69a16.79,16.79,0,0,0,.5,4.6c.35,1.31.91,2.06,1.69,2.24s1.4-.34,2.16-1.5a20.93,20.93,0,0,0,2.11-4.53c1.13-3.29,1.85-5.62,2.18-7s.57-2.35.71-3,.33-1.55.57-2.76.43-2.35.58-3.42.29-2.26.44-3.57A28.57,28.57,0,0,0,450,204,27.65,27.65,0,0,0,449.71,201Z" transform="translate(-25 -25)"/><path class="cls-8" d="M453.27,236.91c-.28,1.19-1.26,1.58-2.93,1.19a1.74,1.74,0,0,1-1-.8,1.93,1.93,0,0,1-.22-1.54,2.41,2.41,0,0,1,1-1.44,2,2,0,0,1,1.7-.35,1.85,1.85,0,0,1,1.31,1.07A2.82,2.82,0,0,1,453.27,236.91Zm2.32-13-.52,2.41c-.54,2.32-1.13,3.4-1.75,3.25-.35-.08-.57-.57-.67-1.46a9.9,9.9,0,0,1,.31-3.23l2.17-8.35,3.68-16.72a1.8,1.8,0,0,1,1-1.21,2.09,2.09,0,0,1,1.47-.27,1.47,1.47,0,0,1,1,.6,1.26,1.26,0,0,1,.15,1q-1,4.07-3.39,12C457.35,217.24,456.23,221.24,455.59,223.93Z" transform="translate(-25 -25)"/><path class="cls-19" d="M470.93,227.61c1.64-6.38,3.37-12.91,4-19.48.77-8.72-2.44-14.9-9-19.12,7.53,7.26,8.95,15.38,5.26,28.87-1.88,6.9-3.53,14.32-6.79,20.69-2.83,5.51-6.49,10.22-13,10.61a66.39,66.39,0,0,1-15.74-1.34c-5-1-8.3-2.32-12.42.93-2.11,1.67-5.18,4.82-7.4,6.35-5.27,3.64-12.09,6.39-19.56,5-3.25-.61-3.36-1.43-.37-2.8a22.22,22.22,0,0,0,6.59-4.45c4-3.95,5.93-9.4,1-13-2.64-1.93-5.94-2.8-9-4.12-10.14-4.3-18.63-8.13-16.66-24.71,1.16-9.79,3.29-25.92,12.4-35.8a19.54,19.54,0,0,0-9.53,10.89,150.53,150.53,0,0,0-5.82,20.56c-3.83,16.5,3.9,26.11,17.33,31.67,2.45,1,5.09,2,7.86,3,4,1.43,5.16,2.75,3.41,5.93a18.32,18.32,0,0,1-2.77,3.75,22.14,22.14,0,0,1-9.1,5.49c-6.57,2.2-4.68,3.21,0,4.86,9.79,3.42,21.94.84,29.17-6.46,3.53-3.56,5.89-5.8,10.1-5,9.31,1.76,17.75,2.43,23.32,1.18C464.62,248.8,468.56,236.76,470.93,227.61Z" transform="translate(-25 -25)"/><path class="cls-25" d="M130.67,416.17c-12.1-3-28.68,9.44-26.92,23.77a24.32,24.32,0,0,0,5.34,11.86c1.91,2.46,2.39,3.25,2.24-.3a37.15,37.15,0,0,1,.74-8.67c1.41,5.76,5.31,11,9.33,15.18,2.79,2.9,2.24,1.33,1.93-.8a21.48,21.48,0,0,1,.33-7.35c2.26,4.6,6.66,8.21,10.8,10.92a36.31,36.31,0,0,0,12.87,5.57c4.59.81,4.36.86,4.15-3.6-.23-4.72-2-9.55-3.94-13.52-2.17-4.45-5.21-9.26-9.5-12.07a22.14,22.14,0,0,1,7.15.53c2.13.56,3.36.84,1-2.06-3.61-4.41-8.25-8.77-13.67-10.84a37,37,0,0,1,8.55.32c3.87.63,2.51-.38.72-2.17A24.32,24.32,0,0,0,130.67,416.17Z" transform="translate(-25 -25)"/><path class="cls-14" d="M116.31,400.18c-2.54-2.27-6.52-3.45-11,0-1.62,1.24-12.86,11.16-14.29,12.61-4,4.07-3.33,8.16-1.4,11,1.29,1.87,7.47,8.78,9.4,10.11a10.18,10.18,0,0,0,5.45,1.89c7.19.28,21.34-12.22,22-19.38a10.17,10.17,0,0,0-1.2-5.65C124.1,408.68,118,401.69,116.31,400.18Z" transform="translate(-25 -25)"/><path class="cls-15" d="M125.86,418.55a8.34,8.34,0,0,0,.51-2.15,10.17,10.17,0,0,0-1.2-5.65c-1.07-2.07-7.17-9.06-8.86-10.57-2.54-2.27-6.52-3.45-11,0-1.62,1.24-12.86,11.16-14.29,12.61-4,4.07-3.33,8.16-1.4,11,1.29,1.87,7.47,8.78,9.4,10.11a10.18,10.18,0,0,0,5.45,1.89,7.63,7.63,0,0,0,1.55-.12,6.87,6.87,0,0,1-4.5-3c-2.27-3.41,3.36-8.59,5.45-10.63a43,43,0,0,1,11-8.11c2.67-1.29,5.88-1.51,7.32,1.52A7.36,7.36,0,0,1,125.86,418.55Z" transform="translate(-25 -25)"/><path class="cls-21" d="M76.62,341.3C61.39,330.48,44,323.84,29,325.25c-2.34.21-2.43.23-3,2.6-3.26,14.75,1.27,32.7,10,49.23,10.81,20.37,29.44,37.72,48.68,49.84,11.33,7.14,40.92-19.05,35.26-31.14C110.35,375.09,95.5,354.73,76.62,341.3Z" transform="translate(-25 -25)"/><path class="cls-22" d="M62.19,332.68A130.87,130.87,0,0,1,89.76,357.1c7,8.24,13.92,17.7,18.11,27.73,2,4.84,3.25,10.19,2.09,15.4s-5.38,10.27-9.57,13.52a19.94,19.94,0,0,1-14.92,4C80,417,75.36,413.9,71.1,410.63a171.37,171.37,0,0,1-25.82-25.27A162.51,162.51,0,0,1,31.09,366.3a112.54,112.54,0,0,0,5,10.78c10.81,20.37,29.44,37.72,48.68,49.84,11.33,7.14,40.92-19.05,35.26-31.14-9.69-20.69-24.54-41-43.42-54.48A103.92,103.92,0,0,0,62.19,332.68Z" transform="translate(-25 -25)"/><path class="cls-26" d="M88.46,416.47c2.49,3,1.89,4.48,1.29,5.64a35.49,35.49,0,0,0-2.61,5.77,11.88,11.88,0,0,0,.66,4.62c1.47,5.27,12.39,29.61,15.48,36.65,3,6.84,3.59,8-2.88,1.91-7.18-6.69-32.32-36.5-34.65-39.64-1.89-2.54-5.13-6.17-4.86-9.34.35-4.06,1.71-8,2.85-11.72,1-3.2,2.05-6.34,3.16-9.47C67.94,398,82.28,409,88.46,416.47Zm20.73-18.3c2.66,2.84,4.21,2.43,5.44,2a34.73,34.73,0,0,1,6.05-1.88,11.76,11.76,0,0,1,4.5,1.23c5,2.11,27.84,15.95,34.45,19.9,6.42,3.83,7.44,4.54,2.26-2.63-5.75-7.95-32.23-36.58-35-39.28-2.29-2.2-5.49-5.86-8.67-6-4.07-.15-8.13.71-12,1.38-3.28.58-6.54,1.25-9.78,2C93.37,375.51,102.57,391.11,109.19,398.17Z" transform="translate(-25 -25)"/><path class="cls-19" d="M159.63,419.4,162.4,421c-2.58-2.17-5.22-4.27-7.83-6.34-6.72-5.31-13.61-10.42-20.58-15.39-4.57-3.25-9.62-8-15.6-6.25-1.88.54-4,1.55-6,1.27-3.32-.45-6.25-3.82-8.42-6.13a75.47,75.47,0,0,1-7.66-10.11c1.77,5.09,8,14.89,12.89,20.08,2.66,2.84,4.21,2.43,5.44,2a34.73,34.73,0,0,1,6.05-1.88,11.76,11.76,0,0,1,4.5,1.23C130.22,401.61,153,415.45,159.63,419.4Z" transform="translate(-25 -25)"/><path class="cls-19" d="M79.22,410.05c2,2.44,5,5.76,5,9.11,0,2-1.24,4-2,5.8-2.44,5.73,1.6,11.32,4.26,16.26,4.07,7.54,8.29,15,12.73,22.33,1.73,2.85,3.48,5.73,5.32,8.56-.35-.82-.78-1.81-1.29-3-3.09-7-14-31.38-15.48-36.65a11.88,11.88,0,0,1-.66-4.62,35.49,35.49,0,0,1,2.61-5.77c.6-1.16,1.2-2.65-1.29-5.64C83.91,411,75,403.58,70.13,401.19A75.28,75.28,0,0,1,79.22,410.05Z" transform="translate(-25 -25)"/><path class="cls-14" d="M59.13,386.65a18.75,18.75,0,0,0,14-.95,18.25,18.25,0,0,0,9.51-12.31,19.25,19.25,0,0,0-.94-12.63,21.42,21.42,0,0,0-3-4.44A18.5,18.5,0,0,0,70.61,351a18.79,18.79,0,0,0-14,1,18.1,18.1,0,0,0-10,14.8,20.07,20.07,0,0,0,12.5,19.94Z" transform="translate(-25 -25)"/><path class="cls-15" d="M82.67,373.39a19.25,19.25,0,0,0-.94-12.63,21.42,21.42,0,0,0-3-4.44,17.34,17.34,0,0,0-1.27-1.3c5.15,6.77,4.56,13.3,1.55,18.31-5.3,8.87-16.1,14.47-26.43,3.76a17.78,17.78,0,0,1-4.85-15.16,20.55,20.55,0,0,0-1.09,4.78,20.07,20.07,0,0,0,12.5,19.94,18.75,18.75,0,0,0,14-.95A18.25,18.25,0,0,0,82.67,373.39Z" transform="translate(-25 -25)"/><path class="cls-27" d="M55.5,373a9.39,9.39,0,0,0,9.56,1.5,13,13,0,0,0,7.12-7.14c2.36-5.5.21-10.51-3.57-12.86s-9.19-2.07-13.36,3C51.65,362,50.51,368.76,55.5,373Z" transform="translate(-25 -25)"/><path class="cls-2" d="M46.73,326.89A52.35,52.35,0,0,0,29,325.25c-2.34.21-2.43.23-3,2.6a51,51,0,0,0-.77,15.89c.44,4.49,4.49,5.27,8.54,3.9A26.39,26.39,0,0,0,49,333.15C50.46,329.91,50,327.73,46.73,326.89Z" transform="translate(-25 -25)"/><path class="cls-3" d="M49,333.15c1.42-3.24,1-5.42-2.31-6.26-.76-.19-1.52-.37-2.28-.53a6.49,6.49,0,0,1,1.14,5.78,12.54,12.54,0,0,1-8.15,8.52A9.48,9.48,0,0,1,28,338.39a9.31,9.31,0,0,1-2.64-6.56,53.76,53.76,0,0,0-.09,11.91c.44,4.49,4.49,5.27,8.54,3.9A26.39,26.39,0,0,0,49,333.15Z" transform="translate(-25 -25)"/><path class="cls-28" d="M141.77,422.94a24.32,24.32,0,0,0-11.1-6.77c-.53-.13-1.07-.22-1.61-.3a65.52,65.52,0,0,1,7.55,4.79c2.62,2,1.6,2.18-.63,2.23a38.88,38.88,0,0,0-5,.46c-2.39.37-1.75,1.13-.1,1.94a37.62,37.62,0,0,1,10.78,8.27c2.6,2.76,1.59,2.15-.72,1.88a18.57,18.57,0,0,0-3.79-.07c-2.45.22-2.43.9-.86,2.37a39.82,39.82,0,0,1,11.84,19.42c1.83,7.6.63,7.66-5.89,5.2a39.8,39.8,0,0,1-17.8-14.15c-1.27-1.74-1.94-1.85-2.46.56a18.46,18.46,0,0,0-.4,3.77c0,2.32.46,3.4-2,.48a37.77,37.77,0,0,1-6.87-11.72c-.59-1.74-1.27-2.47-1.93-.14a39.21,39.21,0,0,0-1.08,4.88c-.32,2.21-.66,3.19-2.29.35a65.79,65.79,0,0,1-3.84-8.14c0,.56.05,1.12.12,1.69a24.32,24.32,0,0,0,5.34,11.86c1.91,2.46,2.39,3.25,2.24-.3a37.15,37.15,0,0,1,.74-8.67c1.41,5.76,5.31,11,9.33,15.18,2.79,2.9,2.24,1.33,1.93-.8a21.48,21.48,0,0,1,.33-7.35c2.26,4.6,6.66,8.21,10.8,10.92a36.31,36.31,0,0,0,12.87,5.57c4.59.81,4.36.86,4.15-3.6-.23-4.72-2-9.55-3.94-13.52-2.17-4.45-5.21-9.26-9.5-12.07a22.14,22.14,0,0,1,7.15.53c2.13.56,3.36.84,1-2.06-3.61-4.41-8.25-8.77-13.67-10.84a37,37,0,0,1,8.55.32C144.92,425.74,143.56,424.73,141.77,422.94Z" transform="translate(-25 -25)"/><path class="cls-26" d="M34.42,365.24c5,6.3,9.54,12,6.81,14.13a24.64,24.64,0,0,0-6.95,9c-1.09,2.24-2.51,3.51-3.75-.89-2.16-7.69-1.74-17.11.52-22.25C32.19,362.69,32.87,363.31,34.42,365.24Zm30.63-27c5.63,5.77,10.75,10.95,13.17,8.5a24.71,24.71,0,0,1,9.83-5.77c2.35-.81,3.79-2.06-.43-3.84-7.35-3.09-16.76-3.84-22.14-2.23C62.79,335.67,63.32,336.42,65.05,338.2Z" transform="translate(-25 -25)"/><path class="cls-19" d="M65.05,338.2c5.63,5.77,10.75,10.95,13.17,8.5a24.71,24.71,0,0,1,9.83-5.77,4.27,4.27,0,0,0,2.12-1.26,13.73,13.73,0,0,0-3.8.27c-3,.64-5.53,2.92-8.49,3.3-5,.64-10.09-2.69-14.06-6.5A9.19,9.19,0,0,0,65.05,338.2Z" transform="translate(-25 -25)"/><path class="cls-19" d="M34.28,388.4a24.64,24.64,0,0,1,6.95-9c2.73-2.1-1.78-7.83-6.81-14.13a8.7,8.7,0,0,0-1.29-1.39c3.29,4.4,6,9.83,4.7,14.75-.74,2.89-3.32,5.17-4.32,8a13.72,13.72,0,0,0-.74,3.74A4.11,4.11,0,0,0,34.28,388.4Z" transform="translate(-25 -25)"/><path class="cls-21" d="M115.62,96.56c-5.19-1.49-9.88-.55-14.53,2a45.74,45.74,0,0,0,.64-5.56c.14-3.94-.78-7.91-3.62-10.79C91.7,75.71,54.87,67.69,46.32,71c-3.78,1.45-6.26,4.67-7.77,8.31a82.3,82.3,0,0,0-2.7,8.86q-1.68,5.78-3.26,11.58c-2,7.44-3.86,14.93-5.35,22.49-.93,4.75-2.31,9.54-2.24,14.42.28,18,57.45,30.48,65.2,14.19a36.5,36.5,0,0,0,2.35-6.93l.29.22c4.3,3.06,10.38,3.69,15.44,2.51,10.77-2.52,18.28-11.88,20.78-22.33S127,99.84,115.62,96.56Zm-6.18,43a16.43,16.43,0,0,1-10.77.16c-3.66-1.33-3.75-6.13-3.14-9q1.77-8.27,3.12-16.61c.82-5,1.66-8.12,4.55-10.07a12.93,12.93,0,0,1,9.94-2.09c9.27,1.85,11.68,13.27,10.1,21.07A22.36,22.36,0,0,1,109.44,139.52Z" transform="translate(-25 -25)"/><path class="cls-20" d="M48.54,78.47c11.47,5.48,31.15,9.8,44,9.68,6.59-.06,6.11-3.32.84-6.2-9.24-5-32.91-10.16-43.07-9.26C43.86,73.26,43.85,76.23,48.54,78.47Z" transform="translate(-25 -25)"/><path class="cls-29" d="M49.48,76.62a13.43,13.43,0,0,0-3,.57,10.26,10.26,0,0,0,2.08,1.28c11.47,5.48,31.15,9.8,44,9.68a11.54,11.54,0,0,0,2.78-.31,13.63,13.63,0,0,0-2.8-2C83.31,80.84,59.64,75.72,49.48,76.62Z" transform="translate(-25 -25)"/><path class="cls-22" d="M108.28,146.61c10.77-2.52,18.28-11.88,20.78-22.33a26.64,26.64,0,0,0-3.24-19.85c.35.83.67,1.67,1,2.53,2.42,7.33,1.16,15.52-2,22.41-2.86,6.34-7.52,12.37-14.34,14.33-6,1.7-11.68.81-14.75-.86-6.41-3.49-6.45-1-7.91,2.48s-2.7,6.05-7.16,7.61c-5.12,1.81-12.1,1-17.43.48-10.85-1.16-22.07-3.86-30.85-10.66-4.7-3.65-4-9.3-3.12-14.5,1-6.15,7.48-41.15,11.89-53.4a17.75,17.75,0,0,0-2.59,4.42,82.3,82.3,0,0,0-2.7,8.86q-1.68,5.78-3.26,11.58c-2,7.44-3.86,14.93-5.35,22.49-.93,4.75-2.31,9.54-2.24,14.42.28,18,57.45,30.48,65.2,14.19a36.5,36.5,0,0,0,2.35-6.93l.29.22C97.14,147.16,103.22,147.79,108.28,146.61Z" transform="translate(-25 -25)"/><path class="cls-22" d="M93.9,131.84a7.44,7.44,0,0,0,2.19,5.52,10.55,10.55,0,0,1-.56-6.65q1.77-8.27,3.12-16.61c.82-5,1.66-8.12,4.55-10.07a12.93,12.93,0,0,1,9.94-2.09c7.69,1.53,10.65,9.64,10.54,16.81a26.18,26.18,0,0,0-1.62-11.5c-2.75-6.58-9.5-8.83-15.41-7s-8,4.88-9.77,12.48C95.5,118.56,94,126.87,93.9,131.84Z" transform="translate(-25 -25)"/><path class="cls-20" d="M52.23,121.8a9.2,9.2,0,0,0-3.47,5.76,12.73,12.73,0,0,1-2.49-7c-.35-8,6.06-14.9,13.09-17.7A22.12,22.12,0,0,1,72,101.49c4.38,1,6.24,4.47,4,9.46-2.1,4.75-7,6.7-11.76,7.42C60.16,119,55.69,119.23,52.23,121.8Zm28.32-12.45a10.93,10.93,0,0,0-2-3.55c.87,4.87-2,10.33-7,12.79-4.36,2.1-9.23,1.71-13.79,3a11.9,11.9,0,0,0-5.29,2.9,7.45,7.45,0,0,0-1.21,1.66c-1.66,3.12-.18,4.65,2.43,6,5.49,2.78,12.51.86,17.54-2.46C77.64,125.44,83.37,117.37,80.55,109.35Z" transform="translate(-25 -25)"/><path class="cls-29" d="M52.23,121.8c3.46-2.57,7.93-2.81,12.05-3.43,4.79-.72,9.66-2.67,11.76-7.42,2.2-5,.34-8.44-4-9.46-.42-.09-.84-.16-1.26-.22,3.11,1,5.45,3.14,4.28,7.1-1.1,3.74-4.47,5.66-8,6.65-5.5,1.55-13.08,1.34-16.68,6.54a8.44,8.44,0,0,0-1.46,5.33A9,9,0,0,1,52.23,121.8Z" transform="translate(-25 -25)"/><path class="cls-29" d="M71.17,129.7c6.47-4.26,12.2-12.33,9.38-20.35A11,11,0,0,0,79,106.44a22.11,22.11,0,0,1,.71,5.37,19.75,19.75,0,0,1-2,7.63,20.34,20.34,0,0,1-8.94,9.17,19.49,19.49,0,0,1-11.85,2.1c-1.63-.27-3.55-.94-4.2-2.6s.25-3.46,1.43-5a8.67,8.67,0,0,0-1.74,1.38,7.45,7.45,0,0,0-1.21,1.66c-1.66,3.12-.18,4.65,2.43,6C59.12,134.94,66.14,133,71.17,129.7Z" transform="translate(-25 -25)"/><path class="cls-28" d="M472.08,59c-5.24,2.61-14.52,7.15-21.47,10.23-3.82,1.7-5.16,3.12-2.76-3.17,4.55-11.91,11.66-29.5,14.92-37.54,1.62-4,.33-3.93-3-3.09-14.09,3.58-32.71,8.1-40.88,10.08-4.12,1-4.13,1.66-4.15,4.63-.18,21.35-.72,45.38-.61,66.8,0,4.15.76,4,3.86,2.44,4.63-2.28,12.65-6.27,19.56-9.72,3.68-1.83,3.59-.54,3.22,2.8-2.26,20.66-4.11,41.42-5.56,62.15-.23,3.21-.18,4.75,1.5.17,7-19.16,31.62-86.39,37.93-103.71C475.6,58.48,474.56,57.8,472.08,59Z" transform="translate(-25 -25)"/><path class="cls-25" d="M472.08,59c-5.24,2.61-14.52,7.15-21.47,10.23-3.82,1.7-5.16,3.12-2.76-3.17,4.55-11.91,11.66-29.5,14.92-37.54,0,0,0,0,0-.05-4,6.23-7.34,13-10.76,19.56q-6.09,11.56-11.62,23.43c-2.68,5.71-1.29,5.32,3.8,3.31q9.32-3.66,18.5-7.59c6.71-2.85,5.74-1.94,4,3.13-3.29,9.66-6.42,19.39-9.59,29.09-6.16,18.81-12.24,37.66-18,56.61-1,3.46-2.08,6.93-3.08,10.41.19-.42.4-1,.65-1.64,7-19.16,31.62-86.39,37.93-103.71C475.6,58.48,474.56,57.8,472.08,59Z" transform="translate(-25 -25)"/><path class="cls-21" d="M449.69,82.06c-6.79,2.21-13.54,4.6-20.24,7-1.8.66-2.63,1.46-2.09-2.23,1.2-8.17,4.62-35.65,5.41-44.86.18-2.09.14-3.29-2.35-2.87a66.85,66.85,0,0,0-6.88,1.49c-2.19.61-2.74,1.44-2.77,3-.29,17.56-.64,35.12-.66,52.69,0,4.28,1,3.51,3.16,2.61,3.59-1.51,15.34-6.74,20.89-9.23,2.36-1,2.22-.51,2,1.61-.43,3.57-1.23,9.9-1.64,13.3-.73,6-1.51,12.06-2.19,18.09-.55,4.92-.14,4.86.9.12,2.85-13,6.35-25.95,9.08-39C452.8,81.3,452.53,81.14,449.69,82.06Z" transform="translate(-25 -25)"/><path class="cls-21" d="M464.17,411.42c-8.26-2.07-13.11-3.68-19.83-8.76A29.79,29.79,0,0,1,439,397c-6.09-7.76-19.42-12.93-26.29.94-.35.71-.68,1.42-1,2.11-.55,1.21-1.37,3.06-2.55,5.19-7.24,13.09-30.12,49.14-78.4,46.95-6.33-.28-7.08,1.45-2.59,4.38A115.26,115.26,0,0,0,365.46,472a109.29,109.29,0,0,0,57.74-1.92,102.66,102.66,0,0,0,41.47-25.64c3.27-3.29,7.81-9.77,9.16-13.19C476.67,424.08,474.68,414,464.17,411.42Z" transform="translate(-25 -25)"/><path class="cls-28" d="M459,426.4c-3-1.13-5.63-2.11-8-3a64.21,64.21,0,0,1-24.42-16.48,22,22,0,0,0-8-5.68c-4.35-1.57-5.9.52-7.64,3.79-5,9.38-9.92,16.28-13.09,19.82a91.77,91.77,0,0,1-21.69,17.91c-13,7.69-31.15,11.52-42,11.31-4.73-.09-2.71,1.63-1,2.69,7.86,4.85,16.62,8.27,25.41,11,12.46,3.87,25.21,6.06,38.29,5.3,24.12-1.4,49.2-12.41,64.63-31.37C466.57,435.51,467.46,429.66,459,426.4Z" transform="translate(-25 -25)"/><path class="cls-18" d="M424.29,450.61c3.86,4-2,8.45-5.51,9.51-2.22.68-5.17,1.19-7.3-.06-1.5-.89-2.8-2.61-2.23-4.45C411.43,448.68,420.88,447.05,424.29,450.61ZM414.07,430c2.69,4,9.37,1.83,11.73-1.27,2.2-2.87,2.7-8,.23-10.91a4.82,4.82,0,0,0-4.67-1.63C416.8,417.07,410.68,425,414.07,430ZM369.2,455.45c-4.31,3,1.16,7,4,8.21,4,1.7,11.16,2.19,13-2.89C388.51,454.42,376,450.78,369.2,455.45Zm82.39-21a5.14,5.14,0,0,0-6.27-2.68c-3.51,1.1-6.15,5.44-6,8.63.23,4,4.64,4.09,7.5,2.85S453.52,437.87,451.59,434.46Zm-57.27,6.47c-.55,3.19,1.2,6.4,6,4.72a9.07,9.07,0,0,0,4.72-3.86c2.26-3.77.59-6.64-2.56-7.34S395.3,435.29,394.32,440.93Z" transform="translate(-25 -25)"/><path class="cls-19" d="M424.29,450.61a5.32,5.32,0,0,0-.45-.38,6.22,6.22,0,0,1-1,3.73c-1.41,2.24-4.26,3.47-6.8,3.73s-5.33-.61-5.31-3.44a5.7,5.7,0,0,1,.42-2,9.25,9.25,0,0,0-1.94,3.38c-.57,1.84.73,3.56,2.23,4.45,2.13,1.25,5.08.74,7.3.06C422.26,459.06,428.15,454.65,424.29,450.61Z" transform="translate(-25 -25)"/><path class="cls-19" d="M405.08,441.79a5.6,5.6,0,0,0,.88-4.43,9.51,9.51,0,0,1-3.44,3.81,5.7,5.7,0,0,1-5.78.81c-1.87-.92-1.73-2.8-1.15-4.56a10,10,0,0,0-1.27,3.51c-.55,3.19,1.2,6.4,6,4.72A9.07,9.07,0,0,0,405.08,441.79Z" transform="translate(-25 -25)"/><path class="cls-19" d="M446.85,443.26c3-1.28,6.67-5.39,4.74-8.8,0-.09-.12-.17-.18-.26a6.25,6.25,0,0,1-.66,2.06,11.26,11.26,0,0,1-3.9,3.89,7.07,7.07,0,0,1-5.12,1.14,3.14,3.14,0,0,1-2.36-1.66,6.83,6.83,0,0,0,0,.78C439.58,444.44,444,444.5,446.85,443.26Z" transform="translate(-25 -25)"/><path class="cls-19" d="M425.92,417.68a5.53,5.53,0,0,1,.45,3.73,10.7,10.7,0,0,1-4.48,6.47c-2.34,1.6-5.42,1.71-7.23-.74-1.11-1.48-.92-3.24-.31-4.94-1.38,2.56-1.84,5.47-.28,7.78,2.69,4,9.37,1.83,11.73-1.27,2.2-2.87,2.7-8,.23-10.91A.63.63,0,0,0,425.92,417.68Z" transform="translate(-25 -25)"/><path class="cls-19" d="M386.21,460.77a4,4,0,0,0-.3-3.54c-1,3-3.84,4.55-7.39,4.65a11.2,11.2,0,0,1-6.33-1.71,5.17,5.17,0,0,1-2.43-3.62,2.68,2.68,0,0,1,.33-1.64c-.3.17-.6.34-.89.54-4.31,3,1.16,7,4,8.21C377.2,465.36,384.37,465.85,386.21,460.77Z" transform="translate(-25 -25)"/><path class="cls-14" d="M422.24,444c-3.95,0-3.95-5.11,0-5.11S426.19,444,422.24,444Zm-35.76,1.68c-3.86,0-3.86,5,0,5S390.35,445.67,386.48,445.67Zm-29.89,11.65a2.88,2.88,0,0,0-1.92.21,2.09,2.09,0,0,0-1.24,1.8c-.13,1.1,1.29,2.31,2.64,2.17a2.94,2.94,0,0,0,1.68-.59,1.86,1.86,0,0,0,.7-1.4,1.64,1.64,0,0,0,0-.44A2.28,2.28,0,0,0,356.59,457.32Zm45.26.9c-.54-2.05-4.43-2.05-5,0l0,.13a2.53,2.53,0,1,0,5,0A.65.65,0,0,1,401.85,458.22Zm35.57-33.31a2.08,2.08,0,1,0,2.45,2A2.3,2.3,0,0,0,437.42,424.91Zm3,23.34-.24.05a1.94,1.94,0,0,0,0,3.85l.24.05C444.36,453.05,444.36,447.4,440.41,448.25Zm-21.94-39.48a2.58,2.58,0,0,0-3.2,0,1.72,1.72,0,0,0-.67,1.33,1.94,1.94,0,0,0,1.13,1.63.49.49,0,0,0,.18.08,2.66,2.66,0,0,0,2.71-.29,1.66,1.66,0,0,0,0-2.63Zm-11.53,18.74c-2.77,0-2.77,3.59,0,3.59S409.72,427.51,406.94,427.51Z" transform="translate(-25 -25)"/><path class="cls-15" d="M437.16,426.87a3.87,3.87,0,0,1-2-.74,1.71,1.71,0,0,0-.22.82,2.5,2.5,0,0,0,4.91,0,1.7,1.7,0,0,0-.21-.8l-.08.12A2.94,2.94,0,0,1,437.16,426.87Z" transform="translate(-25 -25)"/><path class="cls-15" d="M425.16,441a3.61,3.61,0,0,1-1.71,1.1,3.13,3.13,0,0,1-2.81-.46,2,2,0,0,1-.83-1.71c-1.18,1.49-.37,4.06,2.43,4.06C424.44,444,425.41,442.4,425.16,441Z" transform="translate(-25 -25)"/><path class="cls-15" d="M442.94,449a7.57,7.57,0,0,1-.82.95,2.1,2.1,0,0,1-2.43.37,2.32,2.32,0,0,1-1-.83,1.92,1.92,0,0,0,1.51,2.71l.24.05C443.14,452.79,444,450.28,442.94,449Z" transform="translate(-25 -25)"/><path class="cls-15" d="M418.62,411.52a1.72,1.72,0,0,0,.35-2.29,2.86,2.86,0,0,1-1.28,1.42,2,2,0,0,1-2.28-.19,1.43,1.43,0,0,1-.57-1.18,1.63,1.63,0,0,0-.24.82,1.94,1.94,0,0,0,1.13,1.63.49.49,0,0,0,.18.08A2.66,2.66,0,0,0,418.62,411.52Z" transform="translate(-25 -25)"/><path class="cls-15" d="M401.9,458.5l0,0c-2.19,1.69-4.15.91-4.89-.55a2.34,2.34,0,0,0-.09.24l0,.13a2.53,2.53,0,1,0,5,.15Z" transform="translate(-25 -25)"/><path class="cls-15" d="M357.75,460.91a1.86,1.86,0,0,0,.7-1.4,1.64,1.64,0,0,0,0-.44,2.19,2.19,0,0,0-.21-.59,4.82,4.82,0,0,1-1.79,1.13,2.82,2.82,0,0,1-2.42-.43,1.37,1.37,0,0,1-.44-.42,2.62,2.62,0,0,0-.12.57c-.13,1.1,1.29,2.31,2.64,2.17A2.94,2.94,0,0,0,357.75,460.91Z" transform="translate(-25 -25)"/><path class="cls-15" d="M388.94,446.78a3.23,3.23,0,0,1-2.17,2.29,2.87,2.87,0,0,1-2.91-1.39,1.3,1.3,0,0,1-.13-.3c-.5,1.45.41,3.29,2.75,3.29C389.17,450.67,390,448.25,388.94,446.78Z" transform="translate(-25 -25)"/><path class="cls-15" d="M408.81,428.49a3.24,3.24,0,0,1-1.44,1.44,2.12,2.12,0,0,1-2.48-.37,1.88,1.88,0,0,0,2.05,1.54A1.81,1.81,0,0,0,408.81,428.49Z" transform="translate(-25 -25)"/><path class="cls-25" d="M461.54,441.7c5-6.19,5.92-12-2.58-15.3-3-1.13-5.63-2.11-8-3a64.21,64.21,0,0,1-24.42-16.48,22,22,0,0,0-8-5.68c-2-.74-3.48-.66-4.6,0a10.38,10.38,0,0,1,2.06.22c3.27.69,5.85,4,8.07,6.34,2.47,2.57,4.86,5.21,7.44,7.67a37.68,37.68,0,0,0,12,7.81c4.16,1.71,8.44,3.2,12.3,5.56,4.08,2.51,5.87,5.8,3.55,10.28-3.15,6.09-8.7,11-14.16,15-11.89,8.71-26.95,13.54-41.44,15.46-12.71,1.68-25.5.71-38.07-1.47A131.53,131.53,0,0,1,345.5,463c4.29,1.82,8.7,3.36,13.12,4.74,12.46,3.87,25.21,6.06,38.29,5.3C421,471.67,446.11,460.66,461.54,441.7Z" transform="translate(-25 -25)"/><path class="cls-21" d="M402.84,450.52a2.65,2.65,0,0,0-1.21.7c-.09.08,0,.2.12.16a3.53,3.53,0,0,1,1.33-.2,3.54,3.54,0,0,0,1.15-.29.1.1,0,0,0,0-.2A2.22,2.22,0,0,0,402.84,450.52Z" transform="translate(-25 -25)"/><path class="cls-21" d="M374.77,449.59a12,12,0,0,0-1.55-.35c-.06,0-.1.07-.05.1.48.23.89.58,1.36.82s.83.44,1.24.25a.13.13,0,0,0,.05-.19C375.63,449.86,375.13,449.72,374.77,449.59Z" transform="translate(-25 -25)"/><path class="cls-21" d="M389.51,441.08c.76-1,2.12-1.93,2.17-3.29a.23.23,0,0,0-.34-.19c-1.16.65-1.59,2.24-1.95,3.42A.07.07,0,0,0,389.51,441.08Z" transform="translate(-25 -25)"/><path class="cls-21" d="M430.64,435.54a6.33,6.33,0,0,0,.73,3.3.1.1,0,0,0,.18,0,6.26,6.26,0,0,0-.8-3.28C430.73,435.46,430.64,435.48,430.64,435.54Z" transform="translate(-25 -25)"/><path class="cls-21" d="M432.18,454.46a.09.09,0,0,0,0,.17c1.06.27,2.34.64,3.36.07a.18.18,0,0,0,0-.31C434.52,453.82,433.24,454.18,432.18,454.46Z" transform="translate(-25 -25)"/><path class="cls-21" d="M447.77,428.67a3.91,3.91,0,0,0-3.62.29.1.1,0,0,0,.05.18,6.54,6.54,0,0,0,3.57-.23A.13.13,0,0,0,447.77,428.67Z" transform="translate(-25 -25)"/><path class="cls-21" d="M413.23,416.41c.51-.15,1-.25,1.54-.37s1.11-.21,1.34-.66a.17.17,0,0,0-.07-.24c-.43-.3-1,0-1.49.1a3.26,3.26,0,0,0-1.43,1A.12.12,0,0,0,413.23,416.41Z" transform="translate(-25 -25)"/><path class="cls-21" d="M364,453.67c-1.11-.67-2.58.05-3.63.52-.11.05-.05.23.06.22,1.13-.07,2.58.14,3.57-.5A.14.14,0,0,0,364,453.67Z" transform="translate(-25 -25)"/><path class="cls-21" d="M349.79,458.45a5.05,5.05,0,0,0-4.09-1.5c-.08,0-.14.12-.05.17a24.15,24.15,0,0,0,4,1.54A.13.13,0,0,0,349.79,458.45Z" transform="translate(-25 -25)"/><path class="cls-21" d="M390.63,463.17a4.26,4.26,0,0,0-1.26,1.31,7.06,7.06,0,0,1-1.48,1.46.12.12,0,0,0,.09.22,5.26,5.26,0,0,0,1-.27,3.5,3.5,0,0,0,.93-.7,2.76,2.76,0,0,0,1-1.9A.14.14,0,0,0,390.63,463.17Z" transform="translate(-25 -25)"/><path class="cls-21" d="M390.73,456.71c-.08,0-.16.09-.09.14a9.5,9.5,0,0,0,3,2,.11.11,0,0,0,.13-.17A5.29,5.29,0,0,0,390.73,456.71Z" transform="translate(-25 -25)"/><path class="cls-21" d="M406.23,463.21a.09.09,0,0,0-.07.16c1.18.72,2.38,1.5,3.83,1.3.12,0,.12-.19,0-.24A11.46,11.46,0,0,0,406.23,463.21Z" transform="translate(-25 -25)"/><path class="cls-21" d="M413.14,440.29c0-.16-.25-.27-.35-.09a2.91,2.91,0,0,0,.83,3.74.17.17,0,0,0,.24-.19,15.31,15.31,0,0,0-.42-1.51A10.69,10.69,0,0,1,413.14,440.29Z" transform="translate(-25 -25)"/><path class="cls-21" d="M428.07,437.47a3.44,3.44,0,0,0-2.12-.54.11.11,0,0,0-.05.21,8.9,8.9,0,0,1,1.63,1l1.6,1.21a.11.11,0,0,0,.18-.11A2.7,2.7,0,0,0,428.07,437.47Z" transform="translate(-25 -25)"/><path class="cls-21" d="M435.9,442.7c-1.12.6-2.09,1.49-3.25,2-.09,0,0,.18.05.18a3.7,3.7,0,0,0,3.34-2.05A.1.1,0,0,0,435.9,442.7Z" transform="translate(-25 -25)"/><path class="cls-21" d="M435.63,432.8a3.29,3.29,0,0,0-2,.39.12.12,0,0,0,.06.22,10.11,10.11,0,0,1,2.26.26c.27.07.93.29.89-.23S436,432.84,435.63,432.8Z" transform="translate(-25 -25)"/><path class="cls-21" d="M432.15,423.32a2.9,2.9,0,0,0-.26-.9,5.1,5.1,0,0,0-.63-.91c0-.05-.14,0-.12.05a8,8,0,0,1,.12,1.76,12.94,12.94,0,0,1,0,2c0,.21.28.26.37.1A2.93,2.93,0,0,0,432.15,423.32Z" transform="translate(-25 -25)"/><path class="cls-21" d="M455.7,439.15c-.47,0-.92.51-1.23.8a17.84,17.84,0,0,1-1.31,1.3.06.06,0,0,0,.06.09,4.35,4.35,0,0,0,1.66-.74c.35-.3,1-.78,1-1.31A.15.15,0,0,0,455.7,439.15Z" transform="translate(-25 -25)"/><path class="cls-21" d="M428.15,457.94a22.32,22.32,0,0,1-4,2.28.08.08,0,0,0,0,.15,5.21,5.21,0,0,0,2.26-.47,3.17,3.17,0,0,0,1.84-1.8C428.34,458,428.25,457.87,428.15,457.94Z" transform="translate(-25 -25)"/><path class="cls-21" d="M411.9,432.37c-.45.06-.69.56-1,.85a7.74,7.74,0,0,1-1.28.93.17.17,0,0,0,.08.31,2.67,2.67,0,0,0,1.74-.54c.41-.31.95-.93.67-1.47A.18.18,0,0,0,411.9,432.37Z" transform="translate(-25 -25)"/><path class="cls-21" d="M409.09,421.29a15.54,15.54,0,0,0,0-2.26,12.27,12.27,0,0,0,0-2,.09.09,0,0,0-.16,0c-.72,1.12-1.06,3.42,0,4.39A.14.14,0,0,0,409.09,421.29Z" transform="translate(-25 -25)"/><path class="cls-21" d="M399.26,431.37a3.79,3.79,0,0,0-1.36.86c-.08.07,0,.17.09.13.95-.46,2.11-.18,3.05-.67a.17.17,0,0,0,0-.29A2.29,2.29,0,0,0,399.26,431.37Z" transform="translate(-25 -25)"/><path class="cls-21" d="M383.52,443.68c-1.24-.61-2.76.11-3.65,1a.12.12,0,0,0,.14.18,8,8,0,0,1,1.92-.57,4.57,4.57,0,0,0,1.59-.42A.13.13,0,0,0,383.52,443.68Z" transform="translate(-25 -25)"/><path class="cls-21" d="M368.38,452.75c-.05.07,0,.16.12.12.67-.38,1.6-.62,2.07-1.26a.14.14,0,0,0-.08-.2C369.6,451.18,368.79,452.07,368.38,452.75Z" transform="translate(-25 -25)"/><path class="cls-21" d="M365.13,462.62A17.26,17.26,0,0,1,363,462c-.07,0-.15.06-.1.12.78,1.07,3,2,4.19,1.07a.16.16,0,0,0,0-.25A8.08,8.08,0,0,0,365.13,462.62Z" transform="translate(-25 -25)"/><path class="cls-21" d="M352.67,455.74c-.06,0,0,.12.05.11.36-.05.72-.08,1.09-.14a2.67,2.67,0,0,0,1.22-.29.15.15,0,0,0,0-.26C354.31,454.64,353.3,455.39,352.67,455.74Z" transform="translate(-25 -25)"/><path class="cls-21" d="M342.78,457.33c-.38-.34-.88-.52-1.28-.84a.07.07,0,0,0-.1.1c.1.13.31.47.41.6a4.23,4.23,0,0,0,.56.56,7.51,7.51,0,0,0,1.28.89c.09.05.21-.06.15-.15A5.12,5.12,0,0,0,342.78,457.33Z" transform="translate(-25 -25)"/><path class="cls-21" d="M385.17,465.91a2.8,2.8,0,0,0-.87.42c-.38.21-.78.38-1.16.6-.11.06-.07.26.06.24.68-.09,1.94-.28,2.13-1.09A.14.14,0,0,0,385.17,465.91Z" transform="translate(-25 -25)"/><path class="cls-21" d="M396.85,465.56a16.66,16.66,0,0,0-1.62-.6.09.09,0,0,0-.09.14c.7.74,1.76,1.76,2.85,1.59a.15.15,0,0,0,.09-.22C397.81,466,397.37,465.8,396.85,465.56Z" transform="translate(-25 -25)"/><path class="cls-21" d="M394.6,450a.15.15,0,0,0-.29,0,5,5,0,0,0-.25,1.68,2.93,2.93,0,0,0,.28,1.68.13.13,0,0,0,.22,0,2.78,2.78,0,0,0,.28-1.68A4.78,4.78,0,0,0,394.6,450Z" transform="translate(-25 -25)"/><path class="cls-21" d="M407.84,447.9c.12.13.28,0,.26-.15a7.54,7.54,0,0,0-.41-1.55c-.18-.5-.47-.94-.67-1.43,0-.06-.15-.06-.14,0a12.05,12.05,0,0,0,.15,1.59A2.9,2.9,0,0,0,407.84,447.9Z" transform="translate(-25 -25)"/><path class="cls-21" d="M425.54,447.93a.16.16,0,0,0,0-.22c-.15-.33-.47-.37-.79-.48s-.88-.19-1.32-.3c-.13,0-.18.13-.08.21C423.88,447.51,424.91,448.28,425.54,447.93Z" transform="translate(-25 -25)"/><path class="cls-21" d="M422.38,434.67c-1,.43-1.55,1.51-2.27,2.28-.08.09,0,.27.13.22a4.83,4.83,0,0,0,1.44-.83,2.49,2.49,0,0,0,.91-1.55C422.6,434.68,422.47,434.64,422.38,434.67Z" transform="translate(-25 -25)"/><path class="cls-21" d="M429.14,430.52a2.36,2.36,0,0,0-.05,1.84.14.14,0,0,0,.23,0,2.45,2.45,0,0,0-.05-1.84C429.25,430.46,429.15,430.46,429.14,430.52Z" transform="translate(-25 -25)"/><path class="cls-21" d="M454.8,435.19c0,.19.06.41.05.6a.1.1,0,0,0,.19,0,1.93,1.93,0,0,0,.37-1.3,3.34,3.34,0,0,0-.37-1.3c-.05-.1-.2,0-.18.08a5.53,5.53,0,0,1,0,1.22C454.85,434.76,454.83,435,454.8,435.19Z" transform="translate(-25 -25)"/><path class="cls-21" d="M448.94,446.18l-1.26.28a.08.08,0,0,0,0,.16c.61.13,1.76.45,2.15-.25,0-.07,0-.17-.05-.2A1.16,1.16,0,0,0,448.94,446.18Z" transform="translate(-25 -25)"/><path class="cls-21" d="M414.48,463c-.11,0-.16.11-.08.18.57.41,1.48,1.12,2.14.5a.12.12,0,0,0,0-.18C416,462.92,415.14,463.12,414.48,463Z" transform="translate(-25 -25)"/><path class="cls-21" d="M405.07,456.51c-.11.47-.2.93-.29,1.4a6,6,0,0,0-.23,1.38.15.15,0,0,0,.23.14c1-.47.75-2.08.55-2.92A.14.14,0,0,0,405.07,456.51Z" transform="translate(-25 -25)"/><path class="cls-21" d="M387.17,453.22a4.42,4.42,0,0,0-.25.67c0,.15,0,.22.07.35s.14.23.09.12a.13.13,0,0,0,.19.05c-.09.06.12,0,.13,0a.44.44,0,0,0,.28-.27,1.56,1.56,0,0,0,.05-.88C387.66,452.91,387.27,453,387.17,453.22Z" transform="translate(-25 -25)"/><path class="cls-21" d="M348.75,460.72c-.07-.05-.17,0-.12.11a2.17,2.17,0,0,0,2.11,1.1c.1,0,.15-.18.07-.24A21.52,21.52,0,0,0,348.75,460.72Z" transform="translate(-25 -25)"/><path class="cls-21" d="M402.31,424.39c-.19.17.05.42.25.33a26.78,26.78,0,0,1,2.92-1.07c.1,0,.11-.19,0-.21A3.53,3.53,0,0,0,402.31,424.39Z" transform="translate(-25 -25)"/><path class="cls-7" d="M463.35,414.59a9.82,9.82,0,0,0-4.77,8.37.12.12,0,0,0,.24,0,46.65,46.65,0,0,1,1.71-4.58,20.9,20.9,0,0,1,2.87-3.76s0-.09,0-.06Z" transform="translate(-25 -25)"/><path class="cls-7" d="M458.66,416.91a4.25,4.25,0,0,0-1.21,4.24.09.09,0,0,0,.18,0c.44-1.38.47-2.84,1.13-4.16a.07.07,0,0,0-.1-.08Z" transform="translate(-25 -25)"/><path class="cls-7" d="M439.19,401.4c-3.68,1.32-5.78,5.85-5.4,9.56,0,.08.14.12.16,0a14.87,14.87,0,0,1,5.29-9.48c.05,0,0-.12-.05-.1Z" transform="translate(-25 -25)"/><path class="cls-7" d="M434,404.57a2.29,2.29,0,0,0-.86,2.41.09.09,0,0,0,.17,0c.31-.75.44-1.59.81-2.32a.08.08,0,0,0-.12-.09Z" transform="translate(-25 -25)"/><path class="cls-7" d="M448.67,409.23c-2.38,1.33-3.56,4.83-3.75,7.4,0,.11.16.15.22.05a22.67,22.67,0,0,0,1.51-3.5,26.61,26.61,0,0,1,2.11-3.85.07.07,0,0,0-.09-.1Z" transform="translate(-25 -25)"/><path class="cls-7" d="M425.25,399.32a21.07,21.07,0,0,1,2-3.19,32.13,32.13,0,0,1,2.89-2.57c.12-.12,0-.28-.17-.22-2.25,1-5,3.21-4.83,6a.06.06,0,0,0,.11,0Z" transform="translate(-25 -25)"/><path class="cls-7" d="M428.08,393.54a10.65,10.65,0,0,0,2-1.34A.1.1,0,0,0,430,392a2.61,2.61,0,0,0-2.08,1.39.09.09,0,0,0,.12.13Z" transform="translate(-25 -25)"/><path class="cls-7" d="M468,418.58c-2.18,1.82-2.95,4.95-2.71,7.71a.09.09,0,0,0,.18,0c.86-2.65.49-5.49,2.62-7.64.06-.06,0-.14-.09-.09Z" transform="translate(-25 -25)"/><path class="cls-7" d="M466.85,417.75a4.61,4.61,0,0,0-2.25,3c0,.09.1.2.18.11.76-1,1.28-2.15,2.12-3.05,0,0,0-.09,0-.07Z" transform="translate(-25 -25)"/><path class="cls-2" d="M456.31,291.2c-1.18-1.53-4.08-.17-5.49.19-3.8.95-7.59,1.93-11.39,2.87-2.7-2.38-5.4-4.79-8.09-7.19-1-.93-3.54-4.1-5.28-3.39s-1.39,3.82-1.49,5.31c-.27,3.9-.51,7.79-.78,11.68l-9.37,5.5c-1.36.8-5.06,2.08-4.81,4.17.21,1.71,3.43,2.37,4.62,2.85,3.61,1.45,7.22,2.88,10.82,4.34.78,3.47,1.53,6.94,2.29,10.42.38,1.71.45,5.2,2.37,6,1.63.67,3.6-2.63,4.32-3.5,2.46-2.93,4.89-5.88,7.35-8.8,3.52.33,7,.68,10.55,1,1.8.18,5,1.19,6.42-.44,1.1-1.3-1.49-4.3-2.06-5.2-2-3.21-4-6.4-6-9.61,1.46-3.39,2.94-6.76,4.42-10.14C455.25,296,457.46,292.69,456.31,291.2Z" transform="translate(-25 -25)"/><path class="cls-3" d="M455.78,295.1c-11.87,16-15.07,20.53-20.14,28-4.54,6.68-4.75,4.88-5.6-2.5-.75-6.57-2-7.63-7.77-8.11-3-.25-7.06-.37-11.86-.91a15.17,15.17,0,0,0,3.82,1.63c3.61,1.45,7.22,2.88,10.82,4.34.78,3.47,1.53,6.94,2.29,10.42.38,1.71.45,5.2,2.37,6,1.63.67,3.6-2.63,4.32-3.5,2.46-2.93,4.89-5.88,7.35-8.8,3.52.33,7,.68,10.55,1,1.8.18,5,1.19,6.42-.44,1.1-1.3-1.49-4.3-2.06-5.2-2-3.21-4-6.4-6-9.61,1.46-3.39,2.94-6.76,4.42-10.14C454.9,296.77,455.36,296,455.78,295.1Z" transform="translate(-25 -25)"/><path class="cls-10" d="M275.43,47.11c0-1.67-2.66-2.33-3.81-2.86-3.08-1.42-6.18-2.82-9.25-4.25q-.8-4.62-1.56-9.25c-.2-1.19-.16-4.69-1.72-5.15s-3,1.82-3.89,2.77c-2.3,2.48-4.58,5-6.88,7.46-3.1-.45-6.21-.91-9.31-1.38-1.35-.2-4.55-1.34-5.52.21-.78,1.26,1,3.46,1.58,4.43C236.71,42,238.37,45,240,47.9c-1.36,2.76-2.74,5.52-4.11,8.28-.68,1.36-2.53,3.76-1.66,5.34.73,1.33,3.86.17,4.82,0,3.25-.65,6.49-1.31,9.74-2,2.2,2.13,4.38,4.28,6.57,6.43,1.12,1.1,2.75,3.53,4.57,3.19,1.45-.28,1.33-3.71,1.44-4.63.38-3.25.75-6.52,1.14-9.77,2.83-1.5,5.66-3,8.5-4.44C272.12,49.75,275.4,48.74,275.43,47.11Z" transform="translate(-25 -25)"/><path class="cls-16" d="M273,49.46c-16.69,4.32-21.33,5.67-28.81,7.95-6.69,2-5.85.7-2.41-4.74,3.05-4.84,2.8-6.23-.84-9.7-1.89-1.79-4.58-4.08-7.52-7.06a13.42,13.42,0,0,0,1.7,3.18C236.71,42,238.37,45,240,47.9c-1.36,2.76-2.74,5.52-4.11,8.28-.68,1.36-2.53,3.76-1.66,5.34.73,1.33,3.86.17,4.82,0,3.25-.65,6.49-1.31,9.74-2,2.2,2.13,4.38,4.28,6.57,6.43,1.12,1.1,2.75,3.53,4.57,3.19,1.45-.28,1.33-3.71,1.44-4.63.38-3.25.75-6.52,1.14-9.77,2.83-1.5,5.66-3,8.5-4.44C271.44,50.1,272.19,49.82,273,49.46Z" transform="translate(-25 -25)"/><path class="cls-20" d="M175.9,474.93l128-13.19c15.39-1.59,12.94-25.46-2.46-23.88l-128,13.19c-15.39,1.59-12.93,25.46,2.46,23.88Z" transform="translate(-25 -25)"/><rect class="cls-2" x="211.62" y="453.56" width="12.09" height="10" transform="translate(-70.81 -0.3) rotate(-5.88)"/><rect class="cls-2" x="183.58" y="456.45" width="12.09" height="10" transform="translate(-71.25 -3.16) rotate(-5.88)"/><rect class="cls-2" x="239.66" y="450.67" width="12.09" height="10" transform="translate(-70.43 2.6) rotate(-5.89)"/><rect class="cls-2" x="197.6" y="455" width="12.09" height="10" transform="matrix(0.99, -0.1, 0.1, 0.99, -71.1, -1.69)"/><rect class="cls-2" x="225.64" y="452.12" width="12.09" height="10" transform="translate(-70.59 1.12) rotate(-5.88)"/><path class="cls-2" d="M181.11,457.3l-7,.72c-4.14.42-4.22,4-4.07,5.44s1,4.93,5.09,4.5l6.95-.71Z" transform="translate(-25 -25)"/><rect class="cls-2" x="253.68" y="449.23" width="12.09" height="10" transform="translate(-70.21 4.03) rotate(-5.89)"/><path class="cls-8" d="M302.21,444.83l-6.95.71,1,9.95,7-.71c4.14-.43,4.23-4,4.07-5.45S306.34,444.4,302.21,444.83Z" transform="translate(-25 -25)"/><rect class="cls-8" x="267.7" y="447.78" width="12.09" height="10" transform="translate(-69.92 5.41) rotate(-5.88)"/><rect class="cls-8" x="281.72" y="446.34" width="12.09" height="10" transform="translate(-69.7 6.84) rotate(-5.88)"/><path class="cls-20" d="M181,434.35l.86,8.35-2.29.24-.1-1a2.85,2.85,0,0,1-2.3,1.37c-2,.21-3.26-1-3.5-3.33l-.51-4.86,2.37-.25.49,4.8c.12,1.2.78,1.7,1.67,1.61s1.57-.75,1.43-2.05l-.48-4.68Z" transform="translate(-25 -25)"/><path class="cls-20" d="M190.33,438.56a3.16,3.16,0,0,1-2.83,3.67,2.41,2.41,0,0,1-1.87-.5l.3,2.89-2.27.23-.91-8.78,2.16-.22.07.65a2.32,2.32,0,0,1,1.83-.95A3.15,3.15,0,0,1,190.33,438.56Zm-2.29.24a1.38,1.38,0,1,0-1.2,1.68A1.38,1.38,0,0,0,188,438.8Z" transform="translate(-25 -25)"/><path class="cls-20" d="M191.48,439.42l-.68-6.59,2.27-.23.67,6.47a.65.65,0,0,0,.78.66,1.34,1.34,0,0,0,.5-.17l.27,1.7a3.39,3.39,0,0,1-1,.27A2.24,2.24,0,0,1,191.48,439.42Z" transform="translate(-25 -25)"/><path class="cls-20" d="M195.25,438a3.68,3.68,0,1,1,4,3A3.39,3.39,0,0,1,195.25,438Zm5-.52a1.38,1.38,0,1,0-2.72.29,1.38,1.38,0,1,0,2.72-.29Z" transform="translate(-25 -25)"/><path class="cls-20" d="M210.11,433.26l.67,6.46-2.16.22-.07-.64a2.34,2.34,0,0,1-1.83.95,3.36,3.36,0,0,1-.69-6.68,2.4,2.4,0,0,1,1.87.48l-.06-.56Zm-1.9,3.45a1.38,1.38,0,1,0-2.72.28,1.38,1.38,0,1,0,2.72-.28Z" transform="translate(-25 -25)"/><path class="cls-20" d="M218.2,430l.91,8.85-2.16.23-.07-.65a2.32,2.32,0,0,1-1.82.95,3.36,3.36,0,0,1-.69-6.68,2.34,2.34,0,0,1,1.86.48l-.3-2.94Zm-1.66,5.84a1.37,1.37,0,1,0-2.71.28,1.37,1.37,0,1,0,2.71-.28Z" transform="translate(-25 -25)"/><path class="cls-20" d="M219.45,430.35a1.25,1.25,0,0,1,1.26-1.34,1.23,1.23,0,0,1,1.51,1,1.4,1.4,0,0,1-2.77.32Zm.45,1.9,2.27-.23.66,6.46-2.26.23Z" transform="translate(-25 -25)"/><path class="cls-20" d="M230.81,433.92l.38,3.7-2.27.23-.34-3.32c-.1-.93-.54-1.29-1.2-1.22s-1.24.59-1.13,1.66l.32,3.13-2.27.23-.66-6.47,2.16-.22.07.7a2.79,2.79,0,0,1,2-1A2.55,2.55,0,0,1,230.81,433.92Z" transform="translate(-25 -25)"/><path class="cls-20" d="M239,430.28l.54,5.29c.25,2.44-1,3.74-3.42,4a5.71,5.71,0,0,1-3.3-.52l.66-1.67a3.72,3.72,0,0,0,2.26.47c1.21-.13,1.67-.73,1.56-1.74l0-.22a2.45,2.45,0,0,1-1.84,1,3.14,3.14,0,1,1-.64-6.24,2.35,2.35,0,0,1,2.12.68l-.08-.79Zm-1.94,3.24a1.42,1.42,0,0,0-2.82.29,1.42,1.42,0,0,0,2.82-.29Z" transform="translate(-25 -25)"/><path class="cls-20" d="M240.59,435.4a1.37,1.37,0,0,1,2.72-.28,1.37,1.37,0,0,1-2.72.28Z" transform="translate(-25 -25)"/><path class="cls-20" d="M244,435.05a1.37,1.37,0,0,1,2.72-.28,1.37,1.37,0,0,1-2.72.28Z" transform="translate(-25 -25)"/><path class="cls-20" d="M247.35,434.7a1.28,1.28,0,0,1,1.22-1.47,1.3,1.3,0,0,1,1.5,1.19,1.37,1.37,0,0,1-2.72.28Z" transform="translate(-25 -25)"/><path class="cls-18" d="M461.52,350.4c-5.1,1.42-10.2,2.8-15.29,4.23-2.8.78-5.65,1.55-8.47,2.41-4,1.21-5.56,1.84-1.12-2.22q8.48-7.77,16.63-15.89c4.29-4.29,4.56-4.45-.54-1.44C441.78,344,431,350.86,420.5,358c-3.05,2.08-2.66,2.71-1.95,5.59s2.21,7.65-1,13.13c-1.88,3.24-1.22,3.45,2.41,2.46,13.63-3.7,27.36-7.16,41.15-10.22,4.84-1.09,4.85-1.19-.05-1-7,.26-13.95.72-20.92,1.21-4.7.33-4.19.06,0-2.56,7.4-4.63,14.85-9.25,21.93-14.32C466.43,349.2,466.5,349,461.52,350.4Z" transform="translate(-25 -25)"/><path class="cls-10" d="M117.58,50.75A293.24,293.24,0,0,0,95.17,29.56c-1-.82-1-.7-.34.39,4.35,7.07,8.39,14.35,13,21.26.65,1,.75,1.15-.41.47-12.58-7.41-25.08-15-37.91-22-1.4-.76-1.51-.58-.37.56C76.9,38,92.58,52.89,102.19,62.43c3.37,3.34,1.63,2.05-1,1.18C90.77,60.12,72.33,53.88,69,53.06c-2-.49-2-.36-.17.5C76.45,57,84,60.64,91.53,64.17c7.72,3.61,15.42,7.46,23.39,10.49.78.3.87.35.57-.46A35.07,35.07,0,0,1,113,63c-.14-4.67,1.56-8,4.62-11.26C118.06,51.24,118.06,51.24,117.58,50.75Z" transform="translate(-25 -25)"/><path class="cls-23" d="M156.16,374.5a6.07,6.07,0,0,0-5.94-4.4,5.92,5.92,0,0,0-4.07,1.69,5.77,5.77,0,0,0,0,8.16l1.17.9a6,6,0,0,0,.72.35,5.72,5.72,0,0,0,6.64-1.06A5.9,5.9,0,0,0,156.16,374.5Z" transform="translate(-25 -25)"/><path class="cls-24" d="M154.68,380.14a5.9,5.9,0,0,0,1.48-5.64l-.08-.26c-.46,2.49-2.11,4.69-4.79,5a5.38,5.38,0,0,1-5.62-3.32,5.47,5.47,0,0,1,0-3.55,5.75,5.75,0,0,0,.49,7.59l1.17.9a6,6,0,0,0,.72.35,5.72,5.72,0,0,0,6.64-1.06Z" transform="translate(-25 -25)"/><path class="cls-23" d="M472.63,145.84a5.72,5.72,0,1,1-5.72-5.72A5.77,5.77,0,0,1,472.63,145.84Z" transform="translate(-25 -25)"/><path class="cls-24" d="M472.63,145.84a5.59,5.59,0,0,0-.32-1.83,5.47,5.47,0,0,1-4.39,5.35c-4.21,1-5.93-3.11-5.8-6.6a5.69,5.69,0,0,0-.93,3.08,5.72,5.72,0,1,0,11.44,0Z" transform="translate(-25 -25)"/><path class="cls-23" d="M51.38,41.83l-.51-.1a5.54,5.54,0,0,0-6.71,6.71c0,.17.07.34.1.51.84,4.38,6.78,5.45,9.67,2.55S55.76,42.67,51.38,41.83Z" transform="translate(-25 -25)"/><path class="cls-24" d="M55.06,44.93a5.52,5.52,0,0,1-.94,2.79,6,6,0,0,1-4.3,2.57,4.33,4.33,0,0,1-4.23-2.16c-1.13-1.77-.69-3.22-.13-4.75a5.73,5.73,0,0,0-1.3,5.06c0,.17.07.34.1.51.84,4.38,6.78,5.45,9.67,2.55A6.13,6.13,0,0,0,55.06,44.93Z" transform="translate(-25 -25)"/><path class="cls-23" d="M168.58,125.56a5.76,5.76,0,0,1-2.52-1.48l0,0L166,124a5.71,5.71,0,0,1-1.47-2.54,5.64,5.64,0,0,1,0-3,5.73,5.73,0,0,1,9.59-2.53L175,117a.54.54,0,0,1,.07.13,5.73,5.73,0,0,1,.79,2.89l-.21,1.52a5.73,5.73,0,0,1-7,4Z" transform="translate(-25 -25)"/><path class="cls-23" d="M165.81,123.76c-.22-.27-.43-.55-.65-.84l0,0Z" transform="translate(-25 -25)"/><path class="cls-24" d="M166,124l0,0a5.72,5.72,0,0,0,9.56-2.52l.21-1.52a5.75,5.75,0,0,0-.47-2.26c-.09,3-1.64,5.72-5.16,5.1-4.32-.77-4.62-5.07-2.78-8.08l-.3.16a5.75,5.75,0,0,0-2.64,3.43,5.64,5.64,0,0,0,0,3A5.71,5.71,0,0,0,166,124Zm-.89-1.16,0,0c.22.29.43.57.65.84Z" transform="translate(-25 -25)"/><path class="cls-23" d="M337.38,431.45a5.77,5.77,0,1,0-5.76,5.77A5.82,5.82,0,0,0,337.38,431.45Z" transform="translate(-25 -25)"/><path class="cls-24" d="M337.38,431.45a5.65,5.65,0,0,0-.52-2.35,5.51,5.51,0,0,1-4.53,5.06,4.07,4.07,0,0,1-4.41-2c-1-1.75-.52-3.61.31-5.31a5.76,5.76,0,1,0,9.15,4.64Z" transform="translate(-25 -25)"/><path class="cls-28" d="M47.82,167.08a6.05,6.05,0,0,0-5.93-4.39,5.88,5.88,0,0,0-4.08,1.69,5.78,5.78,0,0,0,0,8.15l1.17.9a5.49,5.49,0,0,0,.73.36,5.74,5.74,0,0,0,6.63-1.07A5.87,5.87,0,0,0,47.82,167.08Z" transform="translate(-25 -25)"/><path class="cls-25" d="M46.34,172.72a5.87,5.87,0,0,0,1.48-5.64,2.41,2.41,0,0,0-.08-.25c-.45,2.49-2.11,4.69-4.78,5a5.18,5.18,0,0,1-5.63-6.88,5.77,5.77,0,0,0,.48,7.59l1.17.9a5.49,5.49,0,0,0,.73.36,5.74,5.74,0,0,0,6.63-1.07Z" transform="translate(-25 -25)"/><path class="cls-28" d="M395.06,409.14a5.72,5.72,0,1,1-5.72-5.72A5.77,5.77,0,0,1,395.06,409.14Z" transform="translate(-25 -25)"/><path class="cls-25" d="M395.06,409.14a5.65,5.65,0,0,0-.32-1.84,5.47,5.47,0,0,1-4.4,5.35c-4.2,1-5.93-3.1-5.79-6.59a5.56,5.56,0,0,0-.93,3.08,5.72,5.72,0,0,0,11.44,0Z" transform="translate(-25 -25)"/><path class="cls-28" d="M74.46,309l-.51-.1a5.53,5.53,0,0,0-6.7,6.71l.09.51c.85,4.38,6.78,5.45,9.68,2.55S78.84,309.87,74.46,309Z" transform="translate(-25 -25)"/><path class="cls-25" d="M78.14,312.13a5.59,5.59,0,0,1-.93,2.79,6,6,0,0,1-4.3,2.57,4.34,4.34,0,0,1-4.24-2.16c-1.13-1.77-.69-3.23-.13-4.76a5.78,5.78,0,0,0-1.29,5.07l.09.51c.85,4.38,6.78,5.45,9.68,2.55A6.13,6.13,0,0,0,78.14,312.13Z" transform="translate(-25 -25)"/><path class="cls-28" d="M328.54,38.81A5.76,5.76,0,0,1,326,37.33l0,0-.07-.06a5.73,5.73,0,0,1-1.48-2.54,5.74,5.74,0,0,1,7.06-7.06A5.73,5.73,0,0,1,334,29.11c.29.39.6.77.89,1.16a.57.57,0,0,1,.08.13,5.62,5.62,0,0,1,.78,2.89l-.21,1.52a5.73,5.73,0,0,1-7,4Z" transform="translate(-25 -25)"/><path class="cls-28" d="M325.77,37l-.64-.84,0,0Z" transform="translate(-25 -25)"/><path class="cls-25" d="M326,37.29l0,0a5.72,5.72,0,0,0,9.56-2.52l.21-1.52a5.58,5.58,0,0,0-.47-2.26c-.09,2.95-1.63,5.72-5.16,5.09-4.31-.76-4.62-5.06-2.77-8.07l-.31.16a5.74,5.74,0,0,0-2.64,6.48,5.73,5.73,0,0,0,1.48,2.54Zm-.9-1.16,0,0,.64.84Z" transform="translate(-25 -25)"/><path class="cls-28" d="M425.05,126.89a5.77,5.77,0,1,0-5.76,5.76A5.82,5.82,0,0,0,425.05,126.89Z" transform="translate(-25 -25)"/><path class="cls-25" d="M425.05,126.89a5.69,5.69,0,0,0-.52-2.36A5.52,5.52,0,0,1,420,129.6a4.08,4.08,0,0,1-4.41-2c-1-1.74-.53-3.6.31-5.3a5.75,5.75,0,1,0,9.15,4.64Z" transform="translate(-25 -25)"/><path class="cls-14" d="M466.74,388.33a6,6,0,0,0-5.93-4.39,5.76,5.76,0,0,0-4.07,9.84l1.16.9a5.42,5.42,0,0,0,.73.35,5.53,5.53,0,0,0,2.53.62,5.63,5.63,0,0,0,4.11-1.68A5.89,5.89,0,0,0,466.74,388.33Z" transform="translate(-25 -25)"/><path class="cls-30" d="M465.27,394a5.89,5.89,0,0,0,1.47-5.64c0-.09-.05-.17-.07-.25-.46,2.48-2.12,4.69-4.79,5a5.17,5.17,0,0,1-5.63-6.87,5.75,5.75,0,0,0,.49,7.59l1.16.9a5.42,5.42,0,0,0,.73.35,5.53,5.53,0,0,0,2.53.62A5.63,5.63,0,0,0,465.27,394Z" transform="translate(-25 -25)"/><path class="cls-14" d="M289.48,60.94a5.72,5.72,0,1,1-5.71-5.72A5.77,5.77,0,0,1,289.48,60.94Z" transform="translate(-25 -25)"/><path class="cls-30" d="M289.48,60.94a5.64,5.64,0,0,0-.31-1.84,5.46,5.46,0,0,1-4.4,5.35c-4.2,1-5.93-3.1-5.79-6.59a5.58,5.58,0,0,0-.93,3.08,5.72,5.72,0,1,0,11.43,0Z" transform="translate(-25 -25)"/><path class="cls-14" d="M47.73,412.42l-.51-.1A5.54,5.54,0,0,0,40.51,419c0,.17.07.34.1.51.84,4.38,6.78,5.45,9.67,2.55S52.1,413.26,47.73,412.42Z" transform="translate(-25 -25)"/><path class="cls-30" d="M51.41,415.52a5.61,5.61,0,0,1-.94,2.79,6,6,0,0,1-4.3,2.57,4.33,4.33,0,0,1-4.23-2.16c-1.14-1.77-.69-3.23-.14-4.75A5.75,5.75,0,0,0,40.51,419c0,.17.07.34.1.51.84,4.38,6.78,5.45,9.67,2.55A6.13,6.13,0,0,0,51.41,415.52Z" transform="translate(-25 -25)"/><path class="cls-14" d="M453,169.94a5.73,5.73,0,0,1-2.53-1.47l0,0a.23.23,0,0,0-.07-.07,5.73,5.73,0,0,1-1.47-2.53,5.64,5.64,0,0,1,0-3.05,5.74,5.74,0,0,1,9.59-2.54l.9,1.16a.83.83,0,0,1,.07.13,5.65,5.65,0,0,1,.78,2.89c-.06.51-.13,1-.2,1.52a5.73,5.73,0,0,1-7,4Z" transform="translate(-25 -25)"/><path class="cls-14" d="M450.26,168.15l-.65-.84,0,0Z" transform="translate(-25 -25)"/><path class="cls-30" d="M450.47,168.43l0,0a5.73,5.73,0,0,0,9.57-2.53c.07-.51.14-1,.2-1.52a5.56,5.56,0,0,0-.46-2.25c-.09,2.94-1.64,5.71-5.16,5.09-4.32-.77-4.62-5.06-2.78-8.07a2.85,2.85,0,0,0-.3.16,5.72,5.72,0,0,0-2.64,3.43,5.64,5.64,0,0,0,0,3.05,5.73,5.73,0,0,0,1.47,2.53A.23.23,0,0,1,450.47,168.43Zm-.89-1.16,0,0,.65.84Z" transform="translate(-25 -25)"/><path class="cls-14" d="M111.27,251.27A5.77,5.77,0,1,0,105.5,257,5.82,5.82,0,0,0,111.27,251.27Z" transform="translate(-25 -25)"/><path class="cls-30" d="M111.27,251.27a5.65,5.65,0,0,0-.52-2.35,5.51,5.51,0,0,1-4.54,5.06,4.05,4.05,0,0,1-4.4-2c-1-1.75-.53-3.61.31-5.3a5.75,5.75,0,0,0-2.38,4.63,5.77,5.77,0,1,0,11.53,0Z" transform="translate(-25 -25)"/><path class="cls-2" d="M173.92,393.92a6,6,0,0,0-5.93-4.39,5.87,5.87,0,0,0-4.08,1.68,5.77,5.77,0,0,0,0,8.16l1.17.9a6.82,6.82,0,0,0,.72.35,5.72,5.72,0,0,0,6.64-1.06A5.87,5.87,0,0,0,173.92,393.92Z" transform="translate(-25 -25)"/><path class="cls-3" d="M172.44,399.56a5.87,5.87,0,0,0,1.48-5.64,1.83,1.83,0,0,0-.08-.25c-.46,2.48-2.11,4.69-4.79,5a5.38,5.38,0,0,1-5.62-3.32,5.47,5.47,0,0,1,0-3.55,5.75,5.75,0,0,0,.49,7.59l1.17.9a6.82,6.82,0,0,0,.72.35,5.72,5.72,0,0,0,6.64-1.06Z" transform="translate(-25 -25)"/><path class="cls-2" d="M449.09,272.22a5.72,5.72,0,1,1-5.72-5.72A5.77,5.77,0,0,1,449.09,272.22Z" transform="translate(-25 -25)"/><path class="cls-3" d="M449.09,272.22a5.34,5.34,0,0,0-.32-1.83,5.45,5.45,0,0,1-4.39,5.34c-4.21,1-5.93-3.1-5.8-6.59a5.67,5.67,0,0,0-.93,3.08,5.72,5.72,0,1,0,11.44,0Z" transform="translate(-25 -25)"/><path class="cls-2" d="M399,48.5l-.51-.1a5.54,5.54,0,0,0-6.71,6.71c0,.17.07.34.1.51.84,4.37,6.78,5.44,9.67,2.55S403.36,49.34,399,48.5Z" transform="translate(-25 -25)"/><path class="cls-3" d="M402.67,51.59a5.55,5.55,0,0,1-.94,2.8,6,6,0,0,1-4.3,2.57,4.36,4.36,0,0,1-4.23-2.16c-1.14-1.78-.69-3.23-.14-4.76a5.78,5.78,0,0,0-1.29,5.07c0,.17.07.34.1.51.84,4.37,6.78,5.44,9.67,2.55A6.14,6.14,0,0,0,402.67,51.59Z" transform="translate(-25 -25)"/><path class="cls-2" d="M347.15,419.64a5.73,5.73,0,0,1-2.53-1.47l0,0a.46.46,0,0,0-.07-.07,5.74,5.74,0,0,1,5.58-9.59,5.73,5.73,0,0,1,2.54,1.48l.9,1.16a.54.54,0,0,1,.07.13,5.62,5.62,0,0,1,.78,2.89c-.07.5-.14,1-.2,1.51a5.71,5.71,0,0,1-7,4Z" transform="translate(-25 -25)"/><path class="cls-2" d="M344.37,417.85l-.64-.84,0,0Z" transform="translate(-25 -25)"/><path class="cls-3" d="M344.59,418.13l0,0a5.72,5.72,0,0,0,9.57-2.53c.06-.5.13-1,.2-1.51a5.74,5.74,0,0,0-.46-2.26c-.09,2.94-1.64,5.72-5.17,5.09-4.31-.76-4.62-5.06-2.77-8.07l-.31.16a5.73,5.73,0,0,0-1.16,9A.46.46,0,0,1,344.59,418.13Zm-.9-1.16,0,0,.64.84Z" transform="translate(-25 -25)"/><path class="cls-2" d="M168.17,148.13a5.77,5.77,0,1,0-5.77,5.76A5.82,5.82,0,0,0,168.17,148.13Z" transform="translate(-25 -25)"/><path class="cls-3" d="M168.17,148.13a5.61,5.61,0,0,0-.52-2.35,5.51,5.51,0,0,1-4.54,5.06,4.05,4.05,0,0,1-4.4-2c-1-1.75-.53-3.61.31-5.31a5.75,5.75,0,1,0,9.15,4.64Z" transform="translate(-25 -25)"/></svg>