<svg xmlns="http://www.w3.org/2000/svg" xmlns:xlink="http://www.w3.org/1999/xlink" viewBox="0 0 179.51 140.24"><defs><style>.cls-1{fill:#3b0765;}.cls-2{fill:url(#linear-gradient);}</style><linearGradient id="linear-gradient" y1="70.12" x2="179.51" y2="70.12" gradientUnits="userSpaceOnUse"><stop offset="0" stop-color="#00ffa3"/><stop offset="1" stop-color="#00ffe3"/></linearGradient></defs><title>Asset 3</title><g id="Layer_2" data-name="Layer 2"><g id="Layer_1-2" data-name="Layer 1"><path class="cls-1" d="M154,0H116.78L103,13.77H76.5L62.73,0H25.5L0,108.63v31.61H55.08l9.18-41.81h51l9.18,41.81h55.08V108.63Zm11.22,123.92h-25.5L128.51,86.19H51L39.78,123.92H14.28V109.65L36.72,13.77h20.4L71.91,28.56h35.7l14.78-14.79h20.4l22.44,95.88Z"/><polygon class="cls-1" points="54.83 64.63 54.36 33.23 62.33 38.38 61.86 69.79 54.83 64.63"/><polygon class="cls-1" points="45.22 47.99 76.62 47.52 71.47 55.49 40.06 55.02 45.22 47.99"/><polygon class="cls-1" points="116.52 36.42 125.34 35.88 123.89 45.01 115.07 44.47 116.52 36.42"/><polygon class="cls-1" points="127.58 47.48 136.4 46.95 134.95 56.07 126.13 55.53 127.58 47.48"/><polygon class="cls-1" points="116.52 58.54 125.34 58.01 123.89 67.13 115.07 66.59 116.52 58.54"/><polygon class="cls-1" points="105.46 47.48 114.28 46.95 112.83 56.07 104.01 55.53 105.46 47.48"/><path class="cls-2" d="M154,0H116.78L103,13.77H76.5L62.73,0H25.5L0,108.63v31.61H55.08l9.18-41.81h51l9.18,41.81h55.08V108.63Zm11.22,123.92h-25.5L128.51,86.19H51L39.78,123.92H14.28V109.65L36.72,13.77h20.4L71.91,28.56h35.7l14.78-14.79h20.4l22.44,95.88Z"/><polygon class="cls-2" points="54.83 64.63 54.36 33.23 62.33 38.38 61.86 69.79 54.83 64.63"/><polygon class="cls-2" points="45.22 47.99 76.62 47.52 71.47 55.49 40.06 55.02 45.22 47.99"/><polygon class="cls-2" points="116.52 36.42 125.34 35.88 123.89 45.01 115.07 44.47 116.52 36.42"/><polygon class="cls-2" points="127.58 47.48 136.4 46.95 134.95 56.07 126.13 55.53 127.58 47.48"/><polygon class="cls-2" points="116.52 58.54 125.34 58.01 123.89 67.13 115.07 66.59 116.52 58.54"/><polygon class="cls-2" points="105.46 47.48 114.28 46.95 112.83 56.07 104.01 55.53 105.46 47.48"/></g></g></svg>