<svg id="Layer_1" data-name="Layer 1" xmlns="http://www.w3.org/2000/svg" viewBox="0 0 946.11 140.24"><defs><style>.cls-1{fill:#fff;}</style></defs><title>Multroic logo white</title><path class="cls-1" d="M191.9,393.88H154.67L140.9,407.65H114.38l-13.77-13.77H63.38L37.89,502.5v31.62H93l9.18-41.82h51l9.18,41.82H217.4V502.5ZM203.12,517.8h-25.5L166.4,480.06H88.88L77.66,517.8H52.16V503.52L74.6,407.65H95l14.79,14.79h35.7l14.79-14.79h20.4l22.44,95.87Z" transform="translate(-37.89 -393.88)"/><polygon class="cls-1" points="54.83 64.63 54.36 33.23 62.33 38.38 61.86 69.79 54.83 64.63"/><polygon class="cls-1" points="45.22 47.99 76.62 47.52 71.47 55.49 40.06 55.02 45.22 47.99"/><polygon class="cls-1" points="116.52 36.42 125.34 35.88 123.89 45.01 115.07 44.47 116.52 36.42"/><polygon class="cls-1" points="127.58 47.48 136.4 46.95 134.95 56.07 126.13 55.53 127.58 47.48"/><polygon class="cls-1" points="116.52 58.54 125.34 58.01 123.89 67.13 115.07 66.59 116.52 58.54"/><polygon class="cls-1" points="105.46 47.48 114.28 46.95 112.83 56.07 104.01 55.53 105.46 47.48"/><path class="cls-1" d="M245.72,499.65V406.49h21.69L306,469.84H294.56l37.53-63.35h21.69l.27,93.16H329.83l-.27-56.29h4.13l-28.08,47.11H293.9L265,443.36h5.06v56.29Z" transform="translate(-37.89 -393.88)"/><path class="cls-1" d="M415.67,501.52q-20.64,0-32.21-11.32t-11.58-32.07V406.49h26.35v50.84q0,12,4.73,17.17t13,5.19q8.25,0,12.91-5.19t4.66-17.17V406.49h25.95v51.64q0,20.76-11.58,32.07T415.67,501.52Z" transform="translate(-37.89 -393.88)"/><path class="cls-1" d="M477.28,499.65V406.49h26.35v72.27h44.45v20.89Z" transform="translate(-37.89 -393.88)"/><path class="cls-1" d="M569.64,499.65V427.39H541v-20.9h83.44v20.9H596v72.26Z" transform="translate(-37.89 -393.88)"/><path class="cls-1" d="M634.32,499.65V406.49h42.59q12.78,0,22,4.13a32.18,32.18,0,0,1,14.31,11.91A33.11,33.11,0,0,1,718.3,441a30.93,30.93,0,0,1-19.37,29.88q-9.24,4.07-22,4.06H649l11.71-11v35.8Zm26.35-33L649,454.54h26.35q8.25,0,12.31-3.6t4.06-10c0-4.34-1.35-7.72-4.06-10.11s-6.81-3.59-12.31-3.59H649l11.71-12.11Zm31.28,33-23.16-33.93h28.08l23.29,33.93Z" transform="translate(-37.89 -393.88)"/><path class="cls-1" d="M779.78,501.52a57.5,57.5,0,0,1-20.63-3.6,48.94,48.94,0,0,1-16.43-10.18,46.65,46.65,0,0,1-10.85-15.37,50.16,50.16,0,0,1,0-38.59,46.65,46.65,0,0,1,10.85-15.37,48.78,48.78,0,0,1,16.43-10.18,61.08,61.08,0,0,1,41.32,0,48,48,0,0,1,27.15,25.55,46.69,46.69,0,0,1,3.93,19.29,46.91,46.91,0,0,1-14.77,34.74,49,49,0,0,1-16.31,10.11A57.29,57.29,0,0,1,779.78,501.52Zm0-21.83a26.12,26.12,0,0,0,9.91-1.86,22.9,22.9,0,0,0,8-5.39A25.33,25.33,0,0,0,803,464a32,32,0,0,0,0-21.9,25.52,25.52,0,0,0-5.32-8.38,22.9,22.9,0,0,0-8-5.39,27.33,27.33,0,0,0-19.82,0,22.81,22.81,0,0,0-8,5.39,25.52,25.52,0,0,0-5.32,8.38,32,32,0,0,0,0,21.9,25.33,25.33,0,0,0,5.32,8.45,22.81,22.81,0,0,0,8,5.39A26.12,26.12,0,0,0,779.78,479.69Z" transform="translate(-37.89 -393.88)"/><path class="cls-1" d="M845.39,499.65V406.49h26.35v93.16Z" transform="translate(-37.89 -393.88)"/><path class="cls-1" d="M937,501.52A57.6,57.6,0,0,1,916.52,498a47.42,47.42,0,0,1-16.24-10.05,46.66,46.66,0,0,1-10.71-15.37,51.16,51.16,0,0,1,0-39,46.66,46.66,0,0,1,10.71-15.37,47.42,47.42,0,0,1,16.24-10A57.6,57.6,0,0,1,937,404.63,56.27,56.27,0,0,1,960,409.16a44.35,44.35,0,0,1,17,13l-16.77,15.17a33.12,33.12,0,0,0-9.92-8.12,25.8,25.8,0,0,0-12-2.79,28.85,28.85,0,0,0-10.52,1.86,22.5,22.5,0,0,0-8.18,5.39,25.33,25.33,0,0,0-5.32,8.45,31.83,31.83,0,0,0,0,21.83,25.33,25.33,0,0,0,5.32,8.45,22.5,22.5,0,0,0,8.18,5.39,28.85,28.85,0,0,0,10.52,1.86,25.8,25.8,0,0,0,12-2.79,33.12,33.12,0,0,0,9.92-8.12L977,484a45.59,45.59,0,0,1-17,13A55.47,55.47,0,0,1,937,501.52Z" transform="translate(-37.89 -393.88)"/><polygon class="cls-1" points="939.24 140.24 207.77 140.24 214.65 122.37 946.12 122.37 939.24 140.24"/></svg>