<svg id="Layer_1" data-name="Layer 1" xmlns="http://www.w3.org/2000/svg" xmlns:xlink="http://www.w3.org/1999/xlink" viewBox="0 0 946.11 140.24"><defs><style>.cls-1{fill:#fff;}.cls-2{fill:url(#linear-gradient);}</style><linearGradient id="linear-gradient" y1="70.12" x2="946.12" y2="70.12" gradientUnits="userSpaceOnUse"><stop offset="0" stop-color="#00ffa8"/><stop offset="1" stop-color="#00ffe7"/></linearGradient></defs><title>Multroic logo gradient</title><path class="cls-1" d="M154,0H116.78L103,13.77H76.49L62.72,0H25.49L0,108.62v31.62H55.11l9.18-41.82h51l9.18,41.82h55V108.62Zm11.22,123.92h-25.5L128.51,86.18H51L39.77,123.92H14.27V109.64L36.71,13.77h20.4L71.9,28.56h35.7l14.79-14.79h20.4l22.44,95.87Z"/><polygon class="cls-1" points="54.83 64.63 54.36 33.23 62.33 38.38 61.86 69.79 54.83 64.63"/><polygon class="cls-1" points="45.22 47.99 76.62 47.52 71.47 55.49 40.06 55.02 45.22 47.99"/><polygon class="cls-1" points="116.52 36.42 125.34 35.88 123.89 45.01 115.07 44.47 116.52 36.42"/><polygon class="cls-1" points="127.58 47.48 136.4 46.95 134.95 56.07 126.13 55.53 127.58 47.48"/><polygon class="cls-1" points="116.52 58.54 125.34 58.01 123.89 67.13 115.07 66.59 116.52 58.54"/><polygon class="cls-1" points="105.46 47.48 114.28 46.95 112.83 56.07 104.01 55.53 105.46 47.48"/><path class="cls-1" d="M207.83,105.77V12.61h21.69L268.11,76H256.67L294.2,12.61h21.69l.27,93.16H291.94l-.27-56.29h4.13L267.72,96.59H256l-28.9-47.11h5.06v56.29Z"/><path class="cls-1" d="M377.78,107.64q-20.64,0-32.21-11.32T334,64.25V12.61h26.35V63.45q0,12,4.73,17.17t13,5.19q8.25,0,12.91-5.19t4.66-17.17V12.61h25.95V64.25Q421.59,85,410,96.32T377.78,107.64Z"/><path class="cls-1" d="M439.39,105.77V12.61h26.35V84.88h44.45v20.89Z"/><path class="cls-1" d="M531.75,105.77V33.51H503.11V12.61h83.44v20.9H558.11v72.26Z"/><path class="cls-1" d="M596.43,105.77V12.61H639q12.78,0,22,4.13a32.16,32.16,0,0,1,14.31,11.91,33.11,33.11,0,0,1,5.08,18.47A30.92,30.92,0,0,1,661,77q-9.24,4.06-22,4.06H611.11l11.71-11v35.8Zm26.35-33L611.11,60.66h26.35q8.25,0,12.31-3.6t4.06-10c0-4.34-1.35-7.72-4.06-10.11s-6.81-3.59-12.31-3.59H611.11l11.71-12.11Zm31.28,33L630.9,71.84H659l23.29,33.93Z"/><path class="cls-1" d="M741.89,107.64a57.63,57.63,0,0,1-20.63-3.6,49,49,0,0,1-16.43-10.18A46.7,46.7,0,0,1,694,78.49a50.13,50.13,0,0,1,0-38.59,46.7,46.7,0,0,1,10.85-15.37,48.63,48.63,0,0,1,16.43-10.18,61.08,61.08,0,0,1,41.32,0A48,48,0,0,1,789.73,39.9a46.56,46.56,0,0,1,3.93,19.29,46.9,46.9,0,0,1-14.77,34.74A49,49,0,0,1,762.58,104,57.3,57.3,0,0,1,741.89,107.64Zm0-21.83A26.07,26.07,0,0,0,751.8,84a22.94,22.94,0,0,0,8-5.39,25.24,25.24,0,0,0,5.31-8.44,32,32,0,0,0,0-21.9,25.7,25.7,0,0,0-5.32-8.38,22.94,22.94,0,0,0-8-5.39,27.33,27.33,0,0,0-19.82,0,22.8,22.8,0,0,0-8,5.39,25.7,25.7,0,0,0-5.32,8.38,32,32,0,0,0,0,21.9A25.41,25.41,0,0,0,724,78.57,22.8,22.8,0,0,0,732,84,26.08,26.08,0,0,0,741.89,85.81Z"/><path class="cls-1" d="M807.5,105.77V12.61h26.35v93.16Z"/><path class="cls-1" d="M899.11,107.64a57.48,57.48,0,0,1-20.48-3.52,47.34,47.34,0,0,1-16.24-10.05A46.72,46.72,0,0,1,851.68,78.7a51.15,51.15,0,0,1,0-39,46.72,46.72,0,0,1,10.71-15.37,47.46,47.46,0,0,1,16.24-10,57.46,57.46,0,0,1,20.48-3.58,56.25,56.25,0,0,1,23,4.53,44.32,44.32,0,0,1,17,13L922.34,43.45a33.1,33.1,0,0,0-9.92-8.12,25.78,25.78,0,0,0-12-2.79A28.85,28.85,0,0,0,889.9,34.4a22.41,22.41,0,0,0-8.18,5.39,25.41,25.41,0,0,0-5.32,8.45,31.87,31.87,0,0,0,0,21.83,25.41,25.41,0,0,0,5.32,8.45,22.41,22.41,0,0,0,8.18,5.39,28.85,28.85,0,0,0,10.52,1.86,25.78,25.78,0,0,0,12-2.79,33.1,33.1,0,0,0,9.92-8.12l16.77,15.26a45.51,45.51,0,0,1-17,13A55.43,55.43,0,0,1,899.11,107.64Z"/><polygon class="cls-1" points="939.24 140.24 207.77 140.24 214.65 122.37 946.12 122.37 939.24 140.24"/><path class="cls-2" d="M154,0H116.78L103,13.77H76.49L62.72,0H25.49L0,108.62v31.62H55.11l9.18-41.82h51l9.18,41.82h55V108.62Zm11.22,123.92h-25.5L128.51,86.18H51L39.77,123.92H14.27V109.64L36.71,13.77h20.4L71.9,28.56h35.7l14.79-14.79h20.4l22.44,95.87Z"/><polygon class="cls-2" points="54.83 64.63 54.36 33.23 62.33 38.38 61.86 69.79 54.83 64.63"/><polygon class="cls-2" points="45.22 47.99 76.62 47.52 71.47 55.49 40.06 55.02 45.22 47.99"/><polygon class="cls-2" points="116.52 36.42 125.34 35.88 123.89 45.01 115.07 44.47 116.52 36.42"/><polygon class="cls-2" points="127.58 47.48 136.4 46.95 134.95 56.07 126.13 55.53 127.58 47.48"/><polygon class="cls-2" points="116.52 58.54 125.34 58.01 123.89 67.13 115.07 66.59 116.52 58.54"/><polygon class="cls-2" points="105.46 47.48 114.28 46.95 112.83 56.07 104.01 55.53 105.46 47.48"/><path class="cls-2" d="M207.83,105.77V12.61h21.69L268.11,76H256.67L294.2,12.61h21.69l.27,93.16H291.94l-.27-56.29h4.13L267.72,96.59H256l-28.9-47.11h5.06v56.29Z"/><path class="cls-2" d="M377.78,107.64q-20.64,0-32.21-11.32T334,64.25V12.61h26.35V63.45q0,12,4.73,17.17t13,5.19q8.25,0,12.91-5.19t4.66-17.17V12.61h25.95V64.25Q421.59,85,410,96.32T377.78,107.64Z"/><path class="cls-2" d="M439.39,105.77V12.61h26.35V84.88h44.45v20.89Z"/><path class="cls-2" d="M531.75,105.77V33.51H503.11V12.61h83.44v20.9H558.11v72.26Z"/><path class="cls-2" d="M596.43,105.77V12.61H639q12.78,0,22,4.13a32.16,32.16,0,0,1,14.31,11.91,33.11,33.11,0,0,1,5.08,18.47A30.92,30.92,0,0,1,661,77q-9.24,4.06-22,4.06H611.11l11.71-11v35.8Zm26.35-33L611.11,60.66h26.35q8.25,0,12.31-3.6t4.06-10c0-4.34-1.35-7.72-4.06-10.11s-6.81-3.59-12.31-3.59H611.11l11.71-12.11Zm31.28,33L630.9,71.84H659l23.29,33.93Z"/><path class="cls-2" d="M741.89,107.64a57.63,57.63,0,0,1-20.63-3.6,49,49,0,0,1-16.43-10.18A46.7,46.7,0,0,1,694,78.49a50.13,50.13,0,0,1,0-38.59,46.7,46.7,0,0,1,10.85-15.37,48.63,48.63,0,0,1,16.43-10.18,61.08,61.08,0,0,1,41.32,0A48,48,0,0,1,789.73,39.9a46.56,46.56,0,0,1,3.93,19.29,46.9,46.9,0,0,1-14.77,34.74A49,49,0,0,1,762.58,104,57.3,57.3,0,0,1,741.89,107.64Zm0-21.83A26.07,26.07,0,0,0,751.8,84a22.94,22.94,0,0,0,8-5.39,25.24,25.24,0,0,0,5.31-8.44,32,32,0,0,0,0-21.9,25.7,25.7,0,0,0-5.32-8.38,22.94,22.94,0,0,0-8-5.39,27.33,27.33,0,0,0-19.82,0,22.8,22.8,0,0,0-8,5.39,25.7,25.7,0,0,0-5.32,8.38,32,32,0,0,0,0,21.9A25.41,25.41,0,0,0,724,78.57,22.8,22.8,0,0,0,732,84,26.08,26.08,0,0,0,741.89,85.81Z"/><path class="cls-2" d="M807.5,105.77V12.61h26.35v93.16Z"/><path class="cls-2" d="M899.11,107.64a57.48,57.48,0,0,1-20.48-3.52,47.34,47.34,0,0,1-16.24-10.05A46.72,46.72,0,0,1,851.68,78.7a51.15,51.15,0,0,1,0-39,46.72,46.72,0,0,1,10.71-15.37,47.46,47.46,0,0,1,16.24-10,57.46,57.46,0,0,1,20.48-3.58,56.25,56.25,0,0,1,23,4.53,44.32,44.32,0,0,1,17,13L922.34,43.45a33.1,33.1,0,0,0-9.92-8.12,25.78,25.78,0,0,0-12-2.79A28.85,28.85,0,0,0,889.9,34.4a22.41,22.41,0,0,0-8.18,5.39,25.41,25.41,0,0,0-5.32,8.45,31.87,31.87,0,0,0,0,21.83,25.41,25.41,0,0,0,5.32,8.45,22.41,22.41,0,0,0,8.18,5.39,28.85,28.85,0,0,0,10.52,1.86,25.78,25.78,0,0,0,12-2.79,33.1,33.1,0,0,0,9.92-8.12l16.77,15.26a45.51,45.51,0,0,1-17,13A55.43,55.43,0,0,1,899.11,107.64Z"/><polygon class="cls-2" points="939.24 140.24 207.77 140.24 214.65 122.37 946.12 122.37 939.24 140.24"/></svg>