<svg xmlns="http://www.w3.org/2000/svg" viewBox="0 0 380.54 380.54"><defs><style>.cls-1{fill:#ffe29d;}.cls-2{fill:#f28a61;}.cls-3{fill:#f9906b;}.cls-4{fill:#ce441b;}.cls-5{fill:#77100f;}.cls-6{fill:#ff2c41;}.cls-7{fill:#cf0024;}.cls-8{fill:#fff;}.cls-9{fill:#69b07e;}.cls-10{fill:#9c4331;}</style></defs><title>Asset 1</title><g id="Layer_2" data-name="Layer 2"><g id="Avatar_1"><circle class="cls-1" cx="190.27" cy="190.27" r="190.27" transform="translate(-78.81 190.27) rotate(-45)"/><path class="cls-2" d="M267.15,364.36a63.77,63.77,0,0,1-6.58-8.82l-.69-1.09-.33-.55L259,353c-.13-.22-.26-.45-.4-.67l-.54-.9-.4-.68-.94-1.62c-6.23-10.82-7.78-34.82-8.1-50.36,0-.32,0-.63,0-1,0-.17,0-.35,0-.52,0-.34,0-.68,0-1s0-.48,0-.72v-.72c0-.21,0-.42,0-.62v-.6c0-.31,0-.62,0-.92v-2.27c0-.45,0-.88,0-1.3v-.32c0-.18,0-.35,0-.52v-.23c0-.3,0-.58,0-.85V287c0-.15,0-.29,0-.42v-.17c0-.25,0-.49,0-.69v-.1c0-.1,0-.19,0-.28V285c0-.1,0-.2,0-.27v-.11a.31.31,0,0,0,0-.09v-.1L189,315.77c.12,1.17.22,2.31.31,3.43,0,.37.05.73.08,1.09,0,.75.1,1.5.15,2.23l.06,1.24c0,.66.06,1.32.08,2,0,.42,0,.84,0,1.26l0,1.85v1.23c0,.61,0,1.2,0,1.8,0,.38,0,.77,0,1.14,0,.63,0,1.25-.07,1.87,0,.32,0,.65-.05,1,0,.82-.1,1.62-.16,2.41,0,.1,0,.21,0,.31-.08.89-.17,1.75-.27,2.61,0,.28-.07.54-.1.82-.07.57-.15,1.14-.23,1.69,0,.32-.1.64-.15,1-.08.49-.16,1-.25,1.47,0,.32-.12.64-.18,1s-.18.93-.28,1.38-.13.62-.21.93-.21.9-.32,1.34c-.07.29-.14.57-.22.85l-.39,1.39-.21.71c-.18.6-.38,1.18-.57,1.75l-.09.26c-4.1,11.75-11.06,18.87-18.73,23.46a190.82,190.82,0,0,0,100-14.78Z"/><path class="cls-3" d="M294.91,189.9c-1-.71-4.78-1.77-5.83-2.05,2.53-19.72,8.82-56.42-18.45-85.51C240,69.62,198,69.62,175,75.24s-50.12,28.64-55.75,53.7-2.09,32.62-4.62,40.71-7.08,19.21-1,31.35a119.77,119.77,0,0,1,3,25.79c0,13.65,8.09,32.86,23.26,52.07s24.35,39.3,42,41c26.79,2.53,64.88-21.61,77.86-49.51a147.1,147.1,0,0,0,8.6-25.39c4.25.79,7.67-2,10.64-6.48,3.79-5.69,8.72-9.48,12.51-14.79C297.19,215.69,303.26,196,294.91,189.9Z"/><path class="cls-3" d="M126.43,127.69a43.17,43.17,0,0,1,12.95-19.24c11.67-9.75,28.49-14.27,43.52-13.29,7.93.52,17.49,2.5,24.58,6.27,13,6.9,20.28,14.28,22.57,29.17,1,6.27.94,12.66,2.1,18.9.21,1.14,5.25,15.72,7.4,13.86,0,0-8.72,7.58-9.86,7.58s-113,4.17-113,4.17L114,173.6s7.59-10.62,8-19C122.41,145.52,123.44,136.17,126.43,127.69Z"/><path class="cls-3" d="M156.86,252.32s.25,2.78,4.3,3.29a7.38,7.38,0,0,0,8.34-4.81c1.52-3.54,4.55-22.25,3.54-42.72l-15.17.25s2.78,21.24,2.27,28.06S156.86,252.32,156.86,252.32Z"/><path class="cls-3" d="M157.79,248.36a8,8,0,0,1,4-1.52c2,0,9.44,2.87,9.44,2.87l1-2s-7.75-3-10.45-3a5.28,5.28,0,0,0-2.87,1Z"/><path class="cls-3" d="M205,224.22a8.91,8.91,0,1,1-8.91-8.91A8.91,8.91,0,0,1,205,224.22Z"/><path class="cls-3" d="M158.75,223.66c.39,4.59-2.31,8.57-6,8.87s-7-3.16-7.4-7.75,2.31-8.57,6-8.87S158.38,219.07,158.75,223.66Z"/><path class="cls-3" d="M263.27,255.51c-9.2,16.05-26.12,23.63-37.79,16.94s-13.67-25.13-4.46-41.18,26.13-23.63,37.79-16.93S272.48,239.46,263.27,255.51Z"/><path class="cls-3" d="M145.49,239.75c-5.27-15.73-18.44-26.7-29.49-24.6a107.4,107.4,0,0,1,.66,11.64c0,12.11,6.38,28.62,18.42,45.61C146.11,270.12,150.77,255.52,145.49,239.75Z"/><path class="cls-3" d="M117.82,202s-3.79-26.93,5.69-31.1,21.24.76,21.24.76l6.45,8,.75,2.66s3.79,16.68,2.66,43.61l-11-8.73s-9.1-9.09-11-9.47-9.48-.38-9.48-.38Z"/><path class="cls-3" d="M192.91,224s-7.59-39.44,1.51-51.57,23.89-11,23.89-11L234.24,163s14.79,4.17,17.82,7.58c0,0,0,22-9.86,42.09Z"/><path class="cls-3" d="M155.93,254.93c-.19.88,2.79,2.68,3.36,2.92,4,1.73,8.53-.42,12.32-1.74,3.37-1.18,8.76,1.86,9.27,3.71,0,0,.16,2.19-1.18,2.53s-21.41.17-21.41.17l-2.19-1.35-.84-3.2Z"/><path class="cls-3" d="M155.59,257.38s1.27,3.53,6.58,3.28,8.59-2.78,10.36-3.28,8.09,1.26,7.84,3.28l-.51,2s-3,13.4-9.1,13.66-5-8.6-9.35-10.62C161.41,265.72,155.59,262.18,155.59,257.38Z"/><path class="cls-3" d="M175.06,303.64s8.09.51,10.36,0c0,0-1.26,4.3-3.79,4.05S175.06,303.64,175.06,303.64Z"/><path class="cls-3" d="M152.05,280.13l-1.51,3.54S147.25,280.13,152.05,280.13Z"/><path class="cls-3" d="M222.59,278.61l2.78,4.3S228.66,279.12,222.59,278.61Z"/><path class="cls-4" d="M213.38,181.94s11-4.93,25.79,2.65C239.17,184.59,225.14,171.7,213.38,181.94Z"/><path class="cls-4" d="M144.11,185.64s-8.43-4-18.85,3.77C125.26,189.41,134.78,176.73,144.11,185.64Z"/><path class="cls-3" d="M291.23,192.66l-2.11,2c-2.25,1.37-7.12,8.49-7.12,8.49l-2.82,4.38-.09-.09c-1.51,1.39-4.55,8.47-4.55,8.47l.16.5-.16.13a4.56,4.56,0,0,1,.4.61l.57,1.78a7.89,7.89,0,0,1-1.47,4.95s4.3-1.52,5.18-4.55a5.32,5.32,0,0,0-1.5-5.05c.45-1.06.9-2,1.25-2.66a2.57,2.57,0,0,1,3-1.39l-1.07-1,.44.14c-.63-1.26,2.4-4.3,2.4-4.3l-.07-.07c1.16.89,2.47,1.72,2.47,1.72s-1.26-3.42,0-5.44c.93-1.48,3.42-3,4.68-3.65a27.36,27.36,0,0,1,4,5.42S293,194.55,291.23,192.66Zm-9.1,25.91.76-4.3S281.12,215.28,282.13,218.57Zm2.9,2.78c2.66-5.06,1.39-8.47,1.39-8.47A48.34,48.34,0,0,0,285,221.35Zm7.34-15.29c1.26,3.41-1.27,13.14-1.27,13.14,4-6.95,3.41-12.39,3.41-12.39Z"/><path class="cls-3" d="M160.31,263s4.89,3,7.08,2.87a5,5,0,0,0,4.05-3.37S164.7,264.2,160.31,263Z"/><path class="cls-3" d="M298.9,196.56a11.64,11.64,0,0,0-3.21-6.42,9.55,9.55,0,0,0-10-1.81,12.53,12.53,0,0,0-4.49,2.93,8.69,8.69,0,0,0-1.3,2.14c-.49.86-.91,1.76-1.36,2.64-1.94,3.87-3.69,7.9-6.43,11.3a0,0,0,1,0,0,0,43.33,43.33,0,0,0,5-8.07c.71-1.38,1.42-2.77,2.22-4.1a11.64,11.64,0,0,1,2.93-3.73c2.86-1.95,5.72-3.29,9.28-2.63a8.42,8.42,0,0,1,6,4.71c2.16,4.55,1.31,10.29.2,15a50.93,50.93,0,0,1-5.73,14c-3.26,5.54-8.56,9.56-12.37,14.69-1.85,2.48-3.5,5.06-6.27,6.62s-6,.88-8.7-.68a.19.19,0,0,0-.19.34,9.06,9.06,0,0,0,7.34,1.44c2.55-.69,4.56-2.79,6.12-4.8,1-1.24,1.78-2.6,2.73-3.86a58.55,58.55,0,0,1,3.91-4.57c2.31-2.51,4.75-4.95,6.8-7.67a41.28,41.28,0,0,0,6.11-13C298.88,206.49,299.73,201.38,298.9,196.56Zm-27.13,32.78s0,0,0,0c.3-2.75,2-4.74,3.31-7a6,6,0,0,0,.15-6.11c-.29-.58-1.17-.07-.87.51a6.14,6.14,0,0,1-.34,6.8A12.27,12.27,0,0,0,271.77,229.34Zm19.71-36.05c.44-.35-.16-1.13-.61-.79a32.29,32.29,0,0,0-4.35,4.32,55.73,55.73,0,0,0-4.36,5.55,74,74,0,0,0-7.47,12.87c-.07.16.16.31.25.14,1.23-2.33,2.46-4.65,3.78-6.91a.28.28,0,0,0,.27.29c3.26.21,4.43,3.74,3.76,6.54,0,0,0,0,.05,0,1-2.77-.37-7-3.81-7.11a.25.25,0,0,0-.13,0c1-1.64,2-3.25,3.06-4.82a4.42,4.42,0,0,0,2.27,2.58,12.48,12.48,0,0,1,1.9,1.21c.7.64.64,1.86.6,2.72-.21,3.87-1.91,7.52-1.64,11.45h0c-.25-4,1.59-7.8,1.87-11.76.09-1.37.13-2.68-1-3.59s-3.07-1.5-3.73-2.94v0a54.44,54.44,0,0,1,4.49-5.55A41.21,41.21,0,0,1,291.48,193.29Z"/><path class="cls-4" d="M159.53,233.89a22.69,22.69,0,0,1-1,12.18c-1.07,3.2-2.9,6.19-3.62,9.5a8.14,8.14,0,0,0,2,7.51A13.07,13.07,0,0,0,162,266.3a23.65,23.65,0,0,0,3.81.88,11.39,11.39,0,0,0,3.67.3.23.23,0,0,0,0-.44c-1.16-.2-2.34-.23-3.5-.46a16.62,16.62,0,0,1-3.88-1.6,14.26,14.26,0,0,1-4.74-3.46c-1.86-2.23-1.44-5.14-.84-7.74.73-3.18,2-6.19,2.8-9.35a21.27,21.27,0,0,0,.25-10.54Z"/><path class="cls-4" d="M173.68,264.2c-.63-1.55.54-1.89,1.84-2a9.86,9.86,0,0,1,3.71.21c.12,0,.17-.16.05-.2-1.56-.51-3.23-1.13-4.88-.66-1.37.4-1.51,1.59-.93,2.71.06.12.26,0,.21-.08Z"/><path class="cls-4" d="M178.9,263.89c2-1.36,2.6-4.2,2.37-6.49a.12.12,0,0,0-.24,0c-.29,2.51-.37,4.47-2.19,6.41a.05.05,0,0,0,.06.08Z"/><path class="cls-5" d="M173.67,263.13s-.19-1.27,3.54-.89C177.21,262.24,175.31,263.69,173.67,263.13Z"/><path class="cls-3" d="M154.92,282.07s5.12-4.4,8.82-5.08c2.36-.43,4.23,1.65,6.48,1.89,2.65.29,4.9-1.27,7.52-1.38,3.87-.17,5.9.38,13.65,1.89s26.4,1.67,28.08,1.5c0,0-10.79,6.06-13.82,6.06s-23.59,2-24.44,2.2-10.62-.51-12.47-.51Z"/><path class="cls-6" d="M208.21,281.83a26.47,26.47,0,0,1-6.36,1.24c-5.8,0-30.06.49-30.7.74s-11.59-.25-12.23-.25h-4.51a54,54,0,0,0,4.08,6.19,5.72,5.72,0,0,1,.39.57,2.39,2.39,0,0,1,.13.21c.07.13.15.26.22.4l.13.26c.06.13.12.25.17.37l.12.31a3.65,3.65,0,0,1,.14.35c.91,2.47,1.19,5.27,2.56,6.69,2.15,2.23,14.6,4.7,21.89,1.24a106.18,106.18,0,0,0,11.21-6.91h0c8.09-5.47,17-12,18-12.74l.1-.07S211,281.2,208.21,281.83Z"/><path class="cls-7" d="M213.56,280.36l-.05,0-4.8.71a76.08,76.08,0,0,1-17.38.74c-6.44-.49-14-2.72-17.6-2a13,13,0,0,0-5.8,2.72s-3.86-3.46-5.58-3.46-4.51,1.48-6.44,2.72-4.38-.44-4.76-.68l0,0s0,0,0,0a16.19,16.19,0,0,0,1.56,1.35l.14.11.68.5a20.37,20.37,0,0,0,6.65,3c1,.32,2.07.61,3.12.89.08,0,.77,0,.82.14a3.22,3.22,0,0,0,.75.95,5,5,0,0,0,2.39,1.11,7.48,7.48,0,0,0,2.79.05,7.14,7.14,0,0,0,2.73-.61.12.12,0,0,0,0-.13l2.78-.71s0,0,0,0a99,99,0,0,0,18.74-1.42,80.3,80.3,0,0,0,9.9-2.2c1.56-.46,3.1-1,4.62-1.57s3.15-1.5,4.74-2.26C213.58,280.37,213.57,280.35,213.56,280.36Z"/><path d="M189.58,179.91A110.79,110.79,0,0,0,203.06,172a35.87,35.87,0,0,1,14.32-6.64c7.26-1.47,18.42-2.19,34.38,4.86,1,0,2.1-.05,3.16,0a107.58,107.58,0,0,0-22.34-9.3c-13.17-3.78-25.17-1.87-34.31,3C188.88,169,185.47,177,189.58,179.91Z"/><path d="M194.84,176.77c-2.15,1.24-3.88,2.17-4.7,2.59a4,4,0,0,1-1.13-3.52c.35-3.35,4-8,9.85-11.18a39.89,39.89,0,0,1,7-2.94,44.75,44.75,0,0,1,26.58.27,99.08,99.08,0,0,1,19.79,8.56h-.53c-12-6-22.86-7-31-6A34.79,34.79,0,0,0,203.81,171l-1.08.77a90.48,90.48,0,0,1-7.89,5Z"/><path d="M152.28,182.88a24.84,24.84,0,0,1-8.22-5.43c-2.1-2-4.18-4.14-8.3-5.4-4-1.1-10.24-1.36-18.58,4.37-.67-.21-1.35-.4-2-.58a66.54,66.54,0,0,1,12-8.23,18.28,18.28,0,0,1,18.55,1C151.4,172.15,154.22,178.75,152.28,182.88Z"/><path d="M148.93,180.71a25.41,25.41,0,0,0,2.88,1.5,7.72,7.72,0,0,0,.22-4c-.57-3.17-3.11-6.84-6.65-9a20.65,20.65,0,0,0-4-1.95,16.77,16.77,0,0,0-14.08,1.25,58.72,58.72,0,0,0-10.39,7.62l.35.1c6.28-4.77,12.23-5.77,16.64-5.08a17.21,17.21,0,0,1,9.61,5.19l.66.64a26.25,26.25,0,0,0,4.78,3.72Z"/><path d="M217.55,224l7.21,3.79s10.24-5.31,17.06-8.34l.76-9.1-24.65,12.13Z"/><path d="M241.3,198.18s9.38-5.57,12.23-13.25c0,0-.72,9.91-12.09,17.67Z"/><path d="M244.08,200.49a17.81,17.81,0,0,0,5.06-6.83s-10.12-8.59-28.07-6.82-24,22.25-27.3,35.14l17.44-6.07Z"/><path d="M195.59,220c1.69-6.32,3.92-13.26,7.45-19.12,4.73-7.87,10.67-12,18.16-12.79a46.48,46.48,0,0,1,4.69-.24c11.81,0,19.4,4.61,21.7,6.22a17,17,0,0,1-4.19,5.33l-32.67,15.33L195.59,220Z"/><path class="cls-8" d="M219.45,192.94c-14.41,1.89-22.75,19-26.54,31.47a42.15,42.15,0,0,1,7.83-1.13A83.49,83.49,0,0,0,218,225.5l.3.05c5.31.76,4.55,0,4.55,0,5.69-1.52,11.38-3.42,15.55-7.59a25.2,25.2,0,0,0,5.31-15.54v-2.66A33.5,33.5,0,0,0,219.45,192.94Z"/><path class="cls-9" d="M239.5,206.77a20.43,20.43,0,0,0-3.45-11.45,32.35,32.35,0,0,0-16.6-2.38c-6.51.85-11.79,4.81-16,10a21.54,21.54,0,0,0-.34,3.79c0,8.75,5.35,16.15,12.72,18.64l2.14.09.3.05c5.31.76,4.55,0,4.55,0a49.86,49.86,0,0,0,9.76-3.48A20.06,20.06,0,0,0,239.5,206.77Z"/><path class="cls-9" d="M221.32,223.75c8.73,0,15.8-7.6,15.8-17a17.45,17.45,0,0,0-5.64-13,31.76,31.76,0,0,0-12-.83,22.31,22.31,0,0,0-12.09,5.9,17.86,17.86,0,0,0-1.83,7.93C205.53,216.15,212.6,223.75,221.32,223.75Z"/><path d="M232.49,206.77c0,6.63-5,12-11.17,12s-11.17-5.37-11.17-12,5-12,11.17-12S232.49,200.14,232.49,206.77Z"/><path d="M231,206.77c0,5.76-4.35,10.43-9.71,10.43s-9.7-4.67-9.7-10.43,4.34-10.43,9.7-10.43S231,201,231,206.77Z"/><path d="M231,206.77c0,5.76-4.35,10.43-9.71,10.43s-9.7-4.67-9.7-10.43,4.34-10.43,9.7-10.43S231,201,231,206.77Z"/><path class="cls-8" d="M217.11,197.25a4.23,4.23,0,1,0,4.57-4.51c-.42,0-.85,0-1.27.09A4.47,4.47,0,0,0,217.11,197.25Z"/><path d="M243.8,199.69c-9-8.21-24.1-10.68-34.27-3.34a36.58,36.58,0,0,0-10.24,12.33,75.41,75.41,0,0,0-6.17,14.86l-.24.86a0,0,0,1,0,.05,0c3.27-9.82,7.95-20.07,16.41-26.52,4.63-3.53,10-4.77,15.77-4.47,6.69.36,12.92,2.95,18.56,6.42C243.77,199.92,243.88,199.77,243.8,199.69Zm-5.41,18.25a30.22,30.22,0,0,1-7.27,4.66c-2.67,1.21-5.5,2-8.26,2.93,0,0,0,0,0,0,5.52-1.06,11.72-3.29,15.57-7.58A0,0,0,0,0,238.39,217.94Z"/><path d="M129.58,218.34v3.79s5.69,3,11.38,6.83l5.68-4.17Z"/><path d="M127.53,210.35s-9.45-4.27-13.5-12.11c0,0,9.46,8.83,14.77,9.84Z"/><path d="M127,209.34s-2.53-.51-5.57-3.79c0,0,.14-11.16,9.86-14.92,7.84-3,14.14,3.12,17.43,9.7a40.85,40.85,0,0,1,3.32,11.85c.3,1.78.33,10.21,1.75,11.32,0,0-9.1-7.08-10.11-7.33S127,209.34,127,209.34Z"/><path d="M151.48,220.1c-6.44-4.9-7.19-5.09-7.46-5.16-.85-.24-10.57-4.28-16.51-6.76l-.1-.05-.12,0a10.45,10.45,0,0,1-4.54-3c.16-2.12,1.25-10.25,9-13.26a10.09,10.09,0,0,1,3.63-.71c6.78,0,11.06,7.5,12.21,9.8,1.79,3.56,2.54,7.47,3.21,11.49.07.41.13,1.42.2,2.48.13,2.13.27,3.85.45,5.23Z"/><path class="cls-8" d="M126.55,209.62l.37,1.52a28.81,28.81,0,0,0,4.55,9.1c2.51,3.24,4.43,4.41,8,6.07,4.66,2.17,10.95-3.26,14.79-.38-1.14-8-1.52-16.31-6.45-23.89C141.45,192.3,128.06,192.18,126.55,209.62Z"/><path class="cls-9" d="M136.2,195.5c-2.38,3.34-3.75,8.32-3.45,13.79.53,9.63,6,17.16,12.24,16.82,3.51-.19,6.5-2.83,8.36-6.82-.81-5.86-2-11.76-5.57-17.25C144.82,197.48,140.31,195,136.2,195.5Z"/><path class="cls-9" d="M134.23,209.21c.46,8.37,5.22,14.91,10.64,14.62,3.55-.2,6.5-3.3,8-7.76a36.19,36.19,0,0,0-5.07-14,13.88,13.88,0,0,0-9.1-6.48C135.73,198.28,133.91,203.42,134.23,209.21Z"/><path d="M143.44,198c-3.82.21-6.66,5.18-6.34,11.1s3.69,10.54,7.52,10.33,6.58-5,6.36-10.8a30.48,30.48,0,0,0-3.2-6.55,16.41,16.41,0,0,0-3.71-4.07C143.86,198,143.65,198,143.44,198Z"/><path d="M150.06,208.34c.28,5.14-2.19,9.46-5.51,9.64s-6.26-3.83-6.54-9,2.18-9.46,5.51-9.65S149.77,203.2,150.06,208.34Z"/><path d="M150.06,208.34c.28,5.14-2.19,9.46-5.51,9.64s-6.26-3.83-6.54-9,2.18-9.46,5.51-9.65S149.77,203.2,150.06,208.34Z"/><path class="cls-8" d="M141,200.33c.12,2.23,1.39,4,2.84,3.9s2.52-2,2.39-4.19v-.11a14.6,14.6,0,0,0-4.08-3.22A4.74,4.74,0,0,0,141,200.33Z"/><path d="M153,215.89a44,44,0,0,0-2.83-10c-1.75-4.07-4.54-8.43-8.84-10.17a9.58,9.58,0,0,0-9.59,1.06c-3.69,2.91-4.87,8-5.17,12.43,0,.14,0,.27,0,.4s0,0,0,0c.55-4.42,1.94-9.34,5.75-12.06a9,9,0,0,1,9.17-.54c4.21,1.93,6.82,5.78,8.63,9.93a41,41,0,0,1,2.64,9.44c.55,3.16.66,6.44,1.38,9.56a.1.1,0,0,0,.2,0A87.08,87.08,0,0,0,153,215.89Zm-13.49,10.34c-1.39-.83-2.85-1.54-4.19-2.44a20.1,20.1,0,0,1-3.79-3.58s-.1,0-.07,0a16.15,16.15,0,0,0,8,6.13A.09.09,0,0,0,139.49,226.23Z"/><path class="cls-10" d="M171.62,376.34c-.35-.36-.67-.71-1-1.06a.69.69,0,0,1-.11-.13c-.29-.32-.56-.65-.82-1l-.12-.15c-.25-.32-.48-.63-.7-.93a.83.83,0,0,0-.08-.12c-.23-.33-.45-.66-.63-1-6.25-10.5,6.54-10.36,12.91-15A18.41,18.41,0,0,0,187,349.6l.59.22c0-.14.07-.28.1-.42l.12-.52c.08-.35.16-.71.23-1.08l.06-.28c0-.07,0-.14,0-.2.05-.23.09-.45.13-.68s.07-.36.1-.54.08-.43.11-.65.06-.3.08-.46c.26-1.09.45-2.2.61-3.32,0-.07,0-.14,0-.22.09-.68.16-1.37.21-2.05l-.12,0c0-.27,0-.53.07-.8a2.34,2.34,0,0,0,0-.38c0-.32.06-.64.08-1l0-.55c0-.28,0-.55.05-.82s0-.4,0-.6l0-.81,0-.62c0-.27,0-.54,0-.82s0-.41,0-.62,0-.57,0-.86v-.61c0-.31,0-.64,0-1v-.52c0-.5,0-1,0-1.5v-.22l0-1.33c0-.18,0-.37,0-.56s0-.67,0-1l0-.63c0-.33,0-.65,0-1s0-.44,0-.66,0-.5,0-.74a2.18,2.18,0,0,0,0-.25c0-.22,0-.44,0-.67s0-.67-.07-1a43.9,43.9,0,0,1-7.44-.05c-.42,0-.84-.09-1.25-.15-13.74-2-22.33-15.46-33.09-30.54l-.24-.34c-.72-1-1.45-2-2.19-3l-.25-.35c-.76-1-1.52-2.06-2.3-3.09l-.17-.23c-.81-1.07-1.63-2.14-2.48-3.22-.73-.92-1.44-1.85-2.14-2.78-.15-.2-.3-.39-.44-.59q-1.05-1.39-2-2.79L134,270.8c-.72-1-1.41-2.09-2.09-3.12l-.11-.18c-.57-.88-1.13-1.77-1.67-2.65-.18-.29-.36-.58-.53-.87q-1.73-2.84-3.23-5.63l-.08-.15c-.25-.46-.49-.92-.72-1.37l-.12-.21-.68-1.35-.09-.19c-.23-.46-.45-.92-.67-1.37l0-.07q-1.38-2.88-2.51-5.69l-.09-.23c-.15-.36-.29-.73-.43-1.09l-.17-.45-.36-1c-.07-.18-.13-.36-.19-.53s-.22-.63-.33-.94l-.19-.57c-.1-.3-.2-.6-.29-.89s-.13-.4-.19-.6-.18-.58-.26-.86l-.18-.62c-.07-.28-.16-.55-.23-.82l-.18-.69q-.16-.61-.3-1.23l-.21-.85c0-.21-.08-.42-.13-.63s-.07-.37-.11-.56,0-.14,0-.21-.08-.42-.11-.62-.1-.51-.14-.76-.06-.41-.1-.61-.07-.5-.11-.75,0-.39-.08-.59l-.09-.75-.06-.56-.06-.77c0-.17,0-.34,0-.51s0-.56,0-.84,0-.28,0-.42c0-.41,0-.82,0-1.22s0-1,0-1.48v-.13c0-.47,0-.94,0-1.41v-.07c0-.48,0-1-.06-1.44v-.07c0-.47,0-.94-.07-1.4a.15.15,0,0,1,0-.07c-.06-1-.13-1.9-.2-2.81a.09.09,0,0,1,0,0c0-.19,0-.38-.05-.57-.07-.73-.14-1.45-.21-2.14A116,116,0,0,0,113.63,201c-.28-.55-.53-1.09-.76-1.64a1.22,1.22,0,0,0-.07-.17c-.18-.44-.35-.87-.51-1.31-.05-.13-.09-.26-.14-.4-.17-.47-.32-.95-.46-1.42,0,0,0-.07,0-.11-.13-.45-.24-.91-.35-1.36,0-.11,0-.22-.07-.33a29.22,29.22,0,0,1-.64-6.15c0-.39,0-.78,0-1.17v0c0-.42,0-.83.08-1.24,0-.08,0-.15,0-.23,0-.32.06-.64.1-1,0-.11,0-.21,0-.32l.12-.93,0-.24c.12-.78.26-1.56.41-2.31l.06-.25c.06-.3.13-.6.2-.89l.06-.27c.08-.32.15-.63.23-.94a.83.83,0,0,0,0-.15q.15-.57.3-1.11a.13.13,0,0,0,0-.06c.1-.34.2-.67.29-1a2.17,2.17,0,0,0,.07-.24c.09-.28.17-.55.25-.83a2,2,0,0,0,.07-.23c.35-1.11.7-2.19,1-3.22l.18-.56.12-.38c.1-.3.2-.6.29-.9q.21-.68.36-1.35c0-.15.07-.31.1-.46.06-.3.12-.6.17-.9l.09-.55c0-.28.07-.57.1-.86a5.23,5.23,0,0,0,.06-.57c0-.3,0-.6.07-.9s0-.37,0-.56c0-.36,0-.72,0-1.09,0-.15,0-.29,0-.44,0-.5,0-1,0-1.55,0-1.23,0-2.54,0-4,7.57-.49,16-2.25,21.12-7a17.62,17.62,0,0,0,.93,4.1c2.5,6.18,14.52,8.42,20.67,10.44,10,3.27,12.35-1,20.21-8.14-4.54-12.2-13-10.44-21-2.89,1.37,1.39,3,3,5.07,3.49-.68-.59-1.52-2.19-2.23-2.92,10.73-13.55,15.67,6.72,3.28,7.41-11.05.63-18.45-9.19-16.27-18.2,4.06-16.76,16.43-9.66,29.62-13.65,6.15-1.86,8.41-7,8.57-12.79,5.55,5,14.07,9.82,15.12,15.19s-.67,13.23-6.91,13c-7.08-.28-8.43-10.41-.65-7.17-2.82-6.73-8.35.94-10.59,4.26,4.56,9.38,16.46,8.19,24,4.57,6.42-3.08,11.22-5.17,14.31-8.59a20.59,20.59,0,0,0,1.23,2.2l0,0c.22.34.45.67.69,1l.05.06c.23.31.46.61.71.91l.15.17c.22.26.44.51.67.75l.26.27.61.61.4.36.52.46.58.46.38.31.79.55.23.16c.34.22.68.44,1.05.65a20.82,20.82,0,0,0,7.07,2.52c10.49,1.71,18.21,1.07,20.42,13.47-.28.17-.57.36-.87.56l-.78.5-.08.05-.84.52-.18.1-.77.44-.14.07c-.29.16-.59.31-.89.45l-.16.07c-.26.12-.52.23-.79.33l-.16.06a7.91,7.91,0,0,1-.91.28l-.11,0a7,7,0,0,1-.78.13,4.17,4.17,0,0,1-2.85-.59c-4.09-2.63-2.52-7.26,1.24-8-7-2.15-9.11,6-6.95,10.66,1.87,4,6.93,6.37,10.05,6.79a20.63,20.63,0,0,0,13-2.41c-.87,3.14-1.53,6.28-.64,9.66,1.31,4.94,6.55,8.69,7.39,13.8.7,4.17-1.62,13.69-4.4,16.91s-8.43,2.55-11,7.19c-3.74,6.86,1.53,14.5,2.43,21.7l-.72-.27.83,2.82a10.53,10.53,0,0,1-1.78,5.48c-2.54,3.81-11.5,7.87-14.09,1.56-2.9-7,6-4.46,8.08-.85-2.22-14.79-22.62,7.08-2.15,6.18,17-.76,10.73-15.08,11.38-25.05.46-7.08,3.62-6.44,7.4-11.53,2.83-3.81,4.09-9.41,6.24-13.52s4.18-9.25,7-12.85a12.82,12.82,0,0,1,6.29-4.51c.42-.14.86-.26,1.3-.38l.15,0c.43-.11.87-.2,1.32-.29l.19,0,1.39-.23.15,0,1.5-.21a7.77,7.77,0,0,1,.92.33c.18.07.35.17.52.25a3.84,3.84,0,0,1,.35.18c.2.11.38.24.57.36l.27.18c.18.13.35.28.52.43s.26.21.38.33a11.64,11.64,0,0,1,3.21,6.42,26.06,26.06,0,0,1,.13,7.33,47.1,47.1,0,0,1-7.65,20.19c-2.05,2.72-4.49,5.16-6.8,7.67a58.55,58.55,0,0,0-3.91,4.57c-.95,1.26-1.76,2.62-2.73,3.86-1.56,2-3.57,4.11-6.12,4.8a7.93,7.93,0,0,1-3.52.13l-.42,1.59c-.32,1.22-.65,2.43-1,3.65-.07.23-.14.46-.2.69-.26.9-.53,1.81-.8,2.71-1.19,4-2.52,7.9-4.06,11.74-.26.64-.51,1.28-.78,1.91-.42,1-.85,2-1.3,2.91a73.35,73.35,0,0,1-11.18,16.88c0,.27,0,.55,0,.85v.72a1.55,1.55,0,0,0,0,.22v1c0,1.32,0,2.83,0,4.51v.28c0,.37,0,.75,0,1.14V296c0,1,0,2,.05,3.12a255.82,255.82,0,0,0,1.9,27.17l0,.07c.13,1,.28,2,.43,3,0,.09,0,.18.05.27.15,1,.31,1.92.48,2.87,0,.1,0,.2.05.3.18.93.36,1.84.55,2.74l.06.3c.2.9.4,1.77.61,2.63a1,1,0,0,0,0,.14,49.23,49.23,0,0,0,2.75,8.23,42.4,42.4,0,0,1,6-.88c8.05-.34,18.08,4.52,25.68,1.39,10.17-4.17-1.39-13.9-7.94-11.51,4.37,1.15,10.13,7.11,1.86,6.59-4.85-.29-10.45-6.06-9.52-11.06,3.25-1,7.12-.31,10.54-1,4.05-.78,6.82-3.1,10.47-4.78-3.25-.62-4.75-2.89-5.18-5.78,0-.2-.05-.4-.07-.6s0-.14,0-.21c0-.24,0-.49,0-.73,0,0,0-.06,0-.09,0-.29,0-.59,0-.9l.06-.86c0-.06,0-.12,0-.18,0-.24.05-.48.08-.72l0-.2c0-.25.08-.51.13-.77a.5.5,0,0,1,0-.12c.11-.62.25-1.24.41-1.86l0-.09.23-.8c0-.06,0-.12.05-.17.07-.25.15-.5.23-.74a1,1,0,0,0,0-.16c.1-.28.2-.56.3-.86s.23-.59.35-.9l.33-.78.08-.18.27-.59.1-.22.27-.55a1.14,1.14,0,0,0,.1-.19c.12-.23.24-.46.37-.68,2,.75,3.46,2.38,4,5.39,1.12,6.56-1.76,12.21,4.55,17.18.24.2.5.39.77.58l.19.12.69.44c4,2.43,9.93,4,14,2.41,5.63-2.14,4.53-7.42-.54-9.51,4.72,2.07-.09,8.85-4.92,7.87-6.55-1.31-7.91-9.34-3.06-13.28,5.18-4.21,10.12-4.54,12.18-11.86a19.81,19.81,0,0,0,.71-6.17v-.11a28.69,28.69,0,0,0,11.8,1.71c6.3-.34,17.4-2.73,19.11-10.62.05-.22.08-.44.11-.66s0-.16,0-.24,0-.28,0-.42a2.8,2.8,0,0,0,0-.29c0-.14,0-.27,0-.4s0-.19,0-.29a.08.08,0,0,1,0,0c-.75-7.26-11-15.25-16.12-8.37,13.38-3.2,12.92,14.75-.19,10.83-11.45-3.42-12.16-17-.47-20.43-.4-6.31-3.61-11.57-8.08-15.91l-.1-.09c-.46-.45-.93-.88-1.41-1.3l-.1-.09-.17-.15.28.06,1.65.35.12,0,.67.14.32.08.51.12.4.1.43.11.43.12.4.12.43.14.37.13.43.17.34.14.43.2.31.16.41.23.29.17.4.28a2.48,2.48,0,0,1,.26.19c.13.1.25.21.37.32s.16.13.24.21a4,4,0,0,1,.34.37,2.29,2.29,0,0,1,.21.23,3.43,3.43,0,0,1,.32.43l.18.25c.1.16.2.34.29.52l.13.24c.13.27.25.55.36.85-.25-.69,9.44-16.17,11-17.32,3.49-2.48,7.83-2.08,10,.6a6.66,6.66,0,0,1,1.4,4.54c2.22-7.25,5.59-14.92,7.43-22.1.67-2.61-3.71-21-7.79-17.49a16.52,16.52,0,0,0,5.84-10.36,15.59,15.59,0,0,0,.11-2.82c2.71-7.32,1.65-15.34-8.42-18-6.36-1.68-12.12,2.89-11.45,9.18.64,6.09,9.36,8.45,8.21,1.54-.73,1.1-1.7,1.3-2.86,2.29-5.46-4-.81-8.6,4.53-5.2a8.59,8.59,0,0,1,3.5,4.28c-1.23,3.9-6.27,6.59-12.94,2.79-9.34-5.33-8.94-23.08,3.61-21.74a13.13,13.13,0,0,0-12.54,0c5.4-5.44,10.61-13.49,5.11-21.4a20.81,20.81,0,0,0-4.58-4.85c3.72,1,7.52,2.39,11.79,2.63,7.19.4,13.81-7.23,18.28-13.49-3.81-7.41-13.38-9-18.19-1.68a10.15,10.15,0,0,0,5,1,25.92,25.92,0,0,1-1.95-2.18c4-3.42,10.8-.7,9.21,4.61-1.37,4.57-9.83,5.92-13.14,4.38-4.93-2.3-6.92-9.47-12.28-12a13.82,13.82,0,0,0-9.77-.83c.93-3,1.82-6,2.56-9.19,1.67-7.11.3-4.09-2.28-10.06-5.22-12.08,8.83-14.56,15.81-5.12-2.11,2.71-5.59,2.81-8.29.88,2.6,5.46,11,4.14,10.57-2.39-.15-2.25-7.74-10.06-9.94-10.62-7.39-1.9-17.44,11.93-24.89,14.54,1.22,3.75-.29,8-2.94,11.74-2.35,1-4.9,1.89-6.9,2.88,12.35-6.89,2.35-21.8-7.08-24.85,6.71.11,14.84-.46,19.7,5-.15-8-11-17.86-19.74-16.1a11.29,11.29,0,0,0,.9-4,26.41,26.41,0,0,0-2.89-13.21,14.89,14.89,0,0,0-2.24-2.95c-.24-.41-.49-.81-.75-1.21-3.16-4.87-5.95-5.77.55-9.49,5-2.89,9.93-1.72,10.31,5a6.41,6.41,0,0,1-7.33-.32c3.82,10.18,18.2-3.9,4.45-7.72-6.87-1.91-20.09,5.4-24.95,9.71,3.75,5.13,6.51,5.08,5.41,11.9-4.75-3.06-10.09-5.75-15.36-6.39a30.77,30.77,0,0,0,6.4-7.5c6.37-10.34,2.18-18.9-8-23.76-5.86-2.81-19.66-6.11-24.67.1-5.84,7.25,4.15,14.07,10.79,6.93-6.49,5-15.76-6.17-4.85-6.52,5.2-.17,14.93,5.73,13.07,12.11-2.37,8.11-15.86,4.78-21.16,3.18a42.66,42.66,0,0,1-8.75-4.72c0-1.88,1.05-3.51,3.84-4.46-3.13-4.12-18.6-8.32-14.13-13.45-2.81.75-5.85,2.51-7.09,4.52,4.32,6,0,11.95-5.74,15.8a19.12,19.12,0,0,0-4.42-6.42C186.8,31,177,28.06,167.79,30.37c-1.75-.44-3.61-.84-5.57-1.32-1.08-5.17,3.65-12.52,9-10.31,7.36,3,2.14,8.39-3.92,6.17,9.08,11.94,17.24-13.85.85-9.58-7.6,2-15.57,15-11,21.35a29.23,29.23,0,0,0-22.56.49,51.73,51.73,0,0,0-5.07,2.53,10.29,10.29,0,0,1,2.89-5.8c-6.68-7.12-18.6-8.25-23.47,1.33,2,1.19,2.42,1.74,5.12.8a20.6,20.6,0,0,1-1.88-.93c-.78-6.45,8.53-6.54,11.32-2.14-2.9,7.9-17.89,10.65-7,18.92,0,.09-.07.19-.1.28.16-.14.34-.27.51-.41l6.93-3.17a11.29,11.29,0,0,1,5.51.21c4.12,1.25,5.71,4.59,1.63,7.35-5.78,3.91-18.67.12-25.75-4.21a14,14,0,0,0-4.11-5.18C95,42.28,80,51.07,92,53.26c-7.1-3,3-8,5.71-4.93,6.53,7.43-18.6,15.41-22.93,14.88-2.79-.34-9.19-1.43-8.75-5.47.35-3.23,4.28-4.06,6.77-3-1.9-5.51-11-6.46-12.23.27C59,62.92,68.1,69.15,74.1,71.93a21.9,21.9,0,0,0-4,6.5C65,92.69,81.71,97.43,89,87.53c-10.72,5.57-19-5.44-4.88-8.13C91.49,78,105,80.74,106.92,89.68a10.23,10.23,0,0,1,.17,3.61c-6.5,5.49-18.28,6.56-25.38,5.07-8.61-1.81-18.25-4.24-27.21-2.72-3.42.24-6.81.78-10,.31-3.5-.52-11.07-4.47-7-9.36,4.32-5.27,10.31,2.86,4.67,4.77,6.67,1.72,7.14-5.86,2.21-8.17-7.09-3.31-9.56,3.91-9.86,8.17-.57,8.15,1.31,16.25,1.06,24.61-3.28,2.26-9.19,8.31-12.1,2.34-2.12-4.34,1.43-6.42,4.84-3.42-7.26-6.4-11.54,1.2-12.3,9.62-1,10.5,4.92,13.32,12.94,18.69-5.24,3-10.74,5.71-10.95,12.64-.23,7.18,13.22,15.42,12.9,7-1.29,3.55-8.74.47-6.94-3.11a.75.75,0,0,1,.07-.12,2.17,2.17,0,0,1,.22-.34.36.36,0,0,1,.07-.1,3.45,3.45,0,0,1,.32-.36l.12-.12a5.79,5.79,0,0,1,.44-.39l.13-.1c.15-.12.32-.23.5-.35l.11-.08c.21-.13.45-.26.69-.39l.19-.09a9,9,0,0,1,.82-.39l.12,0,.89-.36.2-.07,1.09-.37.25-.07,1.29-.36c1.74-.45,3.35-.87,4.83-1.33a44.86,44.86,0,0,0,.15,19.32c1.39,5.51,5.24,17.24,12.15,18.13a6,6,0,0,0,.61.05h.64a3.42,3.42,0,0,0,.45,0l.23,0,.45-.07.26,0,.43-.08.31-.06.39-.09.37-.09.33-.09.46-.12.21-.06c1.73-.48,3.56-1.1,5.33-1.57l.08,0,.63-.16.19-.05.54-.12c4.37-.93,8-.41,8.32,6.17.19,4.55-2.76,10.27-7.58,9.71-3.68-.42-7.94-4.94-3-7.24a24.33,24.33,0,0,1,5.08,3.42c1.09-9.72-7.92-4.93-11.07-.46,3.62,3.61,8.11,6.08,11.87,9.27-10.2-3.29-24.91-5.26-24.49,6.47-5.47-2.54-11.51-4.06-16.78-3.48-7.67.86-14.27,10.18-10.62,17.7,3.5,7.19,14.73-.83,13.56-7-2-.91-4-.09-5.77,1.48,4-2.48,4.31,1.78,1.19,3.87-1.76,1.17-6.86,2.17-8.12-.26-3.34-6.43,12.57-9.72,16.44-7.85,11.5,5.57,5.61,23,17.27,29.45-5.49,2.31-10.5,7-7.65,12,3.21,5.71,14.62,7.86,10.5-.48,1,6.43-10-.9-4-5.86,4-3.27,11.38,3,13.19,6.84,4.63,9.79-7.27,15.86-16.54,14.64-.77-.94-1.54-1.88-2.32-2.81-3.47-4.14-11.58-15.08-18.2-13.77-2.1.42-4.33,2.18-6.37,4.43,1.06,2.48,2.17,4.92,3.33,7.34,3.42-3,7.58-4.81,9-.48.77,2.32-1.79,6.06-4.44,9.37a190.89,190.89,0,0,0,30.09,40.81,21.52,21.52,0,0,1,4.67,4.67q6,5.76,12.42,11a15.93,15.93,0,0,1,1.31-5.59c1.51-3.44,5.52-6.56,9.9-8.67,7.79-.7,16.26-1.53,22.48,3.89,7.76,6.75.82,16.77-8.09,17.11-2.61.1-9.89-1.58-11-4.57-1.68-4.5,5.45-2.05,7.8-1.37-3.56-2.81-18.49-9.72-12.6,1,3,5.37,11.36,8.15,17.28,9.24a29.05,29.05,0,0,0-3,2.19,16.68,16.68,0,0,0-2.15,2.13,190.6,190.6,0,0,0,21.4,11.07l0,0c.07-.1.12-.2.19-.3l.31-.36a2.17,2.17,0,0,1,.24-.29l.36-.34.3-.27c.13-.11.28-.21.42-.31l.35-.25.5-.29c.14-.08.26-.16.41-.23l.58-.26c.15-.07.29-.14.45-.2s.48-.18.72-.26.28-.11.44-.15c.41-.13.84-.24,1.29-.35a31,31,0,0,1,10.31-.1c6.48,1.67,13.35,2.61,19.15,1.4-.36,5.83.94,11.32,4.52,15.21A191.23,191.23,0,0,0,175.81,380,32.8,32.8,0,0,1,171.62,376.34Zm-1.92-340A9.79,9.79,0,0,1,171,38.56c.91,2.2,1.13,5.82.76,9.11-2.83-4.8-8.45-8.42-13.41-10.51L157.9,37A14.08,14.08,0,0,1,169.7,36.3Z"/></g></g></svg>