<svg xmlns="http://www.w3.org/2000/svg" xmlns:xlink="http://www.w3.org/1999/xlink" viewBox="0 0 380.54 380.54"><defs><style>.cls-1{fill:#85cfe8;}.cls-2{fill:#9f513a;}.cls-3{fill:#b3614a;}.cls-4{fill:#6a4f49;}.cls-5{fill:#5a443e;}.cls-6{fill:#532208;}.cls-7{fill:#903024;}.cls-8{fill:#7b231e;}.cls-9{fill:url(#linear-gradient);}.cls-10{fill:url(#linear-gradient-2);}.cls-11{fill:url(#linear-gradient-3);}.cls-12{fill:#fff;}.cls-13{fill:#3f0d00;}.cls-14{fill:#ca7460;}</style><linearGradient id="linear-gradient" x1="189.01" y1="107.44" x2="189.01" y2="35.55" gradientUnits="userSpaceOnUse"><stop offset="0" stop-color="#111820"/><stop offset="1" stop-color="#3e6b7c"/></linearGradient><linearGradient id="linear-gradient-2" x1="187.62" y1="106.72" x2="187.62" y2="37.79" gradientUnits="userSpaceOnUse"><stop offset="0" stop-color="#18242e"/><stop offset="1" stop-color="#578698"/></linearGradient><linearGradient id="linear-gradient-3" x1="188.94" y1="125.09" x2="188.94" y2="36.78" gradientUnits="userSpaceOnUse"><stop offset="0"/><stop offset="1" stop-color="#1d313b"/></linearGradient></defs><title>Asset 3</title><g id="Layer_2" data-name="Layer 2"><g id="Avatar_2"><circle class="cls-1" cx="190.27" cy="190.27" r="190.27"/><path class="cls-2" d="M263.45,341.07c-8-19.28.72-71.2.72-71.2L132.69,261s1.45,68.24-3.63,81.59c-2.3,6-12.44,12.8-22.87,18.43a190.55,190.55,0,0,0,173.26-2.61C272.4,353.49,266.16,347.62,263.45,341.07Z"/><path d="M134.68,273.82c-3.45,4.84-7.93,9.67-14.15,9a12.61,12.61,0,0,0-.34-6.21c-.35,2.76-2.76,4.48-3.8,6.55-1-5.17-2.07-12.77-6.9-16.22-4.48-3.1-10.35-2.41-14.84-5.86h0a15.44,15.44,0,0,0-3.79-13.81c-4.14-4.14-7.59-6.55-10-11.73C79.47,233.1,79.12,231,77.4,229h0c3.1-8.28,7.25-21.05-3.11-26.22a21.7,21.7,0,0,1,1-6.56s24.84,2.76,27.6,3.45,22.78,11.74,22.78,11.74Z"/><path d="M75.21,196.15A25.16,25.16,0,0,0,74,201.58c-.17,1.61.31,1.72,1.56,2.58a11,11,0,0,1,4.51,7.52c.94,5.74-1.1,11.86-3,17.19a.36.36,0,0,0,.09.34c2.09,2.36,2.95,5.73,4.54,8.43a30.39,30.39,0,0,0,5.35,6.3c2.26,2.15,4.55,4.13,6,6.92A14.45,14.45,0,0,1,94.32,261a.34.34,0,0,0,.16.4c4.84,3.56,11.77,2.65,16.14,6.93,3.83,3.76,4.5,9.93,5.49,14.93a.3.3,0,0,0,.54.07c1.25-2.29,3.35-3.94,3.82-6.63h-.56a13.5,13.5,0,0,1,.35,6.06.29.29,0,0,0,.27.36c6.36.55,11.06-4.26,14.31-9.16.11-.17-.16-.39-.29-.23-3.53,4.53-7.71,9.37-14,8.82l.28.36a14.24,14.24,0,0,0-.34-6.36c-.08-.26-.51-.3-.56,0-.46,2.63-2.55,4.24-3.77,6.48l.54.07c-1.39-7-2.56-14.88-9.94-17.92a51.61,51.61,0,0,0-6.12-1.77,23,23,0,0,1-3.44-1.21,14,14,0,0,1-1.43-.77c-.78-.46-.62-1.21-.54-2a15.89,15.89,0,0,0-3.14-11.06c-2.82-3.64-6.74-6.21-9.38-10.05a34.32,34.32,0,0,1-3.09-6.07,16.51,16.51,0,0,0-1.55-2.94c-.47-.68.38-2.06.63-2.75,2.14-5.95,4.33-12.9,1.43-19a11.38,11.38,0,0,0-3.57-4.13c-.89-.66-2-.67-1.93-1.84a21.25,21.25,0,0,1,.84-5.37c0-.15-.19-.21-.24-.06Z"/><path class="cls-3" d="M292.73,192.38l-6,2.54,4.62-49.81c-.46-1.84-5.52-19.33-8.28-21.17s-25.77-12-35.43-13.8-36.35-2.76-44.17-3.68-36.81-1.38-48.31,2.76-27.15,16.1-31.75,23-14.72,33.58-14.72,33.58L87.06,203.43s1,15.53,3.11,24.5,9.66,21.39,9.66,21.39c3.8,4.49,12.77,6.22,18.63,5.18a22.72,22.72,0,0,1,4.49,9.32c1.38,5.86,4.49,25.53,8.28,32.78s36.93,32.78,51.07,42.79c0,0,10.7,10,37.62,9.66s35.2-18.63,35.2-18.63,9-17.26,13.8-24.5a65,65,0,0,0,10.35-26.58c1.27-9.18,4-18.11,5.09-27.32.22-1.81.37-3.65.47-5.49,2.07-1.72,4.46-4.12,5.49-6.52,2.41-6.56,1.38-15.19,1.72-22.09l.35-.69a15.1,15.1,0,0,1,2.07-5.52C296.18,204.81,295.15,198.94,292.73,192.38Z"/><path class="cls-3" d="M285.83,240a25.52,25.52,0,0,0,3.45-11.39c.35-6.56.35-11.73.35-11.73l3.45-8.29-.35-6.21s-5.86,9.32-6.55,20.36c0,0,.69,5.87-1.39,7.94Z"/><path class="cls-4" d="M131.23,296.6c3.8,7.25,36.93,32.78,51.07,42.79,0,0,10.7,10,37.62,9.66s35.2-18.63,35.2-18.63,9-17.26,13.8-24.5a65,65,0,0,0,10.35-26.58c1.27-9.18,4-18.11,5.09-27.32.22-1.81.37-3.65.47-5.49l.16-.13-.54-1c-1.38,7.36-9.2,18.87-12,27.15s-8.75,25.77-8.75,25.77c.46-7.83.93-17,.93-17l-4.61-3.22s-2.76,1.84-3.68.46-3.68-2.76-6.9-3.68-11.5-4.6-14.26-4.6-7.82,5.06-11,6-6.45-4.14-11.05-5.06-9.2.92-14.26,2.3a101.55,101.55,0,0,1-13.35,2.3c-3.22.46-3.22,3.68-6.44,2.3s-4.6.46-7.36,4.6-6,16.57-6,16.57-8.28-10.59-11.5-15.19S128,251.85,128,251.85l-7.82-4.6c1.84,4.6,2.76,15.19,2.76,15.19l-.23.5c.08.29.16.58.23.88C124.33,269.68,127.44,289.35,131.23,296.6Zm45.55.69s2.07-5.52,7.25-6.56,15.87-4.83,19-5.86,12.42,0,15.87,0,4.83-3.46,4.83-3.46,2.42,3.11,4.49,3.46,6.9-.35,9.32.69,16.56,1,18.29,2.07,3.1,4.48,1.38,8.62c0,0-5.87,6.22-6.21,8.63s.34,15.19-12.08,15.53c0,0-9,4.83-14.84,4.83s-18.63-3.1-18.63-3.1-12.08,1.72-16.91-6.21-1.73-7.6-7.6-12.08C180.92,303.85,176.44,301.43,176.78,297.29Z"/><path class="cls-3" d="M113.29,243.11s-9.32,1-12.77-4.14-5.18-11.39-6.21-16.22A87.38,87.38,0,0,0,91.2,212.4H88.44s-2.76-7.25.35-9.32S100.52,201,100.52,201l5.18,12.08s2.76,9,4.48,10.7a6.16,6.16,0,0,1,1.73,6.21C111.22,232.07,110.53,236.55,113.29,243.11Z"/><path class="cls-3" d="M87.75,208.26s7.25,1.21,7.77,1.9-1.21,9.49,1.2,14.84c0,0-.17-8.46.52-10.36,0,0,4.14-.34,5.35,4.49,0,0-4.14,9.49-1.55,14.49,0,0,.51-8.45,2.41-9.14s4.49,4.83,4.49,4.83-1.9,5.87,3.62,8.63c0,0-1.38-4.32-.69-5.18s2.25-4.31,1.55-5.52-2.58-4.66-2.58-4.66-4-8.45-4.14-10.53-4.49-5.86-4.49-5.86l-13.46-2.07Z"/><path class="cls-3" d="M120.53,203.77s2.76-14.49,9-19.32,16.22-8.63,19.67-23.12,8.28-33.48,22.43-38,39-1,39-1,14.49,2.76,21.74.69,23.81,1.38,23.81,1.38,19,5.18,16.22,51.42l6.21,7.94s6.91,5.17,6.21,12.42l3.11-9.32-2.07-17.25s-1-34.16-3.11-35.55S272,123,267.89,121s-17.26-10-23.13-10.35-31.4-.69-40-.69-30,.69-36.93,3.11-25.19,14.83-25.19,14.83S130.89,147.52,128.47,152s-9.66,27.61-10.35,30a57.66,57.66,0,0,0-1,8.28Z"/><path class="cls-3" d="M139.17,206.53s-15.19-8.28-7.59-18.63c0,0,15.53-7.94,22.77-7.25S194.73,191,194.73,191l5.52-.69,3.8-2.76s1.38,17.95-13.81,23.12l-13.8-2.07-24.5.35Z"/><path class="cls-3" d="M233.72,211s-1.72-15.87,1.73-22.78c0,0,4.48,4.14,8.62,2.42s15.53-6.56,15.53-6.56l10-3.1,7.25,2.41,5.52,4.49s1.38,14.49-5.52,18.63l-9,2.76-12.43.69-12.08-.69-5.52.69Z"/><path class="cls-3" d="M197.72,245.87c4.73-6.66,8.55-14.73,9.44-22.77.38-3.5,1.11-8.17-.25-11.51-1.88-4.59-7.9-.19-10.64,1.85a76.36,76.36,0,0,0-7.5,6.54c-2.22,2.14-5,3.88-6.87,6.34a16.35,16.35,0,0,0-3.23,6.85,14.52,14.52,0,0,0,.59,8.39c.93,2.17,2.83,4.11,4.25,5.92,2.91,3.73,6.5,7.1,9.56,10.8-1-1.16.38-5.82,1-7C195.11,249.53,196.61,247.72,197.72,245.87Z"/><path class="cls-3" d="M245.57,247.25c-.79-2.43-4.33-4.21-5.81-6.39-1.8-2.64-1.53-5.3-2-8.33-.9-5.62-2.07-10.81-3.24-17.86,4.77,5.78,12.66,9.11,16.54,15.56,3.43,5.72,4,18.16-3.18,21.62Z"/><path class="cls-3" d="M161.83,219s19.33-3.22,23.47-6.68l3.91,1.16S176.32,220.34,161.83,219Z"/><path class="cls-3" d="M257.07,219s-14.94-3.22-18.14-6.68l-3,1.16S245.87,220.34,257.07,219Z"/><path class="cls-3" d="M211,245.39a31.12,31.12,0,0,0,.7,3.64c1.56,6,5.6,13.71,12.91,13.41C235.68,262,238,256,237.29,244.72S232.69,221,232,216.2s-.23-16.11-.23-16.11l-19.56,1.15a140,140,0,0,0-.92,20.48C211.67,229.57,210,237.58,211,245.39Z"/><path class="cls-3" d="M209.91,240.81s14.5-6.21,28.07-1.15l-.23-2.76s-14.26-3.91-28.53,1.61Z"/><path class="cls-3" d="M192.89,256.23c2.48,7.08,14-5.8,9-10.82-2.59-2.58-4.66,1.06-5.93,3.05-1.57,2.49-2,4.52-2.81,7.31Z"/><path class="cls-3" d="M246,248.63a12.91,12.91,0,0,1,1.84,7.14c0,2.22-.74,5.24-3.16,2.71-1.64-1.7-2-4.9-2.13-7.09-.1-1.95,1.31-6.66,3.45-3.22Z"/><path class="cls-3" d="M123,228.62l-3.45,9c.69,20.71-6.21,15.18-6.21,15.18s-.05.72-.13,2a22.78,22.78,0,0,0,5.3-.23,22.72,22.72,0,0,1,4.49,9.32c-.07-.3-.15-.59-.23-.88l.23-.5s-.92-10.59-2.76-15.19l7.82,4.6s23,27.61,26.23,32.21c.87,1.24,2.11,2.92,3.45,4.71-4.56-11.44-9.5-22.35-13.35-27C134.68,250,123,228.62,123,228.62Zm161.84,10.87c-1.38,8.28-14.14,28.47-14.14,28.47-1,9.26-3.73,19.62-6.84,29.28,0,.36,0,.72-.07,1.09,0,0,6-17.49,8.75-25.77s10.58-19.79,12-27.15l.54,1a27.73,27.73,0,0,0,3.47-3.47C285.75,243.14,284.79,239.49,284.79,239.49Z"/><path class="cls-5" d="M170.57,324.55s-6-18.49-12.88-35.78c-1.34-1.79-2.58-3.47-3.45-4.71C151,279.46,128,251.85,128,251.85l-7.82-4.6c1.84,4.6,2.76,15.19,2.76,15.19l-.23.5c.08.29.16.58.23.88,1.38,5.86,4.49,25.53,8.28,32.78s36.93,32.78,51.07,42.79c0,0,5.34,5,17.94,7.79a13.53,13.53,0,0,0-1.37-.54C188.52,343.19,170.57,324.55,170.57,324.55Zm113.88-79.14c-1.38,7.36-9.2,18.87-12,27.15s-8.75,25.77-8.75,25.77c0-.37.05-.73.07-1.09-3.38,10.49-7.21,20.15-9.73,26.62a70.92,70.92,0,0,1-10.53,18.73c8.48-5.39,11.57-12.17,11.57-12.17s9-17.26,13.8-24.5a65,65,0,0,0,10.35-26.58c1.27-9.18,4-18.11,5.09-27.32.22-1.81.37-3.65.47-5.49l.16-.13Z"/><path class="cls-3" d="M213.13,271.18c4.6.92,7.82,6,11.05,5.06s8.28-6,11-6a12.19,12.19,0,0,1,3,.6,27.84,27.84,0,0,0,3-3.59c2.76-.69,4.6-4.6,4.6-4.6-2.53-3.91-9-3.91-9-3.91-4.37,7.82-12,6.21-16.34,5.52s-7.59-5.29-13.11-5.75S195,261.75,195,261.75a6.35,6.35,0,0,0,3,4.14,19.13,19.13,0,0,0,5.79,6.19C207,271.19,210.05,270.56,213.13,271.18Z"/><path d="M203.47,262c3.91,5.06,8.51,1.61,8.51,1.61A12.75,12.75,0,0,0,203.47,262Zm31.06,1.15-.92,1.38c5.29,2.3,7.59-1.15,7.59-1.15A7.59,7.59,0,0,0,234.53,263.13Z"/><path class="cls-6" d="M193.65,258.46c-1.36-4.68,1.61-9.29,4.25-12.89a.08.08,0,0,0-.12-.09c-3.16,3.55-5.74,8.27-4.82,13.17s5.77,7.62,10,9.4c.11.05.18-.13.08-.18C199.06,266,194.94,262.91,193.65,258.46Zm20.56,6.24c-3.26-3.26-11-5.28-14.38-1.31-.1.11,0,.26.15.16,3.81-3.43,10.26-.67,14,1.49A.22.22,0,0,0,214.21,264.7Zm28.18-.58a7.07,7.07,0,0,0-7-1.61,23,23,0,0,0,3.27-6.13c1.33-3.89,1.12-8.27.7-12.29-.43-4.23-1-8.5-1.71-12.7-.72-4.43-1.61-8.81-2.41-13.22a114.22,114.22,0,0,1-1.68-14.4.15.15,0,0,0-.3,0c-.34,7.6,1.67,15.33,3,22.74.73,4,1.15,7.94,1.71,11.92a63.48,63.48,0,0,1,1,12.68c-.37,6.38-4,12.1-9,15.92a13.22,13.22,0,0,1-7.6,2.93c-3.23.07-5.86-1.78-7.81-4.19-.12-.16-.39.05-.27.2,6.21,8.35,15,4.14,20.4-2.54a.31.31,0,0,0,.28,0c2.51-1.3,5.13-.73,7.39.79A.06.06,0,0,0,242.39,264.12Zm2.1-22.06c0-.09-.15-.07-.15,0,.06,4.7,3.5,8.54,3.5,13.31a15.24,15.24,0,0,1-6.91,12.15.09.09,0,0,0,.08.15,14.5,14.5,0,0,0,7.52-10.83C249.34,251.49,245.47,247.1,244.49,242.06Z"/><path class="cls-3" d="M291.85,217.92c-.66,5-.1,10-.53,15a32.92,32.92,0,0,1-.58,3.82c-.22,1.08-.79,2.21-.9,3.29-.14,1.32-1.45,2.65-2.26,3.59a26.39,26.39,0,0,1-2.49,2.47c.08-1.53.13-3.06.15-4.6.09-9.42-1.55-18.82-.13-28.2.06-.39.12-.78.2-1.17.05-.22-.3-.32-.34-.09-1.47,7.1-.72,14.33-.37,21.49a115.86,115.86,0,0,1-.28,16.56,143.55,143.55,0,0,1-3,16.85c-1.15,5.31-1.89,10.68-3,16a63.07,63.07,0,0,1-5,14.63,108.29,108.29,0,0,1-6.16,10.52c-1.84,3-3.57,6-5.27,9.09q-3.62,6.5-7.05,13.1a28.48,28.48,0,0,1-3.36,5A36.07,36.07,0,0,1,239,344.73c-7.9,3.71-16.67,4.32-25.27,3.93a69.59,69.59,0,0,1-22.24-4.41,32.54,32.54,0,0,1-8.72-4.8c-3.49-2.86-7.33-5.34-10.94-8.05q-9-6.75-17.74-13.79c-5.29-4.26-10.52-8.6-15.49-13.22-3.22-3-6.51-6-8.17-10.13-2.64-6.59-3.91-13.8-5.3-20.74-1.23-6.17-1.94-12.64-5.58-18a14.36,14.36,0,0,0-1-1.23c-.22-.25-1.29.08-1.42.1a25.09,25.09,0,0,1-14-2.68A10.37,10.37,0,0,1,99,247.36q-2.25-3.9-4.21-8a61.76,61.76,0,0,1-4.16-10.67,81.74,81.74,0,0,1-1.89-10.66q-1-7.29-1.46-14.63c0-.21-.35-.22-.33,0,.35,5.36.88,10.73,1.6,16.06a71.23,71.23,0,0,0,2,10.65A68.48,68.48,0,0,0,95,240.89q1.94,3.92,4.16,7.7a11.19,11.19,0,0,0,5.09,4.19A25.36,25.36,0,0,0,115,255c.61,0,3.15-.52,3.45-.16a19.55,19.55,0,0,1,2.22,3.5,34.49,34.49,0,0,1,2.88,9.59c.65,3.34,1.3,6.69,2,10,1.31,6.24,2.46,13.19,5.52,18.88,2,3.64,5.74,6.62,8.74,9.35,5.17,4.69,10.58,9.12,16,13.49,8.82,7.05,18,13.55,26.94,20.45,8.53,6.6,20.57,8.55,31,9.08,13.62.71,27.65-2.08,37.22-12.48,4.28-4.66,6.78-10.8,9.77-16.28q2.6-4.75,5.33-9.43c1.82-3.1,3.87-6.05,5.66-9.17A68.55,68.55,0,0,0,277.39,289c1.61-5,2.16-10.24,3.14-15.41,1-5.43,2.33-10.79,3.29-16.22a91.23,91.23,0,0,0,1.24-10.78,23.39,23.39,0,0,0,5-5.44,15.15,15.15,0,0,0,1.95-6.49,100.13,100.13,0,0,0,.21-16.7A.2.2,0,0,0,291.85,217.92ZM293,192.24c-.15-.29-.57-.08-.5.22.46,2,1.22,4,1.67,6a31.13,31.13,0,0,1,.68,7c0,2.11-.72,4.14-.81,6.22a8.12,8.12,0,0,1-.91,2.34,14.91,14.91,0,0,0-.86,3.14c0,.19.25.27.29.08a18.67,18.67,0,0,1,.7-2.64,14.48,14.48,0,0,1,.86-1.88c.29-.58.54-.46.75-.82,1-1.62.9-4.61,1-6.44A28.71,28.71,0,0,0,293,192.24Z"/><path class="cls-3" d="M292.62,202.33c-2.65,4.21-4.16,9.17-5.41,13.95-.32,1.21-.6,2.44-.84,3.67-.11.54-.2,1.09-.29,1.64a12.18,12.18,0,0,0-.39,1.32c-.1,2.75.91,5.22-1.17,7.51-.33.36.2.9.55.54a6,6,0,0,0,1.69-5.35,17.82,17.82,0,0,1-.29-3.91c.19-1.31.45-2.61.73-3.91,1.13-5.24,2.78-10.75,5.64-15.33.09-.14-.13-.27-.22-.13Z"/><path class="cls-3" d="M112.77,229.6c1-2.95-1.66-4.71-3-7-1.83-3.25-2.66-7.13-4.12-10.56a26.63,26.63,0,0,0-4.67-7.64,6.37,6.37,0,0,0-.94-3.6c-.19-.25-.58,0-.58.24a10.47,10.47,0,0,0,.35,2.05c0,.05,0,.11,0,.17l-.27-.26c-.14-.12-.35.08-.21.22l.56.64a18,18,0,0,1,0,2.65,12.33,12.33,0,0,1-1.94,6.36c-.18.26-1.09.9-1,1.29a23.44,23.44,0,0,1-.37,4.24c-.19,2.95,0,5.92.06,8.87a0,0,0,0,0,0,0c0-3-.07-5.92.16-8.87.11-1.5.16-3.35,1.35-4.42a7.28,7.28,0,0,0,1.57-2.41A15.58,15.58,0,0,0,101,206c0-.27,0-.56,0-.87,2.82,3.75,4.42,8,6,12.35a18.33,18.33,0,0,0-3.6.93c-.92.26-1,.37-1.41,1.25a26.33,26.33,0,0,0-1.68,6.54c-.51,3.67-.45,8.69,2.9,11.07,0,0,.11,0,.07-.08-3.24-2.66-3.07-7.54-2.54-11.3a26.76,26.76,0,0,1,1.3-5.22c.28-.77.32-1.27,1.09-1.39,1.33-.21,2.55-.84,3.91-1a.38.38,0,0,0,.24-.11c.59,1.57,1.19,3.14,1.86,4.69a30.1,30.1,0,0,0,2.4,3.57c1.13,1.82,0,3.67-.69,5.45-.61,1.6-.2,2.53,0,4.13a21.37,21.37,0,0,0,2,6h0a28.34,28.34,0,0,1-1.89-6.67C110.82,233.5,112.16,231.34,112.77,229.6Z"/><path class="cls-7" d="M188.52,294.53S204.05,308,214.4,311.09c0,0,11.39,2.42,22.08-1a33.38,33.38,0,0,0,5.87-8.28c2.07-4.49,11-11,11-11s-8.63,1.73-11.39,1.73-17.94-.69-19-.35-17.59.69-17.59.69Z"/><path class="cls-8" d="M242,292.46c-2.76,0-17.94-.69-19-.35s-17.59.69-17.59.69l-16.91,1.73s1.62,1.41,4.16,3.41c4-.22,24-1.27,32.41-.65,9.14.68,12-3,22.18-1.47a74.75,74.75,0,0,1,6.12-5.09S244.76,292.46,242,292.46Zm-16.56,17.6c-8.63.69-19.67-3.11-19.67-3.11l-.05.09a41.37,41.37,0,0,0,8.68,4s11.39,2.42,22.08-1a35.65,35.65,0,0,0,3.52-4.27l-.07-.22A33.92,33.92,0,0,1,225.44,310.06Z"/><path class="cls-8" d="M256.5,287.63s-6.9,3.79-11.74,3.45-7.52-4.61-10.69-4.83c-4.83-.35-9,2.76-9,2.76s-5.86-3.8-10.69-2.76-12.08,5.86-20,6.55a38.76,38.76,0,0,1-14.15-1.38c11.94,7.85,27.59.53,40.28,3.36l.79.79a26.59,26.59,0,0,1,5.18.34,7.54,7.54,0,0,0,3.75-1.72h0C240.62,291.77,248.22,295.91,256.5,287.63Z"/><path class="cls-8" d="M221,294.68c-2.86-1.09-6.3-1-9.31-.86-3.43.15-6.86.57-10.28.92-7.22.72-14.82.58-21.18-3.33,0,0,0,0,0,0,5.86,3.88,12.77,4.12,19.57,3.68,3.61-.24,7.23-.57,10.85-.69a80.63,80.63,0,0,1,10.31.65C221.2,295.1,221.21,294.75,221,294.68Zm35.39-7.21c-2,1.56-3.84,3.25-6.33,4.13a17,17,0,0,1-3,.76,30.58,30.58,0,0,0-3.05.29c-2.12.61-4.51.42-6.7.5a38.92,38.92,0,0,0-6.08.7,25.17,25.17,0,0,0,1.89-2c.1-.12,0-.32-.18-.23-1.48.92-2.74,2.14-4.25,3-2.25,1.31-4.93.73-7.41.74a.16.16,0,1,0,0,.31c1.42,0,3.73-.26,4.95.57.43.29,1.62-.21,2-.38a10.32,10.32,0,0,0,2.6-1.7,45.22,45.22,0,0,1,7.43-.76c2.22-.06,4.57.32,6.75,0,4.22-.56,8.86-2.32,11.6-5.73C256.75,287.61,256.59,287.32,256.4,287.47Z"/><path class="cls-9" d="M144.72,111c-.37-1.94-4.14-6.14-5.47-7.67-1.89-2.2-3.73-2-6-3.45-1.87-1.24-5.16-4.42-6.11-6.56-1-2.31-.39-4.57-1.8-6.46-2.06-2.77-5.66-4.32-8.69-6.21,3.12,2.71,6.52,6,8,9,1.2,2.37,1.26,4.48,3.18,6.82a70,70,0,0,0,5.1,5.95c1.6,1.54,3.78,2.41,4.83,4.48.89,1.78.7,3.66,1,5.6.83,5.12,5,7.77,6.57,12.35l1.73,1c.06-2.8-1.78-4.42-2.69-6.89C143.27,115.76,145.21,113.5,144.72,111Zm-28-30.35c-1.34-1.16-2.63-2.22-3.69-3.08A13.67,13.67,0,0,0,116.68,80.6Zm120.73,34.76a10.18,10.18,0,0,0-.23,1C237.25,116,237.33,115.69,237.41,115.36Zm38.32-12.43c.16-2.48,2.87-5.12,3.62-7.52.71-2.25.61-4.5,1.3-6.81,1-3.12,5.28-8,5.12-11.07-.08-1.57-2.26-3.84-2.8-5.73-.16-.58-.3-1.16-.42-1.73a10,10,0,0,0-6.38-2.26c0-1.65,0-3.51-.18-5.25-.47,2.71-1.33,5.58-.51,7.66.59,1.5,1.9,2.32,2.42,3.79a37,37,0,0,1,1,5.55c.79,5.36-1,11.19-2.77,16.21a60.73,60.73,0,0,0-1.62,6.62c-1,4-4.18,6.49-5.54,10.28l-4.49,7.59c3.71-1.93,10.17-8.16,11.75-12.08C277.21,105.64,275.57,105.32,275.73,102.93Zm25.63,71.85a12.71,12.71,0,0,1-.79-5.1,4.57,4.57,0,0,0-2.24.35c-1.33.75-2.3,2.7-3.43,3.71-1.87,1.65-7,6.94-9.29,6.9,2,1,12.28-4,9.45,1.64-1.41,2.81-6.93,5.31-11,6.11a5.06,5.06,0,0,1,0,.54c0,.24,0,.5,0,.76a25.88,25.88,0,0,0,6.23-2c2-1.13,4.93-4.75,7-1.17,1.24-.56,1.93-2,2.56-3.09-.42-.1-.74-.29-1.19-.39-.37-2.88,3.14-4,5.36-5A7.49,7.49,0,0,0,301.36,174.78ZM107.77,132.34c7.41,1.37,14.5,1,21.29,5-5.36-5.83-13.58-3.91-20.16-7.2-6.11-3-11.69-8.64-18.05-11-4.46-1.65-9.75-.33-14.14.73V122c2,2.62,8.13,4,11.7,5.37-2.13-2.54-6.5-2.94-8.22-5.66C89.39,120.55,98.75,130.67,107.77,132.34Zm178.51,62.47c4.23.09,8.23-1.95,12.39-2.35.5-.05,1-.08,1.49-.1a1.72,1.72,0,0,0,.51-.67c.54-1.34,0-2.27.43-3.75C295.31,188.39,291.85,193.29,286.28,194.81Zm-6.91-41.39c5.77-1.86,13.58-4.93,17.24-9.68,2.37-3.07,4.77-3.76,7.85-6a16.1,16.1,0,0,0,2.81-2.65,6,6,0,0,0-3.5-2.78c-1.71-.57-2.8-3.26-2.95-6.71a21.94,21.94,0,0,0-4.72,1.86c-5.11,3.18-5.1,9.69-7.42,14.44-2,4-4.31,3.55-8.29,3.17-2.38-.23-3.49,0-4.16.7.13,1.33.25,2.71.35,4.11,3.8-1.22,8.38-1.68,11-4,2.11-1.85,2.28-4.47,4-6.65,2.32-3,4.16-1.89,7.37-2.63C295.19,145.46,287.24,149.18,279.37,153.42Zm16.48-37.58c-.09-2.68-1.84-3.76-2.5-6.19a13,13,0,0,1,.13-6.94,8.1,8.1,0,0,0,5.34-1.49,12.7,12.7,0,0,1-1.95-.28c-3.1-.69-5.52-3.11-4.14-6.21s1.73-5.53.69-7.25a3.21,3.21,0,0,0-1.62-1.25,14.81,14.81,0,0,1-.35,9.45,24,24,0,0,1-2.25,4.14c-1,1.17-2.15,1.16-2.95,2.57s-.54,5.09-.84,6.83a68.31,68.31,0,0,1-2.42,9.92,39,39,0,0,1-5.83,10.32c3-3.81,5.84-5.63,7.3-10.23.82-2.59,4-14.56,5.86-6.56s-4.18,13-8.21,18.63c-1.52,2.13-4.22,6-7.1,7.76.16.59.32,1.2.46,1.81,5-4.88,8.72-10.16,13.38-15.53C291.43,122.38,296,120.57,295.85,115.84Zm11.78,22.88a12.13,12.13,0,0,0-2.13,3.7c-1.57,5.06-2.65,8.73-6.83,12.63-2.59,2.41-6.83,6-10.16,7-3,.92-6.23,0-8.77,2.43,5.16-1.13,9.19-1.71,14-3.91a33.85,33.85,0,0,0,7-4.3c2.14-1.76,3.2-5.22,5.47-6.53,3.87,4.8-13.34,15-16.47,16.81,2.44.1,4.74-1.63,7.12-2.11.95-.18,2.77-.71,3.73-.25.67.31,1,1.3,1.3,2.06,2.25-3.17,2.91-8.69,2.91-8.69s6.56-6.9,7.25-13.11C312.06,144.42,310.48,140,307.63,138.72ZM206.44,113.59a7.73,7.73,0,0,0,.5-4.06A18.28,18.28,0,0,1,206.44,113.59Zm-60-22.93c-.55-3.13.31-6.28-1.8-9-2.22-2.83-6.12-3.71-8.54-6.29s-3.13-6.36-6.13-8.38c-5.18-3.49-13.11-2.36-18-6.74a3.19,3.19,0,0,1-.26-.26c-.64,1-1.68,1.45-3.52.88a7.94,7.94,0,0,1,1.78,1.76,35.52,35.52,0,0,1,10.56,8.93c2,2.9,3.2,5.83,6.63,7.35,3.58,1.58,6.44,1.13,8.55,5,1.87,3.44,1.36,7.13,3.88,10.36s5.89,4.28,9.31,6.27c5.24,3,6.45,7.89,8.3,13.37-.05-6.42-1.48-10.86-6-15.33C148.82,96.29,147,94,146.4,90.66ZM88.37,113c-1-5,8.83-1.84,11.11-1.1,3.81,1.25,6.1,3,9.3,5,3.63,2.29,8.27,1.3,12.1,3.71s5.39,6.82,8.93,9.43c-3-4.29-4.66-11.13-10-14.19-4.25-2.43-9.58-1.32-14.13-2.91-5.23-1.84-10.34-2.7-15.53-4.14a21.89,21.89,0,0,1-11.51-8c-.83.7-.77,1.86,1.15,4.59-2.69-.1-4,1.86-4.66,4.68a3.1,3.1,0,0,1,1.55-.9C80.27,108.49,85.16,111.83,88.37,113ZM201.21,90.66c-1.53-1.64-5.16-3-7.14-4.3-2.69-1.73-6-2.92-6.6-6.47-.46-3,1.33-5.71,1.06-8.63-.51-5.62-1.47-13.12-6.92-15.61-3.69-1.68-7.11-1.82-7.94-6.48-.73-4.1-.65-5.88-4.15-8.7-2.66-2.14-6.45-4.38-8-7.59-.16-.34-.32-.67-.46-1a13.42,13.42,0,0,1-1.51-.3c-5.52-2.08-4.83-3.11-11.39-1.39.35.35,1,1.39,1.38,1.73a11.29,11.29,0,0,0-1.91-.35c3.46,3.42,11.72,8.52,13.65,10.36,2.76,2.62,6.27,4.24,9,6.8,2.53,2.39,2.46,5.05,5.85,7.09S182,58.56,183,62.9c.67,2.88,1.3,5.52,2,8.36.8,3.29-.68,5.67-.62,8.64s2.92,4.48,5.52,6.2c5.61,3.71,9.71,7.09,13,13,1.47,2.64,3.64,6.71,4,10.39.05-4.09-1.38-7.45-2.81-11.78C203.41,95.57,202.77,92.34,201.21,90.66Zm-24.15-26.9c-1.75-2.57-5.85-3-8.22-4.65-3.21-2.17-4.85-5.75-7.32-8.55-2.31-2.64-5.25-3.23-8.2-5.09-4.42-2.78-2.74-5.78-4.41-9.85a16.53,16.53,0,0,0-3.18-4.39h0c-.35,2.41-1.73,5.52-4.15,6.56a2.51,2.51,0,0,1-1.4.39,23.61,23.61,0,0,1,5.22,5.57c2.52,3.93,4.23,3.9,8.19,6.11,3,1.66,4.44,4.65,7.06,6.63,4,3,9.59,4.25,13.3,7.5,2.34,2.05,2.16,5,3.87,7.28s4.17,3.25,3.8,6.91c-.28,2.68-2.41,4.27-3.1,6.88-.84,3.15,0,5.83.69,8.87,0-3.1-.26-6,.76-8.87s2.47-4.51,2.41-7.59c-.06-3.41-1.19-4.37-2.75-7C178.38,68.38,178.35,65.67,177.06,63.76ZM162.64,87.82c-.15-3.67-.21-5.16-1.82-8.28-2-3.81-1.66-7.2-2.4-11.32C156.67,58.59,147.94,61,141.23,57A24.75,24.75,0,0,1,133,48.58,69.14,69.14,0,0,1,125,45a6.56,6.56,0,0,1-.76,1c.71,2.25-.39,4.75-.29,7.21.16,4.07,3.18,5.17,6.57,6.71,4.73,2.15,9.63,3.87,13.73,7.19,3.5,2.83,3.1,5.16,5.16,8.6,1.71,2.87,5.46,3.51,7.61,6.22s2.14,5.25,2.49,8.63c.63,6.09,6.88,9.47,7.93,15.76,0-3.26.36-7.3-1.12-10.25C164.64,92.7,162.8,92.1,162.64,87.82ZM136.4,113.71c-.48-3.51,0-5.49-3.09-7.94-2.63-2.06-6.09-2.87-8.63-4.83-2.94-2.28-3.92-6.07-6.55-8.64-5-4.85-12.77-4.26-16.92-10-3.93-5.43-7.52-6.58-13.33-5.49-1.32,3.19-.1,7.59-2.75,9.51a50,50,0,0,1,6.49.12c3.66.39,4.41,2.09,6.9,4.47s4.71,2.48,7.5,3.47c6.24,2.2,8.13,8.34,13.49,11.74,5,3.19,11.06.7,13.78,7.24,1.85,4.43,5.8,7.4,8.68,11.59a20.13,20.13,0,0,0-1.51-3.29C139,118.91,136.82,116.8,136.4,113.71Zm97.13-16.25c3-5.81,9-9.39,11.24-15.5,1-2.74,2.41-3.52,3.78-5.85.72-1.23.62-2.78,1.46-4.08a4.15,4.15,0,0,1,.39-.52c1.35,4.59-.58,9.5-.8,14.24-.31,6.38-2.9,11.4-6.52,16.51a23.09,23.09,0,0,0,9.28-15.56c.56-4,2.32-6.59,3.38-10.27,1-3.35-1.13-6.87-2-10.41a26.33,26.33,0,0,0,.26-8.91c-.36-2.63-.07-6-.62-8.63-.46-2.23-2-3.84-3.18-5.68-.73-.27-1.61-.55-2.68-.87a4.43,4.43,0,0,0,.34,2.07,9.9,9.9,0,0,1-1.55-1c0,.09.05.19.08.28,1.44,3.7,3.21,4.57,3.2,9.34,0,4,.34,8.28.36,12,0,3.5-1.46,3.6-2.7,6.3-1.12,2.44-.48,6.82-4.57,3.65-2.3-1.77-2.46-6.37-2.84-8.9-1-6.94,3-13.34-.68-19.74a59,59,0,0,0-5.87-7.85c-2.14-2.65-1.82-3.53-1-4.83a40.91,40.91,0,0,0-4.94-.36A18,18,0,0,0,229,37c1.58,2.84,4.46,5,5.87,8,1.23,2.62,6.37,19.2,2.7,21-4.49,2.19-7-13.19-8.22-14.86-.88-1.16-2.42-1.39-3.55-2.25a25.22,25.22,0,0,1-4.14-4.58c-2.69-3.48-1.11-6-2.48-9.22-.74-1.75-3.06-3.66-4.86-5.36-1.35-.09-2.69-.11-4-.26a8.8,8.8,0,0,1,1.38,2.42c-4.12,1.29-5.93-2.6-9.3-3,1.09,2,8.45,5.14,10,6.13,3.13,2,4.24,4.6,5.38,7.86,1.83,5.23,3.73,9.21.76,14.5,6.38,5,4.5,17.9,5.2,25.26.77,8-5.37,15.84-4.5,24.25,2.37-4.3,8.67-9.49,9-14.32.2-3.08-1.73-6.5-1.72-9.93,0-8-1.66-15.42-3.44-22.92-.94-4,.19-10.11,4.55-4.86,2,2.42,2.69,5.21,3.71,8.11s3.37,6,3.81,8.91c.49,3.22-.59,5.94.08,9.31.84,4.25.1,9-.68,13.38C234.34,95.57,233.76,96.52,233.53,97.46ZM126.75,160.72c-3.86,1.19-10.88-2-14.37-3.55,4.63-.49,8.52-3.08,12.88-4.48-3.46-.38-6.78,2.12-10.25,2.1-3.06,0-6.3-1-9.56-1.06a50.66,50.66,0,0,1-22.53-4.91c-2.79-1.35-5.62-1.63-8.55-2.68-1-.37-4.27-2.16-6.44-3.18-1,1.68-2.25.6-1.92,4.22a6.4,6.4,0,0,0,1.33,3.28c2.68,1.5,6.53,1.09,9.29,1.53a16.84,16.84,0,0,1,5.48,1.76c-4.08-.06-8.48.4-12.47-.28-2.93,1.42-2.88,4.43.17,5.44-.66,1.1-1.18,2.61-2,3.84,3.07-1.37,6.11-3.13,9.32-4.28,4-1.43,6.36.22,10.38.09,4.55-.13,8.68-1.77,13.37-1.72,4.15,0,9.09.75,12.84,2.75,4.57,2.45,9.39,6.22,15,2.7,2.6-1.62,3.36-3.61,6.63-4.41.87-.22,1.57-.36,2.17-.48.58-1.44,1.07-2.69,1.41-3.58-1.91.76-3.88,1.85-5.65,2.76C131.06,157.73,129,160,126.75,160.72Zm-18.39,24.84c-2.61-2.18-2.62-2.66-6.11-3.52-2.84-.69-4.59-2.44-7.26-3.55-5.54-2.32-11.33-1.25-16.22-5.34-3.77-3.14-7.08-7.36-12.08-8.26a17,17,0,0,1,5.53,6.45c-.42.26-.79.51-1.12.75,3,.81,5.12,4.1,8.37,5.45,5,2.1,11.88,1.23,16.18,5.19-2.09,5-11.42-.12-14.44-1.39s-6.58-.85-9.7-2.15c-.4-.16-.8-.35-1.2-.55a18.09,18.09,0,0,1,.88,2.36c1,2.87.14,6.33.29,9,2.28,1.11,4.58,3.42,7,3.74,4.71.65,6.53,2.28,10.68,4.57,4.38,2.41,8.35,1.45,13.13,2s7.72,4.55,10,8.64l3.8,2.76c-2-3.59-4.57-9.87-8-12.34-5-3.6-11.79.51-17.21-1.81-2.26-1-3.78-3.26-5.92-4.41-3.18-1.7-4.76-2.28-6.82-5.6a22.48,22.48,0,0,0-2.94-3.75c1.85-.12,3.86-.63,5.7-.39,2.49.34,5.05,1.53,7.59,2.06a18.72,18.72,0,0,0,9.34-.25c2.32-.6,4.21-1.6,6.54-.7,3.74,1.44,9.42,5.23,11.73,8.55l1,2.08c-.78-1.63-1.29-5-2.83-6.48S110.27,187.14,108.36,185.56Zm162.3-96.63c1.23,2.46-.81,7.26-1.61,9.49,3.64-5,9-19.24,4.44-25.07-.95,3.63-5.06,11.65-6.64,4.12-.63-3,.34-6.82.35-10,0-3.49,1-5.83,1.69-8.9-.46,0-.91-.07-1.35-.07-2.76-5.86-3.11-11.39-11-8.28h0a11.09,11.09,0,0,0,1,2.7c.82,1.42,2.49,2.37,3.21,3.85s.9,2.93,1.63,4.24c.91,1.61,2.1,2.61,2.68,4.49,1.78,5.76-.21,11.24-1.56,16.85-.87,3.59-.68,5.06-3.87,7.13-2.89,1.88-2.81,2.26-4.42,5.62s-3.8,4.27-7.25,5.77c-7,3-8.89,7.71-10.54,14.51,1.17-4.06,5.09-9.15,8.73-10.65,1.92-.78,4.68,0,6.49-1.42,1.63-1.25,2.67-4.71,3.61-6.49,2.26-4.28,4.51-5.34,8.09-6.94-.39,1-.76,2.12-1.28,3.24-1.38,3-3.05,3.58-4.74,5.85-1.81,2.44-2,4.9-4.65,7.08s-5.8,3.36-7.52,6.3l-2.41,4.83c4.9-3.45,11.43-7.24,14.81-12.71l-.62-.12c.3-4.36,3-3.28,5.23-5.45s4.47-7.57,5.56-11.34C269.38,87.23,269.91,87.41,270.66,88.93ZM68.33,142.3c3.52,1.63,11.67,2.54,13.91,2.73,2.74.23,4.12-.94,6.55-1.31,2.63-.4,5.54.57,8,1.3,5.18,1.53,9.34,2.86,14.75,2.85,4.4,0,9.59.16,13.33,2.71-4.89-4.93-11.39-3.42-17.55-4.42a28.83,28.83,0,0,1-10.27-3.37c-2.45-1.52-6.35-3.14-8.25-4.86,4.49-1.32,9.81-.21,14.46-1.18,5-1,8.16-1.67,13.35-.94-9-3.51-16.53,1.14-25.77.68-5-.25-10.2.12-14.5-2.78-2.11-1.42-4.28-3.46-6.65-5a4.34,4.34,0,0,1-1.28.14,17,17,0,0,0,1,5.64c4.19,2.6,10.3,3.76,13.78,4.1-3.57.53-7.1,2.12-11.11,1.31l-1.65-.35C71.35,141.28,69.36,141,68.33,142.3ZM217.17,79.54c.62-3.85,2.12-6.51.26-10.35s-4.76-1.39-6.14-4.49.11-6.89-1.64-10.35c-1.53-3-3.2-6-4.83-8.9-1.28-2.31-1.89-4.63-2.93-7-.84-1.89-1.27-5.39-2.32-6.85a2.91,2.91,0,0,0-1.15-.81,7,7,0,0,0,.45,1.43,4.68,4.68,0,0,1-5.52-.68l-2.07-.35a8.23,8.23,0,0,0-4.23-1.87,28.08,28.08,0,0,1,5.36,5.93c2.43,3.68,6,5,8.55,8.36,3.24,4.22,10.66,14.84,6.81,20.32-2.24-1.3-2.78-4-4.41-5.82-1.79-2-2.76-1.35-5.53-2.07-2-.54-4.45-1.75-5.43-3.82s0-4-1.73-5.59c-1.5-1.36-4.2-1.71-5.95-3.36-2.11-2-3.89-4.29-5.88-6.29a55.36,55.36,0,0,1-5.16-5.44,10.3,10.3,0,0,1-1-1.64,25.36,25.36,0,0,1-3.23,0c1.66,2.66,4.91,6.44,5.71,8.14,1.44,3.08,1.31,6.83,4,9s6.58,2.19,8.21,5.85,1.22,4.72,5.6,6.57c3.28,1.38,6.22,1.41,8.9,4.12,1.57,1.59,2.37,3.8,4,5.21s3.47,2,5.1,3.1c4.09,2.89,4.18,7.33,4.13,12.07,0,2.56-.06,4.61-1.46,6.85-1.11,1.78-2.1.68-2.34,3.16s2,6.89,2.49,9.65c.64,3.37,1.29,6.78.32,10a7.21,7.21,0,0,1,.93,0,17.4,17.4,0,0,0,.83-8.57c-.55-3-2.36-5.55-1.55-8.63.69-2.6,4.08-5.12,4.23-7.93S216.61,83,217.17,79.54Z"/><path class="cls-10" d="M141.18,108.3c-1.05-1.91-1.75-3.64-3.45-5.12-1.86-1.62-4.28-2.25-6.19-3.77,2.21,2,5.64,3.15,7.24,5.72,1.05,1.69,1.14,4,1.82,6,.77,2.22,1.71,4.47,2.59,6.63l.93,1.38c-.13-1.81-.13-4.11-.46-6S142.26,110.25,141.18,108.3ZM125.48,89a3.74,3.74,0,0,0-2.68-3.23A29.76,29.76,0,0,1,125,89.2ZM93,154.37c-4.23-.8-8.09-3.49-12.36-4.61-5-1.32-10.36-1.59-14.66-3.82a11.69,11.69,0,0,0,.05,1.24,5,5,0,0,0,.67,2.2c.45,0,.84.07,1.12.11,5.36.72,10.27,0,15.52,2,1.29.48,4.73,1.6,3.29,3.28-1,1.13-5.15.91-6.46.92-3.07,0-6.16-.36-9.19-.24-1.13.05-2.27.14-3.4.25-.33,1.27.41,2.6,2.25,3.21a11.7,11.7,0,0,0-.59,1.12c2.91-.9,6.74-2.59,8.4-2.73,3.49-.29,6.91-.53,10.42-.69,3.27-.14,6.18-1.07,9.31-1.38,4.9-.5,9.82.47,14.6,1.16a38.69,38.69,0,0,0-9.47-2.08C99.35,154.16,96,154.92,93,154.37Zm35,6.84-7.82.46C123.15,163.48,125.29,162.28,128,161.21Zm47.16-97.77,3,5.06A5.3,5.3,0,0,0,175.17,63.44Zm-50.24,59.85a25.52,25.52,0,0,0-3.19-5.05c-1.64-1.7-2.8-1-5-1.43-1.79-.34-2.73-1.56-4.6-2a47.59,47.59,0,0,0-6-1.2l.46.23c1.81,1,3.07,2,5.11,2.35A33.82,33.82,0,0,1,117,117,16.67,16.67,0,0,1,124.93,123.29Zm40.3-82.63c-3.65-2.48-6.1-6-9.15-9l-3.45.23c.39,2,3.45,4.78,4.89,6.15a27.19,27.19,0,0,0,6.67,4.22,25.11,25.11,0,0,1,8.47,6.57c-.76-1.76-1.62-4.14-3-5.51C168.46,42.19,166.63,41.61,165.23,40.66ZM155.16,48a16.51,16.51,0,0,1-5.07-4.53c-1.91-2.31-2.1-6-3.9-8.06l-3,3.45a91.39,91.39,0,0,0,6.45,7.82c1.7,1.69,3.85,1.82,5.93,2.77,4.15,1.87,7.51,6.28,11.24,9-1.89-2.16-3.8-4.3-5.66-6.47S157.64,49.15,155.16,48ZM172.87,33.3l1.61,2.07C174.87,34.23,174.24,33,172.87,33.3ZM161.65,87.13a12.09,12.09,0,0,0-2.07-5.34c-1.05-1.57-2-2.56-2.35-4.54-.44-2.42.53-5,0-7.32-.63-2.8-4.26-5.93-6.64-7.39,1.16,2.35,5,7.94,2.68,10.52-2.24-.5-2.64-5.49-3.7-7.32a15.79,15.79,0,0,0-5.91-5.53c-2.91-1.7-6.92-2.42-9.44-4.65-1.86-1.64-1.35-4.89-2.53-6.15l-4.6-.93c.79,1.94.35,3.88.86,5.84s.84,1.83,2.77,2.5A51.84,51.84,0,0,1,145,64.41a11.71,11.71,0,0,1,5.11,7.83c.55,2.82,2,3.49,4.09,5.06,4.17,3.12,5.57,7.14,6.26,12.08.52,3.7,3.05,8.46,5.25,11.48-.78-3.36-3.18-5.94-4.11-9.12C161.23,90.29,161.8,88.54,161.65,87.13Zm-16.84,35.43.92,2.07C147.3,123.62,146.26,121.57,144.81,122.56Zm3.39-25.25a12.13,12.13,0,0,1-3-4.2c-1.07-2-3.63-2.61-4.74-4.6-1.37-2.47,1.54-3.06,1.58-5.05s-3-3.41-4.38-4.37A49.21,49.21,0,0,1,131.92,75c-1.89-1.79-3-4-5.28-5.36-2.5-1.5-5-3.19-7.6-4.54L114,63.44c3.41,2.26,6.43,5.26,9.61,7.88,1.6,1.33,2.25,3.37,3.72,4.48,2,1.49,5.35,1,7.56,2.31,2.7,1.58,2.84,4.44,3.78,7.25.75,2.26,1.16,5,2.3,7.07s3.61,3.27,5.52,4.6A31.79,31.79,0,0,1,155,105.7C153.73,102,151,99.79,148.2,97.31Zm-36.06,91.05,2.76,2.3C114.72,189.34,113.45,188,112.14,188.36ZM264.27,60.68c.7,1.19.38,3,1.54,3.68l.23.23c.14-1.38,1.36-3.94.65-5.25-.45-.83-2-1.18-2.66-2.11-1.6-2.42-.71-5.75-4.64-5.48a30.23,30.23,0,0,1,3.22,6.4A18.55,18.55,0,0,0,264.27,60.68ZM252.05,85.74a31.31,31.31,0,0,1,1.33-6.43c.73-2,2.79-5.8,1.86-8.06-.72-1.74-2.85-1.52-3-4.09-.13-1.94.89-4.09.93-6.08a68.37,68.37,0,0,0-.64-8.06,9,9,0,0,0-.73-3.61c-.57-1.16-1.65-1.94-1.85-3.23l.46,4.37c-.18,2.87.91,5.87,1.15,8.75A24.52,24.52,0,0,1,250,69.84c2.46,0,2.84,4,2.57,5.61-.41,2.4-.2,4.31-.52,6.67s-1.84,3.77-2.25,5.93c-.5,2.67-1.17,5.34-1.68,8,1-1.74,2.39-2.8,3-4.76A33.08,33.08,0,0,0,252.05,85.74ZM205.54,48.48c1.72,3.15,4.9,8.64,4.6,12.36.67-4.6-1.88-9.12-4.31-13.05-1.26-2-2.84-3.83-4.26-5.75-1.81-2.46-1.79-4.92-2.51-7.79-1.08.31-3.7,1.83-4.43.71l1.25,2.71A38.19,38.19,0,0,1,205.54,48.48ZM88.82,109.84a24,24,0,0,1-8.44-4l-.65-.54.08.12a3.77,3.77,0,0,0-3.49,1.79,112,112,0,0,1,11.15,4.22A9.2,9.2,0,0,0,88.82,109.84Zm189-15.8L275,100.48C276,99.16,279,95.7,277.78,94ZM103.63,199.17l-4.84-.23c6,.13,9.5,3.47,13.14,7.74C109.68,202.79,108.83,199.27,103.63,199.17ZM279.85,80.87c-.35,3.62-1.28,7.4-1.4,11,1-2.09.87-4.47,1.87-6.6.86-1.84,2.59-3.43,2.58-5.29,0-.81-.77-1.62-.76-2.53s.79-1.73.72-2.52c-.22-2.48-3.15-2.61-4.62-4.38L278.7,72C279,75,280.16,77.71,279.85,80.87ZM95.8,184.45l6.68-1.15c-1.7-1.05-3.9-1.55-5.76-2.76a14.07,14.07,0,0,0-7.34-2.26C89.75,178.56,100.5,183.07,95.8,184.45ZM75.05,170.7a14.59,14.59,0,0,0-4.66-2.29,17.5,17.5,0,0,1,1.83,2.93l-.07,0a22,22,0,0,1,3.92,2.25,17.6,17.6,0,0,0,9.84,3.68l-3.22-.68C79.29,175.11,77.74,172.85,75.05,170.7Zm4-48.83,1.84-1.15c5.49.89,10,1.65,14.71,4.55,2.58,1.59,6.16,4.19,9.2,4.56-4.69-3.2-8.48-6.63-14-8.37C89,120.92,78.74,118.5,79,121.87Zm-1.15,14.67c1.81.58,7.7.61,7.6,3.27s-8.65,1.7-14.88.89a3.43,3.43,0,0,1-1.18.76c4.11.22,8.31,1.16,12.3,1.35,2.56.12,4.57-1.09,7-1.15S94,143,96.26,144l4.14,1.38c-1.61-1.2-13.94-5.88-12.27-7.83-3.9-.62-7-.46-10.74-2.12-3-1.34-5.93-2.84-8.81-4.44a19.26,19.26,0,0,0,.57,2.61C72,134.48,74.83,135.58,77.86,136.54Zm-4.33,46.8c.69-1.13,4.26-.65,5.42-1-2.49-.69-5.24-1-7.82-1.53l.06.2c.79,2.37.37,5.14.28,7.55l1.39.68c1.38.68,2.51,1.75,3.86,2.36s3,.43,4.36,1.07,2.55,1.45,3.82,2.1c-2.84-1.95-6.4-3.8-8.88-6.16C75.22,187.84,72.89,184.42,73.53,183.34Zm60.63-73.15c-2.49-4.35-5.55-4.39-9.84-5.57-2.47-.67-3.12-2.6-4.13-4.84-1.58-3.52-3-6-6.39-7.87-3-1.59-5.7-1.41-8.81-2.26-2.45-.67-3.48-2.89-5-4.86a18.69,18.69,0,0,0-8.23-6.39,16.53,16.53,0,0,0-4.1-.85c-.57,2-.44,4.3-.9,6.17,4.77-.62,9.21-.47,13,4.15,2,2.41,2.87,2.9,6,3.58,2.85.61,6.26,1.76,8.52,3.72s2.94,5.29,4.83,7.66,3.67,2.47,6.44,3.11c2.18.49,5.08,1.2,6.72,2.81,1.82,1.79,1.65,4.88,3.63,6.45l-.69-2.76A9.78,9.78,0,0,0,134.16,110.19Zm147.3,53.55,3-.23C283.54,162.68,282.06,162.36,281.46,163.74ZM290.89,112c1.1,2.88.47,9.59-1.53,12,1.34-1.87,3.07-3.42,4.29-5.5,1.4-2.38.08-2.48-.68-4.84-1.08-3.34-4.16-11,1.07-12.41a13.48,13.48,0,0,1-2.87-2c-.64,1.71-1.77,4.76-4.15,3.62a36.52,36.52,0,0,0,.19,5.73l-1,2.7C287.24,109,290.09,109.88,290.89,112Zm-14,35.21.23,1.84c2.36-1.38,5.32-1.1,7.75-2.54C282.45,146.23,276.86,144.53,276.86,147.18ZM267.2,117c1.05-2,3.44-3.25,4.82-5.07,1.19-1.57,2-4,3.21-5.24a13.44,13.44,0,0,0-1.59-1Zm4.14-29.28c.54-2.94.81-6.3,1.8-9.12-2.43,3.53-8.29,6.65-7.54-.64-1.24,4.94-.78,9.14-5.52,12.49,2.63-.84,7.11-3.6,5,1.41-1.5,3.56-5.22,5.74-6.4,9l1.84-.69c1.65-1.66,2.83-1.43,4-3.86,1-2.13,1.78-4.49,2.92-6.46C264.77,89.46,269.77,81.2,271.34,87.76Zm-19.11,20.95c-2,1.44-4.23.93-4.82,4l-.46,1.15c1.88.27,4.46-3.22,6-4.54s4.42-3.19,3.85-5.56A15.78,15.78,0,0,1,252.23,108.71Zm50.62,43.76-7.13,6.44C299.43,158.74,301.11,154.89,302.85,152.47Zm4.61-9v-1.84a33.46,33.46,0,0,0-3,7.35c1.37-1.83,2.85,1.12,2.77,2.52C308.15,150.46,311.21,142,307.46,143.5ZM301.7,134c-2-1.41-1.1-2.91-1.79-4.8s-1.42-1.34-3.27.4a13,13,0,0,0-3.22,5.82l-.69.69a11.16,11.16,0,0,1,3.85-.46c.72,0,4.05-.41,4.39,0,1.13,1.51-3.65,5.56-4.06,6.9,1.9-2.08,6.51-4.38,8.16-7.13A35.06,35.06,0,0,1,301.7,134Zm-49.52-32c1.37-.92,2.54-4.22,3-5.67a21.89,21.89,0,0,1-3.37,3.9c-1.44,1.06-2.68.63-4.14,1.14-2.28.8-3.69,4-5.29,5.07l3.22-2.3a5.41,5.41,0,0,1,3.27-1.66C250.2,102.28,251.06,102.79,252.18,102Zm44.92,61.26.23.46c1.49-.48,3.23-.18,4.8-.26a20.73,20.73,0,0,0,.45-4.51C301.28,160.71,298.72,161.81,297.1,163.28Zm.91,12c-.47-1,.73-2.24-.86-2.27.1,0-2.06,1.78-2.12,1.84-1.35,1.3-2.66,2.46-4.14,3.64l-2.3,1.84c2,0,4.58-2.27,6.44-1.32,2.65,1.34-.69,4.25,1.61,5.48,1.66-2,2.71-5.13,4.82-7.11A4.21,4.21,0,0,1,298,175.26ZM232.76,39.18a26.31,26.31,0,0,0-1.94-2.58C231.37,37.43,232,38.29,232.76,39.18ZM238,68.12c-1.69,1.8-3.08-.47-4.14-1.92l.69,2.07c1,2.14,2,2.76,2.07,5.28.07,2.14.66,4.26.46,6.38.38-4.37,3.06-1.44,2.24,1.73-.77,3-1.61,6.5-2.67,9.32,1.3-2.29,3.21-3.31,4.8-5.23,2-2.4,1.82-5.52,3.83-8C240.34,82,238.63,70.69,238,68.12Zm-22.72,2.45c-1.91-2.71-5.48-2.51-6-6.6a7.19,7.19,0,0,1-.52,2.65c-3.15-.91-5.28-4.68-7.24-7.09-1.59-2-1.88-1.15-4.2-1.61-2-.4-2.47-1.46-3.91-2.76s-3.38-2.25-4.1-4c-.81-1.93-.2-2.32-1.65-3.68s-3-2.52-4.42-3.91c-2.2-2.13-6.09-4.75-7.32-7.55l.46,1.84c.57,3.23,4,4.52,4.18,8.24,4.62,1.12,6.66,3.72,9.17,7.65,1.2,1.88,1.52,3.18,3.68,4.07s4.36,1.22,6.39,2.42c3.48,2.07,5.44,5.81,8.56,8s7.9,6.22,8,10.69C216.35,76.45,216.8,72.75,215.26,70.57ZM216.35,83a19.9,19.9,0,0,1-1.09,7.14c-.47,1.45-1.89,2.13-2.38,3.15s-.12,2.23,0,3.29a65.53,65.53,0,0,0,2.82,13.73c-.57-2.07-.66-4.48-1.1-6.6-.38-1.84-.72-3.72-1-5.52-.39-2.82.41-4.43,2.53-6.45s2.05-3.28,1.14-6.21Zm-22.77,4.83-2.76-2.76C190.1,86.46,192.21,87.66,193.58,87.82Zm1.84.92V89c1.22,1.39,3,2.48,4.36,3.9,1.73,1.77,2.87,4,4.52,5.8-1.43-1.77-2-4.52-3.31-6.46A7.54,7.54,0,0,0,195.42,88.74ZM225,50.51c-2.08-1-3.74-4.3-4.95-6.17-1.48-2.26-1.72-4.35-2.13-6.9s-1.93-3.82-3.27-6c-.54.72-.43,2.15-1.76,2.1,1.47,2,3.27,2.29,3.89,5a19.76,19.76,0,0,0,2,6.22c1.29,2.31,2.51,4.4,2.12,7.19-.26,1.91-1.76,6.06,0,7.08l.92-.92c-1.23-1.26-.29-5.56,1.44-6.4s4.61,1.31,6.13,2.41c-.34-.68-.61-2.39-1.17-2.87C227.31,50.47,226.14,51,225,50.51ZM188.9,83.14l-.64-.49A4,4,0,0,0,188.9,83.14Zm49.49-32.58c.41,2.18-.52,4.95.74,6.9l.46-1.61c2.55-6.13-2.93-11.86-6.83-16.67A57.75,57.75,0,0,1,236.6,46,18.86,18.86,0,0,1,238.39,50.56Zm-14.16,31.3c-.34,4.1.42,8.38-1,12.36-.66,1.83-2.08,4.31-2,5.8v3c.57-2.22,2.24-3.72,3.23-5.7.71-1.43.45-2.75.91-4.2.6-1.89,1.06-1.81.64-3.89A63,63,0,0,0,224.23,81.86Zm-.06-12.67.69,11.73C227.28,77.49,224.72,72.69,224.17,69.19Zm-36.4.75c-.57-3.56-2.94-13-7.31-13.4l-3.22-1.84a28.81,28.81,0,0,1,9.14,12.61c1,2.79.62,6.34.07,9.3s-.36,4.29,1.81,6C185.52,80,188.32,73.33,187.77,69.94ZM298.91,190.52c-1.13.26-2.57-.21-3.65.19-1.58.58-1.86,2.52-3.45,2.94l7.13-1.61C298.89,192.19,298.93,190.9,298.91,190.52Z"/><path class="cls-11" d="M109.19,213a19.75,19.75,0,0,1-6.37-1.77A33.63,33.63,0,0,1,98.9,208c-4-3.14-8.8-2.65-13.44-4-2.89-.84-5.43-3-7.6-5a52,52,0,0,1-5.6-6s-.12,0-.08.06c2.89,4,6,7.77,10.22,10.5,4.48,2.9,10.19,1.81,14.68,4.6,1.38.86,2.51,2,3.8,3a11.86,11.86,0,0,0,4.89,2.1c1.7.37,3.46.4,5.14.82,2.11.51,3,2.47,3.9,4.25.12.24.52.07.43-.17C114.05,215.21,112.34,213.59,109.19,213Zm203.06-68.64a12.1,12.1,0,0,0-3.5-5.21,4.46,4.46,0,0,0-1.11-.66c-.36-.14-.12-.71-.06-1.17a3.88,3.88,0,0,0,.06-1.91A5.81,5.81,0,0,0,306,133.3c-1.23-1.05-2.78-1.12-3.71-2.56-2.13-3.31-1.38-8.47-.43-12a52.81,52.81,0,0,0,1.7-5.93,22.58,22.58,0,0,0,0-5.75,26.57,26.57,0,0,0-1.33-6.16.2.2,0,0,0-.24-.13,9.84,9.84,0,0,1-7.18-.81,4,4,0,0,1-2.2-4.25c.23-1.45,1.11-2.85,1.43-4.31.78-3.52-1.31-5.74-4.77-5.78a.15.15,0,0,0,0,.3,7,7,0,0,1,3,.73c2.27,1.15,1.6,4.36,1,6.26-.5,1.58-1.31,2.78-1,4.47a4.64,4.64,0,0,0,2,2.69c2,1.49,5.27,1.72,7.67,1.12a.14.14,0,0,1,0,.07c.14.4.25.8.36,1.2a31.37,31.37,0,0,1,.88,4.6,24.72,24.72,0,0,1,0,5.16c-.21,2.27-1.13,4.26-1.76,6.42a19.77,19.77,0,0,0-.38,10.21,7,7,0,0,0,1.44,2.9c.89,1,2.43,1.21,3.48,2.11,1.72,1.46,1.28,2.72,1,4.71a.2.2,0,0,0,.14.19,8.16,8.16,0,0,1,3.91,4,14.16,14.16,0,0,1,.71,1.53c.28.69-.32,2.07-.54,2.77a29,29,0,0,1-5.8,9.46c-.21.25-.8.68-.84,1a26.23,26.23,0,0,1-.64,3.27,16.77,16.77,0,0,1-2.19,5.26,7.74,7.74,0,0,0-1.44,4.7,12.75,12.75,0,0,0,.7,3.71,1.3,1.3,0,0,0,.18.46,12.73,12.73,0,0,1,2.3,2.5,10.32,10.32,0,0,1,.9,2.14c.05.18.14.8.2.67-.62,1.37-1.28,2.73-2,4.08s-1.71,2.82-1.91,4.49c-.1.83,0,1.62-.14,2.44s-1,1.31-1.76,1.69c-3.5,1.77-6.67,3.51-8.87,6.91-2.28,3.55-2.9,8-3,12.18a26.67,26.67,0,0,1-2.36,9.73,44.54,44.54,0,0,0-1.51-11.47,13.16,13.16,0,0,1-.62-3,35,35,0,0,1,.33-4c.73-6.31,2.3-12.83.61-19.09a97.68,97.68,0,0,0-5.69-14.9c-.41-.88-.15-3.41-.2-4.62q-.22-6.06-.62-12.12c-.59-8.94-1.65-18.06-7.74-25.14-2.25-2.62-5.21-3.53-8.51-4.24-1.25-.27-2.52-.47-3.79-.63l.48-.4,1.29-1.08a.18.18,0,0,0-.17-.3,19.62,19.62,0,0,1-12.33.16,30.91,30.91,0,0,1-2.95-1.13,9.82,9.82,0,0,0-3.81-.5c-.42,0-1.68-.17-2,.14-1.59,1.41-3.61,1.27-5.5.65l-.47-.17-.19-.08c.22-.28.44-.57.67-.85l1.6-2.07a.17.17,0,0,0-.21-.27l-2.21,1.11c-1,.51-1.78,1.42-2.77,2a20.59,20.59,0,0,1-4.31,1.87c-.41.14-.82.26-1.24.37s-.41.09-.38.11a27.66,27.66,0,0,0-6.26-3.81c-2.78-1.14-6-1.4-9-1.7-.16,0-.2.19-.12.29.9,1.1,1.8,2.19,2.69,3.29l-1.31-.51a95.44,95.44,0,0,0-13.31-4.37c-5.75-1.28-11.6,1.81-17,3.39a54,54,0,0,1-12.73,1.72.15.15,0,0,0-.1.26l1.41,1.41.16.16-.4.16c-2,.85-4,1.73-5.92,2.67-4.42,2.11-8.46,5.16-13.13,6.75a.14.14,0,0,0,0,.26l2.63,1.43,1,.53h0l-.84.54-2.7,1.71c-.31.2-.41,1-.53,1.29-.36,1-.74,2-1.11,3a25.44,25.44,0,0,0-1.14,5.36c-.44,2.92-3.34,4.41-5.21,6.27a7.15,7.15,0,0,0-.79,2.05q-1.41,3.62-2.92,7.19a29.37,29.37,0,0,0-2.12,6.45c-.37,2.13-.35,4.31-.66,6.45-.62,4.11-3.54,7.47-6.31,10.38a9.37,9.37,0,0,0-1.64,1.87,33.61,33.61,0,0,0-2.72,6.56c-2.35,7.66-1.88,15.88-.53,23.68,1.51,8.69,3.06,17.43,4.82,26.08.66,3.22,1.36,6.42,2.09,9.62.16.69.2.48-.39.12l-3.12-2-3.23-2a3.89,3.89,0,0,1-2-2.05c-1.93-4.09-2-9-2.26-13.39a48.87,48.87,0,0,0-1.27-9.87s0,0,0,0c2.07,7.6.33,15.94,3.5,23.29.76,1.77,2.46,2.38,4.06,3.38l4.85,3a0,0,0,0,0,.07,0c-1.49-6.53-2.77-13.09-3.94-19.68-1.48-8.38-3.59-16.82-4.06-25.34a45.38,45.38,0,0,1,1.28-13.74,34.38,34.38,0,0,1,2.73-7.06,13,13,0,0,1,2.39-2.89c2.43-2.59,4.82-5.51,5.7-9a33.72,33.72,0,0,0,.61-5.32,26.43,26.43,0,0,1,2.35-8.43c.92-2.14,1.79-4.29,2.64-6.46.22-.56.71-2.51,1.09-2.75,2-1.23,4.84-3.79,5.21-6.17a27.7,27.7,0,0,1,1.29-5.87c.57-1.5.8-3.42,2.19-4.3l3-1.89a.15.15,0,0,0,0-.25l-1.75-.95-1.4-.76-.38-.21a36.19,36.19,0,0,0,5.12-2.41,145.68,145.68,0,0,1,14.25-7.13.15.15,0,0,0,.07-.25c-.4-.41-.81-.81-1.21-1.21l-.28-.28h.09c1.83-.1,3.65-.26,5.48-.47A44.62,44.62,0,0,0,178.2,119c2.76-.75,5.42-1.83,8.16-2.62a17.81,17.81,0,0,1,8.65-.75,55,55,0,0,1,6.28,1.83c3,1,6,2.11,8.92,3.28.18.07.26-.17.17-.28L208,117.6l-.47-.57c1.12.12,2.23.27,3.34.43a20.6,20.6,0,0,1,8,2.69c.87.52,1.71,1.09,2.54,1.69a4.49,4.49,0,0,0,.91.66c.68.19,2.18-.61,2.79-.83a16.23,16.23,0,0,0,5.11-2.8,8.37,8.37,0,0,1,1.89-1.22l.69-.34-1.93,2.48a.17.17,0,0,0,0,.28c1.59.77,3.94,1.31,5.6.43.26-.13.92-.74,1.19-.77.58,0,1.17-.06,1.76-.07a10.33,10.33,0,0,1,4.3.74,22.68,22.68,0,0,0,8.35,1.85,18.35,18.35,0,0,0,5.66-.84l-.33.28-1,.86c-.13.11,0,.29.13.31a36,36,0,0,1,8.46,1.9c3.17,1.18,5.22,4.18,6.84,7,4.71,8.19,4.69,18,5.16,27.14.15,3.11.28,6.22.37,9.34a5.73,5.73,0,0,0,.68,2.52c2.41,5.43,5.27,11.43,5.87,17.4a39.07,39.07,0,0,1-.54,8.15c-.35,3-.8,6.08-1.09,9.13a14.58,14.58,0,0,0,.62,5.32,41.88,41.88,0,0,1,1.38,12c0,.19.29.28.37.1a37.48,37.48,0,0,0,2.49-7.73,30.66,30.66,0,0,0,.35-4.69,27.31,27.31,0,0,1,1.07-6.34c1.4-4.78,4.81-8.09,9.22-10.2a8.21,8.21,0,0,0,2.85-1.68c.76-.88.5-2.35.55-3.4.1-2,1.83-4.22,2.7-6,.26-.53,1.27-1.93,1.15-2.56a10.33,10.33,0,0,0-.79-2.33,7.81,7.81,0,0,0-1.07-1.77c-.35-.42-1.46-1.08-1.63-1.51a13.18,13.18,0,0,1-.77-3.88c-.14-2.5,1.23-4,2.27-6a21.08,21.08,0,0,0,1.53-4.58c.14-.61.25-1.22.36-1.83,0-.2.2-.79.06-.65a36.71,36.71,0,0,0,3.63-4.62,28.36,28.36,0,0,0,2.51-4.51C311.49,147.63,312.62,145.37,312.25,144.37ZM275.72,67.81a.46.46,0,0,0,.45.45c3.82.21,6.48,2.31,8.95,5.06.51.57,1,1.16,1.52,1.74A3.19,3.19,0,0,1,287.71,78a18.68,18.68,0,0,0,.4,6.41c0,.17.31.1.27-.07-.43-1.92-1.26-6.22.21-7.91a.5.5,0,0,0,0-.68c-3.2-3.92-6.57-8.2-12-8.37a27.23,27.23,0,0,0-.55-6.19.24.24,0,0,0-.47.06C275.68,63.45,275.79,65.6,275.72,67.81ZM199,32.53a.31.31,0,0,0,.15-.35c-.31-.77-.86-1.73,0-2.21a5.91,5.91,0,0,1,2.76-.72,7,7,0,0,1,3.68,1.49c1.94,1.26,3.74,2.13,6.08,1.48a.31.31,0,0,0,.18-.46,13.54,13.54,0,0,0-1-1.89,49,49,0,0,1,6.73.63,8.4,8.4,0,0,1,4.7,2.94c1.71,1.93,3.31,4.25,6.21,3.9a.25.25,0,0,0,.21-.37c-.71-1.2-1-2.53-1.75-3.72,4,0,8.41.32,11.81,2.68s5.09,6.4,8.86,8.4c.26.14.7-.1.56-.43a4.87,4.87,0,0,1-.33-1.48c1.85.53,4,1.06,5.31,2.44s2.12,3.79,3,5.53a.34.34,0,0,0,.39.16c2.8-1,5.63-1.46,7.51,1.28,1.41,2.06,2,4.61,3.15,6.83a.31.31,0,0,0,.29.17A26.62,26.62,0,0,1,275.1,60c.16,0,.23-.21.07-.25a32.51,32.51,0,0,0-7.07-1.56c-.88-.06-1.84-3.71-2.19-4.54-1-2.44-2.49-4.55-5.34-4.71a8.6,8.6,0,0,0-2.14.27,12.11,12.11,0,0,0-1.48.46c-.53.18-.82-.9-1-1.23A28.87,28.87,0,0,0,254.11,45c-1.46-2.08-4.19-2.74-6.49-3.45a.37.37,0,0,0-.46.36,7.11,7.11,0,0,0,.1,1.25c-3.32-2.17-5.19-5.91-8.55-8.07-3.51-2.27-8.19-2.44-12.23-2.44a.29.29,0,0,0-.21.49c1,1,1.26,2.47,1.88,3.71-3.14.1-4.73-3.3-6.83-5.17-2.9-2.6-7.48-2.15-11.06-2.5-.3,0-.38.34-.22.52a8.42,8.42,0,0,1,1.16,2c-2.59.54-4.35-1.06-6.52-2.27s-4.52-.79-6.66.5a.3.3,0,0,0-.14.35,4.61,4.61,0,0,1,.34,1c.28,1-.63,1.16-1.49,1.24a4.8,4.8,0,0,1-3.23-1.24c-.32-.24-.63.3-.31.53A5.29,5.29,0,0,0,199,32.53Zm-64.4,15.26a32.23,32.23,0,0,1,.38-7.28c.28-1.23.88-2.35,2.27-2.28a20.59,20.59,0,0,0,3.42.19c1.73-.2,3.15-1.86,4-3.25a11,11,0,0,0,1.17-3c.18-.76.48-.46,1.18-.35a19.72,19.72,0,0,1,2.42.41.28.28,0,0,0,.27-.46c-.39-.44-.73-.92-1.09-1.37a12.53,12.53,0,0,1,5.52-.63,25,25,0,0,1,4.28,1.71,17.61,17.61,0,0,0,10.84.4.28.28,0,0,0,.12-.46,5.75,5.75,0,0,1-.88-1.22c3.53.46,7.16-.21,10.67-.53,3.78-.35,8.91-.93,12.06,1.64,0,0,.13,0,.08-.08-2.75-2.57-6.79-2.51-10.3-2.31-4.17.24-8.61,1.37-12.79.71a.28.28,0,0,0-.35.26,2.45,2.45,0,0,0,.82,1.57A18.17,18.17,0,0,1,157,30.23a11,11,0,0,0-3.32-1.14,16.25,16.25,0,0,0-5.61.83.29.29,0,0,0-.13.47c.31.35.6.73.88,1.1-1-.19-2-.26-3-.53a.28.28,0,0,0-.35.19c-.42,2.55-1.57,5.21-4,6.39-1.75.85-3.55-.34-5.3.22-1.24.39-1.66,2.35-1.85,3.4a35.82,35.82,0,0,0-.23,6.63A.28.28,0,0,0,134.62,47.79Zm-44,26.47a11.85,11.85,0,0,1,5.17-1.57A6.85,6.85,0,0,0,100,70.08c1.28-1.47,1.52-3.3,3.2-4.47,2.06-1.44,4.83-1.37,7.09-2.4a.27.27,0,0,0,.05-.42c-.44-.47-.84-1-1.28-1.42,4.44.4,3.38-6.46,5.13-9.3,1.9-3.09,6.25-3,9.06-4.82A7.26,7.26,0,0,0,124.63,46c.78-.88,1.57-.12,2.5.31a56,56,0,0,0,6.51,2.56c.05,0,.07-.06,0-.08a81.32,81.32,0,0,1-8.52-4,.25.25,0,0,0-.33.09c-2.75,4.11-9,2.89-11.35,7.37-1.46,2.77-.34,9.73-5.27,8.36a.28.28,0,0,0-.22.51,6.58,6.58,0,0,1,1.33,1.25c.69.8-.6.86-1.25,1-1.21.32-2.44.52-3.64.93a5.94,5.94,0,0,0-3.59,3.31,7.11,7.11,0,0,1-5.15,4.48,13.09,13.09,0,0,0-5.3,1.62C90.07,74,90.35,74.45,90.65,74.26ZM70.42,136A18.6,18.6,0,0,1,69,131.69c-.05-.25-.24-2.49-.33-2.49a4,4,0,0,0,.78-.07,4.38,4.38,0,0,0,2.61-1.5c1.61-1.87,1.91-4.72,2.18-7.07.38-3.19.41-6.43,1-9.59.48-2.53,1.56-5.25,4.53-5.25a.3.3,0,0,0,.26-.44c-.87-1.24-2.69-3.48-.77-4.56,1.08-.61,2.36-.87,3.47-1.41,2.77-1.36,4.12-4.57,4-7.52a8,8,0,0,0-1.65-4.36c-.56-.76-.3-.56.3-1.1a4.8,4.8,0,0,0,1.06-1.43c1.43-2.85.3-6.3,2-9.14,0,0,0-.05,0,0-2.22,3.17-.15,9.12-4.22,10.89a.2.2,0,0,0,0,.31,7.81,7.81,0,0,1,1.75,7.89c-.79,2.56-2.82,4-5.22,4.81-1,.34-2.15.64-2.65,1.61-.61,1.17.5,2.84,1.23,3.9-4.53.33-4.88,6.65-5.18,10.14-.34,3.87.16,13.38-5.66,13.3a.31.31,0,0,0-.31.31,17.92,17.92,0,0,0,1.77,7.4C70.06,136.65,70.58,136.34,70.42,136Zm.46,43.28c-.45-1.15-1.09-2.23-1.43-3.43-.58-2,1.48-3.33,2.92-4.25a.3.3,0,0,0,.1-.39,18.26,18.26,0,0,0-6-6.76c1.84-1.28,2.48-3.48,3.55-5.38a.28.28,0,0,0-.17-.41c-2.89-1.12-2.43-3.76.07-5a.29.29,0,0,0,.06-.45c-1.57-1.6-3.55-3.66-3.71-6-.06-.87-.24-2,.43-2.69a14.39,14.39,0,0,0,1.19-1c.48-.58.68-1.2,1.33-1.64a7.72,7.72,0,0,0,1.3-.78c.79-.81-.11-1.88-.63-2.56-.1-.14-.34,0-.23.14.59.83,1.27,1.81,0,2.42a6,6,0,0,0-1.46.93c-.55.52-.75,1.25-1.4,1.71a3.57,3.57,0,0,0-.84.76c-.83,1.11-.34,3.31.11,4.47a14.13,14.13,0,0,0,3.21,4.41c-2.61,1.52-2.77,4.42.08,5.72-1,1.86-1.62,4-3.55,5.15a.29.29,0,0,0,0,.49,18.25,18.25,0,0,1,3.74,3.22,16.42,16.42,0,0,1,1.57,2.15c.69,1.08.54,1.23-.43,2s-2.16,2-1.94,3.46c.29,1.95,1.53,3.72,2.1,5.6,1,3.15,0,6.38.34,9.59,0,.36.6.36.57,0a47.28,47.28,0,0,1,.12-5.83A13.84,13.84,0,0,0,70.88,179.26Z"/><path d="M304.81,157.53s6.56-6.9,7.25-13.11c0,0-1.73-4.83-4.83-5.87l.34-2.76a5.73,5.73,0,0,0-3.8-3.45c-3.1-1-4.14-9-1.38-15.88s-.34-15.52-.34-15.52a10.53,10.53,0,0,1-5.18,0c-3.1-.69-5.52-3.11-4.14-6.21s1.73-5.53.69-7.25-4.14-1.73-4.14-1.73l-1-1.38a16.82,16.82,0,0,1,0-8.28c-3.46-3.8-6.22-8.28-12.08-8.28a41.22,41.22,0,0,0-.35-6.56l-.69-1.38a29.27,29.27,0,0,0-7.59-1.38c-2.76-5.86-3.11-11.39-11-8.28-3.11-5.87-2.07-6.21-9-8.28a4.43,4.43,0,0,0,.34,2.07c-4.14-2.07-5.52-6.21-9.32-8.63-3.1-2.07-8.28-2.41-12.07-2.41,1,1,1.38,3.1,2.07,4.14-4.14.69-5.53-4.84-9-6.22-3.1-1.38-6.21-1-9.31-1.38a8.8,8.8,0,0,1,1.38,2.42c-5.52,1.72-6.9-5.87-13.46-1.73.34.69.34,1.39.69,2.07a4.68,4.68,0,0,1-5.52-.68l-2.07-.35c-4.83-4.49-17.26-.35-23.12-1.38v.34c.34.35.69,1,1,1.39a23.11,23.11,0,0,1-9.66,0c-5.52-2.08-4.83-3.11-11.39-1.39.35.35,1,1.39,1.38,1.73-1-.34-2.76-.34-3.79-.69-.35,2.41-1.73,5.52-4.15,6.56-1.38,1-4.83-.35-5.52.34-2.07,1.38-1.72,6.56-1.72,9.66l-.69,1A65.61,65.61,0,0,1,125,45c-2.76,4.49-8.28,2.76-11,6.91-2.07,3.1-.35,10.69-5.87,9,.69.34,1.38,1.38,2.07,2.07-2.07,1-4.83,1-6.55,2.07-3.11,1.72-2.08,3.1-3.8,4.83C96.38,74,94.65,71.26,90.51,74l-2.07,1.73c-2.41,3.45,0,9.31-4.14,11a7.94,7.94,0,0,1-.69,11.73c-3.45,2.42-7.94,1-3.8,6.9-9.31-.34-1.72,23.81-11.38,23.47a17.36,17.36,0,0,0,1.72,7.25l-.34,2.41c2.41,3.11-.69,2.07-1.73,4.14s-2.41.69-2.07,4.49c0,2.07,2.42,4.83,3.8,6.21-3.11,1.38-3.11,4.49,0,5.52-1,1.73-1.73,4.49-3.8,5.52a17,17,0,0,1,6.21,6.91c-5.52,3.44-2.41,4.82-1,9.66,1,3.1,0,6.9.34,9.66l.69,2.41c3.11,4.15,6.9,8.29,11.39,10.7,4.14,2.07,8.63,1.38,12.42,3.11,5.18,2.76,4.49,5.17,11,6.21,4.14.69,5.86.35,7.93,5.17l1.38,5.18c2.07,7.25.35,17.95,4.14,24.5l8.29,5.18s-2.07-9-3.11-14.84-2.07-11.73-3.45-19-3.8-21.05,3.1-33.13c0,0,5.18-4.83,6.91-9s.34-8.28,2.76-13.8,4.48-11.05,4.48-11.05a14.65,14.65,0,0,0,5.18-5.86l.69-4.49s.69-1.72,2.07-5.52l3.8-2.42-3.8-2.07A40.4,40.4,0,0,0,155,128.2a105.82,105.82,0,0,1,12.08-5.87l-1.73-1.72s7.94-.35,12.77-1.73,11.39-4.48,16.57-3.45,15.53,5.18,15.53,5.18l-3.11-3.8s3.45.35,6.9,1,8.28,4.48,8.28,4.48,5.87-1.38,8.29-4.14l2.76-1.38L231,119.92s4.14,2.07,6.56-.35c0,0,3.79-.34,5.52.35s7.94,3.79,15.53,1l-2.07,1.73s6.21.69,9.66,2.41,9,9.66,10,20,1.38,24.15,1.38,24.15,6.55,14.15,6.55,19.67-2.07,16.91-1.72,19,2.41,7.59,2.07,14.84c0,0,2.76-6.21,2.76-10.35s.69-10.7,4.83-14.84,7.94-4.14,8.63-5.87-.35-2.76,1-5.17,3.11-6.21,3.11-6.21-.69-3.8-3.45-5.53c0,0-2.07-5.17.34-8.28S304.81,157.53,304.81,157.53Z"/><path d="M205.08,185.48a15.16,15.16,0,0,1-6,4,13.69,13.69,0,0,0,3.58-7.13,25.58,25.58,0,0,1-9.66,0c-5.17-1-28.3-13.12-39.68-11.74a27.89,27.89,0,0,1,3.1,1.39s-16.91,1.37-25.53,16.21c0,0,10-5.86,21.05-3.45s25.53,6.9,34.51,8.28a17.58,17.58,0,0,0,6,0C195.57,192.78,202.44,191.55,205.08,185.48Z"/><path d="M234.07,185.48a11.29,11.29,0,0,0,3.9,4,17.38,17.38,0,0,1-2.33-7.13,11,11,0,0,0,6.29,0c3.37-1,18.43-13.12,25.84-11.74a16,16,0,0,0-2,1.39s11,1.37,16.63,16.21c0,0-6.52-5.86-13.71-3.45s-16.63,6.9-22.47,8.28a7.54,7.54,0,0,1-3.93,0C240.26,192.78,235.78,191.55,234.07,185.48Z"/><path d="M146.07,210a18.11,18.11,0,0,1-7.25-3.45l3.11-.34a41.49,41.49,0,0,1,18.29-7.25c10.7-1.38,19.32,3.11,25.19,9.32,0,0-17.94,2.07-19.32,2.07Z"/><path class="cls-6" d="M143,202.08a42.41,42.41,0,0,1,20.64-5.43,31.15,31.15,0,0,1,17.29,5.07,0,0,0,1,0,0,0,33.54,33.54,0,0,0-16.79-5.7c-7.69-.55-14.79,2-21.2,6a0,0,0,1,0,0,.07Z"/><path class="cls-12" d="M186.1,208.6c-11.2-8.8-31-9.54-41.76.35l2.08,1c10.35,6.91,27.26,5.18,38,1l1.72-.69,3.45.69Z"/><path class="cls-13" d="M162.33,214.56a9.1,9.1,0,0,0,8.51-12.32,36.13,36.13,0,0,0-17.43,1.4,9.12,9.12,0,0,0,8.92,10.92Z"/><path class="cls-13" d="M162.33,213.51a8,8,0,0,0,7.3-11.44,36.4,36.4,0,0,0-15,1.18,8,8,0,0,0,7.74,10.26Z"/><path d="M167.08,205.46a4.75,4.75,0,1,1-4.75-4.76A4.75,4.75,0,0,1,167.08,205.46Z"/><path d="M165.69,205.46a3.36,3.36,0,1,1-3.36-3.36A3.35,3.35,0,0,1,165.69,205.46Z"/><path class="cls-12" d="M162.33,203.46a1.94,1.94,0,0,0,1.92-1.69c-1.27,0-2.53.11-3.79.25A2,2,0,0,0,162.33,203.46Z"/><path d="M144.41,209c5.65-4.79,13.64-6.75,20.9-6.82a35.11,35.11,0,0,1,20.76,6.47c.06,0,.13-.06.07-.1-5.86-4.79-13.35-7-20.83-7.22-7.85-.27-15.33,2.1-21,7.55-.09.08,0,.19.12.12Z"/><path class="cls-14" d="M146.35,210.09c5.44,3.55,12,4.67,18.4,4.69a51.59,51.59,0,0,0,19.64-3.72c.05,0,0-.11,0-.08-11.7,4.1-26.93,6-37.88-1.1-.14-.09-.26.12-.13.21Z"/><path d="M271.29,210a13.57,13.57,0,0,0,5.91-3.45l-2.53-.34a31.13,31.13,0,0,0-14.93-7.25c-8.74-1.38-15.78,3.11-20.57,9.32,0,0,14.65,2.07,15.78,2.07Z"/><path class="cls-6" d="M273.81,202.08A29.84,29.84,0,0,0,257,196.65a22.18,22.18,0,0,0-14.11,5.07s0,0,0,0a24.26,24.26,0,0,1,13.71-5.7c6.28-.55,12.07,2,17.31,6,0,0,0,.09,0,.07Z"/><path class="cls-12" d="M238.61,208.6c9.14-8.8,25.28-9.54,34.09.35L271,210c-8.45,6.91-22.26,5.18-31,1l-1.41-.69-2.82.69Z"/><path class="cls-13" d="M261.33,205.46a10,10,0,0,0-.54-3.22,25.57,25.57,0,0,0-16,2.11,10,10,0,0,0-.07,1.11,9,9,0,0,0,6.24,8.8c.81.12,1.64.21,2.47.28C257.81,214.32,261.33,210.34,261.33,205.46Z"/><path class="cls-13" d="M253,213.51c4.06,0,7.36-3.61,7.36-8a8.48,8.48,0,0,0-.7-3.41,25.6,25.6,0,0,0-13.89,1.83,9,9,0,0,0-.14,1.58C245.64,209.9,248.94,213.51,253,213.51Z"/><path d="M257.35,205.46A4.36,4.36,0,1,1,253,200.7,4.57,4.57,0,0,1,257.35,205.46Z"/><path d="M256.07,205.46A3.08,3.08,0,1,1,253,202.1,3.21,3.21,0,0,1,256.07,205.46Z"/><path class="cls-12" d="M253,203.46a1.84,1.84,0,0,0,1.75-1.66,24.53,24.53,0,0,0-3.42.39A1.8,1.8,0,0,0,253,203.46Z"/><path d="M272.65,209c-4.62-4.79-11.14-6.75-17.06-6.82a25.22,25.22,0,0,0-17,6.47s-.1-.06-.06-.1a25.16,25.16,0,0,1,17-7.22,20.83,20.83,0,0,1,17.16,7.55c.06.08,0,.19-.1.12Z"/><path class="cls-14" d="M271.06,210.09c-4.44,3.55-9.8,4.67-15,4.69a35.38,35.38,0,0,1-16-3.72s0-.11,0-.08c9.55,4.1,22,6,30.92-1.1.11-.09.22.12.11.21Z"/></g></g></svg>