<svg xmlns="http://www.w3.org/2000/svg" xmlns:xlink="http://www.w3.org/1999/xlink" viewBox="0 0 380.54 380.54"><defs><style>.cls-1{fill:#e8dd5d;}.cls-2{fill:#eda385;}.cls-3{fill:#f6ae94;}.cls-4{fill:#cb6d50;}.cls-5{fill:#742e2c;}.cls-6{fill:#e63867;}.cls-7{fill:url(#linear-gradient);}.cls-8{fill:#c70046;}.cls-9{fill:#fff;}.cls-10{fill:#d05a45;}.cls-11{fill:#9c5931;}.cls-12{fill:#475b62;}</style><linearGradient id="linear-gradient" x1="164.28" y1="275.75" x2="164.28" y2="281.45" gradientUnits="userSpaceOnUse"><stop offset="0" stop-color="#ea5b79"/><stop offset="1" stop-color="#f299b2"/></linearGradient></defs><title>Asset 7</title><g id="Layer_2" data-name="Layer 2"><g id="Avatar_5"><circle class="cls-1" cx="190.27" cy="190.27" r="190.27" transform="translate(-78.81 190.27) rotate(-45)"/><path class="cls-2" d="M247.24,339.16l-.7-1.1-.23-.37c-.23-.39-.47-.78-.72-1.18l-.21-.37c-.26-.42-.52-.86-.78-1.3l-.19-.32-1-1.7c-6.24-10.84-7.78-34.91-8.1-50.45,0-.27,0-.54,0-.82s0-.38,0-.56c0-.39,0-.77,0-1.15,0-.14,0-.29,0-.43,0-.32,0-.63,0-.94V278c0-.33,0-.65,0-1v-4c0-.25,0-.49,0-.72v-.24c0-.28,0-.56,0-.81v0c0-.26,0-.5,0-.73v-.13c0-.2,0-.39,0-.57v-.08c0-.2,0-.39,0-.55a.15.15,0,0,0,0-.07v-.35a.49.49,0,0,0,0-.12c0-.22,0-.38,0-.47v-.1l-59.66,31.35c.12,1.16.22,2.3.31,3.42,0,.38.05.74.08,1.11.05.75.11,1.48.15,2.21l.06,1.26c0,.66.06,1.3.09,1.94l0,1.29c0,.61,0,1.22,0,1.82,0,.42,0,.84,0,1.25,0,.6,0,1.19,0,1.77l0,1.18c0,.61,0,1.21-.07,1.8,0,.35,0,.69,0,1-.05.77-.1,1.52-.16,2.26l0,.46c-.08.88-.16,1.73-.26,2.58l-.12.9c-.06.54-.13,1.08-.21,1.61-.05.34-.11.67-.16,1-.08.48-.15,1-.24,1.43s-.13.67-.19,1l-.27,1.34c-.07.32-.14.64-.22,1s-.2.87-.31,1.3-.15.6-.23.89c-.12.46-.25.91-.38,1.35-.08.25-.15.5-.22.74-.18.59-.37,1.16-.56,1.73l-.09.28c-4.37,12.49-12,19.76-20.21,24.3-4.14,2.29-9.51,5.69-15.11,9.4a190.86,190.86,0,0,0,136.85-12C260.33,355,254.64,350.79,247.24,339.16Z"/><path class="cls-3" d="M281.62,173.58c-1-.72-4.79-1.78-5.84-2.05,2.53-19.72,8.83-56.42-18.44-85.51-30.69-32.73-72.62-32.73-95.63-27.1S111.59,87.55,106,112.61s-2.1,32.62-4.63,40.71-7.08,19.22-1,31.35a119.89,119.89,0,0,1,3,25.79c0,13.65,8.09,32.86,23.26,52.08s24.35,39.29,42,40.95c26.8,2.53,64.88-21.61,77.87-49.5a148.21,148.21,0,0,0,8.59-25.39c4.25.78,7.68-2,10.64-6.49,3.79-5.68,8.72-9.48,12.51-14.79C283.89,199.36,290,179.64,281.62,173.58Z"/><path class="cls-3" d="M113.14,111.36a43.06,43.06,0,0,1,13-19.24c11.66-9.75,28.48-14.27,43.51-13.28,7.94.51,17.49,2.49,24.58,6.26,13,6.9,20.28,14.29,22.57,29.17,1,6.27.94,12.67,2.1,18.91.22,1.13,5.26,15.72,7.4,13.85,0,0-8.72,7.59-9.86,7.59s-113,4.17-113,4.17l-2.65-1.52s7.58-10.62,8-19C109.11,129.2,110.14,119.85,113.14,111.36Z"/><path class="cls-3" d="M143.56,236s.25,2.78,4.3,3.29a7.36,7.36,0,0,0,8.34-4.8c1.52-3.54,4.55-22.25,3.54-42.73l-15.17.25s2.78,21.24,2.28,28.07S143.56,236,143.56,236Z"/><path class="cls-3" d="M144.49,232a8,8,0,0,1,4-1.51c2,0,9.44,2.86,9.44,2.86l1-2s-7.75-3-10.45-3a5.23,5.23,0,0,0-2.86,1Z"/><path class="cls-3" d="M191.74,207.89a8.91,8.91,0,1,1-8.91-8.91A8.91,8.91,0,0,1,191.74,207.89Z"/><path class="cls-3" d="M145.46,207.34c.38,4.59-2.32,8.56-6,8.87s-7-3.17-7.4-7.76,2.31-8.56,6-8.87S145.08,202.75,145.46,207.34Z"/><path class="cls-3" d="M250,239.19c-9.2,16-26.12,23.63-37.79,16.93S198.52,231,207.72,215s26.13-23.63,37.8-16.94S259.18,223.14,250,239.19Z"/><path class="cls-3" d="M132.19,223.43c-5.27-15.73-18.44-26.7-29.49-24.61a107.55,107.55,0,0,1,.66,11.64c0,12.12,6.38,28.62,18.43,45.61C132.81,253.79,137.47,239.2,132.19,223.43Z"/><path class="cls-3" d="M104.53,185.71s-3.79-26.92,5.69-31.09,21.23.76,21.23.76l6.45,8,.76,2.65s3.79,16.69,2.65,43.61l-11-8.72s-9.1-9.1-11-9.48-9.48-.38-9.48-.38Z"/><path class="cls-3" d="M179.61,207.7s-7.58-39.43,1.52-51.57,23.89-11,23.89-11l15.92,1.51s14.79,4.17,17.83,7.59c0,0,0,22-9.86,42.09Z"/><path class="cls-3" d="M142.63,238.61c-.19.87,2.79,2.67,3.36,2.92,4,1.72,8.54-.42,12.32-1.74,3.37-1.18,8.76,1.85,9.27,3.7,0,0,.17,2.19-1.18,2.53s-21.41.17-21.41.17l-2.19-1.35-.84-3.2Z"/><path class="cls-3" d="M142.3,241.05s1.26,3.54,6.57,3.29,8.59-2.78,10.37-3.29,8.09,1.26,7.83,3.29l-.5,2s-3,13.4-9.11,13.65-5.05-8.6-9.35-10.62C148.11,249.39,142.3,245.85,142.3,241.05Z"/><path class="cls-3" d="M161.76,287.31s8.09.51,10.37,0c0,0-1.27,4.3-3.8,4.05S161.76,287.31,161.76,287.31Z"/><path class="cls-3" d="M138.76,263.8l-1.52,3.54S134,263.8,138.76,263.8Z"/><path class="cls-3" d="M209.29,262.29l2.78,4.29S215.36,262.79,209.29,262.29Z"/><path class="cls-4" d="M200.09,165.61s11-4.93,25.78,2.66C225.87,168.27,211.84,155.38,200.09,165.61Z"/><path class="cls-4" d="M130.81,169.31s-8.42-4-18.85,3.77C112,173.08,121.49,160.4,130.81,169.31Z"/><path class="cls-3" d="M277.93,176.33l-2.1,2c-2.26,1.36-7.13,8.48-7.13,8.48l-2.81,4.38-.09-.08c-1.52,1.39-4.55,8.47-4.55,8.47l.16.49-.16.14a5.09,5.09,0,0,1,.39.6l.58,1.79a7.9,7.9,0,0,1-1.48,4.94S265,206,265.92,203a5.28,5.28,0,0,0-1.5-5,28.54,28.54,0,0,1,1.25-2.67,2.59,2.59,0,0,1,3-1.39l-1.07-1,.44.14c-.63-1.27,2.4-4.3,2.4-4.3l-.07-.08c1.16.9,2.48,1.72,2.48,1.72s-1.27-3.41,0-5.43c.92-1.49,3.41-3,4.68-3.66a28.06,28.06,0,0,1,4,5.42S279.7,178.22,277.93,176.33Zm-9.1,25.91.76-4.29S267.82,199,268.83,202.24Zm2.91,2.78c2.65-5.05,1.39-8.47,1.39-8.47A48.34,48.34,0,0,0,271.74,205Zm7.33-15.29c1.26,3.41-1.26,13.14-1.26,13.14,4-7,3.41-12.38,3.41-12.38Z"/><path class="cls-3" d="M147,246.7s4.88,3,7.08,2.86a5,5,0,0,0,4-3.37S151.4,247.88,147,246.7Z"/><path class="cls-3" d="M285.6,180.24a11.64,11.64,0,0,0-3.21-6.43,9.54,9.54,0,0,0-9.95-1.81,12.5,12.5,0,0,0-4.5,2.94,8.81,8.81,0,0,0-1.3,2.14c-.49.86-.91,1.75-1.35,2.63-2,3.88-3.69,7.9-6.44,11.3,0,0,0,0,0,0a44,44,0,0,0,5-8.07c.71-1.38,1.43-2.77,2.22-4.11a11.89,11.89,0,0,1,2.94-3.73c2.85-2,5.72-3.29,9.27-2.62a8.37,8.37,0,0,1,6,4.71c2.16,4.54,1.31,10.29.2,15a51,51,0,0,1-5.73,14.06c-3.26,5.53-8.56,9.56-12.37,14.68-1.84,2.48-3.49,5.07-6.26,6.62s-6,.88-8.7-.67a.19.19,0,0,0-.2.33,9.06,9.06,0,0,0,7.35,1.44c2.54-.69,4.55-2.79,6.12-4.79,1-1.25,1.77-2.61,2.72-3.86,1.21-1.61,2.56-3.1,3.91-4.58,2.31-2.5,4.75-4.94,6.8-7.66a41,41,0,0,0,6.11-12.95C285.58,190.17,286.43,185.06,285.6,180.24ZM258.47,213s0,0,0,0c.29-2.74,2-4.74,3.3-7a6,6,0,0,0,.16-6.1c-.3-.59-1.18-.07-.88.51a6.13,6.13,0,0,1-.34,6.8A12.23,12.23,0,0,0,258.47,213Zm19.71-36c.44-.36-.16-1.14-.61-.79a32.21,32.21,0,0,0-4.35,4.31,58,58,0,0,0-4.35,5.55,73.8,73.8,0,0,0-7.48,12.87c-.07.17.16.32.25.15,1.23-2.34,2.47-4.65,3.79-6.92a.27.27,0,0,0,.26.29c3.26.21,4.43,3.75,3.76,6.55a0,0,0,0,0,.06,0c1-2.76-.38-7-3.82-7.11a.5.5,0,0,0-.13,0c1-1.63,2-3.24,3.06-4.82a4.46,4.46,0,0,0,2.28,2.59,11,11,0,0,1,1.89,1.21c.7.63.65,1.86.6,2.72-.21,3.87-1.91,7.52-1.64,11.44h0c-.25-4,1.6-7.79,1.87-11.76.09-1.37.14-2.68-1-3.59s-3.06-1.49-3.72-2.94l0,0a55.65,55.65,0,0,1,4.5-5.55A40.24,40.24,0,0,1,278.18,177Z"/><path class="cls-4" d="M146.23,217.57a22.65,22.65,0,0,1-1,12.17c-1.06,3.21-2.9,6.19-3.61,9.5a8.1,8.1,0,0,0,2,7.51,13,13,0,0,0,5.13,3.22,22.75,22.75,0,0,0,3.82.88,10.83,10.83,0,0,0,3.67.3c.22,0,.21-.4,0-.43-1.16-.21-2.34-.23-3.51-.47a17,17,0,0,1-3.88-1.59,14.43,14.43,0,0,1-4.74-3.47c-1.85-2.23-1.44-5.14-.84-7.74.74-3.17,2-6.19,2.81-9.34a21.54,21.54,0,0,0,.25-10.55s0,0,0,0Z"/><path class="cls-4" d="M160.38,247.87c-.62-1.55.55-1.89,1.84-2a9.64,9.64,0,0,1,3.71.2.1.1,0,0,0,.06-.19c-1.57-.51-3.24-1.14-4.89-.66-1.37.4-1.51,1.59-.93,2.71.06.11.26,0,.21-.09Z"/><path class="cls-4" d="M165.61,247.56c2-1.36,2.59-4.2,2.36-6.49a.12.12,0,0,0-.23,0c-.29,2.52-.37,4.47-2.2,6.42a0,0,0,0,0,.07.07Z"/><path class="cls-5" d="M160.37,246.8s-.19-1.26,3.54-.88C163.91,245.92,162,247.37,160.37,246.8Z"/><path class="cls-3" d="M141.62,265.74s5.12-4.39,8.83-5.07c2.35-.43,4.23,1.64,6.47,1.88,2.65.29,4.91-1.26,7.52-1.38,3.88-.17,5.9.38,13.65,1.9s26.4,1.66,28.08,1.49c0,0-10.78,6.07-13.82,6.07s-23.59,2-24.43,2.19-10.62-.51-12.48-.51Z"/><path class="cls-6" d="M140.52,266.94a53.64,53.64,0,0,0,4.16,6.12c2.19,2.69,2,7.14,3.95,9,2.19,2.21,14.91,4.65,22.37,1.23s29.89-19.49,29.89-19.49-2.6.76-5.41,1.39a28,28,0,0,1-6.5,1.22c-5.92,0-30.7.49-31.36.74s-11.84-.25-12.5-.25Z"/><path class="cls-7" d="M147,274.28s-.29,5.71,5,7.17,11.84.65,11.84.65l6.44-.81,2.33-.65s7.31-3.59,8.78-6.69-6.88-2.77-6.88-2.77-5.08-.36-5.4,0-19.89.49-19.89.49Z"/><path class="cls-6" d="M147,274.28s-.29,5.71,5,7.17,11.84.65,11.84.65l6.44-.81,2.33-.65s7.31-3.59,8.78-6.69-6.88-2.77-6.88-2.77-5.08-.36-5.4,0-19.89.49-19.89.49Z"/><path class="cls-6" d="M195.48,265.23a28,28,0,0,1-6.5,1.22c-5.92,0-30.7.49-31.36.74s-11.84-.25-12.5-.25h-4.6a53.64,53.64,0,0,0,4.16,6.12,8.79,8.79,0,0,1,1.39,2.58l.15.11s.21-2,8.11-2,27.63-.49,28.07,2.45a2,2,0,0,0,0,.26c8.76-5.72,18.44-12.66,18.44-12.66S198.29,264.6,195.48,265.23Zm-46.85,14.18a10.14,10.14,0,0,0,7.89,3.92c5.49.24,13.82-1.23,16.45-2.69C173,280.64,154.55,282.59,148.63,279.41Z"/><path class="cls-6" d="M141.94,267.92l3,3.67a29.19,29.19,0,0,1,4.28.12c2.3.24,1.53,1.71,6.79,1.71s5.6-.73,8.34-1.1,21.38-2.32,22.37-1.71l1,.61s7.13-3.67,9.1-5.62c0,0-8.44,2.44-10,3s-21.28,2.69-24.78,2.45l-3.3.61s-6.24,1.83-8.11-2C150.6,269.75,148.63,270.61,141.94,267.92Z"/><path class="cls-8" d="M201,263.77l0,0-4.91.71a80.71,80.71,0,0,1-17.76.73c-6.57-.49-14.25-2.69-18-2a13.49,13.49,0,0,0-5.92,2.69s-4-3.42-5.7-3.42-4.61,1.47-6.58,2.69-4.46-.43-4.86-.68l-.05,0h0a16.23,16.23,0,0,0,1.6,1.34l.14.11c.23.17.46.34.7.49a21.34,21.34,0,0,0,6.79,3c1,.31,2.11.6,3.19.88.08,0,.79,0,.84.13a3.39,3.39,0,0,0,.76.95,5.17,5.17,0,0,0,2.44,1.08,7.81,7.81,0,0,0,2.85.06,7.59,7.59,0,0,0,2.79-.6.12.12,0,0,0,0-.13l2.84-.7s0,0,0,0a106,106,0,0,0,19.15-1.4,85.45,85.45,0,0,0,10.11-2.18c1.6-.45,3.17-1,4.72-1.55s3.22-1.49,4.84-2.23C201,263.79,201,263.77,201,263.77Z"/><path d="M176.29,163.58a109.57,109.57,0,0,0,13.47-7.94A36.08,36.08,0,0,1,204.08,149c7.26-1.48,18.43-2.2,34.38,4.85,1,0,2.1,0,3.17,0a107.83,107.83,0,0,0-22.35-9.3c-13.17-3.78-25.17-1.87-34.31,3.05C175.58,152.65,172.17,160.71,176.29,163.58Z"/><path d="M181.55,160.44c-2.16,1.25-3.89,2.17-4.7,2.59a4,4,0,0,1-1.14-3.51c.36-3.35,4-8,9.85-11.18a39.24,39.24,0,0,1,7-2.94,44.79,44.79,0,0,1,26.57.26,99.84,99.84,0,0,1,19.8,8.56h-.54c-12-6-22.85-7-31-6.05a34.83,34.83,0,0,0-16.92,6.49l-1.07.76c-2.39,1.72-5,3.37-7.89,5Z"/><path d="M139,166.55a24.88,24.88,0,0,1-8.23-5.42c-2.1-2-4.18-4.15-8.3-5.4-4-1.11-10.23-1.37-18.58,4.36-.66-.21-1.34-.4-2-.57a65.19,65.19,0,0,1,12-8.23,18.3,18.3,0,0,1,18.56,1C138.1,155.82,140.92,162.43,139,166.55Z"/><path d="M135.63,164.38a23.06,23.06,0,0,0,2.88,1.5,7.6,7.6,0,0,0,.22-3.95c-.57-3.17-3.11-6.83-6.65-9a20.34,20.34,0,0,0-4-2A16.76,16.76,0,0,0,114,152.2a57.68,57.68,0,0,0-10.38,7.62l.34.09c6.28-4.77,12.24-5.77,16.64-5.08a17.18,17.18,0,0,1,9.61,5.2l.66.63a25.81,25.81,0,0,0,4.78,3.72Z"/><path d="M204.26,207.7l7.2,3.8s10.24-5.31,17.07-8.35l.76-9.1-24.65,12.14Z"/><path d="M228,181.86s9.38-5.58,12.23-13.26c0,0-.72,9.92-12.09,17.67Z"/><path d="M230.78,184.17a17.81,17.81,0,0,0,5.06-6.83s-10.11-8.59-28.06-6.83-24,22.25-27.31,35.15l17.45-6.07Z"/><path d="M182.29,203.68c1.69-6.32,3.92-13.25,7.45-19.12,4.73-7.87,10.67-12.05,18.16-12.79,1.57-.15,3.15-.23,4.7-.23,11.8,0,19.4,4.61,21.69,6.22a17,17,0,0,1-4.19,5.33l-32.66,15.33-15.15,5.26Z"/><path class="cls-9" d="M206.15,176.61c-14.41,1.9-22.75,19-26.54,31.47a42.34,42.34,0,0,1,7.84-1.13,82.8,82.8,0,0,0,17.26,2.23l.31,0c5.31.76,4.55,0,4.55,0,5.68-1.52,11.37-3.41,15.54-7.58a25.25,25.25,0,0,0,5.31-15.55v-2.65A33.49,33.49,0,0,0,206.15,176.61Z"/><path class="cls-10" d="M226.21,190.44A20.48,20.48,0,0,0,222.76,179a32.51,32.51,0,0,0-16.61-2.39c-6.51.86-11.78,4.81-16,10a21.34,21.34,0,0,0-.34,3.78c0,8.75,5.35,16.15,12.72,18.64.76,0,1.48.08,2.14.1l.31,0c5.31.76,4.55,0,4.55,0a50,50,0,0,0,9.75-3.47A20.06,20.06,0,0,0,226.21,190.44Z"/><path class="cls-10" d="M208,207.42c8.72,0,15.79-7.6,15.79-17a17.47,17.47,0,0,0-5.64-13,31.76,31.76,0,0,0-12-.83,22.34,22.34,0,0,0-12.09,5.9,17.89,17.89,0,0,0-1.83,7.93C192.23,199.82,199.3,207.42,208,207.42Z"/><path d="M219.2,190.44c0,6.63-5,12-11.17,12s-11.17-5.38-11.17-12,5-12,11.17-12S219.2,183.81,219.2,190.44Z"/><path d="M217.73,190.44c0,5.76-4.34,10.44-9.7,10.44s-9.71-4.68-9.71-10.44S202.67,180,208,180,217.73,184.68,217.73,190.44Z"/><path d="M217.73,190.44c0,5.76-4.34,10.44-9.7,10.44s-9.71-4.68-9.71-10.44S202.67,180,208,180,217.73,184.68,217.73,190.44Z"/><path class="cls-9" d="M203.81,180.93a4.23,4.23,0,1,0,4.58-4.51c-.43,0-.85.05-1.28.09A4.46,4.46,0,0,0,203.81,180.93Z"/><path d="M230.5,183.36c-9-8.21-24.1-10.68-34.26-3.33A36.3,36.3,0,0,0,186,192.36a74.53,74.53,0,0,0-6.16,14.86c-.09.28-.17.57-.25.86,0,0,0,0,0,0,3.28-9.82,8-20.07,16.41-26.51a23.13,23.13,0,0,1,15.77-4.47c6.7.35,12.93,2.94,18.56,6.42C230.47,183.59,230.59,183.44,230.5,183.36Zm-5.41,18.25a30.57,30.57,0,0,1-7.27,4.67c-2.67,1.21-5.5,2-8.26,2.92,0,0,0,.05,0,0,5.52-1.06,11.72-3.29,15.57-7.58C225.17,201.63,225.12,201.58,225.09,201.61Z"/><path d="M116.28,202v3.79s5.69,3,11.38,6.82l5.69-4.17Z"/><path d="M114.23,194s-9.45-4.27-13.49-12.11c0,0,9.45,8.82,14.76,9.83Z"/><path d="M113.73,193s-2.53-.51-5.56-3.8c0,0,.14-11.15,9.86-14.91,7.83-3,14.13,3.11,17.43,9.69,1.86,3.71,2.64,7.79,3.32,11.85.29,1.78.33,10.22,1.75,11.32,0,0-9.11-7.08-10.12-7.33S113.73,193,113.73,193Z"/><path d="M138.18,203.77c-6.43-4.9-7.19-5.09-7.46-5.16-.84-.23-10.57-4.27-16.5-6.76l-.11,0-.12,0a10.62,10.62,0,0,1-4.53-3c.15-2.11,1.25-10.24,9-13.25a9.91,9.91,0,0,1,3.64-.72c6.77,0,11.06,7.5,12.21,9.8,1.78,3.57,2.53,7.47,3.2,11.49.07.42.13,1.42.2,2.49.13,2.12.27,3.84.45,5.22Z"/><path class="cls-9" d="M113.25,193.3l.38,1.51a28.57,28.57,0,0,0,4.55,9.1c2.51,3.25,4.42,4.42,8,6.07,4.66,2.18,11-3.25,14.79-.38-1.14-8-1.52-16.3-6.45-23.89C128.16,176,114.77,175.85,113.25,193.3Z"/><path class="cls-10" d="M122.9,179.17c-2.38,3.34-3.75,8.32-3.45,13.8.53,9.63,6,17.16,12.25,16.81,3.5-.19,6.5-2.83,8.35-6.82-.81-5.86-2-11.75-5.57-17.25C131.52,181.16,127,178.71,122.9,179.17Z"/><path class="cls-10" d="M120.93,192.89c.46,8.37,5.23,14.91,10.64,14.61,3.56-.2,6.51-3.29,8-7.76a36.15,36.15,0,0,0-5.07-14,13.86,13.86,0,0,0-9.09-6.48C122.44,182,120.61,187.1,120.93,192.89Z"/><path d="M130.15,181.63c-3.83.22-6.67,5.18-6.35,11.1s3.7,10.54,7.53,10.33,6.57-5,6.35-10.8a30.25,30.25,0,0,0-3.2-6.55,16,16,0,0,0-3.71-4.06A4.28,4.28,0,0,0,130.15,181.63Z"/><path d="M136.76,192c.28,5.14-2.18,9.45-5.51,9.64s-6.26-3.84-6.54-9,2.19-9.46,5.51-9.64S136.48,186.88,136.76,192Z"/><path d="M136.76,192c.28,5.14-2.18,9.45-5.51,9.64s-6.26-3.84-6.54-9,2.19-9.46,5.51-9.64S136.48,186.88,136.76,192Z"/><path class="cls-9" d="M127.65,184c.12,2.23,1.4,4,2.84,3.9s2.52-2,2.4-4.19c0,0,0-.07,0-.1a14.52,14.52,0,0,0-4.07-3.22A4.72,4.72,0,0,0,127.65,184Z"/><path d="M139.68,199.56a43.73,43.73,0,0,0-2.82-10c-1.76-4.08-4.54-8.44-8.85-10.18a9.63,9.63,0,0,0-9.59,1.06c-3.68,2.91-4.87,8-5.17,12.44,0,.13,0,.26,0,.4s0,0,0,0c.55-4.43,1.94-9.34,5.75-12.07a9,9,0,0,1,9.16-.54c4.21,1.93,6.83,5.79,8.63,9.93a40.77,40.77,0,0,1,2.64,9.44c.55,3.16.66,6.44,1.39,9.57,0,.1.19.08.19,0A87.08,87.08,0,0,0,139.68,199.56ZM126.19,209.9c-1.39-.83-2.84-1.54-4.18-2.44a19.55,19.55,0,0,1-3.8-3.58s-.1,0-.07.05a16.15,16.15,0,0,0,8,6.14A.09.09,0,0,0,126.19,209.9Z"/><path class="cls-11" d="M165.79,7.54c-.63.73-1.33,1.53-2,2.39h0l-.08.09-.77.92-.15.18c-.27.32-.55.65-.82,1l-.13.16-.87,1.08-.1.12-.91,1.16,0,.06c-.64.83-1.29,1.69-1.92,2.56l0,0L157,18.57l-.07.1L156.06,20l-.09.13c-.28.42-.56.85-.83,1.28l-.09.14q-.41.64-.78,1.29l-.09.15q-.39.64-.75,1.29c0,.05-.05.09-.07.14-.24.44-.48.88-.7,1.32a.47.47,0,0,0,0,.1c-.23.46-.45.91-.66,1.36l0,.05c-.43.93-.8,1.86-1.12,2.77l0,.05c-.15.44-.28.87-.41,1.31a.19.19,0,0,1,0,.07h0c-1.6,5.78-.49,11,6.2,13.79-22.72,13.18-40.79,30.43-47.63,43.92C91.73,123,89.21,147.25,78.59,171c-1.57,3.51-3.06,6.51-4.47,9.18-.12.22-.23.45-.35.66l-.53,1-.29.53c-.27.48-.52,1-.78,1.41l-.33.58c-.15.28-.31.55-.46.82s-.26.44-.38.66l-.39.68c-.14.24-.28.48-.41.72l-.33.56-1.7,2.92,0,.06-.73,1.27,0,0-.64,1.14-.21.37-.45.81-.24.45c-.13.25-.26.5-.4.75l-.24.47c-.13.24-.26.49-.38.74l-.24.48c-.13.26-.26.52-.38.78s-.15.29-.22.44c-.15.33-.31.67-.46,1a1.89,1.89,0,0,0-.11.25c-.19.42-.37.84-.55,1.27-.06.14-.12.28-.17.42-.13.3-.25.6-.37.91l-.2.54c-.11.28-.21.56-.32.85l-.21.58-.3.88c-.06.2-.13.4-.19.6l-.3.95-.18.59c-.11.37-.22.76-.32,1.14,0,.16-.09.32-.14.48-.14.55-.29,1.11-.43,1.69,0,.13-.07.27-.1.4-.11.45-.22.92-.32,1.39l-.15.67c-.08.4-.17.81-.25,1.23,0,.25-.11.51-.16.77s-.15.82-.23,1.25l-.15.83c-.07.43-.15.88-.22,1.33,0,.28-.09.56-.14.84-.08.5-.15,1-.23,1.54,0,.25-.07.5-.11.75-.11.79-.22,1.59-.32,2.42-3.54,28.32,8.09,36.41,15.17,46.52S86.17,288.83,89.71,301c0,0,5.06,38.93,31.86,44,0,0-24.27-12.14-25.79-41s8.6-48.54,11.12-63.2l1.77-8.85c-3.54-7.59-4.8-18.71-4.8-25.79,0-.69,0-1.39-.05-2.11,0-.11,0-.22,0-.34q0-1-.12-2.07c0-.13,0-.26,0-.39-.05-.71-.12-1.42-.19-2.13l0-.21c-.08-.72-.17-1.44-.26-2.16a.78.78,0,0,1,0-.16l-.33-2.2c0-.1,0-.19,0-.28-.12-.73-.24-1.46-.37-2.18l0-.13c-.46-2.56-1-5-1.54-7.13-1.51-6.07-2.52-8.09-3-13.4s3-15.42,3-15.42c35.9-18.71,87.43-56.69,87.43-56.69s22,30.34,33.38,42.47,15.93,23.52,15.93,23.52-9.11,54.61-12.9,87.23-21.24,91.78-59.92,119.84c0,0,38.68-22.75,59.92-83.43,0,0,17-40.91,23.81-74.29,0,0,5.07-17.79,9.25-20.07,0,0,7.58-13.27,10.23-19a11.79,11.79,0,0,1,12.52-3s41.34-85.81-9-129.58a45.24,45.24,0,0,0,14.75-16.92A189.4,189.4,0,0,0,190.27,0q-9.21,0-18.2.87Q168.8,4.11,165.79,7.54Zm-68,179.66c0,.18,0,.37,0,.56s0,.48,0,.73,0,.41,0,.63,0,.52,0,.79,0,.47,0,.71v2.52c0,.28,0,.56,0,.85s0,.62,0,.94,0,.61,0,.92,0,.64,0,1,0,.67,0,1l0,1,0,1.08,0,1c0,.38,0,.76,0,1.15s0,.67,0,1l-.06,1.21c0,.35,0,.69,0,1l-.06,1.27-.06,1c0,.44,0,.89-.07,1.34s0,.69,0,1l-.09,1.39-.06,1L97,213.9c0,.33,0,.67-.07,1,0,.5-.07,1-.11,1.5,0,.34,0,.68-.07,1L96.66,219c0,.33,0,.66-.08,1l-.12,1.56-.09,1c0,.52-.09,1.05-.14,1.57l-.09,1c0,.53-.1,1.06-.15,1.59l-.09,1c-.05.53-.11,1-.16,1.58,0,.34-.07.67-.1,1l-.18,1.61c0,.32-.07.64-.1,1-.06.54-.13,1.08-.19,1.62,0,.31-.07.62-.11.93-.06.54-.13,1.07-.19,1.6l-.12.94c-.07.52-.13,1-.2,1.55,0,.31-.09.63-.13.94L94.21,242c0,.31-.09.62-.14.92-.07.52-.15,1-.23,1.54,0,.28-.09.57-.13.86-.08.51-.16,1-.25,1.52,0,.27-.08.55-.13.82-.08.5-.17,1-.26,1.48,0,.27-.09.54-.14.79l-.27,1.47c0,.24-.1.49-.14.73-.11.53-.21,1-.32,1.55l-.12.57c-.14.69-.29,1.36-.45,2C86.7,277.48,89,292.65,89,292.65,83.67,279,70.78,266.1,65.85,255.11S61.68,232.35,67.74,210c.18-.65.37-1.3.58-2,.06-.21.14-.43.21-.65.14-.45.28-.89.43-1.33l.27-.77c.15-.42.31-.84.47-1.26.09-.26.19-.52.29-.78.17-.44.35-.88.53-1.32.09-.23.18-.47.28-.7.25-.6.5-1.19.76-1.78.07-.16.15-.32.22-.49.26-.57.52-1.15.79-1.73.12-.27.26-.54.38-.81s.39-.8.58-1.2l.45-.9c.18-.37.37-.74.56-1.11l.48-.92c.18-.37.38-.73.57-1.1s.32-.6.49-.9.42-.78.64-1.17.58-1.06.88-1.58l.57-1,.61-1,.49-.83.65-1.08.46-.77.66-1.09a235.65,235.65,0,0,1,15.52-22.14c-.75,6.44.38,15.16,1.14,26.16,0,.26,0,.55,0,.84S97.77,187,97.78,187.2Z"/><path class="cls-12" d="M262.38,226.7c-13.12-.43-20,14.18-20.27,25.31-.25,11.81,7.49,24.89,20.27,25.31,13.12.44,20-14.18,20.27-25.31C282.41,240.2,275.51,227.13,262.38,226.7ZM280.19,252c-.22,10.41-6.07,22.46-17.81,22.85s-17.61-13-17.81-22.85c-.22-10.4,6.38-22.47,17.81-22.85C274.11,228.78,280,242.21,280.19,252Z"/><path class="cls-12" d="M133,271.11l-.66-.92-.43-.59a24,24,0,0,1-14.6,5.26c-12.71.29-22.89-10.47-23.19-22.85-.22-9.4,5.78-17.16,13.83-20.73-.08-.22-.16-.43-.25-.64-.15-.41-.31-.81-.46-1.21l-.23-.65A26.34,26.34,0,0,0,91.7,252c-.33,14.16,12.08,25,25.65,25.31a24.23,24.23,0,0,0,16.08-5.67Z"/></g></g></svg>