<svg xmlns="http://www.w3.org/2000/svg" xmlns:xlink="http://www.w3.org/1999/xlink" viewBox="0 0 380.54 380.54"><defs><style>.cls-1{fill:#b4ab4a;}.cls-2{fill:#f2ab8b;}.cls-3{fill:#ffba9b;}.cls-4{fill:#f37f6a;}.cls-5{fill:#ff857a;}.cls-6{fill:#f37968;}.cls-7{fill:#e1685d;}.cls-8{fill:url(#linear-gradient);}.cls-9{fill:#0a151a;}.cls-10{fill:#fff;}.cls-11{fill:#3f0d00;}.cls-12{fill:#eb9e9e;}.cls-13{fill:url(#linear-gradient-2);}.cls-14{fill:url(#linear-gradient-3);}.cls-15{fill:url(#linear-gradient-4);}.cls-16{fill:url(#linear-gradient-5);}.cls-17{fill:url(#linear-gradient-6);}.cls-18{fill:url(#linear-gradient-7);}.cls-19{fill:url(#linear-gradient-8);}.cls-20{fill:url(#linear-gradient-9);}.cls-21{fill:url(#linear-gradient-10);}.cls-22{fill:url(#linear-gradient-11);}.cls-23{fill:url(#linear-gradient-12);}</style><linearGradient id="linear-gradient" x1="213.49" y1="235.94" x2="213.49" y2="205.28" gradientUnits="userSpaceOnUse"><stop offset="0" stop-color="#a95037"/><stop offset="1" stop-color="#e99e81"/></linearGradient><linearGradient id="linear-gradient-2" x1="196.26" y1="243.31" x2="196.26" y2="-25.89" gradientUnits="userSpaceOnUse"><stop offset="0"/><stop offset="1" stop-color="#294653"/></linearGradient><linearGradient id="linear-gradient-3" x1="196.26" y1="243.31" x2="196.26" y2="-25.86" gradientUnits="userSpaceOnUse"><stop offset="0"/><stop offset="1" stop-color="#1d323b"/></linearGradient><linearGradient id="linear-gradient-4" x1="119.43" y1="97.73" x2="78.39" y2="282.16" gradientUnits="userSpaceOnUse"><stop offset="0"/><stop offset="1" stop-color="#35596f"/></linearGradient><linearGradient id="linear-gradient-5" x1="234.58" y1="81.4" x2="335.45" y2="263.84" xlink:href="#linear-gradient-4"/><linearGradient id="linear-gradient-6" x1="106.15" y1="189.71" x2="106.15" y2="86.86" gradientUnits="userSpaceOnUse"><stop offset="0"/><stop offset="1" stop-color="#1a2c37"/></linearGradient><linearGradient id="linear-gradient-7" x1="312" y1="182.25" x2="249.21" y2="100.18" xlink:href="#linear-gradient-6"/><linearGradient id="linear-gradient-8" x1="120.52" y1="90.6" x2="84.92" y2="197.89" xlink:href="#linear-gradient-4"/><linearGradient id="linear-gradient-9" x1="230.21" y1="75.25" x2="315.74" y2="163.26" xlink:href="#linear-gradient-4"/><linearGradient id="linear-gradient-10" x1="116.69" y1="100.83" x2="101.86" y2="153.73" xlink:href="#linear-gradient-4"/><linearGradient id="linear-gradient-11" x1="240.66" y1="82.22" x2="279.22" y2="133.14" xlink:href="#linear-gradient-4"/><linearGradient id="linear-gradient-12" x1="172.46" y1="106.62" x2="156.88" y2="27.27" xlink:href="#linear-gradient-4"/></defs><title>Asset 8</title><g id="Layer_2" data-name="Layer 2"><g id="Avatar_6"><circle class="cls-1" cx="190.27" cy="190.27" r="190.27" transform="translate(-78.81 190.27) rotate(-45)"/><path class="cls-2" d="M244.1,346c-6.49-19.28.59-71.2.59-71.2l-106.82-8.9s1.18,68.23-3,81.58c-1.85,6-10,12.7-18.37,18.3a190.83,190.83,0,0,0,145,1C254.1,361.26,246.86,354.14,244.1,346Z"/><path class="cls-3" d="M294.51,202.07c-1.11-1.86-3.7-3-5.93-3.34a33.69,33.69,0,0,0-4-2.8l1.06-51.71s-26.7-18.54-28.92-19.65-23-17.8-30-21.14S197,91.56,189.2,90.45s-31.15-4.45-36-4.08S135.06,96,135.06,96s-14.09,33-14.83,35.6S95,190.2,95,190.2c-1.86-1.11-6.31-1.48-6.31-1.48a33.23,33.23,0,0,0-7.41,7.05c-3.71,13.72.74,31.88.74,31.88,5.56,11.13,17.06,19.66,17.06,19.66l3.71,8.9c3,2.22,10.75,2.22,13-.37,0,0,1.11,15.57,15.94,30.41a433.79,433.79,0,0,0,38.57,34.11c10.75,8.53,26.69,18.17,47.46,17.06s21.88-11.5,28.56-19.65,23-28.56,25.58-34.49c2.36-5.39,5.34-20.29,6.13-31.87l.18.35c3-.37,4.45-4.45,4.45-4.45a199.34,199.34,0,0,1,8.16-21.14C296,214.68,294.51,202.07,294.51,202.07Z"/><path class="cls-3" d="M202.67,306.89s16.07.49,21.26-.5c0,0-1.73,5.44-9.64,5.69C205.55,312.35,202.67,306.89,202.67,306.89Z"/><path class="cls-3" d="M120.55,207.8c-12.37,6.82-13.7,28.15-3,47.65s29.48,29.78,41.85,23,13.7-28.15,3-47.65S132.93,201,120.55,207.8Z"/><path class="cls-3" d="M281.29,235.58c2.57-6.3,2-13.66,3.06-20.27a46,46,0,0,1,2.12-8.48c-11.93-1.11-26.43,9.4-34.88,26.34-9.93,19.92-7.74,41.19,4.91,47.49,4.87,2.43,10.59,2.28,16.34,0,.45-1.37.9-3,1.34-4.78L276,253.49C273.31,247.83,279.26,240.54,281.29,235.58Z"/><path class="cls-3" d="M144.45,169.44s1.34-41.64,6.93-49.45c9.88-13.84,71.19-2.47,91,7.91s32.14,25.71,31.64,38.57l-14.83,6.92-24.72,9.4-43.51-1s-31.15-6.93-32.63-6.93Z"/><path class="cls-3" d="M134.07,165s5.44-9.89,6.43-15.83,3.95-38.56,13.84-43S182,131.36,209.22,128.4a32.76,32.76,0,0,0,28,11c3.9,3.08,21.35,16.3,37.58,19.85C276,161.87,278,167,278,171.91c0,6.92,0,27.69,2,33.62,0,0,3-5,5.18-9.26l-.56-.34,1.06-51.71s-8.64-6-16.5-11.38c-4.75-2-9.78-4.12-14.1-5.87a13.51,13.51,0,0,0-.85-4.14c-6.27-4.59-21.64-16.62-27.51-19.4-7-3.34-29.67-11.87-37.45-13s-31.15-4.45-36-4.08S135.06,96,135.06,96s-14.09,33-14.83,35.6c-.6,2.09-16.55,38.72-22.77,53l15.35,11S129.62,177.35,134.07,165Z"/><path class="cls-3" d="M164.72,292.55c-3-14.83-18.78-26.7-31.14-38.57s-18.79-28.18-18.79-28.18l-3,14.34c3.86,11.26-.44,15.82-3.92,17.63,3.12.26,6.53-.36,7.88-1.93,0,0,1.11,15.57,15.94,30.41a433.79,433.79,0,0,0,38.57,34.11,94.63,94.63,0,0,0,12.45,8.45C171.1,318.43,167.48,306.35,164.72,292.55Z"/><path class="cls-3" d="M279.43,244.59c6.93-17.31,4.95-22.74,4.95-22.74-1.49,13.34-23.73,48-26.21,62.79-1.83,11-7.19,24.43-9.84,30.65,7.48-9.24,21.2-26.61,23.56-32,2.2-5,4.93-18.3,5.94-29.45A25.57,25.57,0,0,1,279.43,244.59Z"/><path class="cls-3" d="M254.34,274c0,13-18.7,23.48-41.78,23.48S170.78,287,170.78,274s18.71-23.49,41.78-23.49S254.34,261,254.34,274Z"/><path class="cls-3" d="M195.38,243.6s4.45-10.88,5.43-16.32-3.46-27.19-3.46-27.19S181,213.94,178.07,224.81s2.47,17.31,11.87,27.69C189.94,252.5,192.41,246.07,195.38,243.6Z"/><path class="cls-3" d="M235.92,249.16a18.8,18.8,0,0,0-4.82-6.3s-3.71-6.67-5.19-9.27c0,0-4.08-24.48-2.23-32.63,0,0,2.6,10.38,4.08,13,0,0,11.87,4.44,13,9.27s2.22,18.91-4.08,28.92Z"/><path class="cls-3" d="M159.53,210.6s13.91-1.3,19.66-7.42l5.93,3.52-5.56-.18A31.64,31.64,0,0,1,159.53,210.6Z"/><path class="cls-3" d="M251.93,209.52s-10.69,0-16-5.46L232,208.12l4.17-.72S243.81,212.24,251.93,209.52Z"/><path class="cls-3" d="M133.57,200.59l1.74,1,6.67-1.24s6.43,5.68,18.29,5.68,18.3-5.43,18.3-5.43-12.86-2.48-13.6-2.23-22.5-.49-22.5-.49l-4.2-1.24Z"/><path class="cls-3" d="M246.92,205.28s11.73,4.7,22.06-2.72c0,0,3.35,1.49,6.14,0L274,200.34s-5.87-3.71-6.7-3.21-10.62,4.69-10.62,4.69Z"/><path class="cls-3" d="M191.05,253.61a38.22,38.22,0,0,1,6.67-4.26c3-1.3,4.45-5.38,3-6.86S189.94,245.27,191.05,253.61Z"/><path class="cls-3" d="M236.29,254.17s-2.6-2.41-4.27-4.08-3-7.23-1.29-7.42C230.73,242.67,238.88,248.24,236.29,254.17Z"/><path class="cls-3" d="M217.43,253.56a14.54,14.54,0,0,1-5.81-1.94c-8.27-5-6.44-12.18-3.14-19.89,1.11-2.59-1.86-30.77-1.86-30.77l14.47-.75s-.37,21.88,3.33,31.9a49.64,49.64,0,0,0,1.86,5.19c2.38,4.75,4.58,10.67-.72,14.39A11.89,11.89,0,0,1,217.43,253.56Z"/><path class="cls-3" d="M205.53,236.16s10.4-6.4,20.11-.46l-.68-4s-10.35-4.25-19.19,1.28Z"/><path class="cls-3" d="M229,252.5a14,14,0,0,1-7.67,5.69c-5.19,1.48-11.37-2.47-11.37-2.47a15.81,15.81,0,0,0-9.15-3,13.71,13.71,0,0,0-9.14,3.95s7.13,10.23,17.46,13.26c.45,1.73,1.84,6.32,4.05,6.52,2,.18,3.2-3.81,3.69-5.91,7.19-1.39,14.35-8.67,14.35-8.67l2.72-2.72C235.18,253.74,229,252.5,229,252.5Z"/><path d="M198.28,256a9.52,9.52,0,0,1,9.27,2S202.17,260.66,198.28,256Z"/><path d="M226.09,259.73l3-3.52s3,1.85.93,3.52C230,259.73,229.61,260.1,226.09,259.73Z"/><path class="cls-3" d="M181,201.08a17.07,17.07,0,0,0,9.89-18.3l-15.33-7.91s-28.18-9.88-41-1-1,26.7-1,26.7l9.22-2,23.42,2.47Z"/><path class="cls-3" d="M236,202.07s-9.49-10.39-3.91-19.29l24.57-7.91h16.76l6.7,1a9,9,0,0,1,1.67,7.91,16.92,16.92,0,0,1-.52,1.85,98.49,98.49,0,0,1-3.87,9.5c-.53,1.16-1.16,2.3-1.6,3.48a7.45,7.45,0,0,1-1.21,2.66c-.74.81-1.76.27-2.61,0-.61-.19-1.23-.31-1.82-.56-.16-.06-1.41-.81-1.43-.8-1.78.93-4.16.3-6.09.72a19.93,19.93,0,0,1-2.3.34c-2.66.28-5.34.41-8,.55-5.16.25-10.33.41-15.5.53A3.25,3.25,0,0,1,236,202.07Z"/><path class="cls-4" d="M179.56,289.58s11.31,7.23,14.64,9.64,8.91,5.2,19.1,5.38,14.28-3.89,16.88-6.12,6.3-8.34,9.64-9.82l-12.8-1.3-24.84-.74-13.72,2.22Z"/><path class="cls-5" d="M194.44,299.38c3.36,2.38,8.89,5,18.86,5.22,10.2.19,14.28-3.89,16.88-6.12a24,24,0,0,0,2.54-2.76c-3.69-2.68-10.22-4.47-17.66-4.47C204.6,291.25,195.93,294.78,194.44,299.38Z"/><path class="cls-6" d="M227,287.36l-24.84-.74-13.72,2.22-8.9.74s10.8,6.91,14.4,9.47H194s-6.3-4.27-3.71-6.12,18.17,0,23.36-.37,14.46-1.3,16.32-.74c1.69.51,1.22,4.71.14,6.71l.05,0c2.59-2.22,6.3-8.34,9.64-9.82Zm-29.17,14c3.43,1.66,8.29,3.07,15.45,3.2,8.3.15,12.55-2.52,15.24-4.72l-.59.27C216.41,305.84,200.79,302.17,197.85,301.4Z"/><path class="cls-7" d="M177,288.66s6.86,1.48,14.83-3,11.13-7.23,15-7.79a16.23,16.23,0,0,1,5.19,1.86c2.6,1.48,8.9-.19,10.39-1.49a5.85,5.85,0,0,1,4.82.56c2.41,1.48,5.19,5.56,7.42,7a12.47,12.47,0,0,0,7,2.23s-3.52,2.22-9.64,1.67-11.13-.56-13.72,0c0,0-1.48,1.11-6.49,0,0,0-9.09-1.3-14.09-.56S180.48,291.44,177,288.66Z"/><path class="cls-7" d="M214.43,290.27l-3.78-.6a22.82,22.82,0,0,1-2.79-.73c-2.23-.62-5-.36-7.3-.27-3.38.12-6.69.87-10.06,1.14-6.12.5-16.13.85-18.22-6.57a.15.15,0,0,0-.28.08c1.57,6.92,10.36,7.27,16,7.1,3.4-.1,6.78-.47,10.16-.77a47.9,47.9,0,0,1,8.38.26c1.18.1,2.25-.12,3.43,0l4.41.47C214.48,290.39,214.5,290.28,214.43,290.27Zm32.23-8.12c-1.4,2.44-2.67,4.29-5.25,5.58a20.41,20.41,0,0,1-7.6,1.61c-4.92.35-9.87-.45-14.77.11a14.12,14.12,0,0,0,4-3.15.08.08,0,0,0-.11-.11c-2.27,2-4.59,3.83-7.73,3.93-.26,0-.26.41,0,.4a9,9,0,0,0,3.6-.92s0,.11.1.1c5.53-.66,11.09.56,16.62.21,4.65-.3,10.11-2.72,11.22-7.74A0,0,0,0,0,246.66,282.15Z"/><path class="cls-3" d="M100.94,236.19c-1-3.61-1.41-5.7-1-9.4.45-4-.85-6.14-4-8.85-6.61-5.75-8.52,7.83-7.45,12-2.78-3.43-2.19-10.68-1.14-14.8.67-2.63,2-5.09,1.68-7.91-.26-2.35-2.47-4.36-4.89-2.82-1.17-3.36,2.39-6.44,5.63-5.53,5.22,1.46,8.32,7.91,10.62,12.31a46.64,46.64,0,0,1,5.14,15.58c.55,4.08-1.55,7.78-.68,11.86Z"/><path class="cls-3" d="M283.14,235.69s1.73-4.45,4-6.67,4.45-9.4,4.94-12.86.74-8.41.74-8.41a7.9,7.9,0,0,0-2-1.48c-.75-.25-3,4.7-3,4.7l-2.72,10.38Z"/><path class="cls-3" d="M108.36,228c0-5.94-3-11.87-5.94-17.06-2.22-4.82-10.38-18.54-16.68-13.72a42,42,0,0,1-1.49,6.67L88,199.84a47.6,47.6,0,0,1,16.32,27.81s-4.82,3-4.08,6.68a6.73,6.73,0,0,0,1.32,2.73,21.71,21.71,0,0,0,2.39,4.69l4.45-.37.74-4.45C106.13,234,108.36,231.73,108.36,228Z"/><path class="cls-3" d="M290.81,203.18c-2.6,4.45-5.57,10.38-5.94,15.95l-.25,3.46c.45,1.57.09,4.5-.64,7.82a.42.42,0,0,0-.22.34c0,.37-5.44,17.3-5.44,17.3l-.12,1.86a15,15,0,0,0,1.4-2.91c2.36-3,4.45-13,5.77-18.48,1.48-6.18,5.19-20.27,5.19-20.27l2.1.12A12.52,12.52,0,0,0,290.81,203.18Z"/><path class="cls-3" d="M284.94,219.13a31.2,31.2,0,0,1,2.05-8.06c.94-2.38,2.15-5.85,4.12-7.59l-.67-.08a15.89,15.89,0,0,1,2.06,5c.05.17.35.14.32,0a12.3,12.3,0,0,0-1.65-5.4.43.43,0,0,0-.78.1,19.07,19.07,0,0,1-2,4.35c-.59,1.17-1.11,2.37-1.6,3.59a26.24,26.24,0,0,0-2,8.12c0,.09.13.08.14,0Z"/><path class="cls-3" d="M294.61,202.08c-.07-.56-1.06-1.3-1.46-1.57a11.42,11.42,0,0,0-4.56-1.83.05.05,0,1,0,0,.1c1.93.38,5.72,1.45,5.89,3.85a49.52,49.52,0,0,1,.08,5.31A52.29,52.29,0,0,1,289.72,228c-2.38,5.36-4.53,10.84-6.45,16.39-.85,2.46-1.83,6.74-5,6.94,0-.76.11-1.53.14-2.3.13-2.82,1.51-5.77,2.38-8.44,1.09-3.38,2.38-6.67,3.16-10.14a36.15,36.15,0,0,0,.36-14c0-.19-.32-.11-.29.08a38.45,38.45,0,0,1-1.1,16.28c-1,3.69-2.44,7.28-3.59,10.93-.41,1.29-.8,2.59-1.2,3.89a21.22,21.22,0,0,0-.33,4.52c-.36,4.87-1,9.73-1.88,14.54-1.13,6.46-2.22,13.56-5.7,19.23-3.84,6.26-8.5,12.07-13,17.86-4.09,5.25-8.58,10.28-12.46,15.7-3.36,4.69-5.84,9.88-10.75,13.22-7.59,5.17-18.37,5.15-27.12,4.09-9.67-1.18-18.85-4.93-27.11-10-6.91-4.25-13.15-9.57-19.38-14.74q-11.52-9.56-22.34-19.92c-7.49-7.16-14.37-14.47-18.6-24.07a38.81,38.81,0,0,1-3.48-12.25.17.17,0,0,0-.28-.12c-2.57,2.72-8,2.29-11.23,1.17a2.6,2.6,0,0,1-2-1.93l-1.71-4.09c-.44-1.06-.82-3.12-1.77-3.84a69.75,69.75,0,0,1-5.73-5,62.07,62.07,0,0,1-8.8-10.47,14.79,14.79,0,0,1-2.33-4.17c-.2-.84-.37-1.68-.53-2.53-1.63-8.41-2.35-17.26-.94-25.75a8.38,8.38,0,0,1,1.43-4.2,39,39,0,0,1,3.49-3.67,25.34,25.34,0,0,1,2.69-2.15c.57-.41.89-.28,1.56-.2A14.44,14.44,0,0,1,95,190.24s.08-.05,0-.07a13.57,13.57,0,0,0-4.47-1.27c-1.35-.22-1.72-.36-2.85.43a30,30,0,0,0-6.49,6.39,8.5,8.5,0,0,0-.65,2.78c-.18.95-.32,1.9-.44,2.86a58.1,58.1,0,0,0-.42,7.46,85.83,85.83,0,0,0,1,12.19c.31,2.19.7,4.38,1.2,6.53a14.11,14.11,0,0,0,2,3.68,53.7,53.7,0,0,0,4,5.48A70.74,70.74,0,0,0,96,245c.81.72,2.77,1.93,3.07,2.66,1,2.4,2,4.79,3,7.19a5.29,5.29,0,0,0,.65,1.52c1,1,2.84,1.29,4.11,1.5,2.59.42,6.54.43,8.66-1.43a.71.71,0,0,0,.21-.33,1.91,1.91,0,0,0,0,.49c.1.77.24,1.54.39,2.3,3.79,18.62,18.91,31.42,32.4,43.48,6.91,6.18,14,12.1,21.29,17.86a88.8,88.8,0,0,0,20.7,12.61,62.46,62.46,0,0,0,29.21,4.69c6.91-.56,13.67-2.62,18.47-7.84,3.67-4,6.1-9,9.53-13.23q7-8.6,13.72-17.4c3.7-4.87,8-9.89,10.6-15.46a45.62,45.62,0,0,0,2.69-8.87c1.05-4.45,1.84-9,2.49-13.49.43-3,.77-6,1-9h.12c3.09-1,4.26-3.6,5.19-6.44A203.93,203.93,0,0,1,291,226.29a48.88,48.88,0,0,0,3.84-20A36.65,36.65,0,0,0,294.61,202.08Z"/><path class="cls-3" d="M108.11,232a26.27,26.27,0,0,0,.65-3.43c.29-3.27-.76-6.79-1.92-9.8a70.56,70.56,0,0,0-7.35-13.83c-2.14-3.16-4.82-7-8.48-8.48a5.58,5.58,0,0,0-4.52-.25c-.92.37-1.22.61-1.36,1.57q-.42,3.06-1.08,6.09c0,.22.29.39.38.16a33.17,33.17,0,0,0,1.3-4c.4-1.39.12-2.52,1.62-3.12,1.89-.75,3.74.16,5.26,1.25,3.41,2.43,5.84,6.34,7.82,10a107.23,107.23,0,0,1,5.24,10.31c-.1,2.09-.17,4.2-.11,6.29a14.08,14.08,0,0,0,.19,2.05c.19,1.15-.24,1.13-1.17,1.27a5.07,5.07,0,0,0-4,2.84c-1.42,3.8,1.46,8.34,3.52,11.34a.21.21,0,0,0,.27.07c.72-.41,1.43-.83,2.16-1.23.07,0,0-.14-.07-.11-.63.28-1.92,1.22-2.41.49s-.81-1.27-1.18-1.92A19.87,19.87,0,0,1,101,235a6,6,0,0,1,.28-4.51c1-1.7,3.19-2.09,4.93-2.34.09,0,.12-.11.11-.18-.71-3-.37-6-.42-9.09a36.13,36.13,0,0,1,1.37,4,20.79,20.79,0,0,1,.12,9.35,5,5,0,0,0,1.73,4.71s.06,0,0,0A5.2,5.2,0,0,1,108.11,232ZM90.27,197.17c-.08-.1-.26,0-.18.14,7.75,10.65-7,21.53-1.77,32.58,0,0,0,0,0,0C83.6,219.06,98.65,207.11,90.27,197.17Z"/><path class="cls-8" d="M190.93,253.85c-.49-3.8,1.95-7.19,3.9-10.21,0-.08-.07-.16-.13-.1-2.44,2.73-5.07,6.45-4.83,10.31s3.74,6.31,6.72,8.32c0,0,.08,0,0-.05C194.06,260.11,191.37,257.22,190.93,253.85Zm5.65,3c-.07.05,0,.17.07.12,4.18-2.6,9-.83,12.12,2.61.09.1.22,0,.17-.13C206.59,254.75,200.7,253.84,196.58,256.89Zm34.19,1a2.67,2.67,0,0,0-1.49-1.78h0c.16-.32.31-.64.44-1,0-.11-.12-.16-.18-.07-2.42,3.33-4.7,6.29-8.3,8.46-4.07,2.46-8.54,1.77-12-1.39,0,0-.07,0,0,0,3,3,7,4.77,11.17,2.92a19.31,19.31,0,0,0,8.79-8.78c.41.52,1,.86,1.2,1.51a2.24,2.24,0,0,1-.51,2c-.12.17.15.32.27.16A2.77,2.77,0,0,0,230.77,257.87Zm1.5-14c-.11-.06-.24.09-.14.18,2.68,2.41,4.2,5.2,4,8.89a11.47,11.47,0,0,1-5.5,8.69.16.16,0,0,0,.17.28,10.69,10.69,0,0,0,6.28-8.55A9.65,9.65,0,0,0,232.27,243.87Zm-7.78-18.47c.5,2.35.94,4.71,1.35,7.08a6.6,6.6,0,0,0,1.19,2.74,50.16,50.16,0,0,1,3.26,6.2c0,.08.18,0,.14-.06-.75-1.78-1.53-3.54-2.41-5.25a11.06,11.06,0,0,1-1.6-3.56c-.34-2.42-.81-4.83-1.1-7.26-.41-3.48-1-6.94-1.33-10.43a100.77,100.77,0,0,1-.25-13.9.06.06,0,1,0-.12,0,111.16,111.16,0,0,0-.2,13.9A64.16,64.16,0,0,0,224.49,225.4Z"/><path class="cls-9" d="M277.92,165.23a21,21,0,0,0-4.47,2c-2,1.24-8.38,2.23-10.89,2s-13.13-.5-15.64-.25c-2,.2-6,3.74-10,9.09.55-2.06,1.73-5.68,3.61-7.73,0,0-6.29,5.38-9,12.8a27.54,27.54,0,0,0,6-1.44A110.44,110.44,0,0,0,252,178.09c6.14-2.23,12.56-1.48,17.31-1.48a30,30,0,0,1,10.33,2c1.12.5,2.52,6.18,2.52,6.18A29.15,29.15,0,0,0,277.92,165.23Z"/><path class="cls-9" d="M133.94,165.23a29.69,29.69,0,0,1,5.54,2c2.43,1.24,10.39,2.23,13.51,2s16.27-.5,19.39-.25c2.5.2,7.45,3.74,12.35,9.09-.68-2.06-2.14-5.68-4.47-7.73,0,0,7.79,5.38,11.16,12.8a41.07,41.07,0,0,1-7.38-1.44,164,164,0,0,1-17.89-3.57c-7.62-2.23-15.59-1.48-21.47-1.48a45,45,0,0,0-12.81,2c-1.39.5-3.12,6.18-3.12,6.18S126.33,175.12,133.94,165.23Z"/><path class="cls-10" d="M179.93,200.21s-3.71-5.19-6.31-6.3-22.24-2.22-25.58-.74c-3.07,1.36-5.82,4.91-6.24,5.48a.86.86,0,0,1,.14.13l.14.06c.31.22.63.42.95.61l.4.24.86.48a2.78,2.78,0,0,1,.59.45c8.12,5.84,27.05,4.68,33.94,0l1.85.74Z"/><path class="cls-11" d="M168.6,197.71a8.25,8.25,0,0,0-1.51-4.77,132.26,132.26,0,0,0-13.29-.46,8.33,8.33,0,0,0,1.2,11.68,47.64,47.64,0,0,0,10.21.25A8.3,8.3,0,0,0,168.6,197.71Z"/><path class="cls-11" d="M167.65,197.71a7.35,7.35,0,0,0-1.86-4.88c-3.41-.25-7.34-.4-10.68-.37a7.35,7.35,0,0,0,2.09,11.94,47.64,47.64,0,0,0,5.86.14A7.38,7.38,0,0,0,167.65,197.71Z"/><path d="M164.62,197.71a4.35,4.35,0,1,1-4.35-4.35A4.35,4.35,0,0,1,164.62,197.71Z"/><path d="M163.35,197.71a3.08,3.08,0,1,1-3.08-3.07A3.07,3.07,0,0,1,163.35,197.71Z"/><path class="cls-10" d="M162.06,194.1a1.79,1.79,0,1,1-1.79-1.78A1.78,1.78,0,0,1,162.06,194.1Z"/><path d="M133.58,200.61c1.67-.44,3.36-.77,5-1.1.62-.12,2.79-.26,3.17-.77a19.38,19.38,0,0,1,5.38-5,10.32,10.32,0,0,1,4.87-1.06c2.17-.13,4.35-.1,6.52-.05a98.6,98.6,0,0,1,13.07,1c3.66.58,6.11,3.84,8.17,6.71.1.14.34,0,.24-.14-1.89-2.63-4.29-6-7.65-6.7a80.63,80.63,0,0,0-13-1.06c-2.34-.06-4.68-.07-7,0a13.52,13.52,0,0,0-4.38.65c-2.28.95-4.17,3-5.71,4.83a3.47,3.47,0,0,1-2.43,1.24c-2.1.49-4.22.83-6.3,1.41a0,0,0,1,0,0,.05Z"/><path class="cls-12" d="M144.29,200.26c4.67,3.73,11.3,4.43,17.08,4.44s12.68-.67,17.5-4c.12-.08,0-.27-.11-.19-4.9,3.11-11.23,3.85-16.91,4-5.84.11-12.71-.61-17.49-4.29a.06.06,0,0,0-.07.1Z"/><path class="cls-10" d="M269,200.27a6.39,6.39,0,0,1-.59-.43c-2.09-1.48-5.44-3.7-5.44-3.7-5-1.49-19.27-.75-19.27-.75a18.41,18.41,0,0,0-7.12,6.31l-.42,1.11h2.09c8,5.19,23.88,4.45,30.58-1.85H269A1.85,1.85,0,0,1,269,200.27Z"/><path class="cls-11" d="M257.56,195.38c-4.94-.32-11-.11-13.08,0a8,8,0,0,0-.06,10,33.85,33.85,0,0,0,12.76.51,8.07,8.07,0,0,0,2.16-5.47A8,8,0,0,0,257.56,195.38Z"/><path class="cls-11" d="M258.38,200.4a7.13,7.13,0,0,0-2.15-5.1c-3.82-.17-8-.08-10.44,0A7.12,7.12,0,0,0,246,205.7a34.19,34.19,0,0,0,9.55.37A7.17,7.17,0,0,0,258.38,200.4Z"/><path d="M255.36,200.4a4.35,4.35,0,1,1-4.34-4.26A4.31,4.31,0,0,1,255.36,200.4Z"/><path d="M254.08,200.4a3.07,3.07,0,1,1-3.06-3A3,3,0,0,1,254.08,200.4Z"/><path class="cls-10" d="M252.79,196.86a1.78,1.78,0,1,1-1.77-1.75A1.77,1.77,0,0,1,252.79,196.86Z"/><path d="M236.66,201.73a19.22,19.22,0,0,1,6-5.63,4.53,4.53,0,0,1,2.79-.69c3.5-.12,7-.15,10.51,0a45.63,45.63,0,0,1,5.35.48,8.53,8.53,0,0,1,3.81,1.81c2.77,1.87,5.09,4.06,8.8,4.1a.09.09,0,1,0,0-.18c-4.21-.27-7.25-3.2-10.46-5.33a7.7,7.7,0,0,0-3.29-.79,54.16,54.16,0,0,0-5.7-.35c-3.33-.09-6.67,0-10,.13a5.68,5.68,0,0,0-3,1.39,18.16,18.16,0,0,0-4.89,5c-.05.08.08.15.14.07Z"/><path class="cls-12" d="M238.25,202.84c4.53,3,10.52,3.79,16.05,3.48,5.18-.28,11.1-1.74,14.58-5.34,0,0,0-.09-.07,0-7.84,6.24-21.78,7.1-30.53,1.85,0,0-.07,0,0,.06Z"/><path class="cls-13" d="M110.83,66.1c-4,2.47-15.33,9.89-20.27,21.26s-6.43,31.15-6.43,31.15-6.92,13.84-6.43,28.18c0,0,6.43,8.41,7.42,16.32s4.45,23.73,4.45,23.73l2.47,3s10.88,4.94,11.87,10.38,8.4,42.52,8.4,42.52a17.49,17.49,0,0,0,6.43,4s-8.9-42.52-3.46-64.28c0,0,10.88-25.21,19.28-34.61,0,0,.5-15.33,6.93-24.72,0,0-5,5.44-8.41,7.42,0,0,10.88-9.4,13.35-23.74,0,0-.49-3.46,5.44-4.94,0,0-.49-6.43,4.94-6.43s10.39,9.4,22.75,19.28,17.8,12.86,28.67,12.86c0,0,11.38,9.89,30.16,7.91,0,0-13.34-.5-23.23-10.38s-20.28-19.29-27.2-22.75c0,0,14.34,3,25.71,11.87s37.58,37.08,68.73,43c0,0,2,20.76,0,32.13s-4,16.81.49,23.74c0,0-2.47-10.39,3-14.34h3s-1.49-4.45,3-13.85,8.41-14.83,8.41-28.18c0,0,3,10.88-.49,19.78,0,0,10.38-8.9,7.91-35.11a22.74,22.74,0,0,1,3.46,16.32s6.92-9.39,2-30.66-36.09-73.17-90.48-88c0,0-2.45-.24-6.28-.22-5.6.05-14.13,2.63-18.35,6.41-4.84,4.33-.43,7.14,4,8.79,3.7,1.39,18.78,3.42,14,10.24-3.15,4.47-12.12,5.64-17,6.94S180.18,73.45,181,80.56c.52,4.66,7.52,7.79,11.25,9.31-6.9-2.8-14.47-5.51-21.94-6.26-7.05-.71-14.05,1-21.05-1.1-6-1.76-11.94-3.12-18.25-2.8-4.44.21-10.06-.09-12.76-4.2S116.66,64,119.38,60.13c-1.07.47-2.11,1-3.11,1.52A21.09,21.09,0,0,1,110.83,66.1ZM207,125.43c-12.36-1.48-16.07-7.42-21.76-12.61-4.42-4-13.1-12.6-13.1-12.6C182,99.47,207,125.43,207,125.43Z"/><path class="cls-14" d="M90.56,87.36c-5,11.37-6.43,31.15-6.43,31.15s-6.92,13.84-6.43,28.18c0,0,6.43,8.41,7.42,16.32s4.45,23.73,4.45,23.73l2.47,3s10.88,4.94,11.87,10.38,8.4,42.52,8.4,42.52a17.49,17.49,0,0,0,6.43,4s-8.9-42.52-3.46-64.28c0,0,10.88-25.21,19.28-34.61,0,0,.5-15.33,6.93-24.72,0,0-5,5.44-8.41,7.42,0,0,10.88-9.4,13.35-23.74,0,0-.49-3.46,5.44-4.94,0,0-.49-6.43,4.94-6.43s10.39,9.4,22.75,19.28,17.8,12.86,28.67,12.86c0,0,11.38,9.89,30.16,7.91,0,0-13.34-.5-23.23-10.38s-20.28-19.29-27.2-22.75c0,0,14.34,3,25.71,11.87s37.58,37.08,68.73,43c0,0,2,20.76,0,32.13s-4,16.81.49,23.74c0,0-2.47-10.39,3-14.34h3s-1.49-4.45,3-13.85,8.41-14.83,8.41-28.18c0,0,3,10.88-.49,19.78,0,0,10.38-8.9,7.91-35.11a22.74,22.74,0,0,1,3.46,16.32s6.92-9.39,2-30.66-36.09-73.17-90.48-88c0,0-1.39-.14-3.71-.2,2.23.06,4.26,5,5.61,6.26,2.49,2.36,5.82,4.1,8.4,6.54s6,3.7,8.63,6.24c7.15,7-8.79,11.44-13,13.41-7.68,3.58-20.3,7.87-20,18.18.11,3.76-.85,4.89-4.45,5.85-1.55.41-3.27.13-4.82.53s-2.7,1.89-3.4,2.17c-4.89,2-7.87-1.09-11.82-3a61,61,0,0,0-22.06-6.07c1.95,2.56,4.54,4.93,5.71,7.87-6.27-2.45-11.56-7.44-18.21-3.77-4.22,2.32-8.74,5.86-13.7,4-4.47-1.69-2.83-4.91-5.4-8-3.52-4.3-11.07-2.9-15.42-6.55-2.58-2.17-10.53-12.52-4.68-15.76C102.12,71.05,94.29,78.77,90.56,87.36ZM207,125.43c-12.36-1.48-16.07-7.42-21.76-12.61-4.42-4-13.1-12.6-13.1-12.6C182,99.47,207,125.43,207,125.43Z"/><path class="cls-15" d="M135.66,101.7c-3.43-4.42-4.88-9.45-11.37-7.8-6.92,1.75-9.78,5.26-13.35-4.07-2.61-6.84-3.76-7.1-11.41-7.49-.39-2.45,1.32-6.88,3.6-10.73-4.54,3.75-9.66,9.06-12.57,15.75-5,11.37-6.43,31.15-6.43,31.15s-6.92,13.84-6.43,28.18c0,0,6.43,8.41,7.42,16.32s4.45,23.73,4.45,23.73l2.47,3s10.88,4.94,11.87,10.38,8.4,42.52,8.4,42.52a17.49,17.49,0,0,0,6.43,4s-8.9-42.52-3.46-64.28c0,0,10.88-25.21,19.28-34.61,0,0,.5-15.33,6.93-24.72,0,0-5,5.44-8.41,7.42,0,0,10.33-8.93,13.14-22.66C142.13,107.4,138.63,105.51,135.66,101.7Z"/><path class="cls-16" d="M238.79,49.18c.11.19-.68,1.9.09,3.1.49.76,2.2,1.4,3,1.95,2.26,1.68,4.68,2.62,6.47,4.84C259.37,72.76,231.58,77.16,225.05,83c-2,1.78-2.92,2.36-2.5,5.33.24,1.71,3.29,3.38,3,4.94-.63,3.68-9.79,3.8-12.76,4.07s-12.11-1.18-14.5.46c-1.78,1.22,0,3.07-2.44,4.37-1.2.64-4.53,0-5.93,0l1.45.89c4.94,1.44,14.33,4.76,22.28,11,11.37,8.9,37.58,37.08,68.73,43,0,0,2,20.76,0,32.13s-4,16.81.49,23.74c0,0-2.47-10.39,3-14.34h3s-1.49-4.45,3-13.85,8.41-14.83,8.41-28.18c0,0,3,10.88-.49,19.78,0,0,10.38-8.9,7.91-35.11a22.74,22.74,0,0,1,3.46,16.32s6.92-9.39,2-30.66c-4.7-20.21-33.1-68.15-82.65-85.56C233.5,44.05,236.86,45.85,238.79,49.18Z"/><path class="cls-17" d="M113.3,147.79c-3.49-.79-6.41.51-9.39,2s-7.66,5.43-11.38,4.34c-3-.89-3.59-4.92-6.06-6.81s-5.08-1.24-7.16-4.56a8.94,8.94,0,0,1-1.24-3.61,48.3,48.3,0,0,0-.37,7.55s6.43,8.41,7.42,16.32,4.45,23.73,4.45,23.73l2.47,3s10.88,4.94,11.87,10.38,8.4,42.52,8.4,42.52a17.49,17.49,0,0,0,6.43,4s-8.9-42.52-3.46-64.28c0,0,10.88-25.21,19.28-34.61,0,0,0-.38.06-1.06-3.6,3-8.23,5.51-11.43,5.51C119.27,152.13,116.89,148.6,113.3,147.79Z"/><path class="cls-18" d="M282.4,189.21c-2,11.38-4,16.81.49,23.74,0,0-2.47-10.39,3-14.34h3s-1.49-4.45,3-13.85,8.41-14.83,8.41-28.18c0,0,3,10.88-.49,19.78,0,0,10.38-8.9,7.91-35.11a22.74,22.74,0,0,1,3.46,16.32s6.92-9.39,2-30.66c-2.17-9.35-9.43-24.65-21.51-40.11,2.46,6.27,7.39,13,10,18.85,3,6.66,6.74,13.93,6.09,21.58a35.47,35.47,0,0,0-17.25-13.59c5.56,7.72,9.53,24.65-.59,30.21-13.89,7.63-32.79,1.32-46.12-4.93,11.24,8.06,24.46,15.44,38.72,18.16C282.4,157.08,284.38,177.84,282.4,189.21Z"/><path class="cls-19" d="M91.05,96.75c-2.53,4.23-1.48,11.4-1.48,16.32,0,5.89-1.15,8.87-3.41,14.19,4.47-5.27,6.47-1,10,2.14a20.35,20.35,0,0,0,14.35,5.42c5.27,0,8.18-1.25,12.71,2.08a40.82,40.82,0,0,1,7.34,7.28A32.91,32.91,0,0,1,134,134c-5.28,3.79-8.62-1.48-12.19-4.78-4.4-4.06-9.47-6-14.46-8.77-11-6.12-16.33-17-14.83-29.67Z"/><path class="cls-20" d="M224.06,117c2.88,2.66,6.31,4.76,9.41,7.24-1.6-7.3,25.45-2.14,30.17-3.66,5.59-1.81,6.07-6.85,7.4-11.87,1.59-6,2.34-8.95,7.4-12.36,10.11-6.8,3.53-11.83-2.34-19.54-3-3.88-7.61-14.49-13.58-15.57a1.76,1.76,0,0,0-.83-.41c3.44,5.26,9.85,11,9.83,17.6,0,4-2.95,7-3.46,10.88-.56,4.3,1.49,7.81,1.51,11.86.05,11.16-12.25,8.82-19.8,8.9-8.17.09-15.24,3.84-23.24,3.46a28,28,0,0,1-8.9-2Z"/><path class="cls-21" d="M92,105.65c1.1,4.5,4.21,10.95,8.26,13.63,1.84,1.22,3.55.78,5.38,1.65,2,1,3.58,3.49,5,5.11a18.82,18.82,0,0,0,5.12,4.55c2.2,1.23,4.54.32,6.3,1,3.45,1.33,3.83,7.11,8.77,4.82a5.78,5.78,0,0,0-2.1,3c-2.64-1.41-4-4.6-6.68-6s-6.71,0-9.55-1.47c-5.35-2.82-7.25-14.54-15-8.58.09-3-2.53-9.26-6.22-8.82-.16-3-.06-6.15-.06-9.22Z"/><path class="cls-22" d="M230.73,115.67c4,.36,7.21-2,11-2.69s8.29-.24,12.34-.28c5.36-.06,12.91-1.39,15.84-6.39,3.4-5.81-2-11.35,1.3-16.87,3.51-5.78,4.15-10.39.74-16.51-1.37-2.45-3.13-4.88-4.4-7.3,4,4,6.12,9.13,9.05,14.44,4.38,7.91-4.37,7.71-4.74,14.46-.39,7.07.84,11.25-4.73,16.4-1.89,1.76-5.75,5.06-8.26,5.77s-5.07-1.11-7.77-1.78c-6.32-1.56-16,.67-19.76,6.64a66.63,66.63,0,0,1-5.09-5.89Z"/><path class="cls-23" d="M126.85,65.27a8.36,8.36,0,0,1,1-1.53c2.48-3.07,22.66-6.65,25.49-3.57l-5.93-6.43s7.91,3.46,11.87,7.91a38.72,38.72,0,0,1,4.45-9.89v7.91s3.46-8.4,14.83-14.83c0,0-7.42,8.4-6.92,11.37s6.92-6.43,18.29-8.41c0,0-8.4,5-8.4,6.93s23.73,1,19.77,7.41S168.68,69.07,172.63,77c0,0-8.89,3.46-16.81-1C150.93,73.23,122.53,74.12,126.85,65.27Z"/><path class="cls-9" d="M312.82,125.6c-2.71-10.29-8.18-20-14-28.83-17.54-26.69-43.7-48.5-74.63-57.51-3.74-1.09-7.95-.74-11.79-.55a63.94,63.94,0,0,0-22,4.65c-2.48,1.08-6.57,2.8-8.08,4.74h0a18.88,18.88,0,0,1,1.34-1.62A38.27,38.27,0,0,1,193,39.16c11.4-6.61,25.06-8.23,38-7.57.11,0,.14-.17,0-.2-7.92-1.86-16.62-1.58-24.61-.49a74.35,74.35,0,0,0-23.13,7.18,70.79,70.79,0,0,0-11.82,7.52c-1.38,1.07-3.54,2.45-4.46,3.93l0,0,.3-.54c7.52-13.16,21.45-22.24,36.09-25.35.11,0,.09-.22,0-.21a62.78,62.78,0,0,0-21.68,6.93,50.55,50.55,0,0,0-15.93,12.74,42.62,42.62,0,0,0-5.9,9.65,3.34,3.34,0,0,0-.43,1.28v0c0-.06-.05-.12-.07-.17a13.33,13.33,0,0,0-.71-1.35c-4.89-8.46-14.72-12.56-24-13.78-.11,0-.14.18,0,.21a32.35,32.35,0,0,1,10.17,3.9,18.34,18.34,0,0,1,6.71,6.44c.39.65,1,3.09,1.4,3.27h0c-.43-.18-.88-.35-1.32-.52-12.28-4.63-27.13-7.18-39.71-2.42-.12,0-.07.25.06.21,4.76-1.62,10.3-1.49,15.19-.79a44.3,44.3,0,0,1,15.24,5.35,1.52,1.52,0,0,0,.5.19h-.16l-1,.08c-1.19.11-2.38.26-3.57.42a85.37,85.37,0,0,0-11.63,2.39,57.55,57.55,0,0,0-6.25,2.14c-1.2.48-3.29,1-4.11,2-2,2.46-5,4-7.57,5.75a66.88,66.88,0,0,0-7.88,6.17A43.08,43.08,0,0,0,94.23,81a35,35,0,0,0-3.67,6.4c-.19.44-.38.9-.56,1.37a48.34,48.34,0,0,0-2,5.91A131.08,131.08,0,0,0,84.25,116a9.51,9.51,0,0,1-.5,3,71.81,71.81,0,0,0-3,7.89,65.55,65.55,0,0,0-2.92,13.85c-.13,1.3-.18,2.61-.21,3.91,0,.4-.19,1.73.05,2,.58.76,1.1,1.55,1.62,2.35a38.18,38.18,0,0,1,5.49,12.27c.21.9.38,1.8.54,2.72s.32,2.18.52,3.38c.25,1.75.5,3.5.82,5.23q1,5.35,2.14,10.69c.26,1.27.28,2.86,1.13,3.88L92,189.79a6.44,6.44,0,0,0,1.62.8,30.36,30.36,0,0,1,8.12,5.81c1.72,1.83,2.12,3.83,2.57,6.17s.92,4.72,1.38,7.08q3.24,16.5,6.56,33a.1.1,0,0,0,.14.07,17.32,17.32,0,0,0,2.19,1.75l.5.31.29.18.08.05a24.26,24.26,0,0,0,3.32,1.61s.06,0,.06-.05c-.77-3.68-1.44-7.38-2-11.09l0-.21c-1-6.22-1.75-12.49-2.33-18.74a151.17,151.17,0,0,1-.58-23.88q.19-2.82.6-5.62c.07-.48.13-1,.2-1.54.17-1,.36-1.89.58-2.79a2.74,2.74,0,0,1,.15-.4c.54-1.27,1.12-2.53,1.69-3.79,1.1-2.4,2.21-4.8,3.35-7.2,2.3-4.7,5.16-10.2,8.09-15,1.28-2.06,2.63-4.09,4.07-6a14,14,0,0,0,1.92-2.46l.1-.12a1.08,1.08,0,0,0,0-.16,2.14,2.14,0,0,0,.08-.44c.1-1.91.32-3.81.6-5.7.92-6.39,2.65-13,6.28-18.39,0,0,0-.12-.08-.07-.94,1-1.91,2-2.91,3-1.58,1.53-3.64,3-5.16,4.3l-.06,0a41.47,41.47,0,0,0,4.94-5.49,44.15,44.15,0,0,0,7.14-13.55,27.69,27.69,0,0,0,.78-3.27c.09-.42.18-.85.25-1.28v-.08c0-.21.07-.41.11-.62.39-2.49,3.26-3.62,5.35-4.19a0,0,0,0,0,.05,0c-.16-2.22.57-4.73,2.61-5.88a4.55,4.55,0,0,1,.93-.38,3.35,3.35,0,0,1,.37-.09h0a6.47,6.47,0,0,1,.91-.07h.09c2.3.12,4.52,2,6.1,3.43,3,2.78,5.72,5.91,8.63,8.81,2.14,2.13,4.4,4.14,6.72,6.07l-.94-.82c.69.59,1.41,1.19,2.16,1.78,3.57,2.86,6.56,5.13,9.27,6.92q-1.31-.82-2.58-1.71c1.57,1.12,3.16,2.17,4.79,3.11a30.55,30.55,0,0,0,8.66,3.65,28.17,28.17,0,0,0,4.3.77c.91.09,1.84.13,2.76.16.34,0,1.25-.15,1.5.07s.73.56,1.1.83a36.44,36.44,0,0,0,6.17,3.5,44.6,44.6,0,0,0,22.86,3.54.07.07,0,1,0,0-.13,31,31,0,0,1-3.92-.45l-.61-.12-1.14-.26-.88-.22a41.62,41.62,0,0,1-9.31-3.79c-4.85-2.69-8.52-6.77-12.47-10.57s-8.11-7.62-12.43-11.13q-2.4-1.95-4.93-3.72a17.39,17.39,0,0,0-4.46-2.66l-.05,0c1.79.39,3.56.92,5.3,1.48a65.55,65.55,0,0,1,22.29,12.07c1.69,1.42,3.36,2.85,5,4.28,5.48,4.85,12.47,11.08,20.58,17.1,3.17,2.39,6.42,4.69,9.81,6.83a99.28,99.28,0,0,0,24.66,11.49c.2.06,1.1.27,2.16.5,1.34.35,2.7.67,4.07.94.14,0,.23.06.23.08.05.51.1,1,.14,1.54q.35,4.32.54,8.65c.37,8.22.35,16.42-1.15,24.53a88.47,88.47,0,0,0-1.53,9.85,16.9,16.9,0,0,0,1.12,8.56,16,16,0,0,0,1.39,2.77.08.08,0,0,0,.14-.06,22.94,22.94,0,0,1-.46-7.25,10.53,10.53,0,0,1,2.48-6.2c1-1.14,2.41-.79,3.84-.79a.07.07,0,0,0,.07-.1,8.43,8.43,0,0,1-.29-1.43,17.69,17.69,0,0,1,.46-4.71,39.85,39.85,0,0,1,1.27-4c2.08-5.84,5.56-11.07,7.64-16.92a40.51,40.51,0,0,0,2-8.57,53.56,53.56,0,0,0,.34-5.66v-.37s0,.05,0,.07a4.53,4.53,0,0,0,.08.73c1.32,6.08,1.43,12.74-.76,18.63,0,.08.09.13.14.08,4-3.45,5.9-9.64,7-14.53a55,55,0,0,0,1.21-9c.11-1.92.12-3.84.08-5.77,0-1.05-.08-2.11-.15-3.17a7.45,7.45,0,0,0-.28-2.47v0c3.3,4.5,4.1,10.75,3.36,16.13a.09.09,0,0,0,.16.06c1.76-2.41,2.55-5.71,3.1-8.57C315.71,141.35,314.8,133.11,312.82,125.6ZM230.36,31.47l.58.11-.63-.12Zm-28.18-7.64.75-.1c-.25,0-.63.1-1.06.17ZM135.7,39.07l-.7-.18.94.21ZM113.12,49.32c-.41.09-.82.2-1.22.32.36-.11.86-.24,1.41-.39ZM84.46,159.83a24.6,24.6,0,0,1,.58,2.62C84.87,161.57,84.68,160.7,84.46,159.83ZM238,135.35l.32,0h-.46Zm-18.37-6.68a33.23,33.23,0,0,1-4.47-3.73l-.15-.15A48.89,48.89,0,0,0,219.63,128.67ZM207,125.43c-12.36-1.48-16.07-7.42-21.76-12.61-4.42-4-13.1-12.6-13.1-12.6C182,99.47,207,125.43,207,125.43Zm4.85-86.59A73.42,73.42,0,0,0,197,41.2,67.09,67.09,0,0,1,211.85,38.84Zm-7.16,69.52a57.11,57.11,0,0,1,9,5.7l.84.67A69,69,0,0,0,204.69,108.36Zm18.95-69.15a27.25,27.25,0,0,1,3.72,1.12C226.13,39.93,224.89,39.56,223.64,39.21Zm59.12,173.52c.07.37,0,.07-.14-.25Zm6-14.12h0Zm11-22.43-.11.11.12-.13Zm14.13-45.09a50.38,50.38,0,0,1,.64,15.35A53.73,53.73,0,0,0,313.9,131.09Zm-135.56-17.5a91.36,91.36,0,0,0,7.91,6.17c-.82-.58-1.64-1.19-2.45-1.81Q181,115.82,178.34,113.59Z"/></g></g></svg>