<svg xmlns="http://www.w3.org/2000/svg" xmlns:xlink="http://www.w3.org/1999/xlink" viewBox="0 0 380.54 380.54"><defs><style>.cls-1{fill:#27c0b0;}.cls-2{fill:#f4a384;}.cls-3{fill:#f6ae94;}.cls-4{fill:#cb6d50;}.cls-5{fill:#742e2c;}.cls-6{fill:#fa6182;}.cls-7{fill:url(#linear-gradient);}.cls-8{fill:#e60051;}.cls-9{fill:#fff;}.cls-10{fill:#609e55;}.cls-11{fill:#ffc1ff;}</style><linearGradient id="linear-gradient" x1="183.04" y1="293.99" x2="183.04" y2="299.89" gradientUnits="userSpaceOnUse"><stop offset="0" stop-color="#fa6182"/><stop offset="1" stop-color="#ffa2bb"/></linearGradient></defs><title>Asset 11</title><g id="Layer_2" data-name="Layer 2"><g id="Avatar_9"><circle class="cls-1" cx="190.27" cy="190.27" r="190.27"/><path class="cls-2" d="M269.06,363.51a74.08,74.08,0,0,1-4.71-6.68l-.56-.88-.33-.54-.63-1-.28-.48-.76-1.27-.18-.31c-.33-.56-.66-1.12-1-1.71-6.24-10.83-7.79-34.9-8.11-50.44,0-.27,0-.55,0-.83s0-.37,0-.56c0-.39,0-.78,0-1.16,0-.14,0-.28,0-.41,0-.32,0-.64,0-1v-.45c0-.33,0-.65,0-1v-3.74a1.69,1.69,0,0,0,0-.23v-1c0-.28,0-.55,0-.81v0c0-.25,0-.49,0-.72v-.14c0-.2,0-.39,0-.57v-.08c0-.2,0-.38,0-.55v-.07c0-.12,0-.24,0-.34v-.12c0-.23,0-.39,0-.48v-.1l-59.66,31.35c.12,1.16.22,2.3.31,3.43,0,.36.05.72.08,1.08.06.75.11,1.5.15,2.24,0,.41,0,.82.06,1.24,0,.66.07,1.32.09,2l0,1.26c0,.62,0,1.24,0,1.85,0,.41,0,.82,0,1.22,0,.61,0,1.21,0,1.81,0,.38,0,.76,0,1.14,0,.63-.05,1.24-.08,1.85,0,.33,0,.66,0,1,0,.81-.1,1.59-.16,2.37l0,.35c-.07.88-.16,1.75-.26,2.6,0,.29-.07.57-.11.86-.07.55-.14,1.11-.22,1.65l-.15,1c-.08.49-.16,1-.25,1.44l-.18,1c-.09.45-.18.9-.28,1.34l-.21,1c-.1.44-.21.87-.32,1.3s-.15.6-.23.9-.24.88-.37,1.32c-.08.26-.15.52-.23.78-.17.54-.34,1.07-.52,1.6-.05.13-.09.27-.14.4-3.83,11-10.18,17.94-17.27,22.54,5.84.54,11.76.83,17.74.83A189.69,189.69,0,0,0,269.06,363.51Z"/><path class="cls-3" d="M298.81,191.38c-1-.72-4.79-1.77-5.83-2,2.52-19.72,8.82-56.42-18.45-85.51-30.68-32.73-72.62-32.73-95.63-27.1s-50.11,28.64-55.74,53.69-2.1,32.63-4.63,40.72-7.07,19.21-1,31.34a119.52,119.52,0,0,1,3,25.79c0,13.65,8.09,32.87,23.25,52.08s24.35,39.3,42,41c26.8,2.53,64.89-21.62,77.87-49.51a148,148,0,0,0,8.6-25.39c4.25.78,7.67-2,10.63-6.48,3.79-5.69,8.72-9.48,12.51-14.79C301.08,217.16,307.15,197.45,298.81,191.38Z"/><path class="cls-3" d="M130.33,129.17a43,43,0,0,1,12.95-19.24c11.67-9.76,28.48-14.27,43.52-13.29,7.93.51,17.49,2.5,24.57,6.26,13,6.9,20.29,14.29,22.58,29.17,1,6.27.94,12.67,2.1,18.91.21,1.14,5.25,15.72,7.39,13.86,0,0-8.72,7.58-9.86,7.58s-113,4.17-113,4.17l-2.65-1.52s7.58-10.61,8-19C126.31,147,127.33,137.65,130.33,129.17Z"/><path class="cls-3" d="M160.75,253.8s.26,2.78,4.3,3.28a7.36,7.36,0,0,0,8.34-4.8c1.52-3.54,4.56-22.25,3.54-42.73l-15.16.26S164.55,231,164,237.87,160.75,253.8,160.75,253.8Z"/><path class="cls-3" d="M161.68,249.84a8,8,0,0,1,4-1.52c2,0,9.44,2.86,9.44,2.86l1-2s-7.76-3-10.45-3a5.28,5.28,0,0,0-2.87,1Z"/><path class="cls-3" d="M208.94,225.7a8.91,8.91,0,1,1-8.91-8.91A8.91,8.91,0,0,1,208.94,225.7Z"/><path class="cls-3" d="M162.65,225.14c.38,4.59-2.31,8.56-6,8.87s-7-3.16-7.39-7.76,2.31-8.56,6-8.87S162.27,220.55,162.65,225.14Z"/><path class="cls-3" d="M267.17,257C258,273,241,280.62,229.37,273.92s-13.66-25.12-4.45-41.17,26.12-23.63,37.79-16.94S276.37,240.94,267.17,257Z"/><path class="cls-3" d="M149.38,241.23c-5.26-15.73-18.43-26.7-29.48-24.61a110.16,110.16,0,0,1,.66,11.64c0,12.12,6.38,28.62,18.42,45.62C150,271.59,154.67,257,149.38,241.23Z"/><path class="cls-3" d="M121.72,203.51s-3.79-26.92,5.69-31.09,21.23.76,21.23.76l6.45,8,.76,2.65s3.79,16.69,2.65,43.61l-11-8.72s-9.1-9.1-11-9.48-9.48-.38-9.48-.38Z"/><path class="cls-3" d="M196.8,225.51s-7.58-39.44,1.52-51.57,23.89-11,23.89-11l15.93,1.52S252.92,168.63,256,172c0,0,0,22-9.86,42.09Z"/><path class="cls-3" d="M159.83,256.41c-.2.87,2.78,2.67,3.35,2.92,4,1.72,8.54-.42,12.32-1.74,3.37-1.18,8.77,1.85,9.27,3.71,0,0,.17,2.19-1.18,2.52s-21.4.17-21.4.17L160,262.64l-.85-3.2Z"/><path class="cls-3" d="M159.49,258.85s1.26,3.54,6.57,3.29,8.6-2.78,10.37-3.29,8.09,1.27,7.84,3.29l-.51,2s-3,13.4-9.1,13.65-5.06-8.59-9.35-10.62C165.31,267.19,159.49,263.66,159.49,258.85Z"/><path class="cls-3" d="M179,305.12s8.09.5,10.36,0c0,0-1.26,4.3-3.79,4S179,305.12,179,305.12Z"/><path class="cls-3" d="M156,281.61l-1.52,3.54S151.15,281.61,156,281.61Z"/><path class="cls-3" d="M226.49,280.09l2.78,4.3S232.55,280.59,226.49,280.09Z"/><path class="cls-4" d="M217.28,183.42s11-4.93,25.79,2.65C243.07,186.07,229,173.18,217.28,183.42Z"/><path class="cls-4" d="M148,187.12s-8.42-4-18.84,3.77C129.16,190.89,138.68,178.21,148,187.12Z"/><path class="cls-3" d="M295.12,194.13l-2.1,2c-2.26,1.36-7.12,8.48-7.12,8.48L283.08,209l-.09-.09c-1.52,1.39-4.55,8.47-4.55,8.47l.16.49-.16.14a5.09,5.09,0,0,1,.39.6l.58,1.79a7.94,7.94,0,0,1-1.48,5s4.3-1.52,5.19-4.56a5.33,5.33,0,0,0-1.5-5c.45-1.06.89-2,1.24-2.67a2.6,2.6,0,0,1,3-1.39l-1.07-1,.43.14c-.63-1.27,2.41-4.3,2.41-4.3l-.07-.08c1.15.9,2.47,1.72,2.47,1.72s-1.27-3.41,0-5.43c.93-1.49,3.42-3,4.68-3.66a27.85,27.85,0,0,1,4,5.43S296.9,196,295.12,194.13ZM286,220.05l.76-4.3S285,216.76,286,220.05Zm2.91,2.78c2.65-5.06,1.39-8.47,1.39-8.47A48.2,48.2,0,0,0,288.93,222.83Zm7.33-15.3c1.27,3.41-1.26,13.15-1.26,13.15,4-7,3.41-12.39,3.41-12.39Z"/><path class="cls-3" d="M164.21,264.5s4.89,3,7.08,2.86a5,5,0,0,0,4-3.37S168.59,265.68,164.21,264.5Z"/><path class="cls-3" d="M302.79,198a11.63,11.63,0,0,0-3.2-6.43,9.53,9.53,0,0,0-10-1.8,12.36,12.36,0,0,0-4.49,2.93,8.69,8.69,0,0,0-1.3,2.14c-.49.86-.92,1.75-1.36,2.64-1.94,3.87-3.69,7.89-6.43,11.29,0,0,0,0,0,0a43.7,43.7,0,0,0,5-8.07c.71-1.38,1.42-2.77,2.22-4.1a11.64,11.64,0,0,1,2.93-3.73c2.85-2,5.72-3.3,9.27-2.63a8.41,8.41,0,0,1,6,4.71c2.16,4.54,1.31,10.29.19,15a50.44,50.44,0,0,1-5.73,14.05c-3.25,5.53-8.55,9.56-12.36,14.68-1.85,2.49-3.5,5.07-6.27,6.62s-6,.89-8.7-.67a.2.2,0,0,0-.2.34,9.09,9.09,0,0,0,7.35,1.43c2.55-.69,4.56-2.78,6.12-4.79,1-1.25,1.78-2.6,2.72-3.86,1.21-1.61,2.56-3.1,3.92-4.58,2.3-2.5,4.75-4.94,6.79-7.66a40.85,40.85,0,0,0,6.11-12.95C302.78,208,303.62,202.86,302.79,198Zm-27.12,32.78s0,0,0,0c.3-2.75,2-4.74,3.31-7a6,6,0,0,0,.15-6.1c-.29-.58-1.18-.07-.88.51a6.13,6.13,0,0,1-.34,6.8A12.11,12.11,0,0,0,275.67,230.82Zm19.7-36c.45-.36-.15-1.14-.61-.79a32.8,32.8,0,0,0-4.35,4.31,59.67,59.67,0,0,0-4.35,5.55,74.81,74.81,0,0,0-7.48,12.87c-.07.17.17.32.25.15,1.23-2.34,2.47-4.65,3.79-6.91a.27.27,0,0,0,.26.28c3.26.22,4.44,3.75,3.77,6.55a0,0,0,1,0,.05,0c1-2.76-.38-7-3.82-7.1l-.13,0c1-1.63,2-3.24,3.06-4.82a4.49,4.49,0,0,0,2.28,2.59,11.25,11.25,0,0,1,1.89,1.21c.71.63.65,1.86.6,2.72-.2,3.87-1.91,7.52-1.63,11.44h0c-.24-4,1.6-7.79,1.87-11.76.1-1.37.14-2.68-1-3.59s-3.07-1.49-3.73-2.94c0,0,0,0,0,0a55.44,55.44,0,0,1,4.49-5.54A41.94,41.94,0,0,1,295.37,194.77Z"/><path class="cls-4" d="M163.43,235.37a22.75,22.75,0,0,1-1,12.17c-1.07,3.21-2.9,6.19-3.62,9.51a8.11,8.11,0,0,0,2,7.51,13,13,0,0,0,5.14,3.21,23.68,23.68,0,0,0,3.81.89,11.09,11.09,0,0,0,3.67.29c.22,0,.21-.39,0-.43-1.16-.2-2.34-.23-3.51-.47a17,17,0,0,1-3.88-1.59,14.43,14.43,0,0,1-4.74-3.47c-1.85-2.22-1.43-5.14-.84-7.74.74-3.17,2-6.18,2.81-9.34a21.38,21.38,0,0,0,.25-10.54Z"/><path class="cls-4" d="M177.57,265.67c-.62-1.54.55-1.89,1.85-2a9.6,9.6,0,0,1,3.7.2.1.1,0,0,0,.06-.19c-1.57-.51-3.24-1.14-4.88-.66-1.38.4-1.52,1.59-.94,2.71.06.12.26,0,.21-.09Z"/><path class="cls-4" d="M182.8,265.37c2-1.37,2.59-4.21,2.36-6.49a.12.12,0,1,0-.23,0c-.29,2.51-.37,4.47-2.2,6.41,0,0,0,.11.07.08Z"/><path class="cls-5" d="M177.57,264.6s-.19-1.26,3.53-.88C181.1,263.72,179.21,265.17,177.57,264.6Z"/><path class="cls-3" d="M158.82,283.54s5.11-4.39,8.82-5.07c2.36-.43,4.23,1.64,6.48,1.89,2.64.28,4.9-1.27,7.51-1.39,3.88-.16,5.9.38,13.66,1.9s26.39,1.66,28.08,1.49c0,0-10.79,6.07-13.82,6.07s-23.6,2-24.44,2.19-10.62-.5-12.47-.5Z"/><path class="cls-6" d="M159.81,284.89a55.56,55.56,0,0,0,4.08,6.32c2.14,2.78,2,7.38,3.85,9.36,2.14,2.27,14.57,4.8,21.85,1.26s29.21-20.14,29.21-20.14-2.55.79-5.28,1.43c-2,.46-4,1.27-6.36,1.27-5.78,0-30,.5-30.63.76s-11.58-.26-12.22-.26Z"/><path class="cls-6" d="M166.17,292.48s-.29,5.9,4.86,7.41,11.56.68,11.56.68l6.29-.85,2.28-.67s7.15-3.71,8.58-6.91-6.72-2.87-6.72-2.87-5-.37-5.28,0-19.43.51-19.43.51Z"/><path class="cls-6" d="M166.17,292.48s-.29,5.9,4.86,7.41,11.56.68,11.56.68l6.29-.85,2.28-.67s7.15-3.71,8.58-6.91-6.72-2.87-6.72-2.87-5-.37-5.28,0-19.43.51-19.43.51Z"/><path class="cls-7" d="M166.17,292.48s-.29,5.9,4.86,7.41,11.56.68,11.56.68l6.29-.85,2.28-.67s7.15-3.71,8.58-6.91-6.72-2.87-6.72-2.87-5-.37-5.28,0-19.43.51-19.43.51Z"/><path class="cls-6" d="M166.17,292.48s-.29,5.9,4.86,7.41,11.56.68,11.56.68l6.29-.85,2.28-.67s7.15-3.71,8.58-6.91-6.72-2.87-6.72-2.87-5-.37-5.28,0-19.43.51-19.43.51Z"/><path class="cls-6" d="M213.52,283.12c-2,.46-4,1.27-6.36,1.27-5.78,0-30,.5-30.63.76s-11.58-.26-12.22-.26h-4.5a55.56,55.56,0,0,0,4.08,6.32,9.45,9.45,0,0,1,1.35,2.67l.14.11s.22-2,7.93-2,27-.51,27.42,2.53c0,.09,0,.19.05.28,8.56-5.92,18-13.09,18-13.09S216.25,282.48,213.52,283.12Zm-45.78,14.67a9.81,9.81,0,0,0,7.71,4c5.36.25,13.5-1.26,16.07-2.78C191.52,299.05,173.53,301.07,167.74,297.79Z"/><path class="cls-6" d="M161.21,285.9l2.89,3.8a26.35,26.35,0,0,1,4.18.12c2.25.26,1.5,1.77,6.64,1.77s5.46-.76,8.14-1.13,20.89-2.41,21.85-1.77l1,.63s7-3.8,8.9-5.82c0,0-8.25,2.53-9.75,3.16s-20.78,2.78-24.21,2.53l-3.22.63s-6.1,1.9-7.92-2C169.67,287.8,167.74,288.69,161.21,285.9Z"/><path class="cls-8" d="M218.85,281.63h0s0,0,0,0l0,0-4.79.72a74.15,74.15,0,0,1-17.36.76c-6.42-.5-13.92-2.78-17.56-2a12.86,12.86,0,0,0-5.79,2.78s-3.86-3.54-5.57-3.54-4.5,1.52-6.43,2.78c-1.78,1.17-4.36-.44-4.74-.7a.1.1,0,0,1,0,0h0a15.48,15.48,0,0,0,1.57,1.39l.13.1c.22.18.45.36.68.52a20.08,20.08,0,0,0,6.63,3.09c1,.33,2.06.63,3.12.91.07,0,.77,0,.82.14a3.33,3.33,0,0,0,.74,1,5,5,0,0,0,2.39,1.12,7,7,0,0,0,2.78.06,7.34,7.34,0,0,0,2.73-.62.12.12,0,0,0,0-.13l2.77-.73a0,0,0,0,0,0,0,97.06,97.06,0,0,0,18.7-1.45,76.69,76.69,0,0,0,9.88-2.25c1.56-.47,3.1-1,4.61-1.6s3.15-1.54,4.73-2.31Z"/><path d="M193.48,181.38A108.61,108.61,0,0,0,207,173.44a36,36,0,0,1,14.31-6.63c7.26-1.48,18.43-2.19,34.38,4.86,1,0,2.1,0,3.17,0a108.55,108.55,0,0,0-22.34-9.29c-13.17-3.78-25.17-1.88-34.31,3C192.78,170.46,189.37,178.52,193.48,181.38Z"/><path d="M198.74,178.25c-2.16,1.24-3.89,2.16-4.7,2.58a4,4,0,0,1-1.14-3.51c.36-3.35,4-8,9.86-11.18a39.89,39.89,0,0,1,7-2.94,44.75,44.75,0,0,1,26.58.27A99.47,99.47,0,0,1,256.12,172h-.53c-12-6-22.86-7-31-6.05a34.79,34.79,0,0,0-16.91,6.49c-.37.25-.72.51-1.08.76-2.39,1.72-5,3.37-7.89,5Z"/><path d="M156.18,184.36a25,25,0,0,1-8.22-5.43c-2.11-2-4.19-4.15-8.3-5.4-4-1.1-10.24-1.36-18.58,4.36q-1-.31-2-.57a66.54,66.54,0,0,1,12-8.23,18.3,18.3,0,0,1,18.55,1C155.29,173.62,158.12,180.23,156.18,184.36Z"/><path d="M152.83,182.18a22.37,22.37,0,0,0,2.88,1.5,7.68,7.68,0,0,0,.21-3.94c-.56-3.18-3.1-6.84-6.64-9a20.7,20.7,0,0,0-4-2A16.8,16.8,0,0,0,131.17,170a58.55,58.55,0,0,0-10.38,7.62l.34.09c6.29-4.77,12.24-5.76,16.65-5.07a17.21,17.21,0,0,1,9.61,5.19l.65.64a26.6,26.6,0,0,0,4.79,3.71Z"/><path d="M221.45,225.51l7.21,3.79S238.89,224,245.72,221l.76-9.1L221.83,224Z"/><path d="M245.19,199.66s9.39-5.58,12.24-13.26c0,0-.72,9.92-12.1,17.67Z"/><path d="M248,202a17.81,17.81,0,0,0,5.06-6.83s-10.11-8.59-28.06-6.82-24,22.24-27.3,35.14l17.44-6.07Z"/><path d="M199.48,221.49c1.69-6.32,3.93-13.26,7.45-19.13,4.74-7.86,10.68-12.05,18.16-12.78a46.83,46.83,0,0,1,4.7-.24c11.81,0,19.4,4.61,21.69,6.22a17,17,0,0,1-4.19,5.33l-32.66,15.33-15.15,5.27Z"/><path class="cls-9" d="M223.35,194.41c-14.41,1.9-22.76,19-26.55,31.48a42.34,42.34,0,0,1,7.84-1.13A83.49,83.49,0,0,0,221.91,227l.3,0c5.31.76,4.55,0,4.55,0,5.69-1.51,11.38-3.41,15.55-7.58a25.25,25.25,0,0,0,5.31-15.55v-2.65A33.55,33.55,0,0,0,223.35,194.41Z"/><path class="cls-10" d="M243.4,208.25A20.43,20.43,0,0,0,240,196.8a32.46,32.46,0,0,0-16.6-2.39c-6.52.86-11.79,4.82-16,10.05a20.55,20.55,0,0,0-.35,3.79c0,8.74,5.35,16.15,12.73,18.64l2.14.09.3,0c5.31.76,4.55,0,4.55,0a49.42,49.42,0,0,0,9.76-3.47A20.06,20.06,0,0,0,243.4,208.25Z"/><path class="cls-10" d="M225.22,225.22c8.73,0,15.8-7.6,15.8-17a17.5,17.5,0,0,0-5.65-13,31.93,31.93,0,0,0-12-.83,22.28,22.28,0,0,0-12.1,5.91,18,18,0,0,0-1.83,7.93C209.42,217.62,216.5,225.22,225.22,225.22Z"/><path d="M236.39,208.25c0,6.63-5,12-11.17,12s-11.17-5.37-11.17-12,5-12,11.17-12S236.39,201.62,236.39,208.25Z"/><path d="M234.93,208.25c0,5.76-4.35,10.43-9.71,10.43s-9.71-4.67-9.71-10.43,4.35-10.43,9.71-10.43S234.93,202.48,234.93,208.25Z"/><path d="M234.93,208.25c0,5.76-4.35,10.43-9.71,10.43s-9.71-4.67-9.71-10.43,4.35-10.43,9.71-10.43S234.93,202.48,234.93,208.25Z"/><path class="cls-9" d="M221,198.73a4.23,4.23,0,1,0,4.58-4.51c-.43,0-.85.05-1.28.09A4.47,4.47,0,0,0,221,198.73Z"/><path d="M247.69,201.16c-9-8.21-24.1-10.68-34.26-3.33a36.46,36.46,0,0,0-10.24,12.33A74.81,74.81,0,0,0,197,225l-.24.86a0,0,0,1,0,.05,0c3.27-9.81,7.95-20.07,16.4-26.51A23.19,23.19,0,0,1,229,194.91c6.7.35,12.93,3,18.56,6.42A.11.11,0,0,0,247.69,201.16Zm-5.41,18.26a30.47,30.47,0,0,1-7.26,4.66c-2.68,1.21-5.51,2-8.27,2.92,0,0,0,.05,0,0,5.53-1.06,11.73-3.29,15.57-7.58C242.36,219.43,242.32,219.38,242.28,219.42Z"/><path d="M133.48,219.82v3.79s5.68,3,11.37,6.83l5.69-4.17Z"/><path d="M131.43,211.83s-9.46-4.27-13.5-12.11c0,0,9.45,8.82,14.76,9.83Z"/><path d="M130.92,210.82s-2.53-.51-5.56-3.8c0,0,.14-11.15,9.86-14.91,7.84-3,14.13,3.12,17.43,9.7,1.86,3.71,2.64,7.78,3.32,11.85.3,1.78.33,10.21,1.75,11.32,0,0-9.1-7.08-10.11-7.34S130.92,210.82,130.92,210.82Z"/><path d="M155.37,221.57c-6.43-4.9-7.19-5.09-7.45-5.15-.85-.24-10.58-4.28-16.51-6.77l-.1,0-.13,0a10.52,10.52,0,0,1-4.53-3c.15-2.12,1.25-10.25,9-13.26a10.09,10.09,0,0,1,3.63-.71c6.78,0,11.06,7.49,12.21,9.79,1.79,3.57,2.54,7.47,3.2,11.49.07.42.14,1.42.2,2.49.14,2.12.27,3.84.45,5.22Z"/><path class="cls-9" d="M130.44,211.1l.38,1.51a28.93,28.93,0,0,0,4.55,9.11c2.51,3.24,4.43,4.41,8,6.06,4.66,2.18,11-3.25,14.79-.38-1.13-8-1.51-16.3-6.44-23.89C145.35,193.78,132,193.65,130.44,211.1Z"/><path class="cls-10" d="M140.1,197c-2.39,3.33-3.76,8.31-3.45,13.79.53,9.63,6,17.16,12.24,16.82,3.5-.2,6.5-2.84,8.36-6.82-.82-5.86-2-11.76-5.57-17.26C148.72,199,144.21,196.51,140.1,197Z"/><path class="cls-10" d="M138.13,210.69c.45,8.37,5.22,14.91,10.63,14.61,3.56-.2,6.51-3.29,8-7.76a36.31,36.31,0,0,0-5.07-14,13.89,13.89,0,0,0-9.1-6.47C139.63,199.76,137.81,204.9,138.13,210.69Z"/><path d="M147.34,199.44c-3.83.21-6.67,5.17-6.34,11.09s3.69,10.54,7.52,10.33,6.57-5,6.35-10.79a30.73,30.73,0,0,0-3.19-6.56,16.22,16.22,0,0,0-3.72-4.06A4.26,4.26,0,0,0,147.34,199.44Z"/><path d="M154,209.82c.28,5.14-2.19,9.46-5.52,9.64s-6.25-3.84-6.54-9,2.19-9.45,5.52-9.64S153.67,204.68,154,209.82Z"/><path d="M154,209.82c.28,5.14-2.19,9.46-5.52,9.64s-6.25-3.84-6.54-9,2.19-9.45,5.52-9.64S153.67,204.68,154,209.82Z"/><path class="cls-9" d="M144.84,201.8c.13,2.24,1.4,4,2.85,3.91s2.51-2,2.39-4.19c0,0,0-.08,0-.11a14.56,14.56,0,0,0-4.07-3.22A4.72,4.72,0,0,0,144.84,201.8Z"/><path d="M156.88,217.36a44.26,44.26,0,0,0-2.83-10c-1.76-4.08-4.54-8.43-8.85-10.17a9.6,9.6,0,0,0-9.59,1c-3.68,2.92-4.87,8-5.16,12.44l0,.4s0,0,0,0c.55-4.42,1.94-9.34,5.75-12.07a9,9,0,0,1,9.17-.54c4.21,1.94,6.82,5.79,8.63,9.93a41.27,41.27,0,0,1,2.64,9.44c.54,3.17.65,6.44,1.38,9.57,0,.11.2.08.19,0A85.19,85.19,0,0,0,156.88,217.36Zm-13.5,10.34c-1.39-.82-2.84-1.53-4.18-2.44a19.84,19.84,0,0,1-3.8-3.58s-.1,0-.07.06a16.27,16.27,0,0,0,8,6.13C143.41,227.91,143.47,227.76,143.38,227.7Z"/><path class="cls-11" d="M313.43,105.59s-10.2,3.2-14.89,10c0,0,4.89-12.37,11.23-17.65,0,0-11.76.53-18.59,5.26,0,0,7.5-8.09,9.91-13.2,0,0-11.44,9.4-15.88,9.6a130,130,0,0,0,5.57-18s-3.55,6.84-8.6,9.29c0,0,4.29-13-2.13-19.82,0,0,4.14,8.65-1.54,13.92,0,0-4-13.62-13-23.64,0,0,3.61,7.55,2.88,13.67,0,0-2.56-5.94-11.15-11S244,52.73,234.43,47.83c0,0,6.77,8.38,6,16.11,0,0-8.84-11.54-20.46-16.28s-25.58-11.95-25.58-11.95,10.7,15.62,7.86,26.66c0,0-5.42-17-16.76-23.87,0,0,8.64,11.36,6.83,24.46A83.45,83.45,0,0,0,180.12,51.3c-7.12-5.47-17.36-5.87-23.37-14.06a80.52,80.52,0,0,0,8,13.43,36.38,36.38,0,0,1,6.43,15.15s-13.66-8.27-23.65-18.31-33.33-13.66-33.33-13.66,25.82,8.83,31.2,22.86c0,0-22.39-11.29-41.62-10A68.54,68.54,0,0,1,119.9,59.36c7.36,8,17.72,16.89,22.69,20.31a114.93,114.93,0,0,0-26.3-.66c-14.19,1.3-30.14-1.45-38.76-10.79,0,0,5.68,26,44.49,31.92,0,0-40.28,8.57-58.77-4.38,0,0,5.66,19.64,41.08,18.66,0,0-22.14,5.53-29.29,15a34.36,34.36,0,0,1,15.25-3.64c8.17.21,11,5.74,20.22,9,0,0-11.15,5-21.21-.28,0,0,1.42,4.54,8.6,7.88s13.44,11.87,13.44,11.87-13-2.7-16.83-6.67c0,0,.94,5.07,9.56,9.93s12.16,10.43,11.14,16.57-.89,9-.6,17.79c0,0,1.73-16.32,4.76-24.41a240.15,240.15,0,0,1,5.21-30.3,20.15,20.15,0,0,0,5.42,5.23s-2.37-8.71-1.82-14.43c0,0,2.42,3.54,8.32,7,0,0-4.29-15.95,1.2-19.82l2.89-2c9.67-6.84,25.17-1.43,35.78-3,11.09-1.67,32-8.7,42.3-3.14A68.06,68.06,0,0,1,229,114.26c2.19,4,3.92,10.9-1.46,20.23,0,0,5.87-1.8,10.84-9.52,0,0,3.48,10.12-4.7,17.9,0,0,5.81,1.44,12.89-4.16l-4.46,7.13a19.77,19.77,0,0,0,9.11-2.07c.54,1.27,1,2.58,1.54,3.92,1.31,3.65,6.88,7.49,9.22,10.78,8.72,12.29,13.34,27.71,9.67,43,0,0-5.94,18.14-7.26,26.62,0,0,7-14.66,14.27-23.26,0,0,4.39-11.14,7.73-13.34s10-2.33,10-2.33,2.05-21,5-40.7S297.31,119,313.43,105.59Z"/><path class="cls-9" d="M276.27,258.94a.57.57,0,0,0,0,1.13.57.57,0,1,0,0-1.13Zm0-1.46a.57.57,0,0,0,0,1.13.57.57,0,1,0,0-1.13Zm0,2.92a.57.57,0,0,0,0,1.13.57.57,0,1,0,0-1.13Zm0-4.38a.57.57,0,0,0,0,1.13.57.57,0,1,0,0-1.13Zm0-1.46a.56.56,0,0,0-.56.56.57.57,0,0,0,.56.57.58.58,0,0,0,.57-.57A.57.57,0,0,0,276.27,254.56Zm0,7.3a.57.57,0,0,0,0,1.13.57.57,0,1,0,0-1.13Zm0,4.39a.56.56,0,0,0,0,1.12.56.56,0,1,0,0-1.12ZM276.05,244a.85.85,0,0,0,.22,0,.55.55,0,0,0,.54-.42.93.93,0,0,0,.28-1.07,1.22,1.22,0,0,0-2.12,1A1,1,0,0,0,276.05,244Zm.22,20.82a.57.57,0,0,0-.56.57.56.56,0,0,0,.56.56.57.57,0,0,0,.57-.56A.58.58,0,0,0,276.27,264.78Zm0-1.46a.57.57,0,0,0-.56.57.56.56,0,0,0,.56.56.57.57,0,0,0,.57-.56A.58.58,0,0,0,276.27,263.32Zm0-10.22a.56.56,0,0,0-.56.56.57.57,0,0,0,.56.57.58.58,0,0,0,.57-.57A.57.57,0,0,0,276.27,253.1Zm0-8.77a.57.57,0,0,0-.56.57.56.56,0,0,0,.56.56.57.57,0,0,0,.57-.56A.58.58,0,0,0,276.27,244.33Zm0,1.46a.57.57,0,0,0-.56.57.56.56,0,0,0,.56.56.57.57,0,0,0,.57-.56A.58.58,0,0,0,276.27,245.79Zm4,33.77-4-10.73a.56.56,0,1,0-.58-.56.56.56,0,0,0,.55.56l-4,10.73,0,.1,4.06,10.88,4.06-10.88Zm-4-32.31a.57.57,0,0,0-.56.57.56.56,0,0,0,.56.56.57.57,0,0,0,.57-.56A.58.58,0,0,0,276.27,247.25Zm0,4.39a.56.56,0,0,0-.56.56.57.57,0,0,0,.56.57.58.58,0,0,0,.57-.57A.57.57,0,0,0,276.27,251.64Zm0-1.46a.56.56,0,0,0-.56.56.57.57,0,0,0,.56.57.58.58,0,0,0,.57-.57A.57.57,0,0,0,276.27,250.18Zm0-1.46a.56.56,0,0,0,0,1.12.56.56,0,1,0,0-1.12ZM132.63,268.83a.56.56,0,1,0-.58-.56.56.56,0,0,0,.54.56l-4,10.73,0,.1,4.06,10.88,4.06-10.88,0-.1Zm0-1.46a.56.56,0,1,0,0-1.12.56.56,0,0,0,0,1.12Zm0-1.46a.57.57,0,0,0,.57-.56.58.58,0,0,0-.57-.57.57.57,0,0,0-.56.57A.56.56,0,0,0,132.61,265.91Z"/></g></g></svg>